<svg width="81" height="48" viewBox="0 0 81 48" fill="none" xmlns="http://www.w3.org/2000/svg">
<path fill-rule="evenodd" clip-rule="evenodd" d="M14.5798 22.9408C13.8657 22.3479 12.882 22.1862 11.9792 22.3344C11.1437 22.4557 10.4161 22.9812 9.8771 23.628C9.31116 24.3017 9.04166 25.1641 8.85301 26.0131C8.65089 26.9428 8.65089 27.8995 8.85301 28.8293C9.05513 29.7591 9.37853 30.7023 10.0253 31.4165C10.5508 32.0363 11.3054 32.4541 12.1005 32.5484C12.8955 32.6427 13.7444 32.5349 14.4047 32.0498C14.9302 31.6725 15.2805 31.1066 15.55 30.5271C16.0216 29.5165 16.1833 28.3981 16.1699 27.2932C16.1699 26.4577 16.0351 25.6223 15.7926 24.8273C15.5366 24.1131 15.1458 23.4394 14.5664 22.9408H14.5798Z" fill="white"/>
<path fill-rule="evenodd" clip-rule="evenodd" d="M32.8113 10.9886C32.6901 10.3552 32.434 9.74887 32.0702 9.20987C31.1809 7.87586 29.6313 7.02694 28.0412 7.01347H5.09349C4.824 7.01347 4.54102 7.01347 4.27153 7.05389C3.40913 7.16169 2.57369 7.52551 1.88647 8.06451C0.997128 8.7652 0.350333 9.77582 0.12126 10.8942C-0.0134888 11.5141 0.013461 12.1474 0.013461 12.7672V34.2732C0.013461 34.7717 -1.39019e-05 35.2568 0.0673605 35.7554C0.161685 36.3618 0.350333 36.9412 0.646781 37.4667C1.45527 38.9489 3.07226 39.9596 4.75662 39.9865H27.7583C28.7823 40.0404 29.8199 39.744 30.6688 39.178C31.7333 38.4773 32.5284 37.3454 32.7979 36.0923C32.9461 35.432 32.9057 34.7448 32.9191 34.071V12.4169C32.9191 11.9318 32.9191 11.4467 32.8248 10.9751L32.8113 10.9886ZM14.5798 11.1368H17.2074V19.0735C16.4259 18.5749 15.5096 18.2515 14.5798 18.265V11.1368ZM13.933 35.8632C12.9359 35.8632 11.9253 35.7823 10.9955 35.4051C10.6182 35.2434 10.2679 35.0547 9.93098 34.8256C9.62106 34.61 9.32461 34.381 9.12249 34.0576C8.98774 33.842 8.82604 33.6264 8.74519 33.3703C8.79909 33.8824 8.67781 34.4349 8.35442 34.8391C7.96364 35.3242 7.35727 35.5802 6.75091 35.7015C6.06369 35.8497 5.34952 35.8632 4.64882 35.8093C4.62187 33.2625 4.64882 30.7158 4.64882 28.169V11.1098H8.98774C8.98774 14.5325 8.98774 17.9551 8.98774 21.3777C9.12249 21.2429 9.20333 21.0812 9.33808 20.933C10.214 19.8955 11.5075 19.2487 12.8281 19.06C14.0004 18.8848 15.2266 18.9522 16.3316 19.4238C17.6386 19.9763 18.7031 21.0408 19.4173 22.267C19.9293 23.1833 20.2527 24.1939 20.4683 25.218C20.8726 27.1315 20.7244 29.1527 20.118 30.9988C19.835 31.9285 19.3769 32.8179 18.757 33.5725C18.2315 34.1923 17.6521 34.7717 16.9379 35.1625C16.0216 35.6745 14.9706 35.8767 13.933 35.8632ZM28.1625 28.735C28.0412 29.7052 27.7987 30.6484 27.4618 31.5647C27.1519 32.3867 26.6803 33.1413 26.1008 33.8015C25.6023 34.3675 25.0363 34.8795 24.3626 35.2164C23.4732 35.688 22.4491 35.8632 21.452 35.8632C20.2393 35.8632 18.9592 35.7419 17.8946 35.0951C18.501 34.5831 19.04 34.0171 19.4981 33.3703C20.3471 33.6803 21.3038 33.7207 22.1797 33.4647C22.8803 33.2625 23.4867 32.8044 23.9449 32.2385C24.4569 31.5917 24.7803 30.8236 24.9959 30.042C25.2924 28.9371 25.3732 27.7648 25.2924 26.6194C25.2115 25.5684 24.9824 24.5173 24.5243 23.5606C24.1605 22.8195 23.6349 22.1458 22.9208 21.728C21.9236 21.1486 20.6839 21.1082 19.6059 21.4585C19.2017 20.8656 18.7436 20.3267 18.218 19.8416C19.1478 19.3026 20.2258 18.9926 21.3038 18.9926C22.9073 18.9657 24.4839 19.6125 25.6562 20.7039C26.3838 21.3642 26.9632 22.1997 27.354 23.1025C28.0951 24.8812 28.3916 26.835 28.1625 28.7485V28.735Z" fill="white"/>
<path fill-rule="evenodd" clip-rule="evenodd" d="M44.6693 16.0416C44.4941 15.058 44.1033 14.0743 43.3622 13.3601C42.5941 12.5247 41.3679 12.2552 40.2764 12.4438C39.4545 12.6055 38.6056 12.9828 38.1205 13.724V7.98366H35.6546C35.6546 12.646 35.6546 17.2948 35.6546 21.9436C36.3014 21.9571 37.002 21.9436 37.541 21.5663C37.851 21.3507 37.9722 20.9869 37.9992 20.6366C38.2013 21.0139 38.5112 21.3238 38.902 21.5124C39.7105 21.9975 40.6942 22.038 41.6105 21.9167C42.6211 21.7685 43.4969 21.0678 43.9955 20.1919C44.6962 18.9387 44.8983 17.443 44.6558 16.0416H44.6693ZM41.4083 19.6125C40.6537 20.3671 39.2793 20.1784 38.6595 19.3295C38.0396 18.4536 37.8644 17.2948 38.1205 16.2572C38.2822 15.4218 38.7942 14.6133 39.6296 14.3573C40.1552 14.1956 40.775 14.263 41.2062 14.6133C41.7317 15.031 42.0551 15.6643 42.136 16.3246C42.3381 17.443 42.1899 18.7366 41.3949 19.6125H41.4083Z" fill="white"/>
<path fill-rule="evenodd" clip-rule="evenodd" d="M44.777 7.98366H47.243V10.0588H44.777C44.777 9.37157 44.777 8.67088 44.777 7.98366Z" fill="white"/>
<path fill-rule="evenodd" clip-rule="evenodd" d="M57.4704 20.8522V12.6729C56.891 12.6595 56.2846 12.6864 55.7725 12.9829C55.4222 13.1715 55.1797 13.4949 55.0853 13.8857C54.5194 12.6729 53.0237 12.2283 51.784 12.4573C50.5039 12.6325 49.4933 13.6296 49.0216 14.7885C48.5904 15.7722 48.6039 16.8636 48.6982 17.9012C48.806 19.06 49.3585 20.2323 50.3556 20.8791C51.2046 21.4451 52.2691 21.5394 53.2527 21.3777C54.0343 21.243 54.7485 20.7444 55.1258 20.0437C55.0988 20.6096 55.1527 21.1891 55.0988 21.7685C55.0045 22.4557 54.5733 23.1968 53.8591 23.3585C53.2393 23.4933 52.5521 23.4528 51.9861 23.1294C51.6627 22.9408 51.4741 22.5904 51.3663 22.2401C50.5443 22.2401 49.7358 22.2401 48.9138 22.2401C48.9677 23.089 49.4528 23.8975 50.167 24.3691C51.245 25.1507 52.6598 25.245 53.94 25.0968C55.2336 24.9485 56.5541 24.2344 57.12 22.9947C57.3895 22.3209 57.5108 21.5933 57.4973 20.8657L57.4704 20.8522ZM54.7754 18.5345C54.3712 19.2891 53.4549 19.7203 52.6194 19.5182C51.6897 19.343 51.2046 18.3593 51.1237 17.4969C51.0968 16.7558 51.0563 15.9608 51.4336 15.3005C51.6492 14.8424 52.067 14.492 52.5521 14.3708C53.3066 14.1552 54.2499 14.4112 54.6541 15.1254C55.2201 16.1494 55.247 17.47 54.7754 18.548V18.5345Z" fill="white"/>
<path fill-rule="evenodd" clip-rule="evenodd" d="M45.4104 12.6729H47.8763V21.9841H45.4104V12.6729Z" fill="white"/>
<path fill-rule="evenodd" clip-rule="evenodd" d="M43.8338 33.5725C43.7934 32.3732 43.4565 31.12 42.6076 30.2442C41.6913 29.2875 40.2225 28.9775 38.9828 29.3953C38.3361 29.6109 37.7971 30.0825 37.4332 30.6619C37.4332 28.7215 37.4332 26.7677 37.4332 24.8273H35.8567V38.639C36.2609 38.639 36.7325 38.7199 37.0425 38.41C37.312 38.1809 37.3524 37.8036 37.3389 37.4667C37.6219 37.9383 37.9857 38.3695 38.4843 38.6121C40.0339 39.3262 42.0686 38.7468 42.9445 37.2646C43.6317 36.1731 43.8608 34.8526 43.8473 33.5725H43.8338ZM41.7048 36.4291C41.341 37.0759 40.6403 37.5341 39.8991 37.5206C39.0637 37.561 38.2283 37.1164 37.7971 36.3887C37.3524 35.6476 37.285 34.7448 37.3389 33.8959C37.3928 33.1009 37.5006 32.2789 37.9318 31.5917C38.2148 31.12 38.6864 30.7697 39.2254 30.6619C40.0474 30.5002 41.0176 30.6888 41.57 31.3626C42.1225 32.0363 42.2303 32.9392 42.2572 33.7746C42.2572 34.6774 42.1629 35.6207 41.7048 36.4291Z" fill="white"/>
<path fill-rule="evenodd" clip-rule="evenodd" d="M61.4051 24.8138H62.8738V33.5725C63.9518 32.508 65.0298 31.4569 66.1078 30.4059C66.4581 30.0286 66.9298 29.7321 67.4553 29.7591C67.7922 29.7456 68.0751 29.9612 68.3312 30.1499C67.334 31.174 66.2964 32.1576 65.2724 33.1548C66.4851 35.0817 67.7248 36.9951 68.951 38.922H66.9702C66.0269 37.3859 65.0837 35.8497 64.1405 34.3001C63.7093 34.6774 63.2915 35.0682 62.8603 35.4455C62.8603 36.6043 62.8603 37.7632 62.8603 38.9085H61.3916V24.8138H61.4051Z" fill="white"/>
<path fill-rule="evenodd" clip-rule="evenodd" d="M77.9927 24.8138H79.5153V29.6109C79.933 29.6648 80.4047 29.7591 80.7011 30.0825C80.9167 30.2981 80.9706 30.608 80.9976 30.9045H79.5018V36.766C79.5018 37.0086 79.5557 37.305 79.7983 37.4263C80.1621 37.6149 80.5798 37.5071 80.9841 37.5341V38.7738C80.243 38.8412 79.4479 39.0702 78.7607 38.6929C78.1948 38.4234 78.0061 37.7497 77.9927 37.1703C77.9927 35.0817 77.9927 32.9931 77.9927 30.9045H76.753V29.6243H77.9927V24.8138Z" fill="white"/>
<path fill-rule="evenodd" clip-rule="evenodd" d="M52.0939 37.4937C51.8109 37.3589 51.8379 37.0221 51.8244 36.766V31.6456C51.8244 31.0796 51.5953 30.5137 51.1911 30.1094C50.5039 29.4761 49.5472 29.274 48.6443 29.2201C47.5933 29.2066 46.4479 29.3279 45.626 30.0421C45.0061 30.5676 44.7771 31.403 44.7232 32.1846C45.1274 32.2385 45.5586 32.1846 45.9089 31.942C46.3536 31.6725 46.4749 31.0931 46.9196 30.8101C47.5394 30.4059 48.3479 30.4463 49.0486 30.5676C49.6145 30.6619 50.2209 31.0392 50.3287 31.659C50.4096 32.1037 50.3826 32.6831 49.9514 32.9392C49.5067 33.1143 49.0082 33.0874 48.55 33.1682C47.5259 33.3299 46.421 33.2895 45.5047 33.842C44.009 34.7044 43.8338 37.1299 45.1543 38.2348C46.0167 38.949 47.243 39.0298 48.294 38.7603C49.1294 38.5717 49.8436 38.0461 50.4096 37.4128C50.45 37.8305 50.5578 38.3156 50.962 38.5582C51.528 38.9085 52.2556 38.8546 52.862 38.6256V37.4937C52.6194 37.4937 52.3499 37.561 52.1074 37.4937H52.0939ZM50.2613 35.8363C49.9918 36.7795 49.0351 37.332 48.1323 37.5206C47.4316 37.6554 46.5288 37.6284 46.0976 36.9547C45.7742 36.3618 45.7338 35.4724 46.3132 35.0278C46.8791 34.5831 47.6472 34.5696 48.3344 34.4618C48.9947 34.3405 49.6954 34.2867 50.3018 33.9902C50.2748 34.61 50.3557 35.2299 50.2613 35.8363Z" fill="white"/>
<path fill-rule="evenodd" clip-rule="evenodd" d="M54.1151 30.0825C54.8158 29.4626 55.7726 29.2336 56.6888 29.2201C57.4973 29.2201 58.3328 29.3548 59.0065 29.813C59.6937 30.2711 60.1384 31.0392 60.2058 31.8477C59.7476 31.9285 59.2626 31.8477 58.8718 31.5917C58.4406 31.3491 58.2115 30.8371 57.7129 30.7293C56.9314 30.5271 56.0421 30.4867 55.3144 30.891C54.8428 31.147 54.6272 31.7803 54.8428 32.2654C55.0449 32.6292 55.4761 32.764 55.8534 32.8852C56.6754 33.1143 57.4973 33.3299 58.3328 33.5455C58.9931 33.7342 59.6937 33.9902 60.1249 34.5427C60.5427 35.0817 60.5561 35.7958 60.4618 36.4426C60.3136 37.3185 59.6937 38.0731 58.9122 38.4504C57.942 38.9489 56.8236 38.9624 55.7726 38.8142C54.9775 38.6929 54.169 38.383 53.657 37.7362C53.1719 37.1568 53.0237 36.3887 52.9698 35.6611C53.4818 35.6611 53.9804 35.6611 54.4924 35.6611C54.5329 36.1731 54.6676 36.7121 55.0853 37.049C55.6782 37.5206 56.4732 37.561 57.2009 37.5341C57.7534 37.4802 58.3597 37.3185 58.7101 36.8469C58.9392 36.5504 58.9931 36.1327 58.8987 35.7689C58.764 35.3377 58.3058 35.149 57.9151 35.0278C56.9314 34.7313 55.9208 34.5427 54.9371 34.2462C54.2364 34.0306 53.5492 33.5186 53.3471 32.7774C53.118 31.8342 53.374 30.7562 54.1017 30.0959L54.1151 30.0825Z" fill="white"/>
<path fill-rule="evenodd" clip-rule="evenodd" d="M72.7509 37.5206C72.0367 37.5476 71.2552 37.3454 70.7701 36.793C70.2041 36.1866 70.0694 35.3242 70.0559 34.5292C72.2793 34.5292 74.4892 34.5292 76.7125 34.5292C76.6856 33.047 76.47 31.4165 75.4324 30.2846C74.6778 29.4222 73.4651 29.1123 72.3601 29.2336C71.336 29.3009 70.3119 29.7187 69.6247 30.5137C68.7219 31.5378 68.412 32.9661 68.4255 34.3001C68.412 35.4724 68.7219 36.6987 69.5035 37.6015C70.1772 38.41 71.2282 38.8546 72.2658 38.8951C73.1686 38.922 74.1523 38.8412 74.9069 38.2887C75.8097 37.7227 76.4161 36.7526 76.5912 35.7015H75.0686C74.853 36.7526 73.8289 37.5341 72.7779 37.5206H72.7509ZM70.9587 31.2683C71.8885 30.3655 73.5729 30.3924 74.4218 31.3761C74.8665 31.9151 75.0147 32.6158 75.0821 33.303C74.0041 33.303 72.9261 33.303 71.8346 33.303C71.2013 33.2491 70.5006 33.3434 70.0559 33.842C69.9751 32.9122 70.2446 31.9151 70.9587 31.2683Z" fill="white"/>
</svg>
