<svg width="109" height="25" viewBox="0 0 109 25" fill="none" xmlns="http://www.w3.org/2000/svg">
<g clip-path="url(#clip0_2525_3560)">
<path d="M0.0742188 9.19088H10.0284H16.079V3.19812L0.0742188 9.19088Z" fill="#6C7180"/>
<path d="M16.0781 3.1982V24.3666L23.6388 0.366577L16.0781 3.1982Z" fill="#6C7180"/>
<path d="M16.078 9.19458H10.0273L16.078 24.3666V9.19458Z" fill="#6C7180"/>
<path d="M0.0742188 9.19092L11.5781 13.0871L10.0247 9.19454H0.0742188V9.19092Z" fill="#6C7180"/>
<path d="M36.7415 18.7938C36.6546 18.8807 36.5062 18.9894 36.3034 19.1233C36.097 19.2537 35.8327 19.3877 35.5032 19.518C35.1736 19.6484 34.7717 19.7643 34.2974 19.8584C33.823 19.9525 33.2762 19.9996 32.6643 19.9996C31.4802 19.9996 30.4591 19.8077 29.5937 19.4311C28.7319 19.0509 28.0185 18.5222 27.4573 17.8415C26.896 17.1608 26.4832 16.3569 26.2189 15.4299C25.9546 14.5029 25.8242 13.4818 25.8242 12.3702C25.8242 11.2585 25.9654 10.2338 26.2515 9.28869C26.5376 8.34723 26.9648 7.53251 27.5333 6.84451C28.1018 6.15652 28.8152 5.62062 29.6697 5.23317C30.5243 4.84572 31.5309 4.65381 32.6824 4.65381C33.2509 4.65381 33.7687 4.7045 34.2286 4.80589C34.6884 4.90728 35.0904 5.03039 35.4344 5.16799C35.7784 5.30559 36.0608 5.45405 36.2889 5.60613C36.5134 5.75821 36.6872 5.88857 36.8031 5.98996C36.9335 6.10583 37.0457 6.24705 37.1435 6.40637C37.2376 6.5657 37.2847 6.74313 37.2847 6.93142C37.2847 7.22472 37.1761 7.5144 36.9552 7.8077C36.7343 8.101 36.4953 8.36896 36.231 8.61881C36.0572 8.445 35.858 8.26395 35.6408 8.0829C35.4199 7.90185 35.1773 7.7389 34.9057 7.6013C34.6341 7.46371 34.33 7.34421 33.986 7.25007C33.642 7.15592 33.2581 7.10885 32.8345 7.10885C32.0886 7.10885 31.4657 7.25731 30.9588 7.55785C30.4555 7.8584 30.0499 8.24946 29.7421 8.73106C29.4344 9.21265 29.2171 9.76666 29.0831 10.3859C28.9528 11.0087 28.8876 11.6387 28.8876 12.2833C28.8876 12.9713 28.9528 13.6267 29.0831 14.2567C29.2135 14.8868 29.4416 15.4408 29.7639 15.9224C30.0861 16.404 30.5062 16.7914 31.024 17.0847C31.5418 17.378 32.1899 17.5229 32.9648 17.5229C33.374 17.5229 33.7506 17.4722 34.0946 17.3708C34.4386 17.2694 34.7427 17.1463 35.0035 16.9978C35.2678 16.853 35.4959 16.6973 35.6951 16.5379C35.8906 16.3786 36.0572 16.2374 36.1875 16.1215C36.2744 16.2229 36.3758 16.3496 36.4953 16.4945C36.6148 16.6429 36.7234 16.795 36.8248 16.9544C36.9262 17.1137 37.0131 17.2766 37.0892 17.4359C37.1616 17.5989 37.1978 17.7437 37.1978 17.8741C37.1978 18.066 37.1616 18.2253 37.0892 18.3557C37.0167 18.486 36.8972 18.6345 36.7379 18.7938H36.7415ZM48.0391 17.1137C48.0391 18.276 48.2093 19.1197 48.546 19.6484C48.2817 19.7498 48.0354 19.8258 47.8073 19.8693C47.5792 19.9127 47.3402 19.9344 47.0904 19.9344C46.5617 19.9344 46.1598 19.833 45.8882 19.6267C45.6166 19.4203 45.4428 19.127 45.3704 18.7431C45.0481 19.0835 44.6208 19.3696 44.0922 19.6049C43.5635 19.8403 42.9153 19.9562 42.1513 19.9562C41.753 19.9562 41.3583 19.9018 40.96 19.7896C40.5617 19.681 40.2032 19.4999 39.8773 19.2501C39.5551 19.0002 39.2907 18.6671 39.0843 18.2507C38.8779 17.8343 38.7765 17.3237 38.7765 16.7226C38.7765 15.9767 38.9576 15.3647 39.3161 14.8976C39.6782 14.4269 40.1272 14.0576 40.6739 13.786C41.2171 13.5144 41.8073 13.3297 42.4374 13.2247C43.071 13.1233 43.6504 13.0582 44.1791 13.0256C44.3565 13.0111 44.5267 13.0038 44.6969 13.0038H45.1712V12.6019C45.1712 12.037 45.0191 11.6351 44.7186 11.3961C44.4181 11.1571 43.9292 11.0376 43.2521 11.0376C42.6184 11.0376 42.0572 11.139 41.5647 11.3454C41.0723 11.5518 40.5907 11.7872 40.1199 12.0515C39.9135 11.8017 39.747 11.5265 39.6239 11.2259C39.5007 10.9254 39.4356 10.7009 39.4356 10.5524C39.4356 10.346 39.5478 10.1469 39.7759 9.95858C40.0041 9.76666 40.3155 9.59648 40.7138 9.44077C41.1121 9.28507 41.5647 9.16196 42.0825 9.06419C42.5967 8.97004 43.1398 8.91935 43.7156 8.91935C44.5086 8.91935 45.1821 8.99901 45.7325 9.16196C46.2829 9.3249 46.7319 9.57475 47.0759 9.9115C47.4199 10.2519 47.6661 10.6719 47.8146 11.1789C47.963 11.6858 48.0354 12.2796 48.0354 12.9531V17.0992L48.0391 17.1137ZM45.2147 14.5536H44.9069C44.8019 14.5536 44.7005 14.5609 44.5991 14.5754C44.2298 14.6043 43.8677 14.6478 43.5056 14.7093C43.1435 14.7673 42.8248 14.8723 42.546 15.0171C42.2672 15.1656 42.0391 15.3539 41.8616 15.5892C41.6842 15.8246 41.5973 16.1251 41.5973 16.4945C41.5973 16.9073 41.7168 17.2549 41.9485 17.541C42.1839 17.827 42.5822 17.9719 43.1398 17.9719C43.4187 17.9719 43.683 17.9356 43.9328 17.8632C44.1827 17.7908 44.4036 17.693 44.5955 17.5772C44.7874 17.4577 44.9359 17.3309 45.0481 17.1897C45.1567 17.0521 45.2147 16.9218 45.2147 16.8023V14.5536ZM53.5285 10.2084C53.7639 9.92961 54.1296 9.64717 54.6293 9.36111C55.129 9.07505 55.759 8.93021 56.5195 8.93021C57.0626 8.93021 57.5768 9.02074 58.0692 9.20541C58.5581 9.39008 58.9962 9.687 59.3764 10.0998C59.7566 10.5126 60.0608 11.0557 60.2889 11.7329C60.517 12.41 60.6293 13.2392 60.6293 14.2241C60.6293 15.372 60.4989 16.3171 60.2346 17.0594C59.9703 17.8017 59.6299 18.3919 59.2135 18.8228C58.7971 19.2573 58.33 19.5615 57.8158 19.7389C57.3016 19.9163 56.791 20.0032 56.2768 20.0032C55.8532 20.0032 55.4802 19.9562 55.1652 19.8584C54.8502 19.7643 54.5822 19.6556 54.3613 19.5398C54.1405 19.4239 53.9739 19.3044 53.8544 19.1885C53.7385 19.0726 53.6625 18.9894 53.6335 18.9459V24.3665H50.6353V9.238C50.7077 9.22351 50.7983 9.20903 50.9033 9.19455C50.9938 9.18006 51.0952 9.1692 51.2147 9.16196C51.3342 9.15472 51.4754 9.15109 51.6347 9.15109C52.1236 9.15109 52.54 9.23076 52.8803 9.3937C53.2207 9.55665 53.438 9.82822 53.5249 10.2084H53.5285ZM57.4971 14.2893C57.4971 13.8475 57.4609 13.4384 57.3885 13.0545C57.3161 12.6707 57.193 12.3412 57.0264 12.0624C56.8598 11.7836 56.6317 11.5663 56.3456 11.4106C56.0596 11.2549 55.712 11.1789 55.3028 11.1789C54.6872 11.1789 54.2599 11.2983 54.021 11.5301C53.782 11.7655 53.6589 12.0225 53.6589 12.3014V16.9761C53.7747 17.0956 53.9848 17.2332 54.2853 17.3961C54.5858 17.5591 54.9335 17.6387 55.3281 17.6387C56.0741 17.6387 56.6208 17.3454 56.9721 16.7552C57.3233 16.1686 57.4971 15.343 57.4971 14.2857V14.2893ZM62.9467 18.0841C62.8417 17.7908 62.7765 17.483 62.7476 17.1571C62.7186 16.8349 62.7041 16.509 62.7041 16.1867V5.95375C62.8055 5.93926 62.9178 5.92478 63.0336 5.9103C63.135 5.89581 63.2473 5.88495 63.3631 5.87771C63.479 5.87047 63.5985 5.86684 63.7144 5.86684C63.9497 5.86684 64.1851 5.88857 64.4205 5.93202C64.6558 5.97547 64.8695 6.066 65.0614 6.19636C65.2533 6.33033 65.4054 6.50776 65.5249 6.73588C65.6444 6.96401 65.7023 7.26093 65.7023 7.63027V9.19455H68.791V11.4215H65.7023V16.1251C65.7023 17.1499 66.1223 17.6641 66.9588 17.6641C67.1652 17.6641 67.3607 17.6315 67.5418 17.5663C67.7265 17.5011 67.8894 17.4287 68.0379 17.3454C68.1863 17.2658 68.3131 17.1789 68.4253 17.092C68.5339 17.005 68.6136 16.9362 68.657 16.8928C68.8779 17.2151 69.0481 17.4975 69.164 17.7329C69.2799 17.9682 69.3414 18.1927 69.3414 18.3991C69.3414 18.591 69.2654 18.783 69.1097 18.9676C68.954 19.1523 68.7367 19.3225 68.4579 19.4782C68.1791 19.6339 67.8387 19.7606 67.444 19.8548C67.0457 19.9525 66.6148 19.9996 66.1441 19.9996C65.2316 19.9996 64.5219 19.8222 64.0149 19.471C63.508 19.1197 63.1495 18.6562 62.9467 18.0805V18.0841ZM76.3879 17.7944C76.7572 17.7944 77.0795 17.7546 77.3619 17.6749C77.6408 17.5953 77.8942 17.4939 78.1151 17.378C78.336 17.2621 78.5279 17.1318 78.6908 16.9906C78.8538 16.8493 79.0023 16.7226 79.1326 16.6031C79.31 16.824 79.4947 17.1064 79.6866 17.4504C79.8785 17.798 79.9727 18.0805 79.9727 18.3014C79.9727 18.6236 79.788 18.9206 79.4223 19.1849C79.1145 19.4203 78.6764 19.623 78.1115 19.7932C77.5466 19.9634 76.8803 20.0467 76.1163 20.0467C75.4247 20.0467 74.7439 19.9598 74.0777 19.7824C73.4078 19.6049 72.814 19.2971 72.2925 18.8554C71.7711 18.4136 71.3475 17.8234 71.0252 17.0811C70.7029 16.3388 70.54 15.4009 70.54 14.2676C70.54 13.3406 70.6848 12.544 70.9709 11.8741C71.2569 11.2042 71.6408 10.6502 72.1187 10.2084C72.5967 9.76666 73.1362 9.44439 73.7409 9.238C74.342 9.0316 74.9612 8.93021 75.5949 8.93021C76.4169 8.93021 77.1157 9.06057 77.6915 9.31766C78.2636 9.57475 78.7307 9.92237 79.0928 10.3533C79.4513 10.7878 79.712 11.2839 79.8749 11.8415C80.0379 12.3991 80.1175 12.9894 80.1175 13.6049V13.9127C80.1175 14.0322 80.1139 14.1553 80.1067 14.2893C80.0994 14.4233 80.0922 14.55 80.0849 14.6767C80.0777 14.8035 80.0668 14.9012 80.0523 14.9737H73.5454C73.6033 15.7811 73.8568 16.4547 74.2986 16.9906C74.7403 17.5265 75.4428 17.7944 76.4024 17.7944H76.3879ZM77.3909 13.3189C77.3909 12.6128 77.2533 12.0407 76.9817 11.5989C76.7065 11.1571 76.2177 10.9362 75.508 10.9362C74.9033 10.9362 74.4181 11.1463 74.056 11.5663C73.6939 11.9863 73.5128 12.5693 73.5128 13.3189H77.3945H77.3909ZM85.3245 10.2664C85.4114 10.136 85.5309 9.98755 85.6758 9.82822C85.8242 9.6689 86.0016 9.52044 86.2153 9.39008C86.4289 9.25972 86.6643 9.14747 86.9214 9.06057C87.1785 8.97366 87.4537 8.93021 87.747 8.93021C87.9244 8.93021 88.1091 8.9447 88.3082 8.97366C88.5074 9.00263 88.6921 9.05695 88.8586 9.13661C89.0288 9.21627 89.1628 9.3249 89.2678 9.46612C89.3692 9.60372 89.4235 9.77753 89.4235 9.9803C89.4235 10.3026 89.3438 10.6683 89.1809 11.0847C89.0179 11.5011 88.8586 11.856 88.6957 12.1493C88.4458 11.9429 88.196 11.7872 87.9461 11.6749C87.6963 11.5663 87.403 11.5084 87.0626 11.5084C86.6064 11.5084 86.2262 11.6423 85.9147 11.9067C85.607 12.171 85.4513 12.4897 85.4513 12.859V19.9996H82.4531V9.238C82.5255 9.22351 82.616 9.20903 82.7174 9.19455C82.8043 9.18006 82.9093 9.1692 83.0252 9.16196C83.1411 9.15472 83.2823 9.15109 83.4452 9.15109C83.916 9.15109 84.3251 9.24162 84.6691 9.42267C85.0131 9.60372 85.2304 9.88616 85.3209 10.2627L85.3245 10.2664ZM93.852 10.2664C93.9389 10.136 94.0584 9.98755 94.2032 9.82822C94.3517 9.6689 94.5291 9.52044 94.7427 9.39008C94.9564 9.25972 95.1918 9.14747 95.4488 9.06057C95.7059 8.97366 95.9811 8.93021 96.2744 8.93021C96.4519 8.93021 96.6365 8.9447 96.8357 8.97366C97.0348 9.00263 97.2195 9.05695 97.3861 9.13661C97.5563 9.21627 97.6902 9.3249 97.7952 9.46612C97.8966 9.60372 97.951 9.77753 97.951 9.9803C97.951 10.3026 97.8713 10.6683 97.7084 11.0847C97.5454 11.5011 97.3861 11.856 97.2231 12.1493C96.9733 11.9429 96.7234 11.7872 96.4736 11.6749C96.2237 11.5663 95.9304 11.5084 95.5901 11.5084C95.1338 11.5084 94.7536 11.6423 94.4422 11.9067C94.1344 12.171 93.9787 12.4897 93.9787 12.859V19.9996H90.9805V9.238C91.0529 9.22351 91.1435 9.20903 91.2449 9.19455C91.3318 9.18006 91.4368 9.1692 91.5526 9.16196C91.6685 9.15472 91.8097 9.15109 91.9727 9.15109C92.4434 9.15109 92.8526 9.24162 93.1966 9.42267C93.5406 9.60372 93.7578 9.88616 93.8484 10.2627L93.852 10.2664ZM108.166 17.1137C108.166 18.276 108.336 19.1197 108.673 19.6484C108.408 19.7498 108.162 19.8258 107.934 19.8693C107.706 19.9127 107.467 19.9344 107.217 19.9344C106.688 19.9344 106.287 19.833 106.015 19.6267C105.743 19.4203 105.57 19.127 105.497 18.7431C105.175 19.0835 104.748 19.3696 104.219 19.6049C103.69 19.8403 103.042 19.9562 102.278 19.9562C101.88 19.9562 101.485 19.9018 101.087 19.7896C100.688 19.681 100.33 19.4999 100.008 19.2501C99.6854 19.0002 99.4211 18.6671 99.2147 18.2507C99.0083 17.8343 98.9069 17.3237 98.9069 16.7226C98.9069 15.9767 99.0879 15.3647 99.4464 14.8976C99.8049 14.4269 100.258 14.0576 100.804 13.786C101.347 13.5144 101.938 13.3297 102.568 13.2247C103.201 13.1233 103.781 13.0582 104.309 13.0256C104.487 13.0111 104.657 13.0038 104.827 13.0038H105.302V12.6019C105.302 12.037 105.15 11.6351 104.849 11.3961C104.548 11.1571 104.06 11.0376 103.382 11.0376C102.749 11.0376 102.188 11.139 101.695 11.3454C101.203 11.5518 100.721 11.7872 100.25 12.0515C100.044 11.8017 99.8773 11.5265 99.7542 11.2259C99.6311 10.9254 99.5659 10.7009 99.5659 10.5524C99.5659 10.346 99.6782 10.1469 99.9063 9.95858C100.134 9.76666 100.446 9.59648 100.844 9.44077C101.242 9.28507 101.695 9.16196 102.213 9.06419C102.727 8.97004 103.27 8.91935 103.846 8.91935C104.639 8.91935 105.312 8.99901 105.863 9.16196C106.413 9.3249 106.862 9.57475 107.206 9.9115C107.55 10.2519 107.796 10.6719 107.945 11.1789C108.093 11.6858 108.166 12.2796 108.166 12.9531V17.0992V17.1137ZM105.341 14.5536H105.034C104.929 14.5536 104.827 14.5609 104.726 14.5754C104.357 14.6043 103.994 14.6478 103.632 14.7093C103.27 14.7673 102.952 14.8723 102.673 15.0171C102.394 15.1656 102.166 15.3539 101.988 15.5892C101.811 15.8246 101.724 16.1251 101.724 16.4945C101.724 16.9073 101.844 17.2549 102.075 17.541C102.307 17.827 102.709 17.9719 103.267 17.9719C103.545 17.9719 103.81 17.9356 104.06 17.8632C104.309 17.7908 104.53 17.693 104.722 17.5772C104.914 17.4577 105.063 17.3309 105.175 17.1897C105.283 17.0521 105.341 16.9218 105.341 16.8023V14.5536Z" fill="#6C7180"/>
</g>
<defs>
<clipPath id="clip0_2525_3560">
<rect width="108.597" height="24" fill="white" transform="translate(0.0742188 0.366577)"/>
</clipPath>
</defs>
</svg>
