<svg width="143" height="48" viewBox="0 0 143 48" fill="none" xmlns="http://www.w3.org/2000/svg">
<g clip-path="url(#clip0_1587_4206)">
<path fill-rule="evenodd" clip-rule="evenodd" d="M41.9639 20.5707C41.5539 20.0713 41.0502 19.6877 40.4526 19.4202C39.8553 19.1527 39.1644 19.0189 38.3798 19.0189C37.595 19.0189 36.8685 19.1705 36.1997 19.4737C35.5309 19.7769 34.9514 20.2005 34.4608 20.7445C33.9706 21.2886 33.587 21.9351 33.3109 22.6842C33.0344 23.4334 32.8961 24.2449 32.8961 25.1189C32.8961 26.0107 33.0344 26.8267 33.3109 27.5669C33.587 28.3071 33.9662 28.9492 34.4478 29.4932C34.9289 30.0372 35.4954 30.4609 36.146 30.7641C36.797 31.0673 37.497 31.2189 38.2459 31.2189C39.1019 31.2189 39.8596 31.0405 40.5197 30.6838C41.1794 30.3271 41.7233 29.8277 42.1512 29.1856L45.6285 31.7807C44.8262 32.9044 43.8098 33.7339 42.5793 34.2688C41.3488 34.804 40.0828 35.0714 38.7808 35.0714C37.3007 35.0714 35.9366 34.8395 34.6884 34.3758C33.4401 33.9121 32.3613 33.2477 31.4519 32.3827C30.5422 31.5177 29.8335 30.4698 29.3251 29.2391C28.8171 28.0084 28.5627 26.635 28.5627 25.1189C28.5627 23.6028 28.8171 22.2294 29.3251 20.9987C29.8335 19.768 30.5422 18.7201 31.4519 17.8551C32.3613 16.99 33.4401 16.3256 34.6884 15.8619C35.9366 15.3981 37.3007 15.1663 38.7808 15.1663C39.316 15.1663 39.8731 15.2153 40.4526 15.3134C41.0324 15.4115 41.6028 15.5676 42.1646 15.7816C42.7263 15.9956 43.2659 16.281 43.783 16.6378C44.3001 16.9945 44.7638 17.4315 45.1739 17.9487L41.9639 20.5707ZM47.4503 14.3642H51.4625V34.5906H47.4503V14.3642ZM62.5071 32.9581H62.4534C62.0078 33.6537 61.4148 34.153 60.6746 34.4563C59.9347 34.7593 59.1545 34.911 58.3341 34.911C57.7277 34.911 57.1439 34.8261 56.5821 34.6567C56.0204 34.4875 55.5255 34.2332 55.0976 33.8943C54.6695 33.5554 54.3309 33.1363 54.0812 32.6369C53.8316 32.1375 53.7068 31.5578 53.7068 30.8979C53.7068 30.1487 53.8447 29.5155 54.1212 28.9983C54.3977 28.481 54.7722 28.053 55.2446 27.7141C55.7171 27.3752 56.2567 27.1121 56.863 26.9248C57.4694 26.7375 58.0979 26.5993 58.7488 26.5101C59.3995 26.4209 60.0505 26.3674 60.7015 26.3496C61.3524 26.3317 61.9541 26.3229 62.5071 26.3229C62.5071 25.6094 62.2527 25.0431 61.7447 24.6239C61.2363 24.2048 60.6347 23.9952 59.9391 23.9952C59.2794 23.9952 58.6774 24.1334 58.1334 24.4099C57.5895 24.6864 57.1036 25.0654 56.6758 25.547L54.5359 23.3531C55.2849 22.6575 56.1587 22.1358 57.1573 21.788C58.1559 21.4402 59.1901 21.2663 60.2602 21.2663C61.437 21.2663 62.4044 21.4134 63.1624 21.7077C63.9201 22.002 64.5265 22.4346 64.9812 23.0053C65.4358 23.576 65.7526 24.2761 65.9308 25.1055C66.109 25.9349 66.1982 26.8936 66.1982 27.9816V34.5899H62.5071V32.9581ZM61.5202 28.8917C61.2172 28.8917 60.8384 28.9051 60.3833 28.9318C59.9287 28.9586 59.4918 29.0344 59.0727 29.1592C58.6539 29.2841 58.2972 29.4714 58.0029 29.7211C57.7086 29.9708 57.5616 30.3186 57.5616 30.7645C57.5616 31.2461 57.7667 31.6028 58.1767 31.8347C58.5868 32.0666 59.0149 32.1825 59.4606 32.1825C59.8528 32.1825 60.232 32.129 60.5974 32.022C60.9632 31.9149 61.2883 31.7633 61.5739 31.5671C61.8591 31.3709 62.0866 31.1212 62.2558 30.818C62.4252 30.5148 62.5101 30.1581 62.5101 29.7478V28.8917H61.5202ZM76.068 25.4132C75.4794 24.6819 74.7036 24.3163 73.7409 24.3163C73.402 24.3163 73.0721 24.3965 72.751 24.5571C72.4302 24.7176 72.2695 24.994 72.2695 25.3865C72.2695 25.7075 72.4346 25.9438 72.7644 26.0954C73.0943 26.2471 73.5134 26.3808 74.0217 26.4967C74.5298 26.6127 75.0737 26.7375 75.6532 26.8713C76.2327 27.0051 76.7767 27.2147 77.285 27.5C77.7931 27.7854 78.2122 28.1734 78.542 28.6638C78.8722 29.1544 79.037 29.8098 79.037 30.6303C79.037 31.4686 78.8541 32.1597 78.4887 32.7037C78.1233 33.2477 77.6552 33.6849 77.0844 34.0147C76.5136 34.3446 75.8717 34.5765 75.1583 34.7104C74.4452 34.8442 73.7409 34.911 73.0453 34.911C72.1359 34.911 71.2175 34.7818 70.29 34.5231C69.3629 34.2644 68.5783 33.805 67.9364 33.1453L70.3705 30.443C70.745 30.9068 71.1594 31.259 71.6141 31.4998C72.0688 31.7406 72.5993 31.861 73.2057 31.861C73.6694 31.861 74.0885 31.7941 74.463 31.6603C74.8375 31.5266 75.0247 31.2813 75.0247 30.9246C75.0247 30.5857 74.8596 30.3315 74.5298 30.1621C74.1999 29.9926 73.7808 29.85 73.2728 29.734C72.7644 29.6181 72.2205 29.4932 71.641 29.3595C71.0615 29.2257 70.5175 29.025 70.0092 28.7575C69.5011 28.49 69.082 28.1109 68.7522 27.6204C68.4223 27.1299 68.2572 26.4745 68.2572 25.654C68.2572 24.887 68.4132 24.2271 68.7253 23.6742C69.0374 23.1212 69.4474 22.6664 69.9558 22.3097C70.4642 21.953 71.048 21.6899 71.7077 21.5204C72.3678 21.351 73.0362 21.2663 73.714 21.2663C74.57 21.2663 75.4348 21.3911 76.3086 21.6408C77.1824 21.8905 77.9226 22.3364 78.529 22.9786L76.068 25.4132ZM88.4524 25.4132C87.8638 24.6819 87.088 24.3163 86.125 24.3163C85.7864 24.3163 85.4565 24.3965 85.1354 24.5571C84.8143 24.7176 84.6539 24.994 84.6539 25.3865C84.6539 25.7075 84.819 25.9438 85.1488 26.0954C85.4787 26.2471 85.8978 26.3808 86.4058 26.4967C86.9142 26.6127 87.4581 26.7375 88.0377 26.8713C88.6172 27.0051 89.1611 27.2147 89.6695 27.5C90.1775 27.7854 90.5966 28.1734 90.9265 28.6638C91.2563 29.1544 91.4214 29.8098 91.4214 30.6303C91.4214 31.4686 91.2385 32.1597 90.8731 32.7037C90.5074 33.2477 90.0393 33.6849 89.4688 34.0147C88.898 34.3446 88.2561 34.5765 87.5427 34.7104C86.8296 34.8442 86.125 34.911 85.4297 34.911C84.52 34.911 83.6019 34.7818 82.6744 34.5231C81.7473 34.2644 80.9624 33.805 80.3205 33.1453L82.7546 30.443C83.1291 30.9068 83.5439 31.259 83.9985 31.4998C84.4532 31.7406 84.9837 31.861 85.5901 31.861C86.0538 31.861 86.473 31.7941 86.8474 31.6603C87.2219 31.5266 87.4092 31.2813 87.4092 30.9246C87.4092 30.5857 87.2441 30.3315 86.9142 30.1621C86.5844 29.9926 86.1652 29.85 85.6569 29.734C85.1488 29.6181 84.6049 29.4932 84.0254 29.3595C83.4459 29.2257 82.9019 29.025 82.3936 28.7575C81.8855 28.49 81.4664 28.1109 81.1366 27.6204C80.8064 27.1299 80.6416 26.4745 80.6416 25.654C80.6416 24.887 80.7977 24.2271 81.1097 23.6742C81.4218 23.1212 81.8319 22.6664 82.3402 22.3097C82.8483 21.953 83.4325 21.6899 84.0922 21.5204C84.7519 21.351 85.4206 21.2663 86.0985 21.2663C86.9545 21.2663 87.8192 21.3911 88.693 21.6408C89.5668 21.8905 90.3067 22.3364 90.9131 22.9786L88.4524 25.4132ZM93.8545 21.5873H97.546V23.2996H97.5994C97.7598 23.0677 97.9695 22.8314 98.2279 22.5906C98.4866 22.3498 98.7896 22.1313 99.1376 21.9351C99.4852 21.7389 99.8641 21.5784 100.274 21.4535C100.684 21.3287 101.121 21.2663 101.585 21.2663C102.548 21.2663 103.422 21.4313 104.207 21.7612C104.991 22.0912 105.664 22.5549 106.226 23.1524C106.788 23.75 107.22 24.459 107.523 25.2794C107.826 26.0999 107.978 27.0006 107.978 27.9816C107.978 28.8913 107.84 29.7608 107.563 30.5902C107.287 31.4196 106.895 32.1553 106.386 32.7973C105.878 33.4396 105.258 33.9523 104.527 34.3359C103.796 34.7194 102.967 34.911 102.04 34.911C101.202 34.911 100.421 34.7818 99.6993 34.5231C98.9768 34.2644 98.3839 33.8231 97.9205 33.1987H97.8668V40.69H93.8545V21.5873ZM97.5464 28.0888C97.5464 29.0698 97.8272 29.8635 98.3889 30.4699C98.9507 31.0764 99.7399 31.3796 100.756 31.3796C101.773 31.3796 102.562 31.0764 103.124 30.4699C103.685 29.8635 103.966 29.0698 103.966 28.0888C103.966 27.1078 103.685 26.3141 103.124 25.7076C102.562 25.1012 101.773 24.798 100.756 24.798C99.7399 24.798 98.9507 25.1012 98.3889 25.7076C97.8272 26.3141 97.5464 27.1078 97.5464 28.0888ZM110.388 14.3642H114.401V34.5906H110.388V14.3642ZM129.806 34.5909H125.954V32.8252H125.9C125.758 33.0748 125.575 33.3245 125.352 33.5742C125.129 33.8238 124.857 34.047 124.536 34.2429C124.215 34.4392 123.849 34.6 123.439 34.7248C123.029 34.8496 122.583 34.912 122.102 34.912C121.085 34.912 120.261 34.756 119.628 34.4436C118.995 34.1315 118.504 33.699 118.156 33.146C117.809 32.5932 117.577 31.9422 117.461 31.1931C117.345 30.4439 117.287 29.6324 117.287 28.7584V21.5882H121.299V27.9558C121.299 28.3304 121.313 28.7183 121.339 29.1196C121.366 29.5209 121.446 29.891 121.58 30.2299C121.714 30.5688 121.919 30.8453 122.195 31.0593C122.472 31.2733 122.869 31.3803 123.386 31.3803C123.903 31.3803 124.322 31.2867 124.643 31.0994C124.964 30.9121 125.209 30.6625 125.379 30.3503C125.548 30.0382 125.659 29.6859 125.713 29.2935C125.766 28.9011 125.793 28.4909 125.793 28.0628V21.5882H129.806V34.5909ZM139.999 25.4132C139.41 24.6819 138.634 24.3163 137.671 24.3163C137.333 24.3163 137.003 24.3965 136.682 24.5571C136.361 24.7176 136.2 24.994 136.2 25.3865C136.2 25.7075 136.365 25.9438 136.695 26.0954C137.025 26.2471 137.444 26.3808 137.952 26.4967C138.461 26.6127 139.005 26.7375 139.584 26.8713C140.164 27.0051 140.707 27.2147 141.216 27.5C141.724 27.7854 142.143 28.1734 142.473 28.6638C142.803 29.1544 142.968 29.8098 142.968 30.6303C142.968 31.4686 142.785 32.1597 142.419 32.7037C142.054 33.2477 141.586 33.6849 141.015 34.0147C140.444 34.3446 139.802 34.5765 139.089 34.7104C138.376 34.8442 137.671 34.911 136.976 34.911C136.067 34.911 135.148 34.7818 134.221 34.5231C133.294 34.2644 132.509 33.805 131.867 33.1453L134.301 30.443C134.675 30.9068 135.09 31.259 135.545 31.4998C136 31.7406 136.53 31.861 137.136 31.861C137.6 31.861 138.019 31.7941 138.394 31.6603C138.768 31.5266 138.956 31.2813 138.956 30.9246C138.956 30.5857 138.79 30.3315 138.461 30.1621C138.131 29.9926 137.712 29.85 137.203 29.734C136.695 29.6181 136.151 29.4932 135.572 29.3595C134.992 29.2257 134.448 29.025 133.94 28.7575C133.432 28.49 133.013 28.1109 132.683 27.6204C132.353 27.1299 132.188 26.4745 132.188 25.654C132.188 24.887 132.344 24.2271 132.656 23.6742C132.968 23.1212 133.378 22.6664 133.887 22.3097C134.395 21.953 134.979 21.6899 135.639 21.5204C136.298 21.351 136.967 21.2663 137.645 21.2663C138.501 21.2663 139.366 21.3911 140.239 21.6408C141.113 21.8905 141.853 22.3364 142.459 22.9786L139.999 25.4132Z" fill="white"/>
<path fill-rule="evenodd" clip-rule="evenodd" d="M0.702663 31.3056L15.4439 16.6477C15.7346 16.3586 16.2076 16.3601 16.5003 16.6512L22.8599 22.9748C23.738 23.8479 23.7427 25.2589 22.8704 26.1262L8.12919 40.7843C7.83843 41.0732 7.36546 41.0719 7.07276 40.7806L0.713166 34.457C-0.164921 33.5839 -0.169619 32.173 0.702663 31.3056Z" fill="#C0CAD9"/>
<path fill-rule="evenodd" clip-rule="evenodd" d="M13.9108 30.8235L0.661652 17.6492C-0.216435 16.7761 -0.221133 15.3652 0.65115 14.4978L6.96883 8.21583C7.25959 7.92671 7.73256 7.92826 8.02526 8.21929L22.8644 22.9746C23.7425 23.8477 23.7472 25.2586 22.8749 26.126L16.5572 32.4079L14.4513 34.502C15.3236 33.6346 15.3189 32.2236 14.4408 31.3505L13.9108 30.8235Z" fill="white"/>
</g>
<defs>
<clipPath id="clip0_1587_4206">
<rect width="143" height="33" fill="white" transform="translate(0 8)"/>
</clipPath>
</defs>
</svg>
