<svg width="91" height="48" viewBox="0 0 91 48" fill="none" xmlns="http://www.w3.org/2000/svg">
<path d="M9.49932 36.6924L6.81477 37.6523L6.7859 37.5947L8.61889 35.8309C8.40962 35.7349 8.24604 35.6509 8.07766 35.5909C7.35395 35.3258 6.58735 35.1964 5.8165 35.2093C4.61375 35.2093 3.39656 35.2093 2.18659 35.2093C2.1048 35.2093 2.02542 35.2093 1.94604 35.2213C1.92217 35.2857 1.90209 35.3514 1.8859 35.4181C1.36792 38.069 0.850734 40.7208 0.334353 43.3733C0.233322 43.8892 0.110653 44.4028 0 44.9187V44.9715C0.52921 44.9715 1.06323 44.9979 1.59244 44.9907C2.73746 44.9715 3.88969 45.0219 5.02268 44.8923C6.97836 44.6668 8.46736 43.6757 9.35258 41.8734C9.90703 40.7011 10.1307 39.4003 9.99966 38.1106C9.96333 37.6017 9.79051 37.1118 9.49932 36.6924ZM6.05464 41.7727C5.42921 42.5166 4.54399 42.8045 3.4567 42.6438C3.60103 41.9118 3.74295 41.1775 3.88728 40.448C4.06769 39.5337 4.25052 38.6218 4.42131 37.7051C4.45499 37.5347 4.51993 37.4651 4.69072 37.4843C4.98179 37.4987 5.27525 37.4843 5.56872 37.5035C5.89839 37.5098 6.21417 37.6371 6.4556 37.8612C6.69704 38.0852 6.84718 38.3902 6.87732 38.7178C6.96555 39.256 6.93783 39.8069 6.79598 40.3337C6.65412 40.8604 6.4014 41.351 6.05464 41.7727Z" fill="white"/>
<path d="M54.1646 37.6523C53.9529 37.6523 53.8736 37.7242 53.8038 37.9186C53.3347 39.2337 52.8416 40.544 52.3605 41.8542C52.3275 41.9371 52.288 42.0174 52.2426 42.0942L52.1416 42.0822C52.1079 40.62 52.0742 39.1561 52.0406 37.6907H49.255C49.255 37.7578 49.2406 37.801 49.2406 37.8442C49.2054 40.1849 49.4517 42.5214 49.9742 44.8035C50.0071 44.8951 50.0071 44.9952 49.9742 45.0867C49.884 45.258 49.7489 45.4016 49.5832 45.5022C49.4176 45.6028 49.2276 45.6566 49.0337 45.6578C48.7763 45.6578 48.5189 45.6578 48.2639 45.6578C48.0907 45.6578 48.0041 45.6914 47.9681 45.8858C47.8646 46.4402 47.7419 46.9945 47.612 47.544C47.5687 47.736 47.6313 47.8152 47.8069 47.856C47.9825 47.8968 48.1749 47.952 48.3577 48H49.1131C49.1519 47.9774 49.1942 47.9612 49.2382 47.952C50.1466 47.8479 50.997 47.454 51.6629 46.8289C52.4222 46.1305 53.071 45.3214 53.5873 44.4292C54.8694 42.339 55.7931 40.0808 56.6832 37.8082C56.6944 37.765 56.7016 37.7208 56.7048 37.6763C56.6038 37.6763 56.5148 37.6619 56.4282 37.6619C55.6729 37.6523 54.92 37.6691 54.1646 37.6523Z" fill="white"/>
<path d="M90.9326 39.6897C90.891 39.1976 90.6957 38.731 90.3742 38.3556C90.0527 37.9802 89.6212 37.7149 89.1406 37.5971C88.5155 37.4201 87.8634 37.3583 87.2162 37.4147C85.9003 37.5059 84.7481 37.9546 83.9302 39.0369C83.0715 40.172 82.8141 41.4775 82.9127 42.8765C82.9307 43.3673 83.103 43.8399 83.4052 44.2276C83.7074 44.6152 84.1242 44.8981 84.5966 45.0363C85.203 45.2169 85.836 45.2924 86.468 45.2595C88.746 45.2115 90.3481 43.8964 90.8292 41.6743C90.8966 41.3743 90.9447 41.0671 91 40.7647V39.8864C90.971 39.8233 90.9484 39.7573 90.9326 39.6897ZM88.046 40.6832C88.0242 41.278 87.8662 41.86 87.5842 42.3846C87.4808 42.6013 87.3106 42.7792 87.0985 42.8923C86.8864 43.0055 86.6435 43.0479 86.4055 43.0133C86.2515 43.0153 86.1028 42.9567 85.9917 42.8503C85.8805 42.7439 85.8157 42.5982 85.8113 42.4446C85.732 41.6575 85.9128 40.8662 86.3261 40.1912C86.4186 40.027 86.5525 39.8896 86.7145 39.7928C86.8765 39.696 87.061 39.6431 87.2498 39.6393C87.7814 39.6393 88.0052 39.8264 88.0436 40.3592C88.0581 40.4624 88.0509 40.5728 88.0509 40.6832H88.046Z" fill="white"/>
<path d="M26.7997 26.7765L37.8241 23.3016C37.978 23.2512 38.1753 23.1624 38.2643 23.352C38.2814 23.4221 38.2845 23.4948 38.2733 23.5661C38.2622 23.6373 38.237 23.7057 38.1993 23.7672C37.7543 24.5759 37.2949 25.375 36.8402 26.1813C36.7127 26.4045 36.7825 26.5965 36.9942 26.6109C37.0758 26.6095 37.1568 26.5965 37.2347 26.5725L46.9626 24.4127C49.2237 23.9112 51.4753 23.3496 53.7509 22.9297C60.0317 21.7706 64.2461 15.7304 63.0722 9.46463C62.5784 6.80935 61.1695 4.40986 59.0895 2.68146C57.0095 0.953051 54.3892 0.0045104 51.6822 0C51.2684 0.0287971 50.8571 0.040796 50.4481 0.0863913C47.6555 0.371378 45.0648 1.66837 43.1667 3.73162C40.9729 6.06098 38.7855 8.39754 36.6045 10.7413C34.709 12.7667 32.8142 14.7929 30.9203 16.8199C30.8381 16.9405 30.7756 17.0733 30.7351 17.2134C30.8674 17.2769 31.0072 17.3237 31.1512 17.3526C31.8729 17.4078 32.5945 17.4414 33.3162 17.4846C33.5928 17.5014 33.867 17.5086 34.1413 17.5398C34.4155 17.571 34.4949 17.7582 34.3241 17.9814C34.2904 18.0246 34.2495 18.063 34.2134 18.1038L30.3959 22.2049C29.0809 23.6192 27.7667 25.035 26.4533 26.4525C26.3968 26.5452 26.3562 26.6465 26.333 26.7525C26.4461 26.7741 26.5591 26.8005 26.6746 26.8125C26.7182 26.8086 26.7607 26.7964 26.7997 26.7765ZM35.0072 21.2738C39.1848 18.1493 43.368 15.0297 47.5567 11.9148C47.606 11.8918 47.6494 11.8581 47.684 11.8162C47.7185 11.7743 47.7433 11.7252 47.7564 11.6726C47.7696 11.6199 47.7708 11.565 47.7599 11.5119C47.7491 11.4587 47.7265 11.4086 47.6938 11.3652C47.1935 10.2686 46.7172 9.16226 46.2337 8.05598C46.1158 7.7872 46.1904 7.62882 46.4743 7.62642L47.321 7.828C48.2832 8.06798 49.2598 8.30795 50.2244 8.54793C50.3056 8.57414 50.3926 8.57678 50.4752 8.55554C50.5578 8.53429 50.6327 8.49004 50.6911 8.42794C51.5956 7.61522 52.5056 6.8065 53.4213 6.00179C53.5373 5.92724 53.6627 5.86833 53.7942 5.82661C53.873 5.9487 53.9322 6.08229 53.9698 6.22256C54.0684 7.44404 54.1598 8.66552 54.2368 9.88699C54.2387 9.97185 54.2649 10.0544 54.3122 10.1249C54.3595 10.1955 54.4259 10.2511 54.5038 10.2854C55.5358 10.8781 56.5629 11.4852 57.5901 12.078C57.632 12.0963 57.6716 12.1197 57.7079 12.1476C57.7873 12.2388 57.9268 12.3371 57.9196 12.4259C57.9124 12.5147 57.7777 12.6323 57.6791 12.6659C57.0657 12.9299 56.445 13.1747 55.8268 13.4266C55.2832 13.6474 54.742 13.8706 54.1959 14.0866C54.1231 14.1093 54.0584 14.1523 54.0094 14.2106C53.9604 14.2689 53.9291 14.3399 53.9193 14.4153C53.6595 15.6392 53.3901 16.8607 53.111 18.0798C53.0846 18.1901 53.0028 18.3461 52.9186 18.3677C52.8344 18.3893 52.678 18.2957 52.6107 18.2093C51.8 17.2662 50.9918 16.3183 50.2052 15.3632C50.184 15.3275 50.1558 15.2965 50.1223 15.272C50.0887 15.2476 50.0505 15.2302 50.0099 15.221C49.9694 15.2118 49.9274 15.2109 49.8865 15.2185C49.8456 15.226 49.8067 15.2418 49.7722 15.2648C44.9131 17.3446 40.0508 19.4244 35.1852 21.5042C35.0575 21.5394 34.9256 21.5571 34.7931 21.557C34.8532 21.4546 34.925 21.3596 35.0072 21.2738Z" fill="white"/>
<path d="M69.7065 35.2189H66.7358C66.7165 35.2957 66.6925 35.3629 66.6804 35.4325C66.4784 36.4452 66.2715 37.4555 66.0839 38.4706C66.0454 38.6674 65.9636 38.7106 65.7736 38.7106C65.0856 38.7106 64.4 38.7106 63.712 38.7106C63.6327 38.7106 63.5533 38.7106 63.4378 38.6938C63.6784 37.5251 63.89 36.3804 64.1186 35.2213C64.0199 35.2213 63.9478 35.2069 63.878 35.2069C63.0457 35.2069 62.211 35.2069 61.3763 35.2069C61.1598 35.2069 61.1045 35.2885 61.066 35.4805C60.5464 38.173 60.0212 40.8623 59.4904 43.5485C59.399 44.0284 59.3124 44.4892 59.221 44.9883C59.3413 44.9883 59.423 45.0051 59.5024 45.0051C60.3107 45.0051 61.1165 45.0051 61.9223 45.0051C62.1629 45.0051 62.2327 44.9211 62.2736 44.7052C62.466 43.6541 62.6777 42.6054 62.8749 41.5567C62.9086 41.3647 62.976 41.2783 63.1925 41.2855C63.7505 41.3023 64.3086 41.2855 64.8763 41.2855H65.5354L64.8138 44.9955H65.1457C65.9251 44.9955 66.7045 44.9811 67.4839 44.9955C67.7581 44.9955 67.8375 44.9043 67.8856 44.6548C68.4388 41.7846 69.0001 38.9161 69.5694 36.0492C69.6127 35.7805 69.656 35.5093 69.7065 35.2189Z" fill="white"/>
<path d="M16.3406 37.6139C15.7182 37.4233 15.0647 37.3548 14.4162 37.4123C12.9729 37.5083 11.8134 38.1203 11.0485 39.3849C10.3876 40.5066 10.1083 41.8114 10.2522 43.1046C10.3605 44.2828 10.9739 44.9308 12.1502 45.1155C12.774 45.2182 13.4072 45.2528 14.0385 45.2187C14.8022 45.1441 15.5617 45.0312 16.3141 44.8804C16.3959 44.866 16.5282 44.7628 16.5306 44.6956C16.545 44.0693 16.5306 43.4381 16.5306 42.8022C16.1698 42.8814 15.8354 42.9726 15.4938 43.0422C14.8491 43.1879 14.1832 43.2156 13.5285 43.1237C13.4546 43.1196 13.3822 43.1005 13.3159 43.0676C13.2496 43.0347 13.1906 42.9887 13.1427 42.9323C13.0948 42.876 13.0588 42.8105 13.0371 42.7398C13.0153 42.6692 13.0082 42.5949 13.0162 42.5214C13.0162 42.3558 13.0667 42.2814 13.2567 42.267C13.8316 42.2118 14.4065 42.1614 14.9742 42.0559C15.7307 41.9473 16.4434 41.6353 17.0357 41.1535C17.3339 40.905 17.5565 40.5783 17.6785 40.2102C17.8005 39.8422 17.817 39.4475 17.7261 39.0706C17.601 38.2882 17.0622 37.8515 16.3406 37.6139ZM14.7337 40.2704C14.3191 40.4574 13.8647 40.5398 13.4107 40.5104C13.4254 40.2352 13.5261 39.9716 13.6987 39.7564C13.8712 39.5412 14.107 39.3853 14.3729 39.3105C14.5039 39.2669 14.6461 39.2704 14.7748 39.3203C14.9035 39.3703 15.0107 39.4636 15.0777 39.5841C15.1691 39.8481 15.0464 40.1049 14.7337 40.2704Z" fill="white"/>
<path d="M40.7587 37.6091C40.1358 37.4213 39.4824 37.3553 38.8343 37.4147C37.5426 37.5035 36.4553 38.0027 35.7072 39.0802C34.8934 40.2497 34.5381 41.6766 34.7089 43.0901C34.8268 44.3284 35.4306 44.9356 36.6742 45.1251C37.2702 45.2229 37.8752 45.2551 38.4783 45.2211C39.2409 45.1683 39.9986 45.0099 40.7563 44.89C40.8766 44.8708 40.9969 44.8396 40.9969 44.65C40.9849 44.038 40.9969 43.4237 40.9969 42.8118C40.5158 42.9054 40.0684 43.0325 39.6161 43.0733C39.0804 43.1229 38.5416 43.1317 38.0044 43.0997C37.9275 43.1001 37.8514 43.0837 37.7815 43.0516C37.7116 43.0196 37.6496 42.9726 37.5998 42.914C37.5501 42.8555 37.5138 42.7868 37.4935 42.7127C37.4732 42.6386 37.4695 42.5611 37.4825 42.4854C37.4825 42.3342 37.5426 42.2646 37.723 42.2454C38.2041 42.2094 38.6852 42.1686 39.1422 42.0918C39.9794 41.9551 40.79 41.7247 41.4612 41.1703C41.7737 40.9249 42.0094 40.5956 42.1407 40.221C42.2719 39.8465 42.2932 39.4424 42.202 39.0562C42.0192 38.2882 41.4876 37.8467 40.7587 37.6091ZM39.39 40.0976C39.2832 40.2089 39.15 40.2915 39.0027 40.3376C38.6299 40.4312 38.245 40.4888 37.8288 40.5776C37.9034 39.9369 38.2859 39.4617 38.767 39.3489C38.8903 39.3171 39.019 39.3113 39.1447 39.3321C39.229 39.3421 39.3087 39.376 39.3742 39.43C39.4397 39.4839 39.4883 39.5554 39.5142 39.6361C39.5401 39.7168 39.5421 39.8033 39.5201 39.8851C39.4981 39.9669 39.4529 40.0407 39.39 40.0976Z" fill="white"/>
<path d="M75.4413 37.5899C74.8439 37.4571 74.2319 37.4014 73.6203 37.4243C72.9744 37.4295 72.34 37.5958 71.7749 37.908C71.2098 38.2203 70.732 38.6686 70.3849 39.2122C69.6597 40.3277 69.338 41.657 69.4732 42.9798C69.5863 44.3236 70.1492 44.9188 71.4963 45.1395C72.0933 45.2355 72.6993 45.2644 73.3028 45.2259C74.0461 45.1731 74.7846 45.0172 75.5231 44.8924C75.6097 44.878 75.7444 44.7772 75.7468 44.71C75.7636 44.0813 75.7468 43.4525 75.7468 42.7902L75.4557 42.867C74.5873 43.071 73.7165 43.2509 72.8217 43.107C72.3262 43.0326 72.1818 42.795 72.2925 42.279C72.8265 42.2166 73.3461 42.1759 73.8609 42.0943C74.6662 42.0045 75.4361 41.7149 76.1004 41.2519C76.4354 41.0215 76.6957 40.6984 76.8491 40.3223C77.0025 39.9463 77.0424 39.5337 76.964 39.1354C76.8341 38.2738 76.2592 37.7723 75.4413 37.5899ZM74.2145 40.0521C74.1333 40.1513 74.0326 40.233 73.9186 40.292C73.5105 40.4728 73.0655 40.555 72.6196 40.532C72.7062 39.9273 73.0695 39.4665 73.5506 39.3585C73.7098 39.3227 73.8758 39.3294 74.0317 39.3777C74.0985 39.3982 74.1591 39.4353 74.2077 39.4854C74.2563 39.5356 74.2914 39.5972 74.3096 39.6646C74.3279 39.7319 74.3287 39.8028 74.3121 39.8705C74.2955 39.9383 74.2619 40.0008 74.2145 40.0521Z" fill="white"/>
<path d="M35.1083 37.6522C34.2327 37.6522 33.3835 37.6522 32.532 37.6522C32.4541 37.6401 32.3745 37.6582 32.3096 37.7029C32.2447 37.7475 32.1995 37.8153 32.1832 37.8922C31.8151 38.9625 31.4303 40.028 31.043 41.0911C30.9203 41.4271 30.7591 41.751 30.6124 42.0918C30.5691 42.0534 30.545 42.0414 30.545 42.0294C30.4873 40.5895 30.4296 39.1497 30.3718 37.6594C30.3358 37.6594 30.2467 37.6475 30.1577 37.6475C29.4144 37.6475 28.6711 37.6475 27.9303 37.6475C27.6897 37.6475 27.6031 37.7146 27.6007 37.9666C27.5726 39.5852 27.653 41.2038 27.8412 42.8117C27.9327 43.5317 28.0553 44.2516 28.166 44.9859H28.4763C29.4577 44.9859 30.4392 44.9859 31.4182 44.9859C31.5028 44.9946 31.588 44.976 31.6612 44.9328C31.7344 44.8896 31.7917 44.8241 31.8248 44.7459C33.0353 42.5127 34.1117 40.2097 35.0481 37.849C35.0726 37.7849 35.0927 37.7191 35.1083 37.6522Z" fill="white"/>
<path d="M23.4103 33.9303C22.4818 34.2711 21.611 34.5998 20.7306 34.9046C20.6318 34.9303 20.5433 34.9854 20.4767 35.0626C20.4101 35.1398 20.3686 35.2353 20.3577 35.3366C19.8766 37.6131 19.3915 39.8897 18.9024 42.1663C18.6979 43.1262 18.4911 44.0861 18.2746 45.106C19.1766 45.106 20.0282 45.106 20.8773 45.094C20.9423 45.094 21.0361 44.9428 21.0577 44.854C21.7553 41.6543 22.4489 38.4546 23.1385 35.255C23.2275 34.8182 23.3141 34.3934 23.4103 33.9303Z" fill="white"/>
<path d="M80.7405 38.5906L80.6708 38.5642C80.6588 38.3938 80.6443 38.2258 80.6371 38.0554C80.6251 37.6523 80.6251 37.6523 80.233 37.6523C79.7519 37.6523 79.2708 37.6691 78.8041 37.6523C78.5395 37.6379 78.4481 37.7267 78.4 37.9834C78.0464 39.8505 77.6783 41.7127 77.3151 43.5797C77.2237 44.0404 77.1395 44.5036 77.0481 44.9883C77.9718 44.9883 78.8498 44.9883 79.7278 44.9883C79.7952 44.9883 79.901 44.8707 79.9179 44.7915C80.0935 43.9444 80.257 43.0901 80.4206 42.2382C80.4912 41.7029 80.667 41.1867 80.9378 40.7192C81.0584 40.5056 81.2446 40.3365 81.469 40.2366C81.6934 40.1368 81.944 40.1116 82.1838 40.1648C82.2969 40.1864 82.4244 40.1912 82.5471 40.2056C82.8045 39.2841 83.0594 38.3842 83.3168 37.4723C82.1526 37.1963 81.3828 37.7435 80.7405 38.5906Z" fill="white"/>
<path d="M47.8261 39.9872C47.9127 39.6128 48.0282 39.2457 48.1316 38.8785L48.5261 37.4747C47.3546 37.1843 46.6017 37.7626 45.8969 38.6553C45.8648 38.4166 45.8455 38.1762 45.8392 37.9354C45.8392 37.6954 45.7285 37.6546 45.5168 37.6594C45.0045 37.6714 44.4897 37.6762 43.9773 37.6594C43.7488 37.6594 43.6646 37.729 43.6237 37.9522C43.3086 39.6032 42.9814 41.2519 42.6615 42.9005C42.5268 43.5868 42.3969 44.2732 42.2646 44.9595C42.2976 44.9744 42.3323 44.9849 42.368 44.9907C43.2196 44.9907 44.0711 44.9907 44.9227 44.9907C45.1055 44.9907 45.1272 44.8755 45.1512 44.7507C45.3004 43.9716 45.4503 43.1917 45.601 42.4109C45.7141 41.8182 45.8103 41.2111 46.1591 40.7047C46.248 40.5492 46.3731 40.4172 46.5238 40.3199C46.6745 40.2226 46.8464 40.1628 47.0251 40.1456C47.1865 40.1418 47.3478 40.1554 47.5062 40.1864C47.6914 40.2152 47.7804 40.1744 47.8261 39.9872Z" fill="white"/>
<path d="M24.4447 37.6523C24.1704 37.6523 24.0911 37.7459 24.043 37.9907C23.7639 39.4305 23.468 40.8704 23.1818 42.3102C23.0062 43.1886 22.8378 44.0645 22.6598 44.9908C23.533 44.9908 24.3677 44.9908 25.1976 44.9908C25.4381 44.9908 25.5271 44.9092 25.5704 44.6812C25.9241 42.8262 26.2921 40.9736 26.6529 39.1162C26.7467 38.6362 26.8357 38.1563 26.9296 37.6499C26.0732 37.6523 25.2577 37.6739 24.4447 37.6523Z" fill="white"/>
<path d="M25.9866 33.9158C25.7639 33.9 25.5404 33.9308 25.3304 34.0064C25.1204 34.0819 24.9286 34.2004 24.7673 34.3544C24.606 34.5083 24.4787 34.6942 24.3937 34.9001C24.3088 35.106 24.2679 35.3274 24.2739 35.55C24.2739 36.4044 24.8752 36.9899 25.7821 37.0067C26.8117 37.0067 27.4948 36.3636 27.4996 35.3581C27.5044 34.4918 26.9103 33.9254 25.9866 33.9158Z" fill="white"/>
</svg>
