<svg width="142" height="24" viewBox="0 0 142 24" fill="none" xmlns="http://www.w3.org/2000/svg">
<path d="M46.5163 0.358134L38.5803 8.29956L42.292 12.0138L50.2281 4.07237L46.5163 0.358134Z" fill="#5D97FF"/>
<path d="M42.2918 12.0135L38.58 15.7278L46.5161 23.6692L50.2278 19.955L42.2918 12.0135Z" fill="#5D97FF"/>
<path fill-rule="evenodd" clip-rule="evenodd" d="M30.6444 0.355469L26.9326 4.06971L34.8686 12.011L26.9302 19.9547L30.6419 23.6689L38.5803 15.7252L38.5804 15.7253L42.2922 12.0111L41.2963 11.0146L38.5804 8.29685L30.6444 0.355469Z" fill="white"/>
<path d="M64.3989 18.5654C63.3929 18.5666 62.3998 18.3386 61.4949 17.8987C60.59 17.4589 59.7971 16.8187 59.1761 16.0267C58.5551 15.2346 58.1224 14.3116 57.9108 13.3274C57.6992 12.3433 57.7142 11.3238 57.9548 10.3463C58.1953 9.36883 58.655 8.45894 59.299 7.6856C59.943 6.91225 60.7545 6.29574 61.672 5.88277C62.5895 5.4698 63.5888 5.27121 64.5944 5.30205C65.5999 5.33289 66.5852 5.59235 67.4757 6.06076L70.1039 1.50678C68.2966 0.513976 66.2622 0.00891624 64.2007 0.0412559C62.1392 0.0735955 60.1216 0.642222 58.3463 1.69123C56.5709 2.74024 55.099 4.23352 54.0751 6.02426C53.0512 7.815 52.5106 9.84155 52.5066 11.9047C52.5025 13.9678 53.035 15.9965 54.0518 17.7913C55.0686 19.586 56.5347 21.0851 58.3059 22.1411C60.077 23.1972 62.0924 23.7738 64.1537 23.8143C66.2151 23.8548 68.2515 23.3578 70.0627 22.3721L67.4345 17.8157C66.4974 18.3057 65.4562 18.5628 64.3989 18.5654Z" fill="white"/>
<path d="M95.0019 11.9321C95.0019 9.58079 94.3052 7.28229 92.9997 5.32726C91.6943 3.37222 89.8388 1.84846 87.668 0.948655C85.4971 0.0488512 83.1084 -0.186577 80.8038 0.272139C78.4992 0.730855 76.3823 1.86311 74.7208 3.52573C73.0593 5.18835 71.9278 7.30666 71.4694 9.61278C71.011 11.9189 71.2463 14.3093 72.1455 16.4816C73.0447 18.6539 74.5674 20.5106 76.5212 21.8169C78.4749 23.1232 80.7718 23.8205 83.1215 23.8205C83.3107 23.8205 83.4974 23.8156 83.6816 23.8059H83.7883C83.9499 23.8059 84.1116 23.7938 84.2732 23.7695H84.3508C84.7387 23.7307 85.1218 23.67 85.4952 23.5948H85.5098C85.6989 23.556 85.8856 23.5123 86.0722 23.4638C87.3798 23.1265 88.6204 22.5686 89.7406 21.814V23.1387H94.9656V12.4853C94.9947 12.3033 95.0019 12.1189 95.0019 11.9321ZM76.5073 11.9321C76.5088 10.6219 76.8983 9.34157 77.6268 8.25289C78.3552 7.16422 79.3899 6.31608 80.5999 5.8157C81.81 5.31531 83.1411 5.18513 84.4251 5.44162C85.709 5.6981 86.8882 6.32974 87.8135 7.25668C88.7388 8.18363 89.3687 9.36427 89.6236 10.6494C89.8785 11.9345 89.747 13.2664 89.2456 14.4767C88.7442 15.687 87.8955 16.7214 86.8068 17.4491C85.718 18.1769 84.4381 18.5653 83.1288 18.5653C82.2586 18.565 81.397 18.3932 80.5932 18.0596C79.7894 17.7261 79.0591 17.2374 78.444 16.6215C77.8289 16.0055 77.3411 15.2744 77.0084 14.4698C76.6757 13.6652 76.5046 12.8029 76.5049 11.9321H76.5073Z" fill="white"/>
<path d="M141.345 11.8836C141.344 9.42616 140.581 7.02962 139.162 5.02372C137.744 3.01781 135.739 1.50112 133.423 0.682323C131.108 -0.136474 128.596 -0.217135 126.233 0.451439C123.869 1.12001 121.771 2.50497 120.227 4.41574C118.683 2.50401 116.585 1.11818 114.221 0.449021C111.858 -0.220138 109.345 -0.139729 107.029 0.67918C104.713 1.49809 102.708 3.01523 101.289 5.02177C99.87 7.02831 99.1077 9.42558 99.1067 11.8836C99.1067 11.903 99.1067 11.92 99.1067 11.9394V23.1314H104.344V12.1529V11.8812C104.344 11.8569 104.344 11.8326 104.344 11.8084C104.327 10.9242 104.486 10.0455 104.813 9.22376C105.139 8.40199 105.626 7.65359 106.245 7.02233C106.864 6.39108 107.602 5.88963 108.417 5.54731C109.232 5.205 110.107 5.02868 110.991 5.02868C111.874 5.02868 112.749 5.205 113.564 5.54731C114.379 5.88963 115.117 6.39108 115.736 7.02233C116.355 7.65359 116.842 8.40199 117.169 9.22376C117.495 10.0455 117.655 10.9242 117.638 11.8084C117.638 11.8836 117.638 11.9564 117.638 12.0316V23.1411H122.814V11.8812C122.814 11.8569 122.814 11.8326 122.814 11.8084C122.814 10.0427 123.515 8.34933 124.763 7.10081C126.01 5.85229 127.703 5.15088 129.467 5.15088C131.232 5.15088 132.924 5.85229 134.172 7.10081C135.419 8.34933 136.12 10.0427 136.12 11.8084C136.12 11.8836 136.12 11.9564 136.12 12.0316V12.1626V23.1411H141.357V11.9394L141.345 11.8836Z" fill="white"/>
<path d="M23.7583 0.86377H18.5213V12.0243C18.5213 12.0486 18.5213 12.0728 18.5213 12.0971C18.5213 13.8602 17.8214 15.5511 16.5755 16.7978C15.3296 18.0445 13.6399 18.7449 11.878 18.7449C10.116 18.7449 8.42629 18.0445 7.18042 16.7978C5.93456 15.5511 5.23464 13.8602 5.23464 12.0971C5.23464 12.0728 5.23464 12.0486 5.23464 12.0243V0.86377H0V12.0534V12.1116C0 15.2646 1.25168 18.2885 3.47968 20.518C5.70769 22.7475 8.72951 24 11.8804 24C15.0313 24 18.0531 22.7475 20.2811 20.518C22.5091 18.2885 23.7608 15.2646 23.7608 12.1116C23.7608 12.0922 23.7608 12.0728 23.7608 12.0534L23.7583 0.86377Z" fill="white"/>
</svg>
