<svg width="77" height="64" viewBox="0 0 77 64" fill="none" xmlns="http://www.w3.org/2000/svg">
<g clip-path="url(#clip0_499_2810)">
<g opacity="0.99">
<path opacity="0.99" d="M30.7802 37.4653C32.5516 40.3479 33.4464 43.6858 33.3551 47.0705C33.4354 49.3172 33.0566 51.5566 32.2418 53.6509C31.427 55.7453 30.1936 57.6505 28.6173 59.2491C27.0886 60.8023 25.2589 62.025 23.2409 62.8421C21.223 63.6592 19.0596 64.0532 16.884 64C11.9401 64 7.89163 62.4164 4.73873 59.2491C3.16245 57.6505 1.92903 55.7453 1.11423 53.6509C0.299435 51.5566 -0.0795254 49.3172 0.000781955 47.0705C-0.00416341 44.6305 0.307514 42.2002 0.927836 39.8408C1.54583 37.5055 2.74744 33.9968 4.53274 29.3147L15.442 0L31.9132 0L23.6734 31.5869C26.5994 32.749 29.086 34.8058 30.7802 37.4653V37.4653ZM74.4258 37.4653C76.1972 40.3479 77.0921 43.6858 77.0008 47.0705C77.0807 49.3164 76.7025 51.5549 75.8893 53.6491C75.0761 55.7432 73.8449 57.6489 72.2714 59.2491C70.7411 60.8025 68.9099 62.0253 66.8905 62.8424C64.8712 63.6595 62.7065 64.0534 60.5296 64C58.2876 64.0936 56.0505 63.7198 53.9599 62.9022C51.8693 62.0845 49.9706 60.8408 48.3838 59.2497C46.7971 57.6585 45.5567 55.7547 44.7413 53.6583C43.9259 51.5619 43.553 49.3187 43.6464 47.0705C43.6415 44.6305 43.9531 42.2002 44.5735 39.8408C45.1914 37.5055 46.3931 33.9968 48.1784 29.3147L59.0877 0L75.5588 0L67.3275 31.5869C70.2497 32.7516 72.7329 34.808 74.4258 37.4653Z" fill="#5D97FF"/>
</g>
</g>
<defs>
<clipPath id="clip0_499_2810">
<rect width="77" height="64" fill="white"/>
</clipPath>
</defs>
</svg>
