<svg width="16" height="17" viewBox="0 0 16 17" fill="none" xmlns="http://www.w3.org/2000/svg">
<g clip-path="url(#clip0_5545_2754)">
<path fill-rule="evenodd" clip-rule="evenodd" d="M0.951431 0.933086C0.534295 1.03662 0.390711 1.57597 0.698439 1.88339C0.792871 1.97771 0.894551 2.02861 1.02681 2.04773C1.08215 2.05574 1.60444 2.06243 2.18743 2.06261C2.77044 2.06278 3.24743 2.06704 3.24743 2.07205C3.24743 2.15093 4.16636 10.764 4.18444 10.8547C4.2389 11.1277 4.37583 11.3899 4.57578 11.604C4.86087 11.9093 5.19673 12.0809 5.59943 12.1271C5.78065 12.1479 12.5032 12.1482 12.6838 12.1275C12.8791 12.105 13.0139 12.0678 13.1774 11.9912C13.6226 11.7827 13.9316 11.4299 14.0699 10.9723C14.092 10.8989 14.4096 9.64046 14.7756 8.17569C15.2516 6.27083 15.4463 5.46553 15.4595 5.34769C15.4805 5.15977 15.4619 4.95409 15.4059 4.75393C15.2645 4.24841 14.8579 3.82065 14.3612 3.6548C14.0826 3.56177 14.3844 3.56697 9.26773 3.56694L4.56004 3.56693L4.55252 3.53093C4.54837 3.51113 4.49418 3.00893 4.43207 2.41493C4.32121 1.35453 4.31828 1.33315 4.27129 1.23696C4.21402 1.11974 4.11058 1.01979 3.98623 0.961486L3.89543 0.918926L2.46343 0.916078C1.36893 0.913902 1.01258 0.917902 0.951431 0.933086ZM4.68282 4.71473C4.66847 4.74077 5.29553 10.584 5.32161 10.6673C5.35458 10.7725 5.44207 10.8736 5.55375 10.9355L5.63943 10.9829H9.14343H12.6474L12.7325 10.9358C12.8271 10.8834 12.8952 10.8135 12.943 10.7198C12.9604 10.6856 13.2773 9.44741 13.6471 7.96832C14.1544 5.93904 14.3194 5.25582 14.3194 5.18432C14.3194 5.12565 14.3074 5.06161 14.2879 5.01611C14.2443 4.91422 14.1267 4.79381 14.0269 4.74865L13.9434 4.71093L9.31649 4.70673C6.77167 4.70443 4.68653 4.70803 4.68282 4.71473ZM5.09964 13.6623C4.86429 13.7054 4.69185 13.7989 4.51114 13.9813C4.28789 14.2067 4.19143 14.4389 4.19143 14.7509C4.19143 15.0629 4.28789 15.2951 4.51114 15.5205C4.72245 15.7339 4.935 15.8322 5.22399 15.8502C5.58377 15.8726 5.92521 15.7178 6.15786 15.4268C6.31625 15.2287 6.38295 15.0284 6.38295 14.7509C6.38295 14.4264 6.28449 14.1879 6.06133 13.9717C5.90929 13.8245 5.78794 13.7506 5.60743 13.6954C5.48161 13.6568 5.22205 13.64 5.09964 13.6623ZM11.9956 13.6623C11.6429 13.7269 11.32 13.9824 11.1739 14.3129C11.09 14.5025 11.0655 14.7719 11.1119 14.9939C11.1865 15.3507 11.4932 15.6886 11.8428 15.799C12.4537 15.992 13.1006 15.6372 13.2577 15.0229C13.2929 14.8851 13.2929 14.6167 13.2577 14.4789C13.1624 14.1064 12.8486 13.7867 12.4794 13.6861C12.372 13.6569 12.099 13.6435 11.9956 13.6623ZM5.25511 14.7354C5.2489 14.7455 5.25135 14.7612 5.26055 14.7704C5.28205 14.792 5.33218 14.7732 5.32343 14.7469C5.31453 14.7202 5.26925 14.7126 5.25511 14.7354ZM12.1594 14.7521C12.1594 14.7931 12.2124 14.7884 12.2204 14.7467C12.2241 14.7275 12.2155 14.7189 12.1926 14.7189C12.1697 14.7189 12.1594 14.7292 12.1594 14.7521Z" fill="#2A4473"/>
</g>
<defs>
<clipPath id="clip0_5545_2754">
<rect width="16" height="16" fill="white" transform="translate(0 0.382812)"/>
</clipPath>
</defs>
</svg>
