<svg width="24" height="25" viewBox="0 0 24 25" fill="none" xmlns="http://www.w3.org/2000/svg">
<path d="M21.5106 7.45429H17.9317C18.0018 6.89289 18.3527 6.54201 19.0545 6.19114L19.686 5.84026C20.879 5.27887 21.5106 4.57712 21.5106 3.45432C21.5189 3.13331 21.4536 2.81466 21.3198 2.52274C21.186 2.23083 20.9872 1.97339 20.7386 1.77012C20.1522 1.396 19.4694 1.20091 18.7738 1.20872C18.2081 1.20524 17.6516 1.35044 17.1597 1.62977C16.6999 1.93719 16.3159 2.34513 16.0369 2.82274L17.0896 3.87537C17.2372 3.52948 17.4809 3.23322 17.7919 3.02175C18.1029 2.81029 18.468 2.69251 18.8439 2.68239C19.5457 2.68239 19.8966 3.03327 19.8966 3.45432C19.8966 3.87537 19.686 4.22624 18.9843 4.57712L18.5632 4.78764C17.7724 5.13496 17.0926 5.69339 16.5983 6.40166C16.2085 7.08444 16.0143 7.86138 16.0369 8.64726V8.92796H21.5106V7.45429Z" fill="#6C7180"/>
<path d="M21.0216 10.6824H15.0567L12.1094 15.8051H18.0742L21.0216 20.9279L23.9689 15.8051L21.0216 10.6824Z" fill="#6C7180"/>
<path d="M12.6015 19.2437C10.7775 19.2437 9.02831 18.5191 7.7386 17.2294C6.44888 15.9397 5.72433 14.1905 5.72433 12.3666C5.72433 10.5426 6.44888 8.7934 7.7386 7.50369C9.02831 6.21397 10.7775 5.48942 12.6015 5.48942L14.9874 0.577177C14.2002 0.434415 13.4015 0.363946 12.6015 0.366652C9.41889 0.366652 6.36667 1.63092 4.11625 3.88134C1.86583 6.13176 0.601563 9.18398 0.601562 12.3666C0.601563 15.5491 1.86583 18.6014 4.11625 20.8518C6.36667 23.1022 9.41889 24.3665 12.6015 24.3665C15.1407 24.3776 17.6196 23.5922 19.6891 22.1209L17.0927 17.5595C15.8495 18.6472 14.2533 19.2458 12.6015 19.2437Z" fill="#6C7180"/>
</svg>
