<svg width="89" height="31" viewBox="0 0 89 31" fill="none" xmlns="http://www.w3.org/2000/svg">
<path d="M41.8362 3.08545L41.7195 4.52928H41.1339C40.1974 4.52928 39.7096 5.29034 39.7096 6.01226V9.27033H38.0505V3.08545H39.6306L39.6698 3.86607C40.0017 3.33913 40.5867 3.08545 41.289 3.08545H41.8362ZM30.2659 9.25076H28.5887V5.99269C28.5887 5.30991 28.5293 4.45101 27.5732 4.45101C26.6563 4.45101 26.286 5.11493 26.286 5.89485V9.25076H24.608V3.08545H26.149L26.1881 3.86607C26.5201 3.33913 27.1441 2.9296 28.0415 2.9296C29.7194 2.9296 30.2464 4.13862 30.2464 5.38818V9.25076H30.2659ZM23.8861 7.80762L23.7687 9.21232C23.3591 9.32903 23.0076 9.3486 22.5785 9.3486C20.9984 9.3486 20.5497 8.62668 20.5497 7.18284V1.32922H22.227V3.06588H23.8861L23.7687 4.50972H22.2284V7.06613C22.2284 7.65108 22.3842 7.96347 22.9894 7.96347C23.2424 7.96347 23.5346 7.9439 23.8861 7.80762ZM20.0032 3.08545L19.867 4.52928H19.4176C18.4811 4.52928 18.0129 5.29034 18.0129 6.01226V9.27033H16.3356V3.08545H17.915L17.9542 3.86607C18.2861 3.33913 18.8718 3.08545 19.5937 3.08545H20.0032ZM8.80336 8.56798C7.67191 9.17319 6.54046 9.52401 5.03792 9.48557C2.28722 9.4073 0.296875 7.68881 0.296875 4.78297C0.296875 1.87573 2.30679 0.0419279 5.05749 0.0027919C6.44262 -0.0363441 7.69217 0.334749 8.66708 1.19294L7.4965 2.3831C6.89129 1.85616 6.01352 1.56334 4.94078 1.60247C3.22369 1.68075 2.16981 2.94917 2.15024 4.68513C2.13067 6.55806 3.28239 7.84606 5.07705 7.90476C5.91568 7.92433 6.52089 7.80692 7.04783 7.5728V5.66073H5.17489L5.2916 4.08062H8.80406V8.56798H8.80336ZM35.6115 5.46575C35.5535 4.68513 34.9685 4.19803 34.1684 4.2169C33.3486 4.25603 32.8224 4.78297 32.7049 5.46575H35.6115ZM37.2706 6.75374H32.6861C32.8217 7.53437 33.4464 8.02217 34.2075 8.04104C34.9685 8.06061 35.3781 7.82649 35.9246 7.28068L37.0169 8.11931C36.2363 9.07535 35.3194 9.42617 34.2466 9.42617C32.3926 9.42617 30.9879 8.11931 30.9879 6.18767C30.9879 4.25603 32.373 2.94917 34.1677 2.94917C36.1587 2.94917 37.2314 4.15819 37.2314 6.28551V6.75374H37.2706ZM13.6814 6.55806H13.4473C12.6666 6.55806 11.2619 6.5972 11.2815 7.41766C11.2815 8.58754 13.6814 8.21715 13.6814 6.81245V6.55806ZM15.3006 5.21207V9.25146H13.8379L13.7988 8.64625C13.3501 9.21232 12.6086 9.4073 11.8671 9.4073C10.735 9.4073 9.66225 8.84123 9.64268 7.53437C9.60355 5.48532 11.9447 5.32948 13.4277 5.32948H13.7205V5.27077C13.7205 4.58799 13.2718 4.2169 12.4325 4.2169C11.828 4.2169 11.2235 4.45101 10.7937 4.88081L9.83766 3.90521C10.7161 3.20286 11.6128 2.9296 12.5891 2.9296C14.4424 2.9296 15.3006 3.80737 15.3006 5.21207ZM41.036 8.4904V8.19688H41.2317C41.3295 8.19688 41.4462 8.21715 41.4462 8.33386C41.4462 8.4904 41.3288 8.4904 41.2121 8.4904H41.036ZM41.036 8.60711H41.2121L41.4658 9.01664H41.6217L41.3484 8.58754C41.4854 8.56798 41.6021 8.4897 41.6021 8.31499C41.6021 8.11931 41.4854 8.04104 41.2701 8.04104H40.8997V8.99707H41.036V8.60711ZM41.2121 9.36817C41.6608 9.36817 42.0508 9.01664 42.0508 8.52954C42.0508 8.06131 41.6608 7.70978 41.2121 7.70978C40.7635 7.70978 40.3735 8.06061 40.3735 8.52884C40.3532 9.01664 40.7439 9.36747 41.2121 9.36747V9.36817ZM40.5286 8.54841C40.5286 8.15845 40.8222 7.86563 41.2121 7.86563C41.5825 7.86563 41.8949 8.15845 41.8949 8.54841C41.8949 8.95864 41.6021 9.25076 41.2121 9.25076C40.8215 9.23189 40.5286 8.93907 40.5286 8.54841ZM7.94516 19.9621V20.0215C7.94516 22.3627 6.18893 23.2796 4.08188 23.2796H2.28722V27.767H0.96009V16.7432H4.10145C6.2085 16.7432 7.94516 17.6797 7.94516 19.9628V19.9621ZM6.61873 20.0411V19.9824C6.61873 18.4212 5.68226 17.8362 4.19929 17.8362H2.30679V22.246H4.17972C5.75984 22.2257 6.61873 21.4654 6.61873 20.0411ZM8.31555 23.8457V23.7283C8.31555 21.2893 9.8768 19.5917 12.1013 19.5917C13.9742 19.5917 15.7304 20.7239 15.7304 23.6116V24.0211H9.66225C9.72095 25.8549 10.5987 26.8696 12.2571 26.8696C13.506 26.8696 14.2279 26.4014 14.4033 25.4649H15.6913C15.418 27.0842 14.072 27.9431 12.2375 27.9431C9.95507 27.9235 8.31555 26.3231 8.31555 23.8457ZM12.1208 20.6456C10.814 20.6456 9.9355 21.5429 9.72095 22.9868H14.4424C14.3062 21.3095 13.4473 20.6456 12.1208 20.6456ZM16.8619 23.8457V23.7283C16.8619 21.2893 18.4224 19.5917 20.6469 19.5917C22.5198 19.5917 24.276 20.7239 24.276 23.6116V24.0211H18.189C18.247 25.8549 19.1255 26.8696 20.7839 26.8696C22.032 26.8696 22.7546 26.4014 22.9293 25.4649H24.2173C23.9448 27.0842 22.5981 27.9431 20.7643 27.9431C18.4811 27.9235 16.8619 26.3231 16.8619 23.8457ZM20.6469 20.6456C19.34 20.6456 18.4616 21.5429 18.2274 22.9868H22.9496C22.8518 21.3095 21.974 20.6456 20.6469 20.6456ZM27.1833 21.153C27.6907 20.2361 28.393 19.6113 29.8368 19.5526V20.763C28.2176 20.8406 27.1833 21.348 27.1833 23.3383V27.767H25.8953V19.7091H27.1833V21.153Z" fill="#6C7180"/>
<path d="M35.4568 27.7866H34.1094V16.7433H35.4561L35.4568 27.7866ZM38.617 20.9965C38.9874 20.2362 39.8854 19.5729 41.2126 19.5729C42.8898 19.5729 44.0611 20.4898 44.0611 22.831V27.7866H42.7731V22.7339C42.7731 21.3089 42.1686 20.6848 40.8806 20.6848C39.6904 20.6848 38.617 21.4459 38.617 22.8897V27.7866H37.3297V19.7092H38.617V20.9965ZM45.0954 25.3085H46.3436C46.4414 26.2652 46.9488 26.8697 48.2556 26.8697C49.4653 26.8697 50.0119 26.4602 50.0119 25.5817C50.0119 24.704 49.3878 24.4503 48.1194 24.2162C46.0123 23.8262 45.3099 23.2405 45.3099 21.8358C45.3099 20.3333 46.7734 19.5729 48.0411 19.5729C49.4849 19.5729 50.7526 20.1579 50.9679 21.9141H49.7386C49.5632 21.0357 49.0558 20.6457 48.0411 20.6457C47.1046 20.6457 46.5197 21.1139 46.5197 21.7967C46.5197 22.5186 46.9292 22.8115 48.4122 23.0847C50.0894 23.3971 51.2607 23.7675 51.2607 25.4846C51.2607 26.948 50.2655 27.9432 48.2948 27.9432C46.3436 27.9236 45.1737 26.948 45.0954 25.3085ZM52.4509 17.1731C52.4509 16.7048 52.8213 16.3142 53.3091 16.3142C53.7969 16.3142 54.168 16.6846 54.168 17.1528C54.168 17.621 53.7976 18.0117 53.3091 18.0117C52.8408 18.0117 52.4509 17.6413 52.4509 17.1731ZM53.9723 27.7866H52.685V19.7092H53.973L53.9723 27.7866ZM55.5727 28.2548H56.8795C57.0752 29.1913 57.8356 29.6595 59.2207 29.6595C60.8015 29.6595 61.8162 28.8992 61.8162 27.1625V25.9919C61.5218 26.4513 61.1182 26.8306 60.6415 27.096C60.1649 27.3615 59.6299 27.5049 59.0844 27.5134C56.9578 27.5134 55.3972 25.9137 55.3972 23.6892V23.5725C55.3972 21.3872 56.9382 19.5534 59.1627 19.5534C60.5087 19.5534 61.348 20.1963 61.7967 20.9972V19.7092H63.0651V27.2408C63.0455 29.582 61.4647 30.733 59.2018 30.733C56.8404 30.7526 55.7872 29.6211 55.5727 28.2548ZM61.8554 23.6116V23.4942C61.8554 21.68 60.8602 20.6261 59.299 20.6261C57.6993 20.6261 56.7432 21.8163 56.7432 23.5138V23.6312C56.7432 25.3867 57.8754 26.4406 59.241 26.4406C60.7232 26.4602 61.8554 25.4063 61.8554 23.6116ZM66.4014 20.9965C66.7718 20.2362 67.6692 19.5729 68.9963 19.5729C70.6547 19.5729 71.8448 20.4898 71.8448 22.831V27.7866H70.5568V22.7339C70.5568 21.3089 69.9523 20.6848 68.6643 20.6848C67.4742 20.6848 66.4014 21.4459 66.4014 22.8897V27.7866H65.1134V15.8459H66.4014V20.9965ZM73.9127 25.7767V20.8015H72.7617V19.7092H73.9127V17.8754H75.2007V19.7092H77.0932V20.8015H75.2007V25.66C75.2007 26.4406 75.5523 26.8306 76.1959 26.8306C76.5279 26.8306 76.8787 26.7726 77.1911 26.6559V27.7286C76.8385 27.845 76.4694 27.904 76.0981 27.9033C74.6158 27.9033 73.9127 27.0249 73.9127 25.7767ZM77.8152 25.3085H79.064C79.1619 26.2652 79.6692 26.8697 80.9565 26.8697C82.1858 26.8697 82.7127 26.4602 82.7127 25.5817C82.7127 24.704 82.088 24.4503 80.8202 24.2162C78.7125 23.8262 78.0101 23.2405 78.0101 21.8358C78.0101 20.3333 79.4735 19.5729 80.742 19.5729C82.1858 19.5729 83.4542 20.1579 83.6688 21.9141H82.4395C82.2445 21.0357 81.7567 20.6457 80.742 20.6457C79.8055 20.6457 79.2199 21.1139 79.2199 21.7967C79.2199 22.5186 79.6301 22.8115 81.1131 23.0847C82.791 23.3971 83.9616 23.7675 83.9616 25.4846C83.9616 26.948 82.9664 27.9432 80.9957 27.9432C79.0444 27.9236 77.8934 26.948 77.8152 25.3085Z" fill="#6C7180"/>
<path d="M85.0391 26.0505H86.5025V26.3427H85.956V28.001H85.5856V26.3427H85.0391V26.0505ZM87.7513 27.3965L88.2587 26.0694H88.7465V28.0206H88.3754V26.5383L87.7905 28.0213H87.6731L87.0881 26.5383V28.0213H86.7562V26.0701H87.244L87.7513 27.3965Z" fill="#6C7180"/>
</svg>
