<svg width="128" height="16" viewBox="0 0 128 16" fill="none" xmlns="http://www.w3.org/2000/svg">
<path d="M14.4619 0C15.3731 0.000156421 16.1356 0.74164 16.1357 1.67383V14.3262H16.1152C16.1151 15.2585 15.373 16 14.4404 16H1.80762C0.896281 16 0.132999 15.2585 0.132812 14.3262V1.67383C0.133002 0.762724 0.875092 0 1.80762 0H14.4619ZM38.8379 0.974609C42.1018 0.974754 44.1154 2.92442 44.1367 6.06055V9.875C44.1367 13.0537 42.1019 15.0252 38.8379 15.0254C35.5102 15.0254 33.5383 13.1392 33.5381 9.93945V6.12402C33.5383 2.90308 35.5314 0.974609 38.8379 0.974609ZM49.2451 9.95996C49.2451 11.6129 50.0292 12.4609 51.5977 12.4609C53.1662 12.4609 53.9717 11.6129 53.9717 9.95996V1.86523C53.9717 1.44153 54.2472 1.18668 54.6709 1.18652H56.7061V10.0664C56.7059 13.1179 54.7344 15.0254 51.5762 15.0254C48.3759 15.0252 46.4689 13.1813 46.4688 10.0664V1.86523C46.4688 1.44141 46.7226 1.18655 47.1465 1.18652H49.2451V9.95996ZM63.7012 0.974609C66.0115 0.974631 67.4951 2.05559 68.2158 4.23828L68.2588 4.38672L66.499 5.02246C66.372 5.06481 66.266 5.0859 66.1602 5.08594C65.927 5.08594 65.7356 4.95907 65.6084 4.68359C65.2269 3.83605 64.6128 3.4757 63.6592 3.47559C62.5359 3.47559 61.8576 3.96274 61.8574 4.78906C61.8574 5.61555 62.493 5.95505 64.7822 6.80273C67.2833 7.73518 68.4065 9.00671 68.4277 10.9775C68.4277 13.3932 66.5204 15.0252 63.6592 15.0254C60.9884 15.0254 59.4197 13.8595 58.8262 11.4648L58.7832 11.3164L60.5215 10.7021C60.6275 10.6598 60.7339 10.6387 60.8398 10.6387C61.0305 10.6388 61.285 10.7231 61.4121 11.083C61.6877 12.0367 62.4294 12.5029 63.7012 12.5029C64.8881 12.5029 65.6514 11.9311 65.6514 11.041C65.6514 10.1509 65.0148 9.76965 63.0859 9.07031C60.6486 8.18028 59.123 7.16246 59.123 4.78906C59.1232 2.50048 60.9669 0.974609 63.7012 0.974609ZM94.7324 0.954102C97.2972 0.954102 98.887 2.1404 99.6289 4.59863L99.6719 4.74707L97.8066 5.38281C97.4039 5.53114 97.0859 5.40384 96.9375 5.02246C96.5772 4.02655 95.8563 3.53918 94.7119 3.53906C92.995 3.53906 92.168 4.38667 92.168 6.14551V9.83301C92.168 11.5708 93.0374 12.4395 94.7119 12.4395C96.2166 12.4393 97.0859 11.719 97.0859 10.4688V9.85449C97.0859 9.74853 97.0853 9.64209 97.1064 9.53613C97.0006 9.55726 96.8737 9.55762 96.7256 9.55762H95.2627C94.8389 9.55762 94.5842 9.30346 94.584 8.87988L94.6055 7.12012V7.07812H99.7773V10.3203C99.7773 13.0753 97.6999 14.9824 94.7324 14.9824C91.4048 14.9823 89.4336 13.0964 89.4336 9.89648V6.04004C89.4336 2.86123 91.405 0.954102 94.6904 0.954102H94.7324ZM114.53 6.33594C116.565 6.33597 117.795 7.52303 117.795 9.47266V11.8037C117.795 13.7957 116.565 14.9824 114.53 14.9824C112.474 14.9824 111.266 13.8172 111.266 11.8467V9.51465C111.266 7.52285 112.496 6.33594 114.53 6.33594ZM107.196 6.46387C108.701 6.46388 109.677 7.12058 110.164 8.49805L110.228 8.68848L109.146 9.04883C108.935 9.1124 108.786 9.04913 108.701 8.8584C108.468 8.20147 107.959 7.86232 107.196 7.8623C106.052 7.8623 105.48 8.45565 105.479 9.68457V11.7832C105.48 12.9486 106.052 13.542 107.196 13.542C107.959 13.542 108.468 13.2028 108.701 12.5459C108.786 12.334 108.935 12.2919 109.146 12.3555L110.228 12.7158L110.164 12.9062C109.677 14.2625 108.701 14.9404 107.196 14.9404H107.133C105.119 14.9404 103.932 13.7746 103.932 11.8037V9.60059C103.932 7.62972 105.14 6.46387 107.133 6.46387H107.196ZM71.2891 1.20801H73.3662V14.8555H71.2891C70.8442 14.8554 70.59 14.6013 70.5898 14.1777V1.86523C70.5898 1.44148 70.8653 1.18663 71.2891 1.18652V1.20801ZM84.9824 1.20801H86.9746V14.8555H84.2402C83.7952 14.8554 83.541 14.6855 83.3291 14.2617L80.1709 7.88379C79.6834 6.88778 79.2588 5.82795 78.8984 4.89551C78.962 5.76421 78.9834 6.63288 78.9834 7.54395V14.8555H76.9912C76.5462 14.8555 76.2921 14.6014 76.292 14.1777V1.92871C76.292 1.48368 76.5676 1.20801 77.0127 1.20801H79.8525L83.2021 8.17969C83.6261 9.09095 84.0283 10.0877 84.3887 11.0625C84.3251 10.1936 84.3037 9.34544 84.3037 8.47656V1.86523C84.3037 1.44139 84.5585 1.18652 84.9824 1.18652V1.20801ZM23.0254 14.834H20.9482C20.5244 14.834 20.2697 14.6014 20.2695 14.1777V1.86523C20.2695 1.4202 20.5031 1.18652 20.9482 1.18652H23.0254V14.834ZM31.1221 14.834H29.0234C28.5997 14.8339 28.3458 14.5799 28.3457 14.1562V10.7227C28.3457 10.5957 28.3451 10.4476 28.3662 10.3418C28.2391 10.363 28.0909 10.3838 27.9639 10.3838H24.6152C24.1913 10.3838 23.9365 10.1084 23.9365 9.68457H23.9785V7.69238H31.1221V14.834ZM102.024 13.4355C102.13 13.4357 102.237 13.5419 102.258 13.6689V14.6016C102.258 14.7284 102.151 14.8339 102.024 14.834H101.092C100.965 14.834 100.859 14.7285 100.858 14.6016V13.6689C100.858 13.5418 100.965 13.4355 101.092 13.4355H102.024ZM127.333 6.48438V14.792H126.273C126.062 14.792 125.87 14.6225 125.87 14.3896V10.2783L124.111 14.8135H122.775C122.606 14.8134 122.458 14.7066 122.395 14.5371L120.741 10.2783V14.8135H119.681C119.469 14.8134 119.278 14.6432 119.278 14.4102V6.92969C119.278 6.71784 119.448 6.52747 119.681 6.52734H120.825L123.284 12.7148L125.637 6.78125C125.7 6.63293 125.849 6.52738 126.019 6.52734V6.48438H127.333ZM114.53 7.75586C113.407 7.75586 112.813 8.34977 112.813 9.49414V11.8037C112.813 12.9481 113.407 13.542 114.53 13.542C115.654 13.542 116.247 12.9481 116.247 11.8037V9.49414C116.247 8.37099 115.654 7.75589 114.53 7.75586ZM38.8379 3.56055C37.1423 3.56055 36.2941 4.42894 36.2939 6.12402V9.875C36.2939 11.5704 37.1634 12.4395 38.8379 12.4395C40.5334 12.4393 41.3809 11.5702 41.3809 9.875V6.12402C41.3807 4.42906 40.512 3.56067 38.8379 3.56055ZM2.76074 9.98145L4.01172 11.2314C4.16009 11.3798 4.37242 11.401 4.54199 11.2314C4.69592 11.0775 7.89062 7.84082 7.89062 7.84082C8.06007 7.6502 8.12402 7.52284 8.12402 7.48047C8.14521 7.52283 8.18739 7.67139 8.37793 7.84082C8.37793 7.84082 11.5761 11.0803 11.7061 11.2314C11.8756 11.401 12.0873 11.3798 12.2568 11.2314L13.5078 9.98145L8.12402 4.62012L2.76074 9.98145ZM29.002 1.20801H31.1006V6.78125H29.002C28.5783 6.78116 28.3243 6.52712 28.3242 6.10352V1.86523C28.3242 1.44147 28.5782 1.18662 29.002 1.18652V1.20801Z" fill="currentColor"/>
</svg>
