<svg width="154" height="48" viewBox="0 0 154 48" fill="none" xmlns="http://www.w3.org/2000/svg">
<path fill-rule="evenodd" clip-rule="evenodd" d="M2.0241 14H17.3253C18.4337 14 19.3494 14.9398 19.3494 16.0964V31.9036H19.3253C19.3253 33.0843 18.4337 34 17.3012 34H2.0241C0.915662 34 0 33.0602 0 31.9036V16.0964C0 14.9639 0.891565 14 2.0241 14ZM14 28.0241C14.2169 28.241 14.4578 28.2169 14.6747 28.0241H14.6265L16.1446 26.4578L9.63855 19.759L3.15663 26.4578L4.6747 28.0241C4.86747 28.2169 5.10843 28.241 5.3253 28.0241C5.49398 27.8313 9.37349 23.7831 9.37349 23.7831C9.59036 23.5422 9.66265 23.3735 9.66265 23.3253L9.66577 23.3347C9.69105 23.4116 9.74488 23.5752 9.9759 23.7831C9.9759 23.7831 13.8554 27.8313 14 28.0241ZM122.169 30.7711H123.301C123.446 30.7711 123.566 30.8915 123.59 31.0602V32.2168C123.59 32.3855 123.446 32.506 123.301 32.506H122.169C122 32.506 121.88 32.3855 121.88 32.2168V31.0602C121.88 30.8915 122.024 30.7711 122.169 30.7711ZM28.7952 26.0964C28.7952 26.6265 29.1084 26.9638 29.6145 26.9638H33.6627C33.8072 26.9638 34 26.9397 34.1446 26.9156C34.1205 27.0361 34.1205 27.2289 34.1205 27.3976V31.6867C34.1205 32.2168 34.4337 32.5301 34.9398 32.5301H37.4699V23.6144H28.8193V26.0964H28.7952ZM24.3614 31.6868V16.3133V16.2892C24.3614 15.735 24.6506 15.4458 25.1807 15.4458H27.6867V32.506H25.1807C24.6747 32.506 24.3614 32.2169 24.3614 31.6868ZM34.9397 15.4699C34.4337 15.4699 34.1204 15.7831 34.1204 16.3133V21.6145C34.1204 22.1446 34.4337 22.4578 34.9397 22.4578H37.4698V15.494H34.9397V15.4699ZM46.8434 18.4337C44.7952 18.4337 43.759 19.5181 43.759 21.6386V26.3373C43.759 28.4578 44.7952 29.5422 46.8434 29.5422C48.8916 29.5422 49.9277 28.4578 49.9277 26.3373V21.6386C49.9277 19.5181 48.8916 18.4337 46.8434 18.4337ZM40.4337 21.6386C40.4337 17.6145 42.8434 15.2048 46.8434 15.2048C50.7952 15.2048 53.2289 17.6386 53.253 21.5663V26.3373C53.253 30.3133 50.8675 32.7711 46.8434 32.7711C42.8193 32.7711 40.4337 30.4096 40.4337 26.4096V21.6386ZM66 15.4699C65.494 15.4699 65.1566 15.7831 65.1566 16.3133V26.4337C65.1566 28.506 64.1928 29.5663 62.2891 29.5663C60.3855 29.5663 59.4458 28.506 59.4458 26.4337V15.4699H56.9157C56.4096 15.4699 56.0964 15.7831 56.0964 16.3133V26.5542C56.0964 30.4578 58.4096 32.747 62.2891 32.747C66.1687 32.747 68.506 30.3614 68.506 26.5542V15.4699H66.0482H66ZM74.6988 20C74.6988 21.0121 75.4699 21.4458 78.241 22.506V22.5542C81.2771 23.7109 82.6265 25.3012 82.6506 27.759C82.6506 30.7711 80.3374 32.8193 76.8675 32.8193C73.6386 32.8193 71.735 31.3494 71.0121 28.3615L70.9639 28.1687L73.0603 27.3976C73.1807 27.3494 73.3253 27.3253 73.4458 27.3253C73.6868 27.3253 74 27.4217 74.1446 27.8795C74.4819 29.0843 75.3735 29.6627 76.9157 29.6627C78.3615 29.6627 79.2771 28.9398 79.2771 27.8313C79.2771 26.7229 78.506 26.241 76.1687 25.3735C73.2289 24.2651 71.3735 22.8916 71.3735 20.0241C71.3735 17.1566 73.6145 15.253 76.9157 15.253C79.7109 15.253 81.5181 16.6024 82.3856 19.3253L82.4337 19.5181L80.3133 20.3133C80.1687 20.3615 80.0241 20.3856 79.9036 20.3856C79.6145 20.3856 79.3735 20.2169 79.2289 19.8795C78.7711 18.8193 78.0241 18.3615 76.8675 18.3615C75.5181 18.3615 74.6988 18.988 74.6988 20ZM86.1205 15.4699C85.6145 15.4699 85.2771 15.7831 85.2771 16.3133V31.6867C85.2771 32.2169 85.5904 32.5301 86.1205 32.5301H88.6265V15.4699H86.1205ZM101.855 16.3133C101.855 15.7831 102.169 15.4699 102.675 15.4699V15.494H105.084V32.5542H101.783C101.229 32.5542 100.94 32.3373 100.675 31.8072L96.8433 23.8313C96.2409 22.5783 95.7349 21.253 95.3012 20.0964C95.3735 21.1807 95.3975 22.2651 95.3975 23.3976V32.5301H92.9879C92.4578 32.5301 92.1445 32.2169 92.1445 31.6867V16.3855C92.1445 15.8313 92.4819 15.494 93.012 15.494H96.4578L100.506 24.2169C101.036 25.3494 101.518 26.5783 101.952 27.8072C101.879 26.7229 101.855 25.6627 101.855 24.5783V16.3133ZM114.337 22.8915V25.0843C114.313 25.6144 114.626 25.9277 115.132 25.9277H116.892C117.06 25.9277 117.229 25.9277 117.349 25.9036C117.325 26.024 117.325 26.1686 117.325 26.289V26.2891V27.0602C117.325 28.6265 116.265 29.518 114.458 29.518C112.434 29.518 111.373 28.4337 111.373 26.265V21.6626C111.373 19.4699 112.385 18.4096 114.458 18.4096C115.831 18.4096 116.723 19.012 117.157 20.265C117.325 20.747 117.711 20.8915 118.217 20.7229L120.482 19.9277L120.434 19.7349C119.542 16.6747 117.614 15.1807 114.506 15.1807H114.458C110.482 15.1807 108.096 17.5662 108.096 21.5421V26.3614C108.096 30.3614 110.482 32.7229 114.506 32.7229C118.096 32.7229 120.602 30.3373 120.602 26.8915V22.8433H114.337V22.8915ZM134.506 25.8795C134.506 23.3976 136 21.9036 138.458 21.9036C140.916 21.9036 142.41 23.3976 142.41 25.8313V28.747C142.41 31.2289 140.94 32.7229 138.458 32.7229C135.976 32.7229 134.506 31.253 134.506 28.7952V25.8795ZM140.53 28.747V25.8554C140.53 24.4578 139.807 23.6867 138.458 23.6867C137.108 23.6867 136.386 24.4337 136.386 25.8554V28.747C136.386 30.1687 137.108 30.9157 138.458 30.9157C139.807 30.9157 140.53 30.1687 140.53 28.747ZM129.566 23.8072C130.482 23.8072 131.108 24.241 131.398 25.0603C131.494 25.3012 131.687 25.3735 131.928 25.3012L133.229 24.8434L133.157 24.6024C132.578 22.8916 131.398 22.0723 129.566 22.0723H129.494C127.084 22.0723 125.614 23.5181 125.614 26V28.747C125.614 31.2048 127.06 32.6747 129.494 32.6747H129.566C131.398 32.6747 132.578 31.8313 133.157 30.1446L133.229 29.9036L131.928 29.4458C131.663 29.3735 131.494 29.4217 131.398 29.6868C131.108 30.506 130.506 30.9398 129.566 30.9398C128.193 30.9398 127.494 30.1928 127.494 28.747V26.1205C127.494 24.5783 128.193 23.8313 129.566 23.8313V23.8072ZM151.904 22.4578C151.976 22.2651 152.145 22.1446 152.361 22.1446V22.0964H153.952V32.4819H152.675C152.434 32.4819 152.193 32.2651 152.193 31.9759V26.8434L150.072 32.506H148.458C148.265 32.506 148.072 32.3855 148 32.1687L146 26.8434V32.506H144.723C144.482 32.506 144.241 32.2892 144.241 32V22.6506C144.241 22.3855 144.434 22.1446 144.723 22.1446H146.096L149.06 29.8795L151.904 22.4578Z" fill="white"/>
</svg>
