<svg width="14" height="14" viewBox="0 0 14 14" fill="none" xmlns="http://www.w3.org/2000/svg">
<path fill-rule="evenodd" clip-rule="evenodd" d="M1.47281 0.122994C1.24347 0.151506 1.09726 0.192818 0.928812 0.276706C0.49038 0.495042 0.17598 0.908466 0.085852 1.38517C0.054716 1.54983 0.054716 12.563 0.085852 12.7277C0.21118 13.3906 0.755836 13.9011 1.42481 13.9828C1.62844 14.0076 12.3732 14.0076 12.5768 13.9828C13.2833 13.8965 13.8409 13.3389 13.9271 12.6324C13.952 12.4288 13.952 1.68407 13.9271 1.48043C13.8475 0.827906 13.3791 0.311618 12.7187 0.148402C12.6165 0.123138 12.2216 0.12109 7.06481 0.119138C4.01561 0.11797 1.49921 0.119714 1.47281 0.122994ZM1.44081 1.30256C1.34467 1.34802 1.28587 1.40775 1.24211 1.50443C1.21121 1.57269 1.2095 1.60747 1.20916 2.17243L1.20881 2.76843H7.00081H12.7928L12.7927 2.17243C12.7925 1.57925 12.7923 1.57605 12.7547 1.49643C12.7092 1.40029 12.6495 1.34149 12.5528 1.29773C12.4808 1.26514 12.4795 1.26514 7.00081 1.26495L1.52081 1.26475L1.44081 1.30256ZM1.20916 8.22843C1.20952 12.5279 1.20958 12.5366 1.24211 12.6084C1.28587 12.7051 1.34467 12.7648 1.44081 12.8103L1.52081 12.8481H7.00081H12.4808L12.5608 12.8103C12.657 12.7648 12.7158 12.7051 12.7595 12.6084C12.792 12.5366 12.7921 12.5279 12.7925 8.22843L12.7928 3.92043H7.00081H1.20881L1.20916 8.22843ZM3.73681 6.25907C3.61313 6.30759 3.46571 6.45712 3.4194 6.58104C3.37275 6.70592 3.37251 6.8777 3.4188 7.00383C3.45048 7.09013 3.49649 7.14031 4.09435 7.74043L4.73592 8.38443L4.09435 9.02843C3.49649 9.62856 3.45048 9.67874 3.4188 9.76504C3.34809 9.95767 3.3847 10.1918 3.50808 10.3359C3.6315 10.4801 3.801 10.5528 3.988 10.5417C4.21089 10.5284 4.19107 10.5448 5.14723 9.58767C5.82408 8.91016 6.01448 8.71069 6.04744 8.64456C6.12414 8.49059 6.12744 8.28432 6.05556 8.13408C6.02697 8.07434 5.81897 7.85642 5.15361 7.18909C4.17043 6.20301 4.212 6.23648 3.96081 6.22875C3.85236 6.22541 3.80699 6.23155 3.73681 6.25907ZM7.79281 7.83093C7.6804 7.85871 7.61563 7.8961 7.52784 7.98387C7.43326 8.07845 7.39068 8.16032 7.37033 8.28666C7.31889 8.60608 7.52475 8.89277 7.84299 8.94488C7.96561 8.96496 10.0191 8.96511 10.1417 8.94504C10.3195 8.91591 10.4786 8.79923 10.5659 8.63381C10.6046 8.56048 10.6088 8.53581 10.6088 8.38443C10.6088 8.23696 10.6039 8.20679 10.5688 8.13746C10.5214 8.04383 10.3989 7.91635 10.3154 7.87376C10.2826 7.85703 10.2133 7.83549 10.1614 7.82589C10.0211 7.79997 7.89985 7.80448 7.79281 7.83093Z" fill="currentColor"/>
</svg>
