<svg width="14" height="16" viewBox="0 0 14 16" fill="none" xmlns="http://www.w3.org/2000/svg">
<path fill-rule="evenodd" clip-rule="evenodd" d="M6.60847 0.593905C5.77157 0.657809 5.29455 0.74728 4.65647 0.960065C3.06442 1.49094 1.7188 2.51906 0.781332 3.92082C0.573124 4.23211 0.560628 4.26154 0.560548 4.44074C0.560468 4.58075 0.564724 4.60173 0.61314 4.70006C0.673236 4.82216 0.757956 4.9041 0.888468 4.9664C0.963284 5.00211 0.998052 5.0084 1.12047 5.0084C1.24208 5.0084 1.27815 5.00195 1.35247 4.96696C1.48584 4.90414 1.53437 4.85434 1.68464 4.62608C1.96477 4.20056 2.21319 3.89587 2.56 3.5524C3.05316 3.06403 3.59008 2.68566 4.24047 2.36826C5.13015 1.93403 5.99325 1.73646 7.00047 1.73646C8.00796 1.73646 8.87536 1.9351 9.76047 2.36848C10.8353 2.89477 11.6506 3.61491 12.3163 4.62608C12.4666 4.85434 12.5151 4.90414 12.6485 4.96696C12.7228 5.00195 12.7589 5.0084 12.8805 5.0084C13.0029 5.0084 13.0377 5.00211 13.1125 4.9664C13.243 4.9041 13.3277 4.82216 13.3878 4.70006C13.4362 4.60173 13.4405 4.58075 13.4404 4.44074C13.4403 4.26154 13.4278 4.23211 13.2196 3.92082C12.5892 2.97814 11.8268 2.24819 10.8625 1.66395C9.88511 1.07179 8.84984 0.728336 7.70447 0.616272C7.5298 0.599184 6.74821 0.583233 6.60847 0.593905ZM1.51658 5.8983C1.41152 5.93869 1.26674 6.06918 1.2161 6.16914C1.195 6.21077 1.17031 6.29062 1.16122 6.34661C1.13866 6.48573 1.13866 9.62707 1.16122 9.76619C1.18375 9.90496 1.23775 10.0041 1.34351 10.1007C1.46666 10.2133 1.57653 10.2529 1.74447 10.2455C1.90381 10.2383 2.01672 10.1896 2.12516 10.0812C2.29101 9.91533 2.29647 9.88155 2.29647 9.01981V8.32078L2.87032 9.18098C3.18596 9.65408 3.45775 10.0564 3.47432 10.0751C3.5226 10.1295 3.65807 10.2092 3.74053 10.2318C3.85916 10.2642 4.03544 10.2468 4.14384 10.192C4.25023 10.1382 4.35492 10.031 4.4092 9.9204L4.44847 9.8404V8.0564V6.2724L4.4092 6.1924C4.35448 6.0809 4.25002 5.97453 4.14096 5.91926C4.05703 5.87674 4.03367 5.8724 3.88847 5.8724C3.7498 5.8724 3.7178 5.87773 3.64847 5.9124C3.53943 5.96693 3.42328 6.08611 3.37148 6.19662L3.32847 6.2884L3.32047 7.03858L3.31247 7.78875L2.72893 6.91312C2.3344 6.32112 2.12544 6.02168 2.08378 5.98869C1.92967 5.86662 1.69591 5.82938 1.51658 5.8983ZM5.59247 5.87936C5.44143 5.92547 5.29476 6.05312 5.22719 6.19726L5.18447 6.2884V8.0564V9.8244L5.22719 9.91554C5.28168 10.0318 5.39306 10.1432 5.50933 10.1977L5.60047 10.2404L6.70701 10.2447C7.81039 10.249 7.81383 10.2489 7.90701 10.2141C8.03578 10.166 8.18194 10.0201 8.22988 9.89179C8.27573 9.76906 8.27677 9.59448 8.23234 9.47573C8.17519 9.32299 8.01618 9.17803 7.85461 9.13141C7.80802 9.11795 7.57282 9.1124 7.05026 9.1124H6.31178L6.31612 8.8044L6.32047 8.4964L6.96847 8.4884L7.61647 8.4804L7.69351 8.44104C7.91743 8.32666 8.036 8.12584 8.0217 7.88522C8.00948 7.67928 7.88124 7.49202 7.6916 7.40312L7.60047 7.3604L6.95647 7.35587L6.31247 7.35136V7.17587V7.0004H7.05061C7.5729 7.0004 7.80802 6.99485 7.85461 6.98139C8.01618 6.93477 8.17519 6.78981 8.23234 6.63707C8.27677 6.51832 8.27573 6.34374 8.22988 6.22101C8.18208 6.09314 8.03573 5.94678 7.90786 5.89899C7.81613 5.86472 7.80508 5.86442 6.72386 5.86578C6.1236 5.86653 5.61447 5.87264 5.59247 5.87936ZM8.81796 5.90323C8.76597 5.92504 8.69794 5.9635 8.66677 5.98874C8.54493 6.08734 8.45647 6.26859 8.45647 6.4196C8.45647 6.52867 8.98116 9.64757 9.0178 9.75637C9.0737 9.92229 9.18576 10.0552 9.35559 10.157C9.47456 10.2284 9.60436 10.2552 9.77826 10.2443C9.89327 10.2371 9.93412 10.2265 10.03 10.1789C10.1719 10.1084 10.2799 10.012 10.3498 9.89352C10.3793 9.84354 10.456 9.64914 10.5202 9.46152C10.5845 9.2739 10.642 9.1148 10.648 9.10797C10.654 9.10112 10.7113 9.24864 10.7754 9.43578C10.9105 9.83064 10.9451 9.90478 11.0434 10.0099C11.1919 10.1686 11.3751 10.2485 11.5899 10.2482C11.9382 10.2477 12.2261 10.0212 12.3113 9.6804C12.3571 9.4973 12.843 6.5152 12.8435 6.41442C12.8439 6.31966 12.8358 6.28322 12.7952 6.19842C12.7351 6.07275 12.6396 5.9741 12.5219 5.91632C12.4425 5.87731 12.4145 5.8724 12.2725 5.8724C12.1347 5.8724 12.1025 5.8777 12.0405 5.91053C11.8823 5.99427 11.7714 6.11933 11.7344 6.25546C11.7247 6.29117 11.658 6.67278 11.5862 7.10349L11.4555 7.88656L11.3553 7.60211C11.3002 7.44566 11.2372 7.28922 11.2153 7.25448C10.9892 6.89642 10.4837 6.84194 10.1838 7.14333C10.08 7.24771 10.0401 7.3276 9.9372 7.63741C9.89536 7.76336 9.8572 7.86246 9.85237 7.85765C9.84756 7.85282 9.78399 7.4927 9.71111 7.05738C9.62692 6.55435 9.56698 6.23957 9.54668 6.19366C9.50189 6.09243 9.38599 5.97451 9.27696 5.91926C9.19989 5.88021 9.1618 5.87166 9.04847 5.868C8.93354 5.86429 8.89783 5.86974 8.81796 5.90323ZM0.941268 11.1252C0.779956 11.1828 0.674484 11.2783 0.601908 11.4324C0.566372 11.5079 0.560484 11.5421 0.560548 11.6724C0.560628 11.8512 0.573204 11.8808 0.781332 12.192C1.51994 13.2964 2.48751 14.1514 3.66621 14.7413C4.51527 15.1663 5.34671 15.4036 6.32047 15.499C6.58959 15.5253 7.41135 15.5253 7.68047 15.499C8.85045 15.3844 9.87818 15.0452 10.8625 14.4488C11.8254 13.8655 12.5901 13.1333 13.2196 12.192C13.4278 11.8807 13.4403 11.8513 13.4404 11.6721C13.4405 11.532 13.4362 11.5111 13.3878 11.4127C13.3277 11.2906 13.243 11.2087 13.1125 11.1464C13.0377 11.1107 13.0029 11.1044 12.8805 11.1044C12.7589 11.1044 12.7228 11.1108 12.6485 11.1458C12.5151 11.2087 12.4666 11.2585 12.3163 11.4867C11.6915 12.4358 10.9195 13.141 9.94418 13.6534C9.00528 14.1466 8.07015 14.3763 7.00047 14.3763C5.99432 14.3763 5.12914 14.1783 4.24047 13.7445C3.17469 13.2244 2.34757 12.4937 1.68464 11.4867C1.60872 11.3714 1.52272 11.2568 1.49354 11.2322C1.34965 11.1105 1.11164 11.0644 0.941268 11.1252Z" fill="currentColor"/>
</svg>
