<svg width="14" height="14" viewBox="0 0 14 14" fill="none" xmlns="http://www.w3.org/2000/svg">
<path fill-rule="evenodd" clip-rule="evenodd" d="M1.47281 0.0338825C1.24347 0.0623945 1.09726 0.103706 0.928812 0.187594C0.49038 0.40593 0.17598 0.819355 0.085852 1.29606C0.054716 1.46071 0.054716 12.4739 0.085852 12.6386C0.21118 13.3015 0.755836 13.812 1.42481 13.8937C1.62844 13.9185 12.3732 13.9185 12.5768 13.8937C13.2833 13.8074 13.8409 13.2498 13.9271 12.5433C13.952 12.3397 13.952 1.59495 13.9271 1.39132C13.8475 0.738795 13.3791 0.222506 12.7187 0.0592905C12.6165 0.0340265 12.2216 0.0319784 7.06481 0.0300264C4.01561 0.0288584 1.49921 0.0306025 1.47281 0.0338825ZM1.44081 1.21345C1.34467 1.25891 1.28587 1.31863 1.24211 1.41532C1.21121 1.48358 1.2095 1.51836 1.20916 2.08332L1.20881 2.67932H7.00081H12.7928L12.7927 2.08332C12.7925 1.49014 12.7923 1.48694 12.7547 1.40732C12.7092 1.31118 12.6495 1.25238 12.5528 1.20862C12.4808 1.17603 12.4795 1.17603 7.00081 1.17583L1.52081 1.17564L1.44081 1.21345ZM1.20916 8.13932C1.20952 12.4388 1.20958 12.4475 1.24211 12.5193C1.28587 12.616 1.34467 12.6757 1.44081 12.7212L1.52081 12.759H7.00081H12.4808L12.5608 12.7212C12.657 12.6757 12.7158 12.616 12.7595 12.5193C12.792 12.4475 12.7921 12.4388 12.7925 8.13932L12.7928 3.83132H7.00081H1.20881L1.20916 8.13932ZM7.08881 4.83292C6.88062 4.90884 2.6866 6.73929 2.64305 6.77324C2.5672 6.83236 2.49126 6.93678 2.45532 7.03135C2.42516 7.11075 2.4244 7.16406 2.42854 8.87622L2.43281 10.6393L2.48017 10.7328C2.54065 10.8522 2.66928 10.9707 2.78547 11.0142C2.90524 11.059 3.08038 11.059 3.20016 11.0142C3.31732 10.9703 3.45056 10.8476 3.50811 10.7304L3.55281 10.6393L3.55718 9.36975C3.56131 8.17481 3.56318 8.10081 3.58918 8.11075C3.60438 8.11655 3.78393 8.19369 3.98817 8.28217L4.35955 8.44303L4.36448 9.32518C4.36891 10.1193 4.37219 10.2145 4.39736 10.2793C4.49825 10.5392 4.97499 10.9444 5.46542 11.187C6.03667 11.4697 6.56048 11.5838 7.28081 11.5824C7.87649 11.5812 8.31856 11.5015 8.80081 11.3082C9.37449 11.0782 9.95384 10.6444 10.1096 10.3281L10.1608 10.224L10.1653 9.33374L10.1698 8.44343L10.9733 8.09652C11.4152 7.90572 11.8147 7.7239 11.8609 7.69246C11.9613 7.62422 12.0289 7.53668 12.0744 7.41609C12.1013 7.34489 12.1066 7.30164 12.1014 7.19759C12.0898 6.96932 11.9754 6.80305 11.7608 6.70275C11.5531 6.60564 7.53764 4.86815 7.4503 4.83759C7.34702 4.80145 7.18097 4.79931 7.08881 4.83292ZM5.84571 6.61262C5.0828 6.9446 4.45523 7.21961 4.45113 7.22377C4.44702 7.22793 5.07872 7.50643 5.85489 7.84265L7.26612 8.45398L8.67675 7.84273C9.4526 7.50655 10.0823 7.22689 10.0761 7.22127C10.0513 7.19879 7.31006 6.01787 7.27281 6.01361C7.24784 6.01075 6.71203 6.23564 5.84571 6.61262ZM5.51281 9.40603V9.86073L5.603 9.93228C5.87756 10.1501 6.29257 10.3266 6.70481 10.4008C6.90121 10.4361 7.41625 10.4488 7.64224 10.4239C7.96654 10.3881 8.30083 10.2933 8.56081 10.1634C8.68227 10.1027 8.89513 9.96489 8.97307 9.89647L9.03281 9.84401V9.39766C9.03281 9.08835 9.0275 8.95132 9.01552 8.95132C9.006 8.95132 8.65859 9.09812 8.24352 9.27756C7.82843 9.45699 7.46078 9.61268 7.42651 9.62356C7.34617 9.64905 7.18272 9.64889 7.10312 9.62326C7.06884 9.61222 6.70161 9.45652 6.28702 9.27726C5.87244 9.09799 5.52864 8.95132 5.52302 8.95132C5.5174 8.95132 5.51281 9.15595 5.51281 9.40603Z" fill="currentColor"/>
</svg>
