<svg width="16" height="16" viewBox="0 0 16 16" fill="none" xmlns="http://www.w3.org/2000/svg">
<path fill-rule="evenodd" clip-rule="evenodd" d="M7.44367 0.548981C7.32861 0.581509 7.23114 0.647253 7.13707 0.755813C6.82552 1.11536 1.07661 8.21581 1.04195 8.28386C0.964945 8.43508 0.966641 8.63634 1.04627 8.79143C1.09735 8.89092 1.21443 9.00068 1.32304 9.05087L1.4208 9.09605L3.28851 9.10037L5.15623 9.10469L5.16051 11.2047L5.1648 13.3047L5.21637 13.4095C5.27894 13.5366 5.37483 13.6349 5.49269 13.6928C5.57045 13.731 5.59866 13.7359 5.7328 13.7349C5.90891 13.7336 5.99195 13.7044 6.10203 13.6052C6.17123 13.5428 7.91651 11.4047 7.99378 11.2877C8.01717 11.2522 8.04837 11.1743 8.06312 11.1146C8.12725 10.8547 7.99181 10.5867 7.7356 10.4666C7.6592 10.4308 7.62323 10.4241 7.5088 10.4245C7.35187 10.425 7.23823 10.4672 7.13088 10.5648C7.09674 10.5958 6.8996 10.83 6.6928 11.0852L6.3168 11.5492L6.3088 9.97861C6.29989 8.22921 6.30835 8.35492 6.18848 8.1916C6.13099 8.1133 6.01011 8.02298 5.9088 7.98268C5.86261 7.96428 5.58309 7.95954 4.31167 7.9556C3.46405 7.953 2.77285 7.94525 2.77567 7.93842C2.7785 7.93159 3.7312 6.75658 4.8928 5.3273L7.0048 2.7286L7.0128 4.29632L7.0208 5.86405L7.05823 5.9568C7.10109 6.06301 7.22693 6.20204 7.32592 6.25253C7.45381 6.3178 7.51682 6.32005 9.20575 6.32005H10.8328L10.8432 6.37188C10.8593 6.45269 10.9443 6.57736 11.0345 6.65277C11.2288 6.81506 11.4965 6.82396 11.7206 6.67562C11.806 6.61912 12.2169 6.11416 12.2787 5.98975C12.4466 5.6518 12.2445 5.25487 11.8692 5.18548C11.8048 5.17357 11.2038 5.16805 9.97015 5.16805H8.16538L8.16109 3.06772L8.1568 0.967365L8.1048 0.861749C7.98211 0.612533 7.69661 0.477477 7.44367 0.548981ZM11.5003 7.39188C11.3629 7.41106 11.2143 7.46394 11.0848 7.53981C10.9506 7.61842 10.752 7.8142 10.6829 7.93605C10.4374 8.36901 7.48307 13.7134 7.45323 13.7786C7.38875 13.9196 7.35919 14.0714 7.35871 14.2641C7.35821 14.4582 7.37618 14.559 7.43935 14.7169C7.60013 15.1188 7.93019 15.3883 8.34391 15.4554C8.48322 15.4781 14.7904 15.4781 14.9297 15.4554C15.191 15.413 15.443 15.2761 15.6114 15.0852C15.9307 14.723 16.0122 14.1919 15.8138 13.7658C15.7887 13.7117 15.0579 12.3647 14.1899 10.7725C13.0762 8.72935 12.5892 7.85074 12.5351 7.78674C12.287 7.49335 11.8816 7.33864 11.5003 7.39188ZM10.0808 11.3843C9.10179 13.1509 8.5008 14.2515 8.5008 14.2777V14.3201H11.6385H14.7763L14.7701 14.2681C14.7665 14.238 14.1203 13.0349 13.2383 11.4161C12.3992 9.87605 11.701 8.5974 11.6867 8.57458C11.6609 8.5333 11.6537 8.54588 10.0808 11.3843ZM11.5008 10.1025C11.4568 10.1134 11.3984 10.1341 11.371 10.1484C11.2923 10.1898 11.1791 10.309 11.1299 10.4024L11.0848 10.4881V11.1841V11.8801L11.1299 11.9657C11.1814 12.0634 11.2942 12.1799 11.3796 12.2234C11.4115 12.2397 11.4832 12.262 11.539 12.273C11.7906 12.3225 12.0437 12.192 12.1615 11.9522L12.2048 11.8641V11.1841V10.5041L12.1615 10.4161C12.0359 10.1611 11.7715 10.0357 11.5008 10.1025ZM11.5808 12.6036C11.4103 12.6215 11.2661 12.6906 11.1443 12.813C11.0323 12.9253 10.9677 13.05 10.9449 13.1974C10.9107 13.4181 10.9776 13.628 11.1345 13.7925C11.4118 14.0832 11.8607 14.0844 12.1366 13.7951C12.3174 13.6056 12.3799 13.3729 12.316 13.1274C12.2537 12.8882 12.0496 12.6854 11.8128 12.6275C11.7221 12.6053 11.6424 12.5971 11.5808 12.6036Z" fill="currentColor"/>
</svg>
