<svg width="16" height="16" viewBox="0 0 16 16" fill="none" xmlns="http://www.w3.org/2000/svg">
<path fill-rule="evenodd" clip-rule="evenodd" d="M2.44261 0.601443C1.52566 0.707843 0.760464 1.40848 0.57768 2.30906C0.432688 3.02343 0.646784 3.75074 1.15286 4.26303C1.40192 4.51516 1.64842 4.67082 1.99286 4.79352L2.12086 4.83911V8.05645V11.2738L1.99286 11.3194C1.64842 11.4421 1.40192 11.5977 1.15286 11.8499C0.336784 12.676 0.32544 14.0049 1.12726 14.8523C1.42234 15.1641 1.83707 15.3951 2.25347 15.4796C2.96784 15.6246 3.69515 15.4105 4.20744 14.9045C4.45957 14.6554 4.61523 14.4089 4.73794 14.0645L4.78352 13.9365H8.00086H11.2182L11.2638 14.0645C11.5175 14.7767 12.0698 15.2816 12.7929 15.4624C13.7626 15.7048 14.7913 15.2292 15.2401 14.331C15.5509 13.7088 15.5445 12.9666 15.2231 12.3611C14.9596 11.8648 14.5475 11.5113 14.0089 11.3194L13.8809 11.2738V8.05645V4.83911L14.0089 4.79352C14.3533 4.67082 14.5998 4.51516 14.8489 4.26303C15.8751 3.22421 15.5832 1.47066 14.2754 0.817251C13.6532 0.506403 12.911 0.512803 12.3055 0.834243C11.8094 1.09764 11.4528 1.51314 11.2635 2.04845L11.2182 2.17645H8.00086H4.78352L4.73794 2.04845C4.67531 1.87268 4.62312 1.76032 4.54382 1.63066C4.10034 0.905411 3.28114 0.504147 2.44261 0.601443ZM2.43286 1.76157C2.09058 1.85106 1.79195 2.15231 1.70501 2.49581C1.67435 2.6169 1.67432 2.86668 1.70493 2.99652C1.80922 3.43885 2.23235 3.76789 2.69686 3.76789C2.97774 3.76789 3.20179 3.67266 3.40944 3.46503C3.61707 3.25738 3.7123 3.03333 3.7123 2.75245C3.7123 2.28794 3.38326 1.8648 2.94093 1.76052C2.81494 1.73082 2.54838 1.73136 2.43286 1.76157ZM13.0535 1.76127C13.0032 1.77346 12.9132 1.80837 12.8535 1.83887C12.3481 2.09679 12.1468 2.69845 12.3959 3.20639C12.4796 3.37719 12.6801 3.5777 12.8509 3.66146C13.3585 3.91039 13.9605 3.70919 14.2181 3.20452C14.2484 3.14514 14.2838 3.05154 14.2968 2.99652C14.3274 2.86668 14.3274 2.6169 14.2967 2.49581C14.2088 2.14868 13.9086 1.84847 13.5615 1.7606C13.4434 1.73069 13.1782 1.73104 13.0535 1.76127ZM4.77776 3.34042C4.66424 3.71109 4.46506 4.03904 4.1941 4.3013C3.96331 4.52471 3.68941 4.69316 3.38486 4.799L3.27286 4.83791V8.05645V11.275L3.38486 11.3135C3.92838 11.5005 4.39574 11.9144 4.6395 12.4245C4.67523 12.4993 4.722 12.6109 4.74341 12.6725L4.78232 12.7845H8.00086H11.2194L11.2583 12.6725C11.3644 12.3673 11.5326 12.094 11.7572 11.862C11.9938 11.6176 12.2988 11.423 12.6169 11.3135L12.7289 11.275V8.05645V4.83791L12.6169 4.79938C12.0733 4.61236 11.606 4.19853 11.3622 3.68844C11.3265 3.61364 11.2797 3.50205 11.2583 3.44045L11.2194 3.32845L8.00165 3.32442C5.43522 3.32119 4.78264 3.32444 4.77776 3.34042ZM5.1337 5.40663C4.83245 5.53077 4.69674 5.87244 4.82947 6.1725C4.89216 6.31421 5.05266 6.44853 5.20395 6.48591C5.31155 6.51248 10.6902 6.51248 10.7978 6.48591C10.9497 6.44839 11.1096 6.31421 11.1728 6.1712C11.2981 5.88791 11.1738 5.54861 10.8969 5.41796L10.8089 5.37645L8.01686 5.37276L5.22486 5.36908L5.1337 5.40663ZM5.23718 7.49719C5.12382 7.51978 5.03477 7.56807 4.94989 7.65295C4.85382 7.74901 4.80253 7.84783 4.78618 7.96832C4.76022 8.15964 4.81402 8.32408 4.94563 8.45568C5.03491 8.54498 5.12776 8.59394 5.25099 8.61672C5.30904 8.62746 6.26483 8.63154 8.05794 8.62872C10.5878 8.62476 10.7816 8.62253 10.8456 8.59688C11.0015 8.53444 11.1413 8.39365 11.194 8.24616C11.2081 8.20664 11.2189 8.1245 11.2189 8.05645C11.2189 7.9884 11.2081 7.90626 11.194 7.86674C11.1413 7.71925 11.0015 7.57847 10.8456 7.51602C10.7816 7.49034 10.5895 7.48829 8.04086 7.48607C6.53606 7.48476 5.2744 7.48976 5.23718 7.49719ZM5.19218 9.63002C5.04182 9.67287 4.89077 9.80183 4.82998 9.93925C4.70318 10.2259 4.82594 10.5634 5.10486 10.6949L5.19286 10.7365H8.00086H10.8089L10.8969 10.6945C11.3035 10.5004 11.335 9.93861 10.9529 9.69628C10.9089 9.66837 10.8391 9.6372 10.7978 9.627C10.6908 9.60056 5.28534 9.60348 5.19218 9.63002ZM2.46486 12.3694C2.11029 12.4458 1.78843 12.7622 1.70493 13.1164C1.67432 13.2462 1.67435 13.496 1.70501 13.6171C1.79288 13.9642 2.09309 14.2644 2.44022 14.3523C2.56131 14.383 2.81109 14.383 2.94093 14.3524C2.99595 14.3394 3.08955 14.304 3.14893 14.2738C3.65334 14.0166 3.85474 13.414 3.60587 12.9065C3.52211 12.7357 3.3216 12.5352 3.1508 12.4514C2.94141 12.3488 2.69653 12.3195 2.46486 12.3694ZM13.0756 12.369C13.0198 12.3811 12.919 12.4181 12.8516 12.4511C12.6801 12.5352 12.4798 12.7354 12.3959 12.9065C12.1469 13.4141 12.3481 14.0161 12.8528 14.2737C12.9954 14.3465 13.1277 14.3759 13.3135 14.3762C13.6036 14.3767 13.8185 14.2874 14.0252 14.0808C14.2318 13.8741 14.3211 13.6591 14.3206 13.3691C14.3203 13.1833 14.2909 13.051 14.2181 12.9084C14.0031 12.4871 13.5396 12.2683 13.0756 12.369Z" fill="currentColor"/>
</svg>
