<svg width="16" height="16" viewBox="0 0 16 16" fill="none" xmlns="http://www.w3.org/2000/svg">
<path fill-rule="evenodd" clip-rule="evenodd" d="M7.77033 0.216652C6.48752 0.302172 5.2383 0.72086 4.17033 1.42326C3.31835 1.98361 2.57921 2.72275 2.01886 3.57473C1.56448 4.2656 1.20568 5.08782 1.01184 5.88238C0.518158 7.90601 0.883422 10.0403 2.01886 11.7667C2.57832 12.6174 3.31969 13.3587 4.17033 13.9182C4.8612 14.3726 5.68342 14.7314 6.47798 14.9252C8.50105 15.4188 10.6364 15.0533 12.3623 13.9182C13.2112 13.3599 13.9425 12.6297 14.5054 11.7783C15.0544 10.9479 15.4425 9.97995 15.6166 9.00673C15.8974 7.43731 15.6816 5.84766 14.9955 4.43073C14.6131 3.64123 14.1623 3.00654 13.5464 2.39062C12.6864 1.5306 11.6814 0.919548 10.5107 0.544812C9.65864 0.272076 8.68608 0.155628 7.77033 0.216652ZM7.77833 1.36072C5.85525 1.51219 4.08747 2.54529 3.01443 4.14481C2.46141 4.96915 2.12265 5.87571 1.9839 6.90273C1.94182 7.21417 1.94182 8.12729 1.9839 8.43873C2.08595 9.19406 2.26937 9.80244 2.59411 10.4627C2.91413 11.1134 3.28296 11.6287 3.79565 12.1414C4.30832 12.6541 4.82363 13.0229 5.47433 13.343C6.13462 13.6677 6.74301 13.8511 7.49833 13.9532C7.80977 13.9952 8.72289 13.9952 9.03433 13.9532C9.78966 13.8511 10.398 13.6677 11.0583 13.343C11.709 13.0229 12.2243 12.6541 12.737 12.1414C13.2497 11.6287 13.6185 11.1134 13.9386 10.4627C14.2027 9.92564 14.3624 9.4567 14.4725 8.89473C14.5651 8.4227 14.5779 8.27299 14.5779 7.67073C14.5779 7.06848 14.5651 6.91876 14.4725 6.44673C14.3624 5.88476 14.2027 5.41582 13.9386 4.87873C13.6185 4.22803 13.2497 3.71272 12.737 3.20004C12.2243 2.68736 11.709 2.31852 11.0583 1.99851C10.4096 1.67944 9.82528 1.50068 9.09033 1.39643C8.91459 1.3715 8.75777 1.36355 8.36233 1.35953C8.08513 1.35673 7.82233 1.35726 7.77833 1.36072ZM5.48233 3.93292C5.36352 3.95928 5.29862 3.99609 5.20925 4.08785C5.11595 4.18363 5.0684 4.27956 5.04953 4.41011C5.02878 4.55353 5.03024 7.89198 5.05109 8.02052C5.07361 8.15929 5.12761 8.25841 5.23337 8.35507C5.34771 8.45956 5.45987 8.50286 5.61494 8.50235C5.89006 8.50145 6.12446 8.30753 6.1699 8.04321C6.18357 7.96376 6.1872 7.45542 6.18345 6.14273L6.17833 4.35073L6.13577 4.25993C6.05214 4.08155 5.90078 3.96206 5.71539 3.92812C5.60307 3.90755 5.59614 3.90769 5.48233 3.93292ZM8.13833 3.93292C8.02073 3.959 7.95645 3.9951 7.86536 4.08617C7.77283 4.17872 7.73081 4.25764 7.70779 4.38217C7.68542 4.50321 7.6835 7.89184 7.70573 8.02758C7.73571 8.2107 7.85928 8.3748 8.02633 8.45336C8.10168 8.48878 8.13619 8.49473 8.26633 8.49473C8.39648 8.49473 8.43099 8.48878 8.50633 8.45336C8.67339 8.3748 8.79696 8.2107 8.82694 8.02758C8.84917 7.89184 8.84725 4.50321 8.82488 4.38217C8.80184 4.25758 8.75984 4.1787 8.6671 4.08596C8.57437 3.99323 8.49549 3.95123 8.37089 3.92819C8.25918 3.90753 8.25217 3.90768 8.13833 3.93292ZM10.7939 3.93171C10.6202 3.97062 10.4769 4.08926 10.3965 4.26081L10.3543 4.35073L10.3495 6.15073C10.3445 8.02209 10.346 8.07273 10.4112 8.20043C10.4561 8.28846 10.5834 8.40705 10.6823 8.4531C10.8071 8.51121 10.991 8.51875 11.1183 8.47099C11.2317 8.42841 11.3737 8.30257 11.427 8.19737C11.4483 8.15542 11.4733 8.07196 11.4826 8.01192C11.4939 7.93876 11.498 7.31929 11.4949 6.13473C11.4897 4.15316 11.4996 4.31209 11.3712 4.14204C11.2357 3.96259 11.015 3.88217 10.7939 3.93171ZM5.41248 9.77504C5.10845 9.85213 4.85158 10.1195 4.79342 10.4194C4.7015 10.8935 5.01608 11.3441 5.49051 11.4178C5.88704 11.4795 6.29198 11.2261 6.41057 10.8422C6.45382 10.7022 6.45382 10.4793 6.41057 10.3393C6.33537 10.0958 6.12734 9.88118 5.88403 9.79603C5.7636 9.75388 5.53589 9.74374 5.41248 9.77504ZM8.06987 9.7758C7.91584 9.81312 7.80309 9.87798 7.68233 9.99873C7.50384 10.1772 7.43433 10.3431 7.43433 10.5907C7.43433 10.8342 7.50918 11.0126 7.68376 11.1851C8.01045 11.508 8.52222 11.508 8.84891 11.1851C9.02349 11.0126 9.09833 10.8342 9.09833 10.5907C9.09833 10.3476 9.02968 10.1801 8.85833 10.0052C8.64974 9.79224 8.35542 9.70662 8.06987 9.7758ZM10.7543 9.76736C10.4623 9.82721 10.2096 10.0558 10.1221 10.3393C10.0788 10.4793 10.0788 10.7022 10.1221 10.8422C10.2411 11.2275 10.6455 11.4795 11.0451 11.4174C11.7174 11.3129 11.993 10.4847 11.5144 10.0067C11.308 9.80049 11.026 9.71168 10.7543 9.76736Z" fill="currentColor"/>
</svg>
