<svg width="25" height="25" viewBox="0 0 25 25" fill="none" xmlns="http://www.w3.org/2000/svg">
<g clip-path="url(#clip0_2345_3741)">
<path fill-rule="evenodd" clip-rule="evenodd" d="M8.01507 5.87605C8.01507 3.50911 9.93385 1.59033 12.3008 1.59033C14.6677 1.59033 16.5865 3.50911 16.5865 5.87605C16.5865 7.01065 16.1456 8.04229 15.4258 8.80895L19.131 15.3959C19.4163 15.3361 19.712 15.3046 20.0151 15.3046C22.382 15.3046 24.3008 17.2234 24.3008 19.5903C24.3008 21.9572 22.382 23.876 20.0151 23.876C18.0961 23.876 16.4716 22.6148 15.9255 20.8759H8.67604C8.12996 22.6148 6.50552 23.876 4.5865 23.876C2.21956 23.876 0.300781 21.9572 0.300781 19.5903C0.300781 17.2234 2.21956 15.3046 4.5865 15.3046C4.8896 15.3046 5.18535 15.3361 5.47067 15.3959L9.17583 8.80898C8.45598 8.04232 8.01507 7.01066 8.01507 5.87605ZM13.185 10.0704L16.8902 16.6573C16.4545 17.1213 16.121 17.6823 15.9256 18.3044H8.67598C8.48056 17.6824 8.14707 17.1213 7.71143 16.6574L11.4166 10.0704C11.7019 10.1303 11.9977 10.1618 12.3008 10.1618C12.6039 10.1618 12.8997 10.1303 13.185 10.0704Z" fill="#7AAAFF"/>
</g>
<defs>
<clipPath id="clip0_2345_3741">
<rect width="24" height="24" fill="white" transform="translate(0.300781 0.733398)"/>
</clipPath>
</defs>
</svg>
