<svg width="15" height="14" viewBox="0 0 15 14" fill="none" xmlns="http://www.w3.org/2000/svg">
<path fill-rule="evenodd" clip-rule="evenodd" d="M1.98849 0.0739979C1.24809 0.166494 0.666007 0.755038 0.574231 1.50397C0.551831 1.68673 0.550375 4.52091 0.572455 4.97597C0.643255 6.43587 0.997111 7.76901 1.65116 9.03997C2.82285 11.3169 4.78287 13.0236 7.19649 13.8687C7.50178 13.9755 7.57389 13.9656 8.16449 13.7357C11.052 12.6115 13.2749 10.1359 14.0907 7.13597C14.2888 6.40728 14.3921 5.74446 14.4285 4.96797C14.4497 4.51694 14.4492 1.68542 14.4279 1.51155C14.3344 0.746798 13.7571 0.16691 12.9965 0.07371C12.8198 0.052062 2.16186 0.0523499 1.98849 0.0739979ZM2.05033 1.22534C1.91506 1.26467 1.76322 1.41953 1.72501 1.55713C1.70322 1.63557 1.70303 4.81584 1.72479 5.11997C1.7581 5.58545 1.81394 5.97437 1.91031 6.41211C2.53063 9.22987 4.51741 11.5756 7.18449 12.6391L7.50049 12.7651L7.81649 12.6391C9.78626 11.8536 11.4181 10.3499 12.3711 8.44205C12.8066 7.57032 13.0936 6.63763 13.2187 5.68797C13.2838 5.19336 13.2845 5.16995 13.2845 3.33597V1.55197L13.2484 1.48441C13.1946 1.38371 13.1286 1.31574 13.0336 1.2631L12.9485 1.21597L7.52449 1.21336C4.29772 1.21181 2.08017 1.21667 2.05033 1.22534ZM7.15463 2.20769C6.73153 2.27235 6.35705 2.43086 6.01249 2.69115C5.74087 2.89632 5.44438 3.26934 5.29855 3.58934C5.11428 3.99369 5.0701 4.26179 5.06879 4.98397L5.06802 5.40797L4.96825 5.44611C4.82894 5.49937 4.70996 5.58048 4.58849 5.70496C4.40444 5.89357 4.31213 6.09086 4.28335 6.35728C4.27253 6.45729 4.26873 7.00393 4.27257 7.90397C4.27786 9.14827 4.28137 9.30669 4.30554 9.39696C4.41095 9.79065 4.7454 10.1133 5.14049 10.2023C5.21871 10.22 5.65564 10.224 7.50049 10.224C9.34534 10.224 9.78226 10.22 9.86049 10.2023C10.2556 10.1132 10.59 9.79064 10.6954 9.39696C10.7196 9.3067 10.7231 9.14889 10.7283 7.91257C10.7343 6.47941 10.7287 6.30648 10.6701 6.11997C10.5794 5.8319 10.3175 5.55501 10.0327 5.44611L9.93295 5.40797L9.93218 4.98397C9.93106 4.37374 9.90517 4.14515 9.80327 3.84565C9.6738 3.4652 9.48018 3.15713 9.19428 2.87675C9.00145 2.68761 8.81381 2.5535 8.57113 2.43128C8.41901 2.35469 8.11921 2.25569 7.94049 2.22305C7.74453 2.18726 7.33999 2.17936 7.15463 2.20769ZM7.35062 3.338C7.19314 3.354 7.07703 3.38739 6.93514 3.45752C6.78385 3.53229 6.69071 3.60355 6.5566 3.74715C6.42637 3.88661 6.3353 4.03976 6.27308 4.22397C6.23033 4.35054 6.22978 4.35763 6.22397 4.85997L6.2181 5.36797H7.4993H8.78049L8.78021 4.90797C8.77991 4.41459 8.76956 4.32059 8.69521 4.13653C8.63412 3.98528 8.55889 3.87061 8.43114 3.73406C8.14575 3.42901 7.77881 3.29451 7.35062 3.338ZM5.42049 7.79227V9.07997H7.50049H9.58049V7.79227V6.50457H7.50049H5.42049V7.79227Z" fill="currentColor"/>
</svg>
