<svg width="25" height="25" viewBox="0 0 25 25" fill="none" xmlns="http://www.w3.org/2000/svg">
<path fill-rule="evenodd" clip-rule="evenodd" d="M1.05394 1.48655C1.53617 1.00432 2.19023 0.733398 2.87221 0.733398H16.5865C17.2685 0.733398 17.9226 1.00432 18.4048 1.48655C18.8871 1.96879 19.1579 2.62283 19.1579 3.30483V9.7334C16.8872 9.7334 14.9112 10.9948 13.8922 12.855C13.8744 12.8406 13.8562 12.8264 13.8376 12.8124C13.5116 12.5683 13.1634 12.3531 12.7969 12.1698C11.8445 11.6936 10.7941 11.4463 9.72935 11.4477H9.73059L9.72935 12.3048L9.72812 11.4477H9.72935C8.66459 11.4463 7.6142 11.6936 6.66184 12.1698C5.7091 12.6462 4.88079 13.3385 4.2429 14.1915C4.0486 14.4514 4.01768 14.7986 4.16298 15.0887C4.30828 15.3788 4.60491 15.562 4.92935 15.562H12.8181C12.9359 15.562 13.0507 15.5504 13.1614 15.5284C13.1591 15.5964 13.1579 15.6648 13.1579 15.7334V15.8589C12.3691 16.5644 11.8722 17.5898 11.8722 18.7334V19.5905H2.87221C2.19022 19.5905 1.53617 19.3197 1.05394 18.8375C0.571698 18.3552 0.300781 17.7011 0.300781 17.0191V3.30483C0.300781 2.62285 0.571698 1.96879 1.05394 1.48655ZM6.72935 6.7334C6.72935 5.07654 8.0725 3.7334 9.72935 3.7334C11.3862 3.7334 12.7294 5.07654 12.7294 6.7334C12.7294 8.39026 11.3862 9.7334 9.72935 9.7334C8.0725 9.7334 6.72935 8.39026 6.72935 6.7334ZM19.1579 14.4477C18.4479 14.4477 17.8722 15.0233 17.8722 15.7334V17.0191H20.4436V15.7334C20.4436 15.0233 19.868 14.4477 19.1579 14.4477ZM15.3008 15.7334V17.0731C14.5614 17.2634 14.0151 17.9345 14.0151 18.7334V23.0191C14.0151 23.9659 14.7826 24.7334 15.7294 24.7334H22.5865C23.5333 24.7334 24.3008 23.9659 24.3008 23.0191V18.7334C24.3008 17.9345 23.7544 17.2634 23.0151 17.0731V15.7334C23.0151 13.6032 21.2881 11.8763 19.1579 11.8763C17.0277 11.8763 15.3008 13.6032 15.3008 15.7334Z" fill="#7AAAFF"/>
</svg>
