<svg width="16" height="16" viewBox="0 0 16 16" fill="none" xmlns="http://www.w3.org/2000/svg">
<path fill-rule="evenodd" clip-rule="evenodd" d="M0.951655 0.550379C0.752167 0.599371 0.586887 0.774907 0.543335 0.984011C0.507543 1.15582 0.548887 1.82382 0.623831 2.28494C0.724855 2.90651 0.912455 3.54142 1.16364 4.11201C1.69239 5.31307 2.54493 6.37159 3.60765 7.14655C4.20917 7.5852 4.93292 7.95817 5.63554 8.19161L5.83943 8.25936L5.84354 11.6537L5.84765 15.048L5.88895 15.136C5.93554 15.2354 6.05458 15.3628 6.14157 15.4065C6.28337 15.4777 6.47857 15.4883 6.61329 15.432C6.71226 15.3906 9.97349 13.2087 10.0214 13.1518C10.0456 13.123 10.0848 13.0627 10.1085 13.0177L10.1517 12.936L10.1559 10.5977L10.1601 8.25929L10.3639 8.19158C11.7463 7.73228 12.9862 6.8535 13.8963 5.68801C14.408 5.03264 14.8369 4.22507 15.098 3.42523C15.3284 2.71934 15.4717 1.86097 15.4717 1.18611C15.4717 0.909099 15.3805 0.726683 15.1801 0.602779C15.0521 0.523659 15.468 0.527915 7.99229 0.529371C2.54831 0.530443 1.01423 0.535019 0.951655 0.550379ZM1.70633 1.74801C1.87289 3.23444 2.49457 4.53745 3.53481 5.58051C4.3029 6.35065 5.24394 6.90092 6.29565 7.19487C6.43645 7.23423 6.58175 7.27708 6.61852 7.29011C6.76589 7.3423 6.90366 7.49387 6.95313 7.65825C6.97215 7.72147 6.97565 8.20646 6.97565 10.7799C6.97565 12.5773 6.98156 13.8245 6.99004 13.8213C6.99796 13.8184 7.45849 13.5136 8.01345 13.144L9.02247 12.472L9.02706 10.072L9.03165 7.67201L9.07836 7.57687C9.13148 7.46868 9.23175 7.36092 9.32213 7.31488C9.35598 7.29763 9.47005 7.26043 9.57565 7.2322C10.0344 7.10956 10.3509 6.99185 10.7597 6.7919C11.1137 6.6187 11.3898 6.45686 11.6477 6.27137C12.5299 5.63675 13.2001 4.85246 13.6637 3.91201C14.0043 3.22102 14.2054 2.52945 14.293 1.74801L14.3006 1.68001H7.99965H1.69869L1.70633 1.74801Z" fill="currentColor"/>
</svg>
