<svg width="14" height="14" viewBox="0 0 14 14" fill="none" xmlns="http://www.w3.org/2000/svg">
<path fill-rule="evenodd" clip-rule="evenodd" d="M1.48779 0.0737571C0.850547 0.155229 0.306131 0.618173 0.129075 1.22917C0.0564351 1.47984 0.053523 1.57096 0.059795 3.39205C0.065187 4.95505 0.0681471 5.11427 0.0937311 5.22157C0.223475 5.76568 0.584531 6.1891 1.0914 6.39155C1.38687 6.50956 1.30394 6.50557 3.34508 6.49987C5.14456 6.49486 5.16922 6.49437 5.2798 6.4611C5.6122 6.36113 5.82941 6.23387 6.04299 6.01395C6.25242 5.79832 6.36384 5.60261 6.46085 5.28005C6.49412 5.16947 6.49461 5.14481 6.49962 3.34533C6.50531 1.30419 6.50931 1.38712 6.3913 1.09165C6.18885 0.584797 5.76555 0.223821 5.22131 0.0939651C5.11349 0.0682371 4.95916 0.0656451 3.3518 0.0626691C2.3882 0.0608931 1.54939 0.0658851 1.48779 0.0737571ZM10.4718 0.0669891C8.82799 0.160765 7.73498 1.23437 7.51016 2.97605C7.48373 3.18072 7.50092 3.71056 7.5413 3.93604C7.69635 4.80212 8.10383 5.45325 8.77579 5.90875C9.31834 6.27653 10.065 6.50294 10.7381 6.50376C11.6548 6.50486 12.4142 6.2196 12.9736 5.664C13.5104 5.13076 13.8427 4.37309 13.9295 3.48454C13.951 3.26453 13.9283 2.8571 13.8794 2.586C13.6939 1.55645 13.0766 0.780509 12.1169 0.370573C11.5889 0.145085 11.0018 0.0367491 10.4718 0.0669891ZM1.54964 1.22547C1.41448 1.26464 1.26255 1.41958 1.22432 1.55721C1.21367 1.59552 1.20794 2.20051 1.20789 3.29144C1.2078 4.94604 1.20821 4.96795 1.24088 5.05526C1.28015 5.16022 1.38154 5.26833 1.49147 5.32246L1.5678 5.36005H3.2798H4.9918L5.07522 5.32232C5.17912 5.27534 5.28882 5.16011 5.32912 5.0556C5.35866 4.97897 5.3598 4.91326 5.3598 3.27204V1.56805L5.32221 1.49173C5.26808 1.38179 5.15997 1.2804 5.05501 1.24113C4.96759 1.20841 4.94756 1.20806 3.28319 1.20949C2.32605 1.2103 1.57815 1.2172 1.54964 1.22547ZM10.2958 1.23315C9.84431 1.30421 9.50124 1.47272 9.22836 1.75745C9.08223 1.90993 8.99365 2.03891 8.89423 2.24395C8.69639 2.65201 8.60443 3.14073 8.64661 3.56005C8.6986 4.07696 8.8608 4.44845 9.16725 4.75246C9.44602 5.02901 9.82419 5.21525 10.3044 5.31248C10.5651 5.36526 10.7435 5.37603 10.9793 5.3532C11.5112 5.30171 11.9035 5.12664 12.2099 4.80403C12.4775 4.52229 12.6413 4.17693 12.7543 3.65605C12.7987 3.45128 12.7946 2.97253 12.7465 2.7483C12.5735 1.94261 12.0601 1.46376 11.152 1.26109C10.9238 1.21016 10.5247 1.19713 10.2958 1.23315ZM2.8318 7.51361C1.90431 7.61006 1.12765 8.06737 0.644019 8.80185C0.332163 9.27547 0.129731 9.87763 0.0709311 10.5067C0.0488191 10.7434 0.0702271 11.1369 0.120355 11.4152C0.352739 12.705 1.26255 13.5865 2.6478 13.8638C3.08082 13.9505 3.35901 13.9596 3.8261 13.9022C5.28789 13.7228 6.27936 12.6514 6.48943 11.024C6.51586 10.8193 6.49867 10.2895 6.45827 10.064C6.3912 9.6896 6.30608 9.43153 6.14959 9.12805C5.69914 8.25459 4.81792 7.68344 3.66866 7.52006C3.49008 7.49469 3.04672 7.49126 2.8318 7.51361ZM8.88779 7.5067C8.37435 7.58747 7.93031 7.89864 7.68835 8.34721C7.61994 8.47404 7.59112 8.54585 7.53874 8.72005C7.50549 8.83059 7.505 8.85555 7.49989 10.648C7.49637 11.8849 7.5002 12.4994 7.51188 12.575C7.59667 13.124 8.00957 13.6292 8.53864 13.8312C8.82051 13.9388 8.71949 13.9335 10.6078 13.94C12.3919 13.9462 12.512 13.9427 12.7471 13.8785C12.903 13.8359 13.1597 13.7094 13.2878 13.6119C13.6504 13.3361 13.875 12.9372 13.9279 12.4754C13.9403 12.3675 13.9439 11.7966 13.9398 10.608C13.9333 8.71974 13.9386 8.82076 13.831 8.53889C13.6303 8.01339 13.1296 7.60157 12.5838 7.51313C12.4856 7.49723 8.98675 7.49113 8.88779 7.5067ZM2.97663 8.64857C2.61903 8.68939 2.28552 8.80448 2.04469 8.97019C1.69832 9.20849 1.42525 9.63353 1.29568 10.136C1.21925 10.4325 1.20324 10.5707 1.21322 10.848C1.24226 11.6553 1.57271 12.2023 2.22802 12.5279C2.8702 12.847 3.67639 12.876 4.27064 12.6015C4.82283 12.3464 5.18671 11.8174 5.3269 11.066C5.42987 10.514 5.31367 9.89721 5.0266 9.47204C4.93978 9.34345 4.72863 9.13632 4.59135 9.04507C4.14599 8.74904 3.49559 8.58934 2.97663 8.64857ZM8.99179 8.65424C8.83914 8.70296 8.72319 8.80781 8.67029 8.94499C8.64098 9.02096 8.6398 9.09044 8.6398 10.728V12.432L8.67738 12.5084C8.73168 12.6187 8.83959 12.7197 8.94533 12.7592C9.03394 12.7924 9.04517 12.7926 10.7412 12.7883L12.4478 12.784L12.5329 12.7369C12.6279 12.6843 12.6939 12.6163 12.7477 12.5156L12.7838 12.448L12.7881 10.7414C12.7923 9.04542 12.7921 9.03419 12.759 8.94558C12.7194 8.83984 12.6184 8.73193 12.5081 8.67763L12.4318 8.64005L10.7438 8.63692C9.41189 8.63448 9.04229 8.63812 8.99179 8.65424Z" fill="currentColor"/>
</svg>
