<svg width="15" height="14" viewBox="0 0 15 14" fill="none" xmlns="http://www.w3.org/2000/svg">
<path fill-rule="evenodd" clip-rule="evenodd" d="M1.97184 0.0665973C1.74249 0.0951093 1.59628 0.136421 1.42784 0.220309C0.989403 0.438645 0.675003 0.852069 0.584875 1.32877C0.553739 1.49343 0.553739 12.5066 0.584875 12.6713C0.710203 13.3342 1.25486 13.8447 1.92384 13.9264C2.12747 13.9512 12.8722 13.9512 13.0758 13.9264C13.7823 13.8401 14.3399 13.2825 14.4262 12.576C14.451 12.3724 14.451 1.62767 14.4262 1.42404C14.3465 0.771509 13.8782 0.255221 13.2177 0.0920053C13.1155 0.0667413 12.7206 0.0646933 7.56384 0.0627413C4.51464 0.0615733 1.99824 0.0633173 1.97184 0.0665973ZM1.93984 1.24617C1.84369 1.29162 1.78489 1.35135 1.74113 1.44804C1.71024 1.51629 1.70852 1.55108 1.70819 2.11604L1.70784 2.71204H7.49984H13.2918L13.2917 2.11604C13.2915 1.52285 13.2913 1.51965 13.2537 1.44004C13.2083 1.34389 13.1485 1.28509 13.0518 1.24133C12.9799 1.20874 12.9786 1.20874 7.49984 1.20855L2.01984 1.20836L1.93984 1.24617ZM1.70784 5.66404V7.46404H2.91392H4.12001L5.07579 6.23143C5.60147 5.55349 6.05414 4.98191 6.08171 4.96125C6.20572 4.86833 6.26641 4.84903 6.43584 4.84858C6.57196 4.84821 6.6071 4.85375 6.67129 4.88561C6.77184 4.93551 6.87995 5.03261 6.92785 5.11609C6.94931 5.15346 7.36185 6.17234 7.84462 7.38028C8.32737 8.58821 8.72745 9.57461 8.73368 9.57228C8.7399 9.56994 9.09372 9.13207 9.51996 8.59924C9.94619 8.06639 10.323 7.60724 10.3574 7.5789C10.3917 7.55057 10.4579 7.51314 10.5044 7.49572C10.5863 7.46506 10.6328 7.46404 11.9404 7.46404H13.2918V5.66404V3.86404H7.49984H1.70784V5.66404ZM5.54819 7.48933C5.14844 8.00485 4.79942 8.44521 4.7726 8.46789C4.74577 8.49058 4.68424 8.5278 4.63584 8.5506L4.54784 8.59204L3.12784 8.59637L1.70784 8.60071L1.708 10.5404L1.70816 12.48L1.74596 12.56C1.79142 12.6562 1.85115 12.715 1.94784 12.7587C2.01982 12.7913 2.0211 12.7913 7.49984 12.7915L12.9798 12.7917L13.0598 12.7539C13.156 12.7085 13.2148 12.6487 13.2585 12.552C13.2907 12.4809 13.2911 12.4572 13.2915 10.54L13.2918 8.60004L12.1358 8.6009L10.9798 8.60175L9.97408 9.8609C9.38547 10.5978 8.93935 11.1422 8.89849 11.1736C8.81801 11.2353 8.66396 11.288 8.56409 11.288C8.39204 11.288 8.17916 11.1752 8.09198 11.0377C8.06657 10.9976 7.64862 9.97197 7.1632 8.75845C6.67777 7.54492 6.27782 6.55204 6.27782 6.55204C6.27782 6.55204 5.94795 6.97383 5.54819 7.48933Z" fill="currentColor"/>
</svg>
