<svg width="16" height="14" viewBox="0 0 16 14" fill="none" xmlns="http://www.w3.org/2000/svg">
<path fill-rule="evenodd" clip-rule="evenodd" d="M5.04767 0.561742C4.86078 0.574062 4.60167 0.642654 4.44406 0.721534C4.2083 0.839534 3.98223 1.03033 3.83791 1.23312C3.6918 1.4384 0.870107 6.22875 0.816651 6.36227C0.729675 6.57947 0.712891 6.67734 0.712891 6.96723C0.712891 7.25712 0.729675 7.35499 0.816651 7.57219C0.870171 7.70587 3.69219 12.4967 3.83774 12.701C4.03142 12.9728 4.32761 13.1889 4.64767 13.292C4.92027 13.3797 4.739 13.3752 7.99967 13.3752C11.2603 13.3752 11.0791 13.3797 11.3517 13.292C11.6718 13.1889 11.968 12.9728 12.1616 12.701C12.263 12.5587 15.0445 7.85645 15.1369 7.67123C15.336 7.2719 15.3493 6.75032 15.171 6.33289C15.1126 6.19627 12.2522 1.35355 12.1423 1.20534C11.9622 0.96243 11.6729 0.751438 11.384 0.65227C11.0992 0.55451 11.3442 0.56147 8.09567 0.558862C6.46327 0.55755 5.09167 0.558846 5.04767 0.561742ZM4.97668 1.73821C4.92241 1.7591 4.86222 1.79969 4.81668 1.84609C4.76355 1.90024 4.35951 2.57145 3.33241 4.31187C2.5562 5.62712 1.90486 6.73923 1.88495 6.78323C1.83553 6.89251 1.83553 7.04195 1.88495 7.15123C1.94239 7.27822 4.73788 12.0031 4.79609 12.0716C4.82491 12.1055 4.88971 12.1535 4.94009 12.1783L5.03167 12.2232H7.99967H10.9677L11.0593 12.1783C11.1096 12.1535 11.1744 12.1055 11.2033 12.0716C11.2627 12.0017 14.0589 7.27453 14.1138 7.15123C14.163 7.04064 14.1633 6.89093 14.1145 6.78323C14.0567 6.65576 11.2613 1.93112 11.2033 1.86283C11.1744 1.82893 11.1096 1.78094 11.0593 1.75621L10.9677 1.71123L8.01567 1.70798L5.06367 1.70472L4.97668 1.73821ZM6.02367 4.28077C5.73137 4.32328 5.47041 4.53005 5.35886 4.80757C5.31436 4.91825 5.29822 5.16913 5.32715 5.30073C5.37326 5.51057 5.55015 5.7428 5.74169 5.84488C5.98463 5.97437 6.29803 5.97678 6.53447 5.85097C6.57913 5.82721 6.6662 5.75726 6.72795 5.6955C6.85203 5.57142 6.91412 5.46881 6.95115 5.32667C6.98251 5.20625 6.98252 5.01625 6.95118 4.8959C6.84641 4.49368 6.43513 4.22091 6.02367 4.28077ZM9.79167 4.27326C9.56092 4.3079 9.40774 4.38029 9.26675 4.52128C9.10398 4.68405 9.02367 4.87896 9.02367 5.11123C9.02367 5.25339 9.05559 5.38864 9.11593 5.50203C9.17148 5.60645 9.36046 5.79542 9.46488 5.85097C9.70062 5.9764 10.0148 5.97433 10.256 5.84577C10.4475 5.74368 10.6263 5.50958 10.6722 5.30073C10.7011 5.16913 10.685 4.91825 10.6405 4.80757C10.5392 4.55565 10.2933 4.34294 10.0482 4.29531C9.94604 4.27545 9.8386 4.26622 9.79167 4.27326ZM4.98244 7.45939C4.67851 7.56806 4.51609 7.90001 4.62476 8.19046C4.66375 8.29469 4.80551 8.4916 4.99959 8.71113C5.35412 9.11217 5.87118 9.48745 6.36953 9.70544C7.71683 10.2948 9.26489 10.1166 10.442 9.2367C10.8066 8.96421 11.2398 8.49971 11.3635 8.24867C11.4147 8.14465 11.4147 7.89048 11.3633 7.78205C11.2127 7.46397 10.8154 7.35065 10.5251 7.54297C10.4844 7.56993 10.4055 7.65121 10.3498 7.72361C9.95092 8.24198 9.43889 8.60166 8.8439 8.78144C8.53833 8.87377 8.38632 8.89429 8.00768 8.89429C7.62903 8.89429 7.47702 8.87377 7.17145 8.78144C6.59793 8.60816 6.0859 8.25856 5.72262 7.79222C5.56022 7.58376 5.52111 7.54595 5.41292 7.49269C5.28078 7.42763 5.10855 7.41432 4.98244 7.45939Z" fill="currentColor"/>
</svg>
