<svg width="17" height="16" viewBox="0 0 17 16" fill="none" xmlns="http://www.w3.org/2000/svg">
<path fill-rule="evenodd" clip-rule="evenodd" d="M2.43316 0.545273C1.76666 0.643049 1.24277 1.12254 1.07103 1.79202L1.03613 1.92802V8.00002V14.072L1.07103 14.208C1.22911 14.8242 1.66276 15.2606 2.28413 15.4288L2.41213 15.4635L6.28413 15.4687C9.17578 15.4727 10.1926 15.4693 10.3001 15.4553C10.9555 15.37 11.4839 14.9079 11.67 14.2573C11.7284 14.0534 11.7343 13.8174 11.7291 11.88L11.7241 10.008L11.688 9.91876C11.5477 9.57211 11.1111 9.44142 10.8237 9.66004C10.741 9.72295 10.7261 9.73897 10.6673 9.82802C10.5778 9.96366 10.5801 9.90619 10.5801 11.9948V13.9188L10.5458 14.0105C10.5069 14.1146 10.4013 14.2306 10.3001 14.2805C10.237 14.3116 10.1849 14.312 6.37213 14.312H2.50813L2.44413 14.2774C2.36788 14.236 2.25924 14.1259 2.21788 14.048C2.18904 13.9937 2.18813 13.8095 2.18813 8.00002C2.18813 2.19057 2.18904 2.00631 2.21788 1.95202C2.25924 1.87414 2.36788 1.76402 2.44413 1.7227L2.50813 1.68802L5.82813 1.68002C8.91165 1.6726 9.153 1.67007 9.21631 1.64466C9.37192 1.58223 9.49212 1.46756 9.55941 1.3173C9.61349 1.19655 9.60977 0.998585 9.55101 0.872025C9.50249 0.767465 9.42207 0.674409 9.32813 0.614121C9.1869 0.523481 9.36976 0.527849 5.80477 0.529977C4.00042 0.531049 2.48319 0.537929 2.43316 0.545273ZM11.8939 0.553321C11.6855 0.609353 11.4804 0.777593 11.3915 0.965321C11.3678 1.01538 11.2322 1.33887 11.0902 1.68418C10.9483 2.0295 10.8077 2.36172 10.7778 2.42247C10.6351 2.71255 10.3629 2.98302 10.0761 3.1197C10.0233 3.14487 9.68853 3.28545 9.33213 3.43207C8.97573 3.57871 8.64453 3.7198 8.59613 3.74561C8.43624 3.83087 8.29701 3.99428 8.23597 4.16828C8.19964 4.27186 8.18759 4.46593 8.21064 4.57655C8.24804 4.75591 8.37268 4.94463 8.52088 5.04623C8.56909 5.07929 8.89919 5.22478 9.30519 5.39193C9.69079 5.55068 10.0436 5.69943 10.0892 5.72249C10.3856 5.87231 10.6305 6.11702 10.778 6.41097C10.8009 6.45657 10.9495 6.80937 11.1082 7.19497C11.2781 7.60753 11.4207 7.93076 11.4547 7.98044C11.5523 8.12279 11.737 8.24719 11.9099 8.28705C12.0731 8.32468 12.2721 8.29972 12.43 8.22183C12.5396 8.1678 12.6946 8.01711 12.7523 7.90852C12.7793 7.85766 12.9213 7.52443 13.0678 7.16803C13.2143 6.81163 13.3596 6.46827 13.3906 6.40502C13.528 6.1247 13.791 5.8634 14.0777 5.72238C14.1384 5.69249 14.4725 5.55113 14.8201 5.40822C15.5712 5.09945 15.6155 5.07796 15.7333 4.96564C15.9796 4.73063 16.039 4.36966 15.8822 4.06017C15.8306 3.95846 15.6688 3.79334 15.5725 3.7442C15.5334 3.72426 15.1879 3.57889 14.8048 3.42113C14.4216 3.26338 14.0577 3.10566 13.9961 3.0706C13.7761 2.94542 13.5548 2.72417 13.4296 2.50402C13.3945 2.44242 13.2368 2.07854 13.079 1.69538C12.9213 1.31223 12.7759 0.966777 12.756 0.927689C12.7068 0.831369 12.5417 0.669529 12.44 0.617977C12.2717 0.532697 12.0626 0.507945 11.8939 0.553321ZM11.9801 2.53202C11.7745 3.03871 11.5743 3.35854 11.2822 3.6473C10.9855 3.94065 10.7242 4.09982 10.1641 4.32841C10.0629 4.3697 9.97407 4.40714 9.96668 4.41161C9.95927 4.41607 10.0781 4.47169 10.2307 4.53521C10.3833 4.59873 10.5477 4.67071 10.5961 4.69518C11.1168 4.95826 11.5419 5.38337 11.805 5.90402C11.8294 5.95242 11.9014 6.11689 11.9649 6.26948C12.0285 6.42209 12.0841 6.54089 12.0886 6.53348C12.0932 6.52609 12.1374 6.42089 12.187 6.29974C12.375 5.84043 12.5312 5.57055 12.7523 5.3234C13.07 4.9682 13.3963 4.75262 13.9681 4.52018C14.0935 4.46921 14.1961 4.42313 14.1961 4.41777C14.1961 4.41241 14.1259 4.37967 14.0401 4.34503C13.4469 4.10548 13.1767 3.94122 12.8678 3.63234C12.5589 3.32346 12.3947 3.05329 12.1551 2.46004C12.1205 2.37423 12.0877 2.30404 12.0824 2.30404C12.077 2.30402 12.031 2.40662 11.9801 2.53202ZM5.62994 11.7192C5.33199 11.8426 5.1972 12.1867 5.32962 12.4861C5.36952 12.5763 5.47519 12.6918 5.56232 12.7405C5.69533 12.8149 5.73197 12.818 6.41213 12.8129L7.05213 12.808L7.14327 12.7653C7.25954 12.7108 7.37092 12.5994 7.42541 12.4832C7.46231 12.4044 7.46813 12.3713 7.46813 12.24C7.46813 12.1099 7.46237 12.0765 7.42813 12.008C7.3762 11.9042 7.24914 11.7767 7.14813 11.7272L7.06813 11.688L6.39613 11.6841L5.72413 11.6803L5.62994 11.7192Z" fill="currentColor"/>
</svg>
