<svg width="14" height="14" viewBox="0 0 14 14" fill="none" xmlns="http://www.w3.org/2000/svg">
<path fill-rule="evenodd" clip-rule="evenodd" d="M0.983814 0.0729761C0.766134 0.105056 0.55863 0.213616 0.386182 0.385648C0.25295 0.51856 0.168534 0.653968 0.107878 0.832048L0.0642942 0.960048V4.33605C0.0642942 7.56334 0.0655902 7.71662 0.0936702 7.81605C0.19231 8.16518 0.475574 8.46488 0.816294 8.58058L0.944294 8.62405L3.2358 8.62837C5.793 8.63318 5.65092 8.63893 5.88829 8.52115C6.18313 8.37486 6.40881 8.09912 6.47964 7.79864C6.50081 7.70883 6.50385 7.27902 6.50405 4.35061C6.50429 1.07296 6.50365 1.00267 6.47274 0.881792C6.42954 0.71288 6.3434 0.556256 6.22095 0.424016C6.03716 0.225488 5.83033 0.112784 5.57629 0.0727041C5.45082 0.0528961 1.11831 0.0531681 0.983814 0.0729761ZM8.40829 0.0739521C7.9841 0.144256 7.61265 0.493152 7.52092 0.907456C7.49815 1.01032 7.49565 1.17198 7.4997 2.28005C7.50428 3.53038 7.50445 3.53651 7.53988 3.64005C7.59437 3.79938 7.68429 3.93982 7.81641 4.07194C7.94852 4.20405 8.08897 4.29397 8.24829 4.34846L8.35229 4.38405L10.6643 4.38853C13.251 4.39355 13.0927 4.40006 13.335 4.27878C13.5666 4.16288 13.8031 3.89744 13.8782 3.66926C13.9425 3.47358 13.946 3.38949 13.9409 2.15106L13.936 0.960048L13.8925 0.832048C13.8323 0.654448 13.7479 0.518832 13.6147 0.385648C13.4816 0.252592 13.3461 0.168192 13.1683 0.107632L13.0403 0.0640481L10.7683 0.0617121C9.46313 0.0603681 8.45885 0.0655681 8.40829 0.0739521ZM1.20829 4.35205V7.49605H3.28829H5.36829V4.35205V1.20805H3.28829H1.20829V4.35205ZM8.63229 2.23205V3.25605H10.7123H12.7923V2.23205V1.20805H10.7123H8.63229V2.23205ZM8.34429 5.39277C7.96321 5.4752 7.61047 5.82165 7.52095 6.20146C7.49978 6.29126 7.49674 6.72107 7.49653 9.64949C7.49629 12.9271 7.49693 12.9974 7.52785 13.1183C7.59298 13.373 7.76471 13.6084 8.0002 13.7659C8.13013 13.8528 8.26231 13.9025 8.43229 13.9282C8.50813 13.9396 9.27002 13.9436 10.7923 13.9406L13.0403 13.936L13.1683 13.8925C13.3461 13.8319 13.4816 13.7475 13.6147 13.6144C13.7477 13.4814 13.8321 13.3459 13.8927 13.168L13.9363 13.04V9.66405C13.9363 6.43675 13.935 6.28347 13.9069 6.18405C13.8083 5.83491 13.525 5.53522 13.1843 5.41952L13.0563 5.37605L10.7523 5.37317C8.82471 5.37075 8.4313 5.37395 8.34429 5.39277ZM8.63229 9.64805V12.792H10.7123H12.7923V9.64805V6.50405H10.7123H8.63229V9.64805ZM0.87575 9.64021C0.625846 9.70597 0.389846 9.87957 0.234406 10.112C0.14743 10.242 0.0979582 10.3739 0.0719422 10.545C0.0605182 10.6202 0.0564062 11.0567 0.0596862 11.849L0.0646142 13.04L0.108054 13.168C0.168294 13.3456 0.25271 13.4813 0.385894 13.6144C0.51895 13.7475 0.65447 13.8319 0.832294 13.8925L0.960294 13.936L3.20829 13.9406C4.73057 13.9436 5.49245 13.9396 5.56829 13.9282C5.62989 13.9188 5.72585 13.8962 5.78151 13.8779C6.00969 13.8029 6.27513 13.5663 6.39103 13.3347C6.50804 13.101 6.50604 13.1304 6.50089 11.72C6.49631 10.4697 6.49613 10.4636 6.46071 10.36C6.40621 10.2007 6.31629 10.0603 6.18418 9.92816C6.05207 9.79605 5.91162 9.70613 5.75229 9.65163L5.64829 9.61605L3.32029 9.6128C1.07146 9.60965 0.988326 9.61059 0.87575 9.64021ZM1.20829 11.768V12.792H3.28829H5.36829V11.768V10.744H3.28829H1.20829V11.768Z" fill="currentColor"/>
</svg>
