<svg width="16" height="16" viewBox="0 0 16 16" fill="none" xmlns="http://www.w3.org/2000/svg">
<path fill-rule="evenodd" clip-rule="evenodd" d="M7.63155 0.53793C7.38361 0.56033 7.08731 0.597658 6.93555 0.625594C4.5695 1.06119 2.70438 2.90084 2.23291 5.26399C2.14825 5.68833 2.13668 5.82595 2.13668 6.40799C2.13668 6.84091 2.14243 6.99284 2.16484 7.15199C2.259 7.82054 2.45199 8.45987 2.72145 8.99577L2.78449 9.12116L1.69491 10.937C1.09564 11.9358 0.589977 12.7869 0.571225 12.8285C0.524905 12.931 0.522905 13.1259 0.566921 13.2446C0.632009 13.4201 0.836089 13.5827 1.02355 13.6083C1.06921 13.6146 1.47188 13.5763 2.12468 13.5036C2.69071 13.4405 3.15612 13.3914 3.15892 13.3945C3.16172 13.3975 3.37023 13.8126 3.62227 14.3169C4.12251 15.3179 4.12823 15.327 4.30833 15.4151C4.54027 15.5286 4.86391 15.4493 5.00417 15.2446C5.03004 15.2069 5.43783 14.4994 5.91036 13.6723C6.38291 12.8453 6.77119 12.167 6.77324 12.165C6.77529 12.1629 6.85339 12.175 6.94678 12.1919C7.31715 12.2586 7.56126 12.2788 7.99955 12.2788C8.43787 12.2788 8.68194 12.2587 9.05244 12.1918C9.18358 12.1682 9.22521 12.1656 9.2347 12.1806C9.24147 12.1913 9.63762 12.8833 10.1151 13.7185C10.7473 14.8245 11.0017 15.2556 11.0515 15.3055C11.1928 15.4467 11.4218 15.5062 11.6011 15.4482C11.7078 15.4137 11.826 15.3408 11.881 15.2754C11.9038 15.2483 12.1278 14.8152 12.3787 14.3131C12.6297 13.8109 12.8374 13.3975 12.8402 13.3945C12.843 13.3914 13.3084 13.4405 13.8744 13.5036C14.5429 13.578 14.9288 13.6146 14.9755 13.6079C15.1298 13.586 15.3015 13.4739 15.386 13.3401C15.4312 13.2685 15.4715 13.123 15.4715 13.0315C15.4715 12.9954 15.4606 12.9289 15.4472 12.8838C15.4321 12.8329 15.0047 12.1048 14.3188 10.9615L13.2147 9.12105L13.2777 8.99571C13.5476 8.45886 13.7374 7.82975 13.8339 7.15195C13.875 6.86369 13.875 5.9523 13.8339 5.66404C13.6397 4.30039 13.0664 3.15033 12.112 2.21006C11.1826 1.29439 9.99059 0.725306 8.67155 0.56745C8.46673 0.542954 7.78895 0.523706 7.63155 0.53793ZM7.58355 1.68977C7.33046 1.71948 7.22979 1.73468 7.05555 1.76943C6.37174 1.90585 5.7154 2.20239 5.13761 2.63599C4.91299 2.80457 4.43689 3.27283 4.27135 3.48799C4.07075 3.74875 3.90652 4.0131 3.75947 4.31199C3.51156 4.81585 3.38111 5.24233 3.30131 5.80979C3.26235 6.08678 3.26241 6.72926 3.30142 7.00799C3.43147 7.93727 3.79305 8.7579 4.38004 9.45599C4.53623 9.64175 4.85593 9.95487 5.03955 10.1019C5.27207 10.2881 5.59297 10.4909 5.88611 10.637C6.37388 10.8799 6.79526 11.0135 7.34355 11.0991C7.60779 11.1404 8.39131 11.1404 8.65555 11.0991C9.19767 11.0145 9.63286 10.8766 10.113 10.6371C10.5715 10.4085 10.9236 10.1588 11.2936 9.80003C12.0859 9.0318 12.5611 8.07067 12.7058 6.94399C12.7372 6.69919 12.7325 6.06196 12.6973 5.80799C12.5784 4.94801 12.2542 4.17233 11.7277 3.48799C11.5622 3.27283 11.0861 2.80457 10.8615 2.63599C10.208 2.14561 9.50553 1.85159 8.67155 1.71947C8.51071 1.69398 7.72932 1.67267 7.58355 1.68977ZM7.78655 2.85603C7.65279 2.89279 7.53148 2.96462 7.4218 3.07199C7.3178 3.1738 7.30835 3.19047 6.97214 3.86399C6.78326 4.24239 6.62575 4.56086 6.62214 4.57169C6.61779 4.58468 6.35537 4.62971 5.85009 4.70415C5.01694 4.82689 4.96516 4.83959 4.80516 4.96039C4.54295 5.15835 4.42756 5.4815 4.50372 5.80449C4.55571 6.02502 4.60153 6.08028 5.23555 6.68711C5.52374 6.96297 5.75955 7.19091 5.75955 7.19366C5.75955 7.19641 5.70195 7.54038 5.63155 7.95801C5.56115 8.37566 5.50355 8.74937 5.50355 8.78849C5.50355 8.97159 5.58767 9.19147 5.71161 9.33227C5.79759 9.42995 5.95127 9.52919 6.07723 9.56836C6.20166 9.60707 6.40161 9.6102 6.53465 9.57556C6.59227 9.56055 6.89023 9.41241 7.30702 9.19156C7.68022 8.9938 7.9891 8.83199 7.99343 8.83199C7.99775 8.83199 8.30724 8.99417 8.68119 9.19239C9.08355 9.40567 9.39807 9.56244 9.45167 9.57639C9.5819 9.61031 9.78239 9.60671 9.90702 9.56823C10.2385 9.46585 10.4798 9.14223 10.4794 8.80063C10.4794 8.75188 10.4294 8.36279 10.3683 7.93599L10.2573 7.15999L10.3164 7.10231C10.3489 7.07059 10.5915 6.83929 10.8555 6.58833C11.3541 6.11438 11.4129 6.04555 11.474 5.86473C11.5998 5.49207 11.4208 5.06302 11.0666 4.88796C10.9326 4.82171 10.8833 4.81207 9.99331 4.67823L9.37108 4.58465L9.03966 3.91231C8.85737 3.54254 8.67998 3.20271 8.64545 3.15716C8.53358 3.00958 8.37316 2.90188 8.19667 2.85591C8.08577 2.82703 7.89183 2.82708 7.78655 2.85603ZM7.75543 4.86255C7.50156 5.379 7.43811 5.47241 7.2671 5.58137C7.14366 5.66001 7.02369 5.68919 6.53555 5.75932C6.28035 5.79598 6.05862 5.831 6.04279 5.83715C6.01963 5.84617 6.08406 5.91489 6.37567 6.19215C6.74758 6.54577 6.82691 6.64025 6.88361 6.79713C6.94585 6.96932 6.93953 7.10132 6.84175 7.6719C6.79351 7.95345 6.75679 8.18527 6.75679 8.18527C6.75679 8.18527 6.95395 8.08351 7.19155 7.95735C7.76327 7.65377 7.7538 7.65732 7.99155 7.65732C8.22985 7.65732 8.22063 7.65388 8.79847 7.9594C9.03987 8.08705 9.23958 8.18931 9.24225 8.18663C9.25015 8.17873 9.12243 7.28609 9.10314 7.21449C9.09342 7.17838 9.08569 7.08833 9.08596 7.01438C9.08654 6.859 9.13438 6.69734 9.21036 6.59403C9.23588 6.55931 9.41668 6.37855 9.61215 6.19235C9.80762 6.00614 9.96755 5.84889 9.96755 5.84289C9.96753 5.83691 9.74043 5.79758 9.46286 5.75551C9.17012 5.71115 8.91982 5.66491 8.86686 5.64539C8.74044 5.59879 8.5871 5.48625 8.51257 5.38539C8.47815 5.33881 8.34675 5.09425 8.22052 4.84196L7.99105 4.38323L7.75543 4.86255ZM2.83529 11.26C2.32297 12.1137 2.20009 12.329 2.22295 12.3328C2.23868 12.3355 2.51707 12.3078 2.84155 12.2714C3.50452 12.1968 3.59793 12.196 3.73476 12.2629C3.90793 12.3476 3.93774 12.3919 4.27623 13.0662L4.58564 13.6826L5.1166 12.7533C5.40862 12.2422 5.64743 11.8186 5.64729 11.812C5.64715 11.8054 5.57745 11.7678 5.49243 11.7284C4.84046 11.4264 4.15055 10.9178 3.67127 10.3859C3.57519 10.2792 3.49199 10.192 3.48641 10.192C3.48081 10.192 3.18782 10.6726 2.83529 11.26ZM12.3294 10.3841C11.8511 10.915 11.156 11.4276 10.5067 11.7284C10.4216 11.7678 10.3519 11.8054 10.3518 11.812C10.3517 11.8186 10.5905 12.2422 10.8825 12.7533L11.4134 13.6826L11.7229 13.0662C12.0614 12.3919 12.0912 12.3476 12.2643 12.2629C12.4012 12.196 12.4946 12.1968 13.1575 12.2714C13.482 12.3078 13.7604 12.3355 13.7762 12.3328C13.799 12.329 13.6769 12.1149 13.1662 11.264C12.8149 10.6788 12.522 10.1981 12.5152 10.1959C12.5083 10.1936 12.4248 10.2783 12.3294 10.3841Z" fill="currentColor"/>
</svg>
