<svg width="23" height="20" viewBox="0 0 23 20" fill="none" xmlns="http://www.w3.org/2000/svg">
<path d="M5.43199 1.24323H18.1588C19.0381 1.24323 19.7509 1.95606 19.7509 2.83537V11.5922H3.83984V2.83537C3.83984 1.88008 4.4767 1.24323 5.43199 1.24323Z" stroke="#C7C9CF" stroke-width="1.71" stroke-linecap="round" stroke-linejoin="round"/>
<path d="M3.83984 6.41767H8.61589L10.2084 8.40785L13.3818 4.42749L14.9744 6.41767H19.7504" stroke="#C7C9CF" stroke-width="1.71" stroke-linecap="round" stroke-linejoin="round"/>
<path d="M1.55993 16.9155L3.84134 11.5922H19.7628L22.0441 16.9155C22.1147 17.0798 22.151 17.2568 22.151 17.4358C22.151 18.1653 21.5595 18.7568 20.83 18.7568H2.77413C2.04456 18.7568 1.45312 18.1653 1.45312 17.4358C1.45312 17.2568 1.48946 17.0798 1.55993 16.9155Z" stroke="#C7C9CF" stroke-width="1.71" stroke-linecap="round" stroke-linejoin="round"/>
</svg>
