<svg width="91" height="48" viewBox="0 0 91 48" fill="none" xmlns="http://www.w3.org/2000/svg">
<path d="M24.9901 8H7.28955C3.26836 8 0 11.2867 0 15.3446V15.6751C0 19.733 3.26836 23.0198 7.28955 23.0198H24.9901C29.0113 23.0198 32.2797 19.733 32.2797 15.6751V15.3446C32.2797 11.2867 29.0113 8 24.9901 8ZM11.5678 12.8291C11.5678 12.5537 11.678 12.2966 11.8799 12.0946C12.0819 11.8927 12.339 11.8008 12.6144 11.8008C12.7429 11.8008 12.8898 11.8192 13.0184 11.8743C13.1469 11.9294 13.2571 12.0028 13.3489 12.0946C13.4407 12.1864 13.5141 12.315 13.5692 12.4435C13.6243 12.572 13.6427 12.7006 13.6427 12.8475V16.3729L11.5678 14.2797V12.8475V12.8291ZM13.6427 17.6398C13.6427 17.8418 13.5692 18.0254 13.459 18.1907C13.3489 18.3559 13.1836 18.4845 13 18.5763C12.8164 18.6497 12.6144 18.6864 12.4124 18.6681C12.2105 18.6497 12.0268 18.5579 11.8799 18.4294L8.92373 15.4364V17.6215C8.92373 17.8969 8.81356 18.1723 8.61158 18.3743C8.4096 18.5763 8.15254 18.6864 7.87712 18.6864C7.60169 18.6864 7.32627 18.5763 7.14265 18.3743C6.95904 18.1723 6.83051 17.9153 6.83051 17.6215V12.8658C6.83051 12.7189 6.84887 12.5904 6.90395 12.4619C6.95904 12.3333 7.03248 12.2048 7.12429 12.113C7.2161 12.0212 7.34463 11.9294 7.47316 11.8743C7.60169 11.8192 7.74859 11.8008 7.87712 11.8008C8.02401 11.8008 8.15254 11.8192 8.29943 11.8743C8.42797 11.9294 8.5565 12.0028 8.6483 12.113L8.75847 12.2232L9.93362 13.3983L13.661 17.1441V17.6215L13.6427 17.6398ZM25.4675 17.7316C25.4675 18.0071 25.3573 18.2825 25.1554 18.4845C24.9534 18.6864 24.6963 18.7966 24.4209 18.7966C24.1455 18.7966 23.8701 18.6864 23.6864 18.4845C23.4845 18.2825 23.3743 18.0254 23.3743 17.7316V16.1893L25.4675 14.096V17.7316ZM25.4675 13.2514L23.3376 15.3997L20.3814 18.3927C20.161 18.613 19.8856 18.7415 19.5734 18.7415C19.4816 18.7415 19.3898 18.7415 19.298 18.7415C19.1144 18.6864 18.9492 18.5946 18.8206 18.4661C18.6921 18.3376 18.6003 18.1723 18.5452 17.9887C18.4901 17.8051 18.5085 17.6031 18.5452 17.4195C18.6003 17.2359 18.6921 17.0523 18.839 16.9237L23.6681 12.0579C23.6681 12.0579 23.815 11.9294 23.9068 11.8927C23.9986 11.8559 24.0904 11.8376 24.2006 11.8192H24.2556C24.4209 11.8192 24.5678 11.8376 24.7147 11.911C24.8616 11.9661 24.9901 12.0579 25.1003 12.1681C25.2839 12.3333 25.3941 12.572 25.4124 12.8107C25.4124 12.8658 25.4124 12.9025 25.4124 12.9576H25.4492V13.2698L25.4675 13.2514Z" fill="white"/>
<path d="M24.9167 25.0946H7.38137C3.32346 25.0946 0.0183716 28.4181 0.0183716 32.5127V32.678C0.0183716 36.7726 3.32346 40.0961 7.38137 40.0961H24.9167C28.9746 40.0961 32.2797 36.7726 32.2797 32.678V32.5127C32.2797 28.4181 28.9746 25.0946 24.9167 25.0946ZM7.14266 30.3828C7.14266 30.2359 7.16103 30.1074 7.21611 29.9788C7.2712 29.8503 7.34464 29.7401 7.43645 29.63C7.52826 29.5381 7.65679 29.4463 7.76696 29.4096C7.89549 29.3545 8.02402 29.3362 8.17091 29.3362C8.31781 29.3362 8.44634 29.3545 8.57487 29.4096C8.7034 29.4647 8.81357 29.5381 8.90538 29.63C8.99718 29.7218 9.07063 29.8503 9.12572 29.9788C9.1808 30.1074 9.19916 30.2359 9.19916 30.3828V31.9068L7.10594 34.0184V30.3828H7.14266ZM13.9548 30.8969C13.8997 31.0254 13.8263 31.154 13.7161 31.2458L8.88701 36.1116C8.74012 36.2585 8.55651 36.3319 8.35453 36.3503H8.28108C8.11583 36.3503 7.96894 36.3319 7.82204 36.2768C7.67515 36.2218 7.54662 36.1299 7.43645 36.0198C7.25283 35.8362 7.14267 35.6158 7.10594 35.3588V35.322C7.10594 35.322 7.10594 35.2302 7.10594 35.1751V34.8263L9.19916 32.7331C10.1907 31.7415 11.1638 30.7316 12.1554 29.7401C12.2472 29.63 12.3757 29.5565 12.5042 29.4831C12.6328 29.428 12.7797 29.3912 12.9266 29.3912C13.0735 29.3912 13.2204 29.428 13.3489 29.4831C13.4774 29.5381 13.6059 29.63 13.6977 29.7401C13.7896 29.8319 13.8814 29.9605 13.9365 30.089C13.9915 30.2175 14.0099 30.3644 14.0099 30.4929C14.0099 30.6215 13.9732 30.7684 13.9365 30.8969H13.9548ZM23.0254 35.4138C23.0254 35.6893 22.9153 35.9647 22.7133 36.1667C22.5113 36.3687 22.2542 36.4788 21.9788 36.4788C21.7034 36.4788 21.428 36.3687 21.226 36.1667C21.024 35.9647 20.9139 35.6893 20.9139 35.4138V30.6215C20.9322 30.3461 21.0607 30.1074 21.2627 29.9237C21.4647 29.7401 21.7218 29.6483 21.9788 29.6483C22.2359 29.6483 22.4929 29.7401 22.6949 29.9237C22.8969 30.1074 23.0071 30.3461 23.0438 30.6215V35.4138H23.0254Z" fill="white"/>
<path d="M46.7119 24.8559C45.6836 24.8559 44.6737 25.0946 43.774 25.6088C42.911 26.0862 42.1949 26.8206 41.7175 27.702L41.4237 25.2048H38.0269C38.1921 26.6003 38.2839 28.0141 38.2656 29.428V40.0593H41.8828V31.6314C41.8644 31.1172 41.9379 30.6031 42.1215 30.1073C42.3051 29.6116 42.5622 29.1709 42.911 28.7853C43.2599 28.4181 43.6822 28.1427 44.1413 27.959C44.6003 27.7754 45.0961 27.6836 45.5918 27.702C45.9774 27.6836 46.363 27.7387 46.7302 27.8856C47.0975 28.0325 47.4096 28.2712 47.6667 28.565C48.1808 29.3178 48.4195 30.2175 48.3461 31.1356V40.1144H52V30.9887C52 26.9124 50.2373 24.8559 46.7119 24.8559Z" fill="white"/>
<path d="M65.5325 27.5184C65.0919 26.6921 64.4308 26.0311 63.6046 25.5904C62.7232 25.1314 61.7317 24.8927 60.7402 24.911C59.5283 24.8927 58.3532 25.2415 57.3433 25.9025C56.3334 26.5819 55.5255 27.5367 55.0297 28.6751C54.4605 29.9605 54.1667 31.3559 54.1851 32.7514C54.1667 34.1469 54.4605 35.524 55.0297 36.791C55.5255 37.8927 56.3334 38.8291 57.3433 39.4718C58.3532 40.1144 59.5467 40.4266 60.7402 40.4082C61.7317 40.4082 62.7232 40.1879 63.6046 39.7288C64.4308 39.2881 65.0919 38.5904 65.5325 37.7641V40.1511H69.1314V25.2782H65.5509V27.5551L65.5325 27.5184ZM64.5594 36.2034C64.2289 36.6257 63.7882 36.9746 63.3108 37.1949C62.815 37.4153 62.2825 37.5254 61.7317 37.5071C61.1992 37.5438 60.6667 37.4336 60.1709 37.2316C59.6752 37.0113 59.2345 36.6992 58.8856 36.2768C58.1328 35.2302 57.7839 33.9449 57.8941 32.6596C57.8207 31.3743 58.1695 30.089 58.904 29.024C59.2529 28.6201 59.6935 28.2895 60.1709 28.0692C60.6667 27.8489 61.1808 27.7387 61.7133 27.7387C62.2458 27.7387 62.7783 27.8489 63.2557 28.0692C63.7515 28.2895 64.1738 28.6201 64.5226 29.024C65.2571 30.089 65.606 31.3559 65.5142 32.6412C65.5876 33.9082 65.2387 35.1751 64.5226 36.2218L64.5594 36.2034Z" fill="white"/>
<path d="M78.2204 35.9463L73.9789 25.2783H70.1597L76.5311 40.1144H79.7077L86.1526 25.2783H82.5354L78.2204 35.9463Z" fill="white"/>
<path d="M88.9252 23.1667H89.0721C89.5862 23.1667 90.0819 22.9647 90.4308 22.5975C90.798 22.2302 91 21.7345 91 21.2203C91 20.7062 90.798 20.2104 90.4308 19.8432C90.0636 19.476 89.5862 19.274 89.0721 19.274H88.9252C88.411 19.274 87.9153 19.476 87.5664 19.8432C87.2175 20.2104 86.9972 20.7062 86.9972 21.2203C86.9972 21.7345 87.1992 22.2302 87.5664 22.5975C87.9336 22.9647 88.411 23.1667 88.9252 23.1667Z" fill="white"/>
<path d="M90.7981 25.2415H87.1808V40.1144H90.7981V25.2415Z" fill="white"/>
</svg>
