<svg width="85" height="16" viewBox="0 0 85 16" fill="none" xmlns="http://www.w3.org/2000/svg">
<path d="M32.1104 16H0.470703L0.46875 14.0225H33.9873L32.1104 16ZM84.0293 16H32.75L34.6279 14.0225H84.0264L84.0293 16ZM16.1631 3.99219C17.1705 3.99219 17.6917 4.23121 18.4707 5.01562L18.6084 4.2002H21.1309L20.0635 11.3467H17.4463L17.5781 10.5625C16.7596 11.2972 16.1735 11.5546 15.1826 11.5547V11.5537C13.3757 11.5537 12.2436 10.2268 12.2979 8.14844C12.3602 5.766 14.005 3.99223 16.1631 3.99219ZM25.1221 3.99219C25.9214 3.99223 26.6052 4.15113 27.2842 4.4873L26.9541 6.70996C26.4542 6.22964 26.0748 6.07031 25.4834 6.07031C24.5405 6.0704 23.7987 6.88566 23.7715 7.94043C23.7473 8.86784 24.3072 9.47461 25.1709 9.47461C25.6978 9.47457 26.0376 9.34764 26.624 8.93164L26.293 11.1709C25.3896 11.4735 25.004 11.5547 24.4121 11.5547V11.5537C22.3983 11.5535 21.0292 10.0832 21.085 7.95605C21.1448 5.68582 22.868 3.99219 25.1221 3.99219ZM31.4873 3.99219C33.7257 3.99219 35.1129 5.38258 35.0547 7.57227C35.0505 7.74894 35.028 7.98903 35.0039 8.30762H29.6641C29.6391 9.26784 30.0115 9.69922 30.8584 9.69922C31.4503 9.6992 31.7748 9.47484 31.9004 8.96387H34.7793C34.0285 10.7702 32.8249 11.5536 30.7783 11.5537V11.5547C28.4604 11.5547 27.1041 10.2435 27.1611 8.05273C27.2239 5.65565 28.9936 3.99238 31.4873 3.99219ZM51.9414 3.99219C52.9496 3.99219 53.4709 4.23127 54.249 5.01562L54.417 4.2002H56.9092L55.8428 11.3467H53.2256L53.3564 10.5625C52.5376 11.2973 51.9528 11.5547 50.9609 11.5547V11.5537C49.1542 11.5536 48.0228 10.2267 48.0762 8.14844C48.1385 5.76606 49.7836 3.99231 51.9414 3.99219ZM68.6807 3.99219C70.9186 3.99221 72.3062 5.38261 72.249 7.57227C72.2438 7.74894 72.2216 7.98903 72.1963 8.30762H66.8574C66.8318 9.26784 67.2046 9.69922 68.0527 9.69922C68.6437 9.69915 68.9692 9.47482 69.0938 8.96387H71.9717C71.2215 10.7704 70.018 11.5537 67.9707 11.5537V11.5547C65.6531 11.5545 64.2965 10.2434 64.3535 8.05273C64.4169 5.65551 66.1872 3.99219 68.6807 3.99219ZM81.6064 3.95898C82.5016 3.95898 83.2956 4.18348 84.2568 4.69434L83.5703 6.50098C82.8482 6.02129 82.4371 5.87794 81.8447 5.87793C81.2523 5.87793 80.9442 6.0218 80.9365 6.30957C80.9328 6.46986 80.9954 6.53393 81.2012 6.62988C81.2954 6.6617 80.9627 6.5657 82.2012 6.90234V6.90137C83.4877 7.25298 84.0627 7.86037 84.0361 8.90039C83.9941 10.5149 82.6712 11.5537 80.6406 11.5537C79.4733 11.5537 78.5855 11.2667 77.3916 10.4668L78.3965 8.72461C79.4339 9.4113 79.8779 9.57129 80.6611 9.57129C81.204 9.57119 81.5763 9.37967 81.584 9.07617C81.5889 8.91592 81.4948 8.80444 81.29 8.72461C81.2862 8.72359 81.2837 8.72307 81.2822 8.72266C81.2924 8.72536 81.313 8.73275 80.3369 8.5C79.0184 8.18108 78.4588 7.54152 78.4893 6.42188C78.5275 4.93486 79.7846 3.95912 81.6064 3.95898ZM41.7324 6.68457L44.9102 0.425781H47.5752L47.5908 11.3506H44.8643L44.8477 5.50488L41.835 11.3955H40.4111L39.0459 5.23633L37.1553 11.3506H34.623L38.2295 0.425781H40.333L41.7324 6.68457ZM6.20508 0.413086C8.42099 0.502496 9.78827 2.06623 9.41504 4.43164C9.02904 6.86544 7.54789 7.93164 5.20898 7.93164H3.69141L3.14941 11.3506H0.470703L2.10254 0.413086H6.20508ZM11.2725 11.3506H8.78418L10.4922 0.402344H12.9805L11.2725 11.3506ZM59.6143 6.86523L61.8398 4.15625H65.165L62.1318 7.35547L65.2666 11.3506H61.915L59.4463 8.00098L58.9033 11.3506H56.415L58.2139 0H60.7012L59.6143 6.86523ZM75.5693 5.17578C76.3894 4.43992 76.9711 4.2002 77.9629 4.2002C78.0914 4.2002 78.2667 4.20024 78.4902 4.21582L78.1377 6.66211C77.7284 6.43826 77.4103 6.3418 76.9463 6.3418C75.8594 6.34189 75.416 6.83721 75.1846 8.30762L74.7383 11.3467H72.0996L73.166 4.2002H75.6982L75.5693 5.17578ZM16.7324 6.07031C15.8331 6.07031 15.1123 6.78691 15.002 7.77246L14.9883 7.97266C14.9642 8.90044 15.5084 9.47461 16.3877 9.47461C17.3471 9.47451 18.0716 8.65984 18.1006 7.54199C18.1241 6.64691 17.5961 6.07038 16.7324 6.07031ZM52.5107 6.07031C51.5522 6.07055 50.796 6.88561 50.7666 7.97266C50.7425 8.90044 51.287 9.47461 52.167 9.47461C53.1255 9.4744 53.8495 8.65976 53.8789 7.54199C53.903 6.64685 53.3741 6.07031 52.5107 6.07031ZM31.2344 5.71875C30.5151 5.71886 30.0579 6.08672 29.8789 6.82227H32.373C32.3435 6.10283 31.9378 5.71875 31.2344 5.71875ZM68.4277 5.71875C67.7081 5.71875 67.2515 6.08661 67.0723 6.82227H69.5654C69.5361 6.10289 69.1308 5.71882 68.4277 5.71875ZM4.0332 5.77148H4.48535C5.45584 5.77148 6.41168 5.77099 6.6123 4.51172C6.8171 3.21446 6.02053 2.53027 4.98047 2.53027H4.53027L4.0332 5.77148Z" fill="currentColor"/>
</svg>
