<svg width="25" height="24" viewBox="0 0 25 24" fill="none" xmlns="http://www.w3.org/2000/svg">
<g clip-path="url(#clip0_2399_6147)">
<path fill-rule="evenodd" clip-rule="evenodd" d="M12.8016 0.474609C12.4614 0.474609 12.1284 0.571926 11.8417 0.755072C11.5587 0.935877 11.3326 1.19288 11.1894 1.4964L8.4678 6.99084C8.46245 7.00164 8.45735 7.01254 8.45246 7.02357C8.45124 7.02629 8.44932 7.02868 8.4469 7.03044C8.44449 7.03221 8.44164 7.03332 8.43868 7.03365C8.42824 7.0348 8.41781 7.03615 8.40742 7.03769L2.415 7.92545C2.08379 7.95766 1.76795 8.08195 1.50341 8.28458C1.22969 8.49425 1.02263 8.77879 0.907331 9.10373C0.792028 9.42867 0.773422 9.78009 0.853769 10.1154C0.933805 10.4494 1.10861 10.7531 1.35712 10.9901L5.7436 15.2224L5.75359 15.2319C5.75985 15.2378 5.76456 15.2451 5.76727 15.2532C5.76998 15.2613 5.77061 15.27 5.7691 15.2785L5.76814 15.2841L4.72288 21.4013L4.72262 21.4029C4.66519 21.7344 4.70181 22.0754 4.82834 22.387C4.95504 22.6994 5.16686 22.9697 5.43965 23.1675C5.71246 23.3652 6.0353 23.4825 6.37144 23.5058C6.7069 23.5291 7.04218 23.4579 7.33927 23.3006L7.34107 23.2995L12.7402 20.4461C12.7595 20.4377 12.7805 20.4333 12.8016 20.4333C12.8228 20.4333 12.8437 20.4377 12.8631 20.4461L18.2622 23.2995L18.2632 23.3001C18.5605 23.4579 18.8959 23.5293 19.2318 23.5058C19.5679 23.4825 19.8907 23.3652 20.1635 23.1675C20.4364 22.9697 20.6481 22.6994 20.7748 22.387C20.9013 22.0754 20.938 21.7346 20.8806 21.4032L20.8804 21.4013L19.835 15.2841L19.8342 15.2785C19.8326 15.27 19.8333 15.2613 19.8359 15.2532C19.8386 15.2451 19.8434 15.2378 19.8496 15.2319L19.8595 15.2224L24.2462 10.9901C24.4946 10.7531 24.6695 10.4494 24.7494 10.1154C24.8298 9.78009 24.8113 9.42867 24.6959 9.10373C24.5805 8.77879 24.3736 8.49425 24.0998 8.28458C23.8353 8.08195 23.5194 7.95766 23.1882 7.92545L17.1958 7.03769C17.1854 7.03615 17.175 7.0348 17.1645 7.03365C17.1616 7.03332 17.1587 7.03221 17.1563 7.03044C17.1539 7.02868 17.152 7.02629 17.1508 7.02357C17.1459 7.01254 17.1407 7.00164 17.1354 6.99084L14.4139 1.49638C14.2706 1.19287 14.0445 0.935872 13.7615 0.755072C13.4748 0.571926 13.1418 0.474609 12.8016 0.474609Z" fill="#C7C9CF"/>
</g>
<defs>
<clipPath id="clip0_2399_6147">
<rect width="24" height="24" fill="white" transform="translate(0.800781)"/>
</clipPath>
</defs>
</svg>
