<svg width="92" height="36" viewBox="0 0 92 36" fill="none" xmlns="http://www.w3.org/2000/svg">
<path fill-rule="evenodd" clip-rule="evenodd" d="M17.1311 17.1239L13.1513 13.1455C12.5357 13.7644 11.7505 14.1869 10.8948 14.3595C10.0392 14.5321 9.15157 14.4472 8.34421 14.1153C7.53685 13.7835 6.84602 13.2197 6.35907 12.4953C5.87212 11.7708 5.61092 10.9182 5.6085 10.0454C5.60608 9.17247 5.86255 8.31846 6.34548 7.59133C6.82841 6.8642 7.51611 6.2966 8.32162 5.9603C9.12712 5.624 10.0143 5.53411 10.8709 5.70199C11.7275 5.86986 12.515 6.28797 13.134 6.90345L13.1888 6.95821L17.1672 2.97838C15.7719 1.56747 13.9896 0.601953 12.0457 0.203925C10.1017 -0.194102 8.08341 -0.00676786 6.24592 0.742239C4.40844 1.49125 2.83431 2.76829 1.72258 4.41189C0.610848 6.05549 0.0114456 7.99184 0.000162281 9.97609C-0.011121 11.9603 0.566221 13.9034 1.65919 15.5595C2.75215 17.2157 4.31166 18.5105 6.14051 19.2804C7.96936 20.0502 9.98542 20.2605 11.9338 19.8846C13.8821 19.5087 15.6753 18.5635 17.0865 17.1686L17.1239 17.1326" fill="white"/>
<path fill-rule="evenodd" clip-rule="evenodd" d="M85.7651 0.469727H78.7695L72.7363 19.5216H78.9236L79.7248 16.4236H84.7493L85.5288 19.5216H91.9294L85.7651 0.469727ZM80.7334 11.8717L82.2046 5.89912L83.6758 11.8717H80.7334Z" fill="white"/>
<path fill-rule="evenodd" clip-rule="evenodd" d="M57.332 5.50876H61.3119V19.516H67.1087V5.50876H71.0957V0.462646H57.332V5.50876Z" fill="white"/>
<path fill-rule="evenodd" clip-rule="evenodd" d="M53.5136 17.7134C54.0295 15.624 53.4041 13.6788 51.8075 11.2768C50.2859 8.98858 49.6001 7.80414 49.7096 5.98714C49.8047 3.58224 51.358 1.64708 53.711 0.183105H46.2903C45.186 0.951908 44.2752 1.96638 43.6294 3.14675C42.9836 4.32712 42.6204 5.64121 42.5684 6.98569C42.6176 8.75971 43.2484 10.4684 44.3637 11.8488C45.3493 13.2609 46.3205 14.4972 46.3637 16.16C46.4012 18.271 44.8263 20.0289 42.7744 21.3978L49.0568 23.124C50.9833 21.954 52.9992 19.843 53.5367 17.7105" fill="white"/>
<path fill-rule="evenodd" clip-rule="evenodd" d="M28.9459 0.00732422C26.9629 0.00732422 25.0245 0.595335 23.3757 1.697C21.727 2.79866 20.4419 4.3645 19.6831 6.1965C18.9243 8.0285 18.7257 10.0444 19.1126 11.9892C19.4994 13.9341 20.4543 15.7205 21.8565 17.1227C23.2586 18.5248 25.0451 19.4797 26.9899 19.8665C28.9347 20.2534 30.9506 20.0548 32.7826 19.296C34.6146 18.5372 36.1805 17.2521 37.2821 15.6034C38.3838 13.9546 38.9718 12.0162 38.9718 10.0333C38.9718 7.37421 37.9155 4.82408 36.0353 2.94385C34.155 1.06363 31.6049 0.00732422 28.9459 0.00732422ZM28.9459 14.4252C28.0729 14.4252 27.2196 14.1663 26.4938 13.6814C25.768 13.1964 25.2023 12.5071 24.8683 11.7006C24.5342 10.8942 24.4468 10.0067 24.6171 9.1506C24.7874 8.29446 25.2078 7.50804 25.825 6.89079C26.4423 6.27355 27.2287 5.8532 28.0848 5.68291C28.941 5.51261 29.8284 5.60001 30.6348 5.93406C31.4413 6.26811 32.1306 6.8338 32.6156 7.55961C33.1006 8.28541 33.3594 9.13873 33.3594 10.0116C33.3594 11.1822 32.8944 12.3048 32.0667 13.1325C31.239 13.9602 30.1164 14.4252 28.9459 14.4252Z" fill="white"/>
<path fill-rule="evenodd" clip-rule="evenodd" d="M35.8308 27.3228C34.9727 27.3228 34.1339 27.5772 33.4204 28.0539C32.7069 28.5307 32.1508 29.2083 31.8224 30.0011C31.4941 30.7938 31.4081 31.6662 31.5756 32.5078C31.743 33.3494 32.1562 34.1225 32.7629 34.7292C33.3697 35.336 34.1428 35.7492 34.9844 35.9166C35.826 36.084 36.6983 35.9981 37.4911 35.6697C38.2839 35.3413 38.9615 34.7853 39.4382 34.0718C39.915 33.3583 40.1694 32.5195 40.1694 31.6614C40.1694 31.0916 40.0572 30.5274 39.8392 30.0011C39.6211 29.4747 39.3015 28.9964 38.8987 28.5935C38.4958 28.1906 38.0175 27.871 37.4911 27.653C36.9647 27.435 36.4006 27.3228 35.8308 27.3228ZM35.8308 33.5619C35.4529 33.5619 35.0835 33.4499 34.7693 33.2399C34.4551 33.03 34.2102 32.7316 34.0656 32.3825C33.921 32.0333 33.8831 31.6492 33.9569 31.2785C34.0306 30.9079 34.2126 30.5675 34.4798 30.3002C34.747 30.033 35.0874 29.8511 35.4581 29.7773C35.8287 29.7036 36.2129 29.7414 36.562 29.8861C36.9111 30.0307 37.2095 30.2756 37.4195 30.5898C37.6294 30.904 37.7415 31.2734 37.7415 31.6513C37.7415 32.158 37.5402 32.644 37.1818 33.0023C36.8235 33.3606 36.3375 33.5619 35.8308 33.5619Z" fill="white"/>
<path fill-rule="evenodd" clip-rule="evenodd" d="M30.7193 34.7305L28.9974 33.0014C28.7311 33.2691 28.3914 33.4518 28.0212 33.5265C27.6511 33.6011 27.2671 33.5643 26.9179 33.4207C26.5687 33.2771 26.2699 33.0332 26.0592 32.7198C25.8486 32.4064 25.7357 32.0376 25.7347 31.66C25.7337 31.2824 25.8446 30.913 26.0536 30.5985C26.2625 30.2839 26.56 30.0384 26.9085 29.893C27.2569 29.7475 27.6407 29.7087 28.0112 29.7813C28.3818 29.854 28.7224 30.0349 28.9902 30.3011L29.0132 30.3256L30.7423 28.5965C30.1385 27.9862 29.3673 27.5685 28.5261 27.3964C27.685 27.2244 26.8117 27.3055 26.0167 27.6297C25.2216 27.9539 24.5406 28.5066 24.0596 29.2178C23.5786 29.929 23.3194 30.7668 23.3145 31.6254C23.3097 32.484 23.5595 33.3247 24.0325 34.0413C24.5054 34.7579 25.1802 35.3181 25.9715 35.6512C26.7628 35.9844 27.6351 36.0754 28.4782 35.9128C29.3212 35.7502 30.0971 35.3413 30.7078 34.7377L30.7236 34.7219" fill="white"/>
<path fill-rule="evenodd" clip-rule="evenodd" d="M46.6174 30.6397H43.9777V29.7031H47.1045L46.7918 27.5259H41.75V35.7651H43.9777V32.4567H46.8206L46.6174 30.6397Z" fill="white"/>
<path fill-rule="evenodd" clip-rule="evenodd" d="M53.6101 30.6397H50.9718V29.7031H54.0972L53.7859 27.5259H48.7441V35.7651H50.9718V32.4567H53.8147L53.6101 30.6397Z" fill="white"/>
<path fill-rule="evenodd" clip-rule="evenodd" d="M61.3423 33.523H57.9229V32.4567H60.7659L60.5613 30.6397H57.9229V29.7002H61.0483L60.7399 27.5259H55.7227V35.7521H61.0613L61.3423 33.523Z" fill="white"/>
<path fill-rule="evenodd" clip-rule="evenodd" d="M68.6201 33.523H65.2008V32.4567H68.0409L67.8362 30.6397H65.2008V29.7002H68.3247L68.0149 27.5259H63.002V35.7521H68.3362L68.6201 33.523Z" fill="white"/>
</svg>
