<svg width="63" height="24" viewBox="0 0 63 24" fill="none" xmlns="http://www.w3.org/2000/svg">
<path fill-rule="evenodd" clip-rule="evenodd" d="M12.2215 11.4159L9.56832 8.76369C9.15795 9.17628 8.63445 9.45793 8.06401 9.57301C7.49358 9.68809 6.90183 9.63144 6.36359 9.41022C5.82535 9.189 5.36479 8.81314 5.04016 8.33018C4.71553 7.84722 4.5414 7.27883 4.53978 6.69691C4.53817 6.11498 4.70915 5.54564 5.03111 5.06089C5.35306 4.57614 5.81152 4.19773 6.34853 3.97353C6.88553 3.74933 7.47696 3.68941 8.04803 3.80133C8.61909 3.91325 9.14415 4.19199 9.5568 4.6023L9.5933 4.63881L12.2456 1.98559C11.3154 1.04498 10.1272 0.401302 8.83124 0.13595C7.53527 -0.129402 6.18973 -0.00451191 4.96473 0.494826C3.73974 0.994165 2.69032 1.84553 1.94917 2.94126C1.20801 4.037 0.808412 5.3279 0.800889 6.65073C0.793367 7.97356 1.17826 9.26892 1.90691 10.373C2.63555 11.4771 3.67522 12.3404 4.89446 12.8536C6.11369 13.3668 7.45773 13.507 8.75663 13.2564C10.0555 13.0058 11.251 12.3757 12.1918 11.4457L12.2167 11.4217" fill="currentColor"/>
<path fill-rule="evenodd" clip-rule="evenodd" d="M57.9788 0.312988H53.3151L49.293 13.0142H53.4178L53.952 10.9489H57.3016L57.8213 13.0142H62.0884L57.9788 0.312988ZM54.6244 7.91433L55.6052 3.93258L56.586 7.91433H54.6244Z" fill="currentColor"/>
<path fill-rule="evenodd" clip-rule="evenodd" d="M39.0234 3.67242H41.6767V13.0106H45.5412V3.67242H48.1992V0.30835H39.0234V3.67242Z" fill="currentColor"/>
<path fill-rule="evenodd" clip-rule="evenodd" d="M36.4765 11.8088C36.8204 10.4159 36.4035 9.11907 35.3391 7.51772C34.3247 5.99227 33.8675 5.20264 33.9405 3.99131C34.0039 2.38804 35.0394 1.09793 36.6081 0.121948H31.661C30.9248 0.634483 30.3176 1.3108 29.8871 2.09771C29.4565 2.88463 29.2144 3.76069 29.1797 4.65701C29.2125 5.83969 29.633 6.97881 30.3766 7.89909C31.0337 8.84049 31.6811 9.6647 31.7099 10.7732C31.7349 12.1805 30.685 13.3525 29.3171 14.2651L33.5053 15.4159C34.7897 14.6359 36.1336 13.2286 36.4919 11.8069" fill="currentColor"/>
<path fill-rule="evenodd" clip-rule="evenodd" d="M20.098 0.00500488C18.7761 0.00500488 17.4838 0.397013 16.3846 1.13146C15.2854 1.8659 14.4287 2.90979 13.9229 4.13112C13.417 5.35246 13.2846 6.69638 13.5425 7.99294C13.8004 9.2895 14.437 10.4805 15.3718 11.4152C16.3065 12.35 17.4975 12.9866 18.794 13.2445C20.0906 13.5024 21.4345 13.37 22.6559 12.8641C23.8772 12.3582 24.9211 11.5015 25.6555 10.4024C26.39 9.3032 26.782 8.01092 26.782 6.68896C26.782 4.91627 26.0778 3.21618 24.8243 1.96269C23.5708 0.709206 21.8707 0.00500488 20.098 0.00500488ZM20.098 9.61692C19.5161 9.61692 18.9472 9.44435 18.4633 9.12104C17.9795 8.79773 17.6023 8.33819 17.3796 7.80055C17.1569 7.2629 17.0987 6.67129 17.2122 6.10053C17.3257 5.52976 17.606 5.00548 18.0175 4.59399C18.429 4.18249 18.9532 3.90226 19.524 3.78873C20.0948 3.6752 20.6864 3.73346 21.224 3.95616C21.7617 4.17886 22.2212 4.55599 22.5445 5.03986C22.8678 5.52373 23.0404 6.09261 23.0404 6.67455C23.0404 7.45492 22.7304 8.20332 22.1786 8.75512C21.6268 9.30692 20.8784 9.61692 20.098 9.61692Z" fill="currentColor"/>
<path fill-rule="evenodd" clip-rule="evenodd" d="M24.6893 18.2151C24.1172 18.2151 23.558 18.3847 23.0823 18.7025C22.6067 19.0204 22.236 19.4721 22.017 20.0006C21.7981 20.5291 21.7408 21.1107 21.8525 21.6718C21.9641 22.2329 22.2395 22.7482 22.644 23.1527C23.0486 23.5573 23.5639 23.8327 24.125 23.9443C24.6861 24.0559 25.2676 23.9987 25.7962 23.7797C26.3247 23.5608 26.7764 23.1901 27.0942 22.7144C27.4121 22.2388 27.5817 21.6796 27.5817 21.1075C27.5817 20.7277 27.5069 20.3515 27.3615 20.0006C27.2162 19.6497 27.0031 19.3308 26.7345 19.0623C26.4659 18.7937 26.1471 18.5806 25.7962 18.4353C25.4452 18.2899 25.0691 18.2151 24.6893 18.2151ZM24.6893 22.3745C24.4374 22.3745 24.1911 22.2998 23.9816 22.1599C23.7721 22.0199 23.6089 21.821 23.5125 21.5882C23.4161 21.3555 23.3908 21.0994 23.44 20.8523C23.4891 20.6052 23.6105 20.3782 23.7886 20.2001C23.9667 20.0219 24.1937 19.9006 24.4408 19.8515C24.6879 19.8023 24.944 19.8276 25.1767 19.924C25.4095 20.0204 25.6084 20.1836 25.7484 20.3931C25.8884 20.6026 25.9631 20.8488 25.9631 21.1008C25.9631 21.4386 25.8289 21.7626 25.59 22.0015C25.3511 22.2403 25.0271 22.3745 24.6893 22.3745Z" fill="currentColor"/>
<path fill-rule="evenodd" clip-rule="evenodd" d="M21.2803 23.1536L20.1324 22.0008C19.9548 22.1793 19.7284 22.3011 19.4816 22.3508C19.2348 22.4006 18.9789 22.3761 18.746 22.2803C18.5132 22.1846 18.314 22.022 18.1736 21.8131C18.0332 21.6041 17.9579 21.3583 17.9572 21.1065C17.9566 20.8548 18.0305 20.6085 18.1698 20.3988C18.3091 20.1892 18.5075 20.0255 18.7398 19.9285C18.9721 19.8316 19.2279 19.8057 19.4749 19.8541C19.722 19.9025 19.9491 20.0231 20.1276 20.2006L20.1429 20.217L21.2957 19.0642C20.8931 18.6573 20.379 18.3789 19.8182 18.2642C19.2574 18.1495 18.6752 18.2036 18.1452 18.4197C17.6152 18.6358 17.1612 19.0043 16.8405 19.4784C16.5199 19.9525 16.347 20.5111 16.3438 21.0835C16.3406 21.6559 16.5071 22.2163 16.8224 22.6941C17.1377 23.1718 17.5876 23.5453 18.1151 23.7674C18.6426 23.9895 19.2242 24.0501 19.7862 23.9417C20.3482 23.8333 20.8655 23.5607 21.2726 23.1584L21.2832 23.1478" fill="currentColor"/>
<path fill-rule="evenodd" clip-rule="evenodd" d="M31.8778 20.4265H30.1179V19.8021H32.2025L31.994 18.3506H28.6328V23.8434H30.1179V21.6378H32.0132L31.8778 20.4265Z" fill="currentColor"/>
<path fill-rule="evenodd" clip-rule="evenodd" d="M36.5409 20.4265H34.782V19.8021H36.8656L36.6581 18.3506H33.2969V23.8434H34.782V21.6378H36.6773L36.5409 20.4265Z" fill="currentColor"/>
<path fill-rule="evenodd" clip-rule="evenodd" d="M41.6956 22.3487H39.4161V21.6378H41.3114L41.175 20.4265H39.4161V19.8002H41.4997L41.2941 18.3506H37.9492V23.8347H41.5083L41.6956 22.3487Z" fill="currentColor"/>
<path fill-rule="evenodd" clip-rule="evenodd" d="M46.5462 22.3487H44.2667V21.6378H46.1601L46.0236 20.4265H44.2667V19.8002H46.3493L46.1428 18.3506H42.8008V23.8347H46.357L46.5462 22.3487Z" fill="currentColor"/>
</svg>
