<svg width="25" height="25" viewBox="0 0 25 25" fill="none" xmlns="http://www.w3.org/2000/svg">
<path fill-rule="evenodd" clip-rule="evenodd" d="M9.37401 0.733398C8.62113 0.733398 7.88153 0.931773 7.22971 1.30855C6.5779 1.68532 6.03686 2.22719 5.66109 2.87959C5.28532 3.53198 5.08807 4.27188 5.08924 5.02476C5.08968 5.31355 5.1193 5.60033 5.17699 5.88093H3.37565C2.69378 5.88093 2.03985 6.15178 1.5577 6.63394C1.07555 7.11609 0.804688 7.77002 0.804688 8.45188V11.9823C0.804688 12.2457 0.925794 12.4945 1.13312 12.657C1.34044 12.8195 1.61095 12.8776 1.86672 12.8146C2.74701 12.5979 3.70238 12.8556 4.33636 13.4895C4.81841 13.9716 5.08924 14.6254 5.08924 15.3071C5.08924 15.9889 4.81841 16.6427 4.33636 17.1248C3.70238 17.7587 2.74701 18.0163 1.86672 17.7997C1.61095 17.7367 1.34044 17.7948 1.13312 17.9573C0.925794 18.1198 0.804688 18.3686 0.804688 18.6319V22.1625C0.804688 22.8442 1.07556 23.4982 1.5577 23.9803C2.03985 24.4625 2.69378 24.7334 3.37565 24.7334H7.76302C8.02642 24.7334 8.2752 24.6123 8.43766 24.4049C8.60014 24.1977 8.65828 23.9271 8.59531 23.6714C8.20058 22.0678 9.44188 20.4489 11.0878 20.4489C12.7338 20.4489 13.9751 22.0678 13.5803 23.6714C13.5174 23.9271 13.5755 24.1977 13.738 24.4049C13.9004 24.6123 14.1492 24.7334 14.4126 24.7334H17.0862C17.768 24.7334 18.4219 24.4625 18.9042 23.9803C19.3862 23.4982 19.6571 22.8442 19.6571 22.1625V20.3589C19.9375 20.4161 20.2242 20.4453 20.5127 20.4453C22.8518 20.4459 24.7962 18.504 24.7986 16.1649V16.1632C24.7962 13.8241 22.8518 11.8822 20.5127 11.8828C20.2242 11.8829 19.9375 11.9121 19.6571 11.9693V8.45188C19.6571 7.77002 19.3862 7.11609 18.9042 6.63394C18.4219 6.15178 17.768 5.88093 17.0862 5.88093H13.571C13.6287 5.60033 13.6583 5.31355 13.6588 5.02476C13.6599 4.27188 13.4627 3.53198 13.0869 2.87959C12.7112 2.22719 12.1701 1.68532 11.5183 1.30855C10.8665 0.931773 10.1269 0.733398 9.37401 0.733398Z" fill="#7AAAFF"/>
</svg>
