<svg width="20" height="19" viewBox="0 0 20 19" fill="none" xmlns="http://www.w3.org/2000/svg">
<path d="M15.8932 11.5577C15.6486 11.7948 15.5362 12.1376 15.5919 12.4738L16.4315 17.1202C16.5023 17.5141 16.3361 17.9126 16.0065 18.1402C15.6835 18.3763 15.2538 18.4046 14.9016 18.2157L10.7188 16.0342C10.5734 15.9567 10.4119 15.9152 10.2466 15.9105H9.99067C9.9019 15.9237 9.81501 15.952 9.73568 15.9955L5.55199 18.1874C5.34516 18.2913 5.11095 18.3281 4.88146 18.2913C4.32238 18.1855 3.94934 17.6529 4.04094 17.091L4.88146 12.4445C4.93718 12.1055 4.8248 11.7608 4.5802 11.5199L1.16997 8.21454C0.884757 7.93783 0.785594 7.52229 0.915922 7.14736C1.04247 6.77338 1.36546 6.50045 1.75549 6.43906L6.44917 5.75815C6.80615 5.72132 7.11969 5.50411 7.28024 5.18301L9.34848 0.94265C9.39759 0.84821 9.46086 0.761325 9.53736 0.687662L9.62235 0.621554C9.66674 0.572445 9.71774 0.531836 9.7744 0.498782L9.87734 0.461006L10.0379 0.394897H10.4355C10.7906 0.431729 11.1032 0.644219 11.2666 0.961538L13.3622 5.18301C13.5133 5.49183 13.807 5.70621 14.146 5.75815L18.8397 6.43906C19.2364 6.49573 19.5678 6.7696 19.6991 7.14736C19.8228 7.52607 19.7161 7.94161 19.4252 8.21454L15.8932 11.5577Z" fill="#FED64D"/>
</svg>
