<svg width="24" height="23" viewBox="0 0 24 23" fill="none" xmlns="http://www.w3.org/2000/svg">
<path d="M17.5572 13.557C17.3126 13.794 17.2003 14.1368 17.256 14.4731L18.0956 19.1195C18.1664 19.5133 18.0002 19.9119 17.6706 20.1395C17.3476 20.3756 16.9179 20.4039 16.5656 20.215L12.3829 18.0334C12.2374 17.956 12.0759 17.9145 11.9107 17.9097H11.6547C11.566 17.923 11.4791 17.9513 11.3997 17.9947L7.21605 20.1867C7.00923 20.2906 6.77501 20.3274 6.54552 20.2906C5.98644 20.1848 5.6134 19.6521 5.70501 19.0902L6.54552 14.4438C6.60124 14.1047 6.48886 13.76 6.24426 13.5192L2.83403 10.2138C2.54882 9.9371 2.44966 9.52156 2.57998 9.14663C2.70653 8.77265 3.02952 8.49972 3.41956 8.43833L8.11323 7.75742C8.47021 7.72059 8.78375 7.50337 8.9443 7.18228L11.0125 2.94192C11.0617 2.84748 11.1249 2.76059 11.2014 2.68693L11.2864 2.62082C11.3308 2.57171 11.3818 2.5311 11.4385 2.49805L11.5414 2.46027L11.702 2.39417H12.0995C12.4546 2.431 12.7672 2.64349 12.9306 2.96081L15.0262 7.18228C15.1774 7.4911 15.4711 7.70548 15.8101 7.75742L20.5038 8.43833C20.9004 8.495 21.2319 8.76887 21.3632 9.14663C21.4869 9.52534 21.3802 9.94087 21.0893 10.2138L17.5572 13.557Z" fill="#E8E9EB"/>
<mask id="mask0_2529_4071" style="mask-type:alpha" maskUnits="userSpaceOnUse" x="2" y="2" width="20" height="19">
<path d="M17.5533 13.557C17.3087 13.794 17.1964 14.1368 17.2521 14.4731L18.0916 19.1195C18.1625 19.5133 17.9963 19.9119 17.6667 20.1395C17.3437 20.3756 16.914 20.4039 16.5617 20.215L12.379 18.0334C12.2335 17.956 12.072 17.9145 11.9068 17.9097H11.6508C11.5621 17.923 11.4752 17.9513 11.3958 17.9947L7.21214 20.1867C7.00532 20.2906 6.77111 20.3274 6.54162 20.2906C5.98253 20.1848 5.60949 19.6521 5.7011 19.0902L6.54162 14.4438C6.59734 14.1047 6.48495 13.76 6.24035 13.5192L2.83012 10.2138C2.54491 9.9371 2.44575 9.52156 2.57608 9.14663C2.70263 8.77265 3.02561 8.49972 3.41565 8.43833L8.10932 7.75742C8.46631 7.72059 8.77985 7.50337 8.9404 7.18228L11.0086 2.94192C11.0577 2.84748 11.121 2.76059 11.1975 2.68693L11.2825 2.62082C11.3269 2.57171 11.3779 2.5311 11.4346 2.49805L11.5375 2.46027L11.698 2.39417H12.0956C12.4507 2.431 12.7633 2.64349 12.9267 2.96081L15.0223 7.18228C15.1734 7.4911 15.4672 7.70548 15.8062 7.75742L20.4999 8.43833C20.8965 8.495 21.228 8.76887 21.3593 9.14663C21.483 9.52534 21.3763 9.94087 21.0854 10.2138L17.5533 13.557Z" fill="#DEDEDE"/>
</mask>
<g mask="url(#mask0_2529_4071)">
<rect x="1.93359" y="2.39417" width="10.234" height="17.9448" fill="#FED64D"/>
</g>
</svg>
