<svg width="25" height="25" viewBox="0 0 25 25" fill="none" xmlns="http://www.w3.org/2000/svg">
<path fill-rule="evenodd" clip-rule="evenodd" d="M18.3528 5.11168C16.7951 3.97459 14.8771 3.30458 12.8008 3.30458C7.59352 3.30458 3.37221 7.52589 3.37221 12.7332C3.37221 13.4432 2.79657 14.0189 2.0865 14.0189C1.37642 14.0189 0.800781 13.4432 0.800781 12.7332C0.800781 6.10574 6.17337 0.733154 12.8008 0.733154C15.5865 0.733154 18.1521 1.68362 20.1883 3.27619L21.6232 1.84137C21.8683 1.59623 22.2371 1.5229 22.5573 1.65557C22.8775 1.78824 23.0865 2.10078 23.0865 2.44746V6.73317C23.0865 7.20657 22.7027 7.59031 22.2294 7.59031H17.9436C17.5969 7.59031 17.2843 7.38148 17.1517 7.0612C17.019 6.7409 17.0923 6.37223 17.3375 6.12709L18.3528 5.11168ZM22.2294 12.7332C22.2294 12.0231 22.805 11.4474 23.5151 11.4474C24.2251 11.4474 24.8008 12.0231 24.8008 12.7332C24.8008 19.3606 19.4282 24.7332 12.8008 24.7332C10.0151 24.7332 7.4494 23.7828 5.41317 22.1902L3.9783 23.625C3.73315 23.8702 3.3645 23.9434 3.0442 23.8107C2.7239 23.678 2.51507 23.3655 2.51507 23.0189V18.7332C2.51507 18.2598 2.89883 17.876 3.37221 17.876H7.65792C8.0046 17.876 8.31715 18.0848 8.44982 18.4052C8.58249 18.7254 8.50915 19.0942 8.26401 19.3393L7.24866 20.3547C8.80643 21.4918 10.7245 22.1617 12.8008 22.1617C18.0081 22.1617 22.2294 17.9405 22.2294 12.7332ZM11.4045 7.64413C11.7259 6.15115 13.8393 6.14049 14.1738 7.63206L14.2172 7.82534C14.6261 9.64847 16.0679 11.0321 17.8607 11.3492C19.3999 11.6215 19.3999 13.8448 17.8607 14.1171C16.0679 14.4342 14.6261 15.8178 14.2172 17.641L14.1738 17.8343C13.8393 19.3258 11.7259 19.3152 11.4045 17.8222L11.3688 17.6563C10.9748 15.8261 9.53457 14.4321 7.7386 14.1144C6.20246 13.8426 6.20244 11.6237 7.7386 11.352C9.53457 11.0342 10.9748 9.64019 11.3688 7.80998L11.4045 7.64413Z" fill="#7AAAFF"/>
</svg>
