<svg width="25" height="25" viewBox="0 0 25 25" fill="none" xmlns="http://www.w3.org/2000/svg">
<path fill-rule="evenodd" clip-rule="evenodd" d="M18.3875 1.89469C17.581 1.1863 16.725 0.805886 15.8696 0.742754C14.7811 0.662412 13.8271 1.10696 13.1488 1.79093C11.833 3.11763 11.4042 5.54895 13.0824 7.23479C13.0907 7.24314 13.0992 7.25132 13.1078 7.25932L17.8043 11.6035C18.1327 11.9074 18.6398 11.9074 18.9683 11.6035L23.6647 7.25932L23.6846 7.24031C25.3888 5.55939 24.957 3.12512 23.6358 1.79847C22.9554 1.11518 21.9991 0.671075 20.9097 0.74923C20.0529 0.810685 19.1951 1.18847 18.3875 1.89469ZM6.37221 8.44768C6.13552 8.44768 5.94364 8.63956 5.94364 8.87626V16.162H19.6579V13.5905C19.6579 12.8805 20.2336 12.3048 20.9436 12.3048C21.6537 12.3048 22.2294 12.8805 22.2294 13.5905V16.8168L24.5639 21.4859C24.7197 21.7973 24.8008 22.1411 24.8008 22.4894C24.8008 23.7287 23.796 24.7334 22.5568 24.7334H3.04482C1.80547 24.7334 0.800781 23.7287 0.800781 22.4894C0.800781 22.1411 0.881892 21.7973 1.03769 21.4859L3.37221 16.8168V8.87626C3.37221 7.2194 4.71535 5.87626 6.37221 5.87626H9.26507C9.97514 5.87626 10.5508 6.4519 10.5508 7.16197C10.5508 7.87204 9.97514 8.44768 9.26507 8.44768H6.37221Z" fill="#7AAAFF"/>
</svg>
