<svg width="25" height="25" viewBox="0 0 25 25" fill="none" xmlns="http://www.w3.org/2000/svg">
<path fill-rule="evenodd" clip-rule="evenodd" d="M11.9436 3.30458C7.20978 3.30458 3.37221 7.14215 3.37221 11.876C3.37221 16.6099 7.20978 20.4474 11.9436 20.4474C16.6775 20.4474 20.5151 16.6099 20.5151 11.876C20.5151 7.14215 16.6775 3.30458 11.9436 3.30458ZM0.800781 11.876C0.800781 5.72198 5.78961 0.733154 11.9436 0.733154C18.0978 0.733154 23.0865 5.72198 23.0865 11.876C23.0865 14.3345 22.2904 16.607 20.9418 18.4498L24.299 21.807C24.9686 22.4765 24.9686 23.562 24.299 24.2314C23.6296 24.9008 22.5443 24.9008 21.8747 24.2314L18.5174 20.8741C16.6746 22.2228 14.4021 23.0189 11.9436 23.0189C5.78961 23.0189 0.800781 18.0301 0.800781 11.876ZM11.3472 8.34477C11.1837 7.96538 10.8166 7.71381 10.4037 7.69821C9.9909 7.68261 9.60587 7.90574 9.41418 8.27173L7.94712 11.0724H6.39899C5.80727 11.0724 5.32756 11.5521 5.32756 12.1439C5.32756 12.7356 5.80727 13.2153 6.39899 13.2153H8.59543C8.99399 13.2153 9.35959 12.9941 9.54453 12.641L10.2692 11.2575L12.0579 15.4073C12.2063 15.7515 12.5238 15.9932 12.8952 16.0445C13.2665 16.0958 13.6377 15.9493 13.8739 15.6582L15.8559 13.2153H17.4883C18.0801 13.2153 18.5598 12.7356 18.5598 12.1439C18.5598 11.5521 18.0801 11.0724 17.4883 11.0724H15.3454C15.0225 11.0724 14.7168 11.2181 14.5134 11.4688L13.3251 12.9335L11.3472 8.34477Z" fill="#7AAAFF"/>
</svg>
