<svg width="16" height="16" viewBox="0 0 16 16" fill="none" xmlns="http://www.w3.org/2000/svg">
<g clip-path="url(#clip0_5545_4771)">
<path fill-rule="evenodd" clip-rule="evenodd" d="M7.50471 0.545876C6.22189 0.631396 4.97268 1.05008 3.90471 1.75248C3.05272 2.31284 2.31359 3.05197 1.75324 3.90396C1.29885 4.59482 0.940053 5.41704 0.746213 6.2116C0.252533 8.23524 0.617797 10.3696 1.75324 12.096C2.31269 12.9466 3.05407 13.688 3.90471 14.2474C4.59557 14.7018 5.4178 15.0606 6.21236 15.2545C8.23543 15.748 10.3708 15.3825 12.0967 14.2474C12.9473 13.688 13.6887 12.9466 14.2482 12.096C14.7026 11.4051 15.0614 10.5829 15.2552 9.78831C15.6691 8.09159 15.4837 6.31676 14.7298 4.75996C14.3475 3.97045 13.8967 3.33576 13.2808 2.71984C12.4208 1.85983 11.4158 1.24877 10.2451 0.874036C9.39301 0.6013 8.42045 0.484852 7.50471 0.545876ZM7.51271 1.68994C5.58962 1.84141 3.82184 2.87452 2.7488 4.47404C2.19578 5.29837 1.85703 6.20493 1.71828 7.23196C1.6762 7.5434 1.6762 8.45652 1.71828 8.76796C1.82032 9.52328 2.00375 10.1317 2.32848 10.792C2.6485 11.4427 3.01733 11.958 3.53002 12.4706C4.04269 12.9833 4.55801 13.3522 5.20871 13.6722C5.869 13.9969 6.47738 14.1803 7.23271 14.2824C7.54415 14.3245 8.45727 14.3245 8.76871 14.2824C9.52404 14.1803 10.1324 13.9969 10.7927 13.6722C11.4434 13.3522 11.9587 12.9833 12.4714 12.4706C12.9841 11.958 13.3529 11.4427 13.6729 10.792C13.9371 10.2549 14.0968 9.78592 14.2069 9.22396C14.2994 8.75192 14.3123 8.60221 14.3123 7.99996C14.3123 7.3977 14.2994 7.24799 14.2069 6.77596C14.0968 6.21399 13.9371 5.74504 13.6729 5.20796C13.3529 4.55725 12.9841 4.04194 12.4714 3.52927C11.9587 3.01658 11.4434 2.64775 10.7927 2.32773C10.1439 2.00866 9.55965 1.82991 8.82471 1.72565C8.64896 1.70072 8.49215 1.69277 8.09671 1.68876C7.81951 1.68596 7.55671 1.68648 7.51271 1.68994ZM6.72589 4.01557C6.5898 4.05154 6.53756 4.07672 6.40625 4.16968C6.19247 4.32101 6.0365 4.5617 5.99263 4.80797C5.97612 4.90066 5.96967 5.07789 5.96927 5.45056L5.96871 5.96519L5.39671 5.97192C4.76186 5.97941 4.72888 5.98388 4.52746 6.08972C4.30677 6.20568 4.10072 6.44842 4.02881 6.67716L3.99271 6.79196V7.99996V9.20796L4.02881 9.32276C4.10056 9.55096 4.30704 9.79455 4.52599 9.90925C4.72826 10.0152 4.76242 10.0199 5.39671 10.0277L5.96871 10.0347L5.96927 10.5493C5.96993 11.1511 5.98237 11.2533 6.07889 11.4479C6.1964 11.685 6.43818 11.8965 6.67791 11.9719L6.79271 12.008H8.00071H9.20871L9.32351 11.9719C9.55172 11.9001 9.7953 11.6936 9.91 11.4747C10.0159 11.2725 10.0206 11.2381 10.0284 10.6053L10.0355 10.0347L10.6061 10.0277C11.2389 10.0199 11.2732 10.0152 11.4754 9.90925C11.6944 9.79455 11.9009 9.55096 11.9726 9.32276L12.0087 9.20796V7.99996V6.79196L11.9726 6.67716C11.9009 6.44895 11.6944 6.20536 11.4754 6.09066C11.2732 5.98474 11.2389 5.98005 10.6061 5.97224L10.0355 5.9652L10.0284 5.39458C10.0206 4.76181 10.0159 4.72744 9.91 4.52524C9.79807 4.31157 9.5578 4.10503 9.332 4.02839L9.22471 3.99196L8.03271 3.9886C6.90728 3.98541 6.83429 3.98692 6.72589 4.01557ZM7.12071 5.83701C7.12071 6.58004 7.11316 6.6893 7.0538 6.80567C7.01271 6.8862 6.88695 7.01196 6.80642 7.05304C6.69005 7.1124 6.58079 7.11996 5.83777 7.11996H5.12071V7.99996V8.87996H5.83777C6.58079 8.87996 6.69005 8.88751 6.80642 8.94687C6.88695 8.98796 7.01271 9.11372 7.0538 9.19424C7.11316 9.31061 7.12071 9.41988 7.12071 10.1629V10.88H8.00071H8.88071V10.1629C8.88071 9.71333 8.88722 9.41061 8.89816 9.3514C8.94186 9.11501 9.1162 8.94045 9.35165 8.89735C9.41085 8.8865 9.71644 8.87996 10.1637 8.87996H10.8807V7.99996V7.11996H10.1637C9.42063 7.11996 9.31137 7.1124 9.195 7.05304C9.11447 7.01196 8.98871 6.8862 8.94762 6.80567C8.88826 6.6893 8.88071 6.58004 8.88071 5.83701V5.11996H8.00071H7.12071V5.83701Z" fill="#2A4473"/>
</g>
<defs>
<clipPath id="clip0_5545_4771">
<rect width="16" height="16" fill="white"/>
</clipPath>
</defs>
</svg>
