<svg width="16" height="16" viewBox="0 0 16 16" fill="none" xmlns="http://www.w3.org/2000/svg">
<path fill-rule="evenodd" clip-rule="evenodd" d="M7.85447 0.548928C7.70193 0.592176 7.55932 0.707488 7.48975 0.843856C7.43055 0.95992 7.42361 1.06805 7.42361 1.87501V2.65606H6.49543C5.51313 2.65606 5.43297 2.66083 5.13215 2.73715C4.29958 2.94837 3.5983 3.59928 3.32313 4.41627C3.04113 5.2535 3.19859 6.17622 3.74083 6.86406C4.00636 7.2009 4.38839 7.48984 4.78516 7.6539C5.02257 7.75208 5.17982 7.78808 6.23126 7.9849C6.79465 8.09037 7.29342 8.18424 7.33961 8.1935L7.42361 8.21034V10.2103V12.2102L6.53161 12.2042C5.66131 12.1983 5.6363 12.1973 5.50361 12.1615C5.07631 12.0461 4.71398 11.7641 4.51348 11.3908C4.47839 11.3255 4.42343 11.1933 4.39135 11.0971C4.30615 10.8414 4.2235 10.7391 4.03161 10.6517C3.92751 10.6043 3.73486 10.6052 3.61238 10.6537C3.42139 10.7293 3.27063 10.9292 3.25233 11.1311C3.24207 11.2442 3.28286 11.4168 3.37646 11.6563C3.50463 11.9842 3.70691 12.2858 3.98262 12.5601C4.41063 12.9858 4.9106 13.2376 5.49207 13.3202C5.619 13.3383 5.8535 13.3435 6.53961 13.3438L7.42361 13.3441V14.1251C7.42361 14.6184 7.43001 14.9412 7.441 15.0011C7.47497 15.1867 7.59482 15.3384 7.77281 15.4212C7.84851 15.4564 7.88625 15.4634 7.99961 15.4634C8.11297 15.4634 8.15071 15.4564 8.22641 15.4212C8.40439 15.3384 8.52425 15.1867 8.55822 15.0011C8.56921 14.9412 8.57561 14.6187 8.57561 14.1261V13.3461L9.43561 13.3404C10.2568 13.3349 10.3035 13.333 10.4707 13.2982C11.0522 13.1771 11.5587 12.9059 11.9681 12.4965C13.2511 11.2135 13.049 9.08811 11.5469 8.06723C11.2808 7.88642 11.0174 7.76227 10.7247 7.67982C10.594 7.64301 8.64523 7.26406 8.58659 7.26406C8.58055 7.26406 8.57561 6.48213 8.57561 5.52642V3.78877L9.21161 3.7968C9.89231 3.80541 9.97631 3.81358 10.2316 3.89619C10.7428 4.06158 11.1999 4.44925 11.4401 4.92096C11.4812 5.00181 11.5454 5.16429 11.5827 5.28202C11.664 5.53915 11.7253 5.63853 11.8566 5.72621C11.9692 5.80138 12.0816 5.83085 12.2149 5.82016C12.5102 5.79645 12.7347 5.55774 12.7375 5.26446C12.7398 5.00944 12.5243 4.46395 12.2726 4.08806C11.8626 3.4756 11.2591 3.02277 10.5596 2.80266C10.1618 2.67747 9.96279 2.65606 9.19663 2.65606H8.57561V1.87501C8.57561 1.38171 8.56921 1.05896 8.55822 0.999008C8.51107 0.741472 8.29811 0.552272 8.03625 0.535248C7.97319 0.531152 7.89692 0.536896 7.85447 0.548928ZM5.60716 3.80874C5.38817 3.83738 5.13905 3.93074 4.96484 4.04947C4.85346 4.12538 4.67889 4.29683 4.59971 4.40806C4.41527 4.66718 4.33151 4.93803 4.33233 5.27261C4.33385 5.88938 4.72795 6.43397 5.31553 6.6312C5.40305 6.66058 7.34946 7.04006 7.41263 7.04006C7.41866 7.04006 7.42361 6.30926 7.42361 5.41606V3.79206L6.56361 3.7941C6.09062 3.79522 5.6602 3.80179 5.60716 3.80874ZM8.57561 10.3214V12.2107L9.36361 12.2037C10.2033 12.1962 10.2395 12.1932 10.4876 12.1083C11.0109 11.9294 11.4232 11.5073 11.5894 10.9804C11.6464 10.7994 11.666 10.664 11.6663 10.4481C11.6667 10.1561 11.6161 9.93443 11.4928 9.68806C11.263 9.22893 10.8661 8.89998 10.3916 8.77539C10.2642 8.74194 8.64207 8.43206 8.59436 8.43206C8.58014 8.43206 8.57561 8.88786 8.57561 10.3214Z" fill="#2A4473"/>
</svg>
