<svg width="16" height="16" viewBox="0 0 16 16" fill="none" xmlns="http://www.w3.org/2000/svg">
<path fill-rule="evenodd" clip-rule="evenodd" d="M2.40045 1.06692C1.78591 1.13012 1.28452 1.57606 1.10847 2.21604L1.06445 2.37604V8.00004V13.624L1.10847 13.784C1.26535 14.3543 1.66572 14.7595 2.21647 14.9053C2.32341 14.9336 2.47626 14.9351 5.61645 14.9403C7.90818 14.944 8.95028 14.9404 9.05567 14.9283C9.57237 14.8691 10.0317 14.5203 10.2452 14.025C10.3773 13.7186 10.3729 13.774 10.3801 12.2985C10.3842 11.4651 10.3806 10.9513 10.3704 10.8854C10.3493 10.7502 10.2992 10.6495 10.2073 10.5575C10.1154 10.4654 10.036 10.4239 9.90759 10.4006C9.64879 10.3537 9.39845 10.487 9.28301 10.7332L9.24045 10.824L9.23245 12.176L9.22445 13.528L9.1894 13.5936C9.15076 13.6658 9.05866 13.7539 8.99764 13.7771C8.93984 13.7991 2.49586 13.7971 2.43749 13.7751C2.37685 13.7522 2.29329 13.6702 2.25105 13.592L2.21645 13.528V8.00004V2.47204L2.25105 2.40804C2.29329 2.32993 2.37685 2.24788 2.43749 2.22502C2.49586 2.20302 8.93984 2.201 8.99764 2.22297C9.05866 2.24617 9.15076 2.33433 9.1894 2.40652L9.22445 2.47204L9.23303 3.84004C9.23935 4.84958 9.24668 5.22302 9.26098 5.26516C9.28831 5.3457 9.37951 5.46895 9.45737 5.53055C9.60505 5.64742 9.82913 5.68175 10.0078 5.6149C10.1177 5.57378 10.2606 5.44642 10.3131 5.34268C10.3835 5.20374 10.3868 5.12378 10.3801 3.71753C10.374 2.43265 10.3727 2.38788 10.3399 2.25604C10.2584 1.92847 10.1216 1.68871 9.8898 1.46729C9.66071 1.24842 9.37588 1.11095 9.07287 1.07302C8.94735 1.0573 2.55082 1.05146 2.40045 1.06692ZM13.0279 4.03386C12.7454 4.08087 12.5431 4.34495 12.5641 4.6391C12.5745 4.78425 12.6122 4.85879 12.7834 5.07204C13.3242 5.74559 13.6334 6.48308 13.7631 7.40804C13.796 7.64302 13.791 8.40454 13.755 8.64804C13.6225 9.54276 13.3136 10.2676 12.7834 10.928C12.6122 11.1413 12.5745 11.2158 12.5641 11.361C12.5426 11.6612 12.7448 11.9192 13.0387 11.9665C13.2117 11.9944 13.3687 11.9498 13.4989 11.8359C13.5798 11.7651 13.765 11.5407 13.9018 11.3478C14.4508 10.5735 14.7887 9.66527 14.9062 8.64804C14.9442 8.31948 14.9442 7.6806 14.9062 7.35204C14.7887 6.33481 14.4508 5.42655 13.9018 4.65225C13.7633 4.457 13.5795 4.23479 13.496 4.16166C13.3705 4.05175 13.2 4.00522 13.0279 4.03386ZM11.349 5.51022C11.0775 5.59926 10.9105 5.84105 10.9332 6.11217C10.9404 6.1982 10.9577 6.25105 11.0176 6.3702C11.2843 6.90097 11.3963 7.38545 11.3964 8.00804C11.3965 8.6089 11.3034 9.03382 11.0617 9.53604C10.9622 9.74287 10.9409 9.80145 10.9333 9.88887C10.9125 10.132 11.0458 10.3543 11.2755 10.4595C11.4461 10.5376 11.6436 10.5206 11.8124 10.4131C11.911 10.3503 11.9625 10.2835 12.0697 10.0794C12.5098 9.24082 12.6553 8.10161 12.4548 7.06476C12.3449 6.49703 12.0873 5.84601 11.8971 5.65585C11.761 5.51978 11.5173 5.45502 11.349 5.51022ZM9.37396 6.7254C9.21396 6.78514 9.10247 6.88182 9.02956 7.02404C8.98882 7.10353 8.9845 7.12753 8.9849 7.27204C8.98533 7.42182 8.98911 7.44028 9.04412 7.56086C9.12247 7.7326 9.14084 7.81753 9.14082 8.00804C9.14082 8.19146 9.12498 8.26148 9.04313 8.44004C8.98801 8.5603 8.98445 8.57774 8.98445 8.72804C8.98445 8.87326 8.98879 8.8966 9.03137 8.98068C9.08613 9.08886 9.17903 9.17988 9.29901 9.24297C9.3753 9.28306 9.40084 9.2879 9.53728 9.28796C9.67988 9.28804 9.6974 9.28434 9.79871 9.23292C9.92653 9.16804 9.99113 9.09788 10.0796 8.92775C10.2323 8.63428 10.2984 8.30478 10.2832 7.91204C10.27 7.56938 10.2114 7.32897 10.0779 7.07007C9.99204 6.90356 9.92626 6.8319 9.80084 6.76823C9.71064 6.72246 9.67434 6.71338 9.56341 6.70887C9.47952 6.70546 9.41143 6.7114 9.37396 6.7254ZM5.16417 11.072C4.99874 11.1012 4.82661 11.2301 4.75516 11.3782C4.68103 11.5318 4.68079 11.7476 4.75456 11.8922C4.79632 11.9741 4.9216 12.0997 5.00263 12.1411C5.12148 12.2017 5.22978 12.2106 5.77645 12.2049C6.34229 12.199 6.36389 12.1959 6.49968 12.1018C6.58127 12.0453 6.67972 11.9166 6.71301 11.823C6.74322 11.7382 6.74706 11.5511 6.72042 11.4622C6.67584 11.3135 6.50863 11.1425 6.35365 11.0873C6.2858 11.0631 5.28713 11.0503 5.16417 11.072Z" fill="#2A4473"/>
</svg>
