<svg width="105" height="33" viewBox="0 0 105 33" fill="none" xmlns="http://www.w3.org/2000/svg">
<g clip-path="url(#clip0_2930_565)">
<path fill-rule="evenodd" clip-rule="evenodd" d="M0.800781 16.7334C0.800781 7.8934 7.96078 0.733398 16.7908 0.733398C25.6208 0.733398 32.7808 7.8934 32.7808 16.7334C32.7808 25.5734 25.6208 32.7334 16.7908 32.7334C7.96078 32.7334 0.800781 25.5734 0.800781 16.7334ZM2.58078 16.7334C2.58078 8.8834 8.94078 2.5134 16.7908 2.5134C24.6408 2.5134 31.0008 8.8834 31.0008 16.7334C31.0008 24.5834 24.6408 30.9534 16.7908 30.9534C8.94078 30.9534 2.58078 24.5934 2.58078 16.7334Z" fill="currentColor"/>
<path fill-rule="evenodd" clip-rule="evenodd" d="M22.0495 21.6134V11.4634H19.7095V15.5334H13.8595V11.4634H11.5195V20.0834C12.2395 20.0634 13.0195 20.0834 13.8595 20.1534V17.8634H19.7095V21.2434C20.5395 21.4134 21.3195 21.5334 22.0495 21.6134Z" fill="currentColor"/>
<path fill-rule="evenodd" clip-rule="evenodd" d="M6.3125 22.5035C8.6225 21.4635 12.4125 20.6135 18.6325 22.2335C22.4425 23.2235 25.2825 23.0935 27.3725 22.5035C27.3725 22.6135 24.3825 28.8735 16.9025 28.8735C9.4225 28.8735 6.3225 22.4835 6.3225 22.5035H6.3125Z" fill="currentColor"/>
<path d="M48.02 21.9232V11.5132H45.75V15.6032H40.75V11.5132H38.5V21.9232H40.75V17.5532H45.75V21.9232H48.02ZM53.65 22.1132C54.84 22.1132 56.05 21.7532 56.81 21.0632L55.92 19.7832C55.43 20.2532 54.52 20.5332 53.87 20.5332C52.57 20.5332 51.79 19.7332 51.66 18.7832H57.36V18.3432C57.36 15.8732 55.8 14.1932 53.52 14.1932C51.24 14.1932 49.55 15.9532 49.55 18.1432C49.55 20.5632 51.31 22.1132 53.64 22.1132H53.65ZM55.41 17.4432H51.63C51.73 16.6932 52.26 15.7732 53.52 15.7732C54.85 15.7732 55.36 16.7232 55.41 17.4432ZM65.44 21.9232V17.0532C65.44 14.8832 63.84 14.1932 62.09 14.1932C60.88 14.1932 59.68 14.5632 58.74 15.3832L59.5 16.7132C60.15 16.1232 60.91 15.8232 61.74 15.8232C62.76 15.8232 63.42 16.3232 63.42 17.0832V18.0932C62.91 17.5032 62.01 17.1732 60.99 17.1732C59.77 17.1732 58.32 17.8432 58.32 19.6132C58.32 21.3832 59.76 22.1132 60.99 22.1132C61.99 22.1132 62.89 21.7532 63.42 21.1432V21.9232H65.44ZM61.81 20.7732C61.02 20.7732 60.37 20.3632 60.37 19.6632C60.37 18.9632 61.02 18.5232 61.81 18.5232C62.46 18.5232 63.1 18.7432 63.43 19.1832V20.1232C63.1 20.5632 62.46 20.7832 61.81 20.7832V20.7732ZM74.74 21.9232V11.5132H72.71V15.3532C72.11 14.5832 71.25 14.1932 70.35 14.1932C68.4 14.1932 66.95 15.6932 66.95 18.1632C66.95 20.6332 68.41 22.1132 70.35 22.1132C71.27 22.1132 72.11 21.7032 72.71 20.9532V21.9232H74.74ZM70.97 20.3532C69.83 20.3532 69.03 19.4632 69.03 18.1632C69.03 16.8632 69.82 15.9632 70.97 15.9632C71.65 15.9632 72.38 16.3232 72.72 16.8232V19.4932C72.39 19.9932 71.66 20.3532 70.97 20.3532ZM85.61 21.9232L87.94 14.3832H85.85L84.42 19.4532L82.74 14.3832H80.95L79.27 19.4532L77.84 14.3832H75.75L78.08 21.9232H80.24L81.86 16.7832L83.48 21.9232H85.62H85.61ZM95.56 21.9232V17.0532C95.56 14.8832 93.96 14.1932 92.21 14.1932C91 14.1932 89.8 14.5632 88.86 15.3832L89.62 16.7132C90.27 16.1232 91.03 15.8232 91.86 15.8232C92.88 15.8232 93.54 16.3232 93.54 17.0832V18.0932C93.03 17.5032 92.13 17.1732 91.11 17.1732C89.89 17.1732 88.44 17.8432 88.44 19.6132C88.44 21.3832 89.88 22.1132 91.11 22.1132C92.11 22.1132 93.01 21.7532 93.54 21.1432V21.9232H95.56ZM91.93 20.7732C91.14 20.7732 90.49 20.3632 90.49 19.6632C90.49 18.9632 91.14 18.5232 91.93 18.5232C92.58 18.5232 93.22 18.7432 93.55 19.1832V20.1232C93.22 20.5632 92.58 20.7832 91.93 20.7832V20.7732ZM97.29 24.8732C97.54 24.9332 98.05 24.9832 98.29 24.9832C99.61 24.9532 100.62 24.5732 101.19 23.1532L104.79 14.3832H102.62L100.62 19.6332L98.62 14.3832H96.46L99.57 22.0332L99.28 22.6732C99.09 23.0832 98.74 23.2232 98.22 23.2232C98.03 23.2232 97.76 23.1732 97.59 23.1032L97.29 24.8832V24.8732Z" fill="currentColor"/>
</g>
<defs>
<clipPath id="clip0_2930_565">
<rect width="104" height="32" fill="white" transform="translate(0.800781 0.733398)"/>
</clipPath>
</defs>
</svg>
