<svg width="15" height="16" viewBox="0 0 15 16" fill="none" xmlns="http://www.w3.org/2000/svg">
<path fill-rule="evenodd" clip-rule="evenodd" d="M7.11731 0.537363C6.43297 0.583027 5.78438 0.686451 5.6006 0.779203C5.49993 0.830019 5.40814 0.925123 5.34638 1.04258C5.3063 1.1188 5.30145 1.14445 5.30139 1.28036C5.30131 1.42037 5.30556 1.44135 5.35398 1.53968C5.41406 1.66173 5.49969 1.7446 5.62708 1.804C5.76164 1.86674 5.87287 1.86816 6.15084 1.81074C6.61471 1.7149 6.96144 1.68013 7.45331 1.68013C7.94518 1.68013 8.2919 1.7149 8.75577 1.81074C9.03374 1.86816 9.14497 1.86674 9.27953 1.804C9.40692 1.7446 9.49256 1.66173 9.55264 1.53968C9.60105 1.44135 9.60531 1.42037 9.60523 1.28036C9.60516 1.14445 9.60032 1.1188 9.56024 1.04258C9.49846 0.925091 9.40667 0.830003 9.30601 0.779235C9.17526 0.713299 8.63971 0.611667 8.18931 0.567331C7.96012 0.544771 7.28791 0.525971 7.11731 0.537363ZM2.45331 1.07258C1.94828 1.12911 1.50673 1.34074 1.15038 1.69709C0.734619 2.11285 0.520235 2.63234 0.520235 3.22402C0.520235 3.77263 0.695627 4.23661 1.06571 4.66701C1.21135 4.83639 1.49249 5.05082 1.71731 5.164C1.86051 5.23612 2.12955 5.32338 2.30131 5.35346C2.50171 5.38855 2.85308 5.38855 3.05268 5.35346C3.94067 5.19738 4.65067 4.48738 4.80675 3.5994C4.84183 3.3998 4.84183 3.04842 4.80675 2.84802C4.70471 2.26536 4.36537 1.75157 3.86131 1.4166C3.53084 1.19698 3.179 1.08532 2.75731 1.06623C2.66051 1.06184 2.52371 1.06471 2.45331 1.07258ZM10.6985 1.36602C10.5827 1.4138 10.4929 1.48504 10.4314 1.57794C10.3279 1.73408 10.3324 1.65538 10.3371 3.2489L10.3413 4.69602L10.384 4.78716C10.4385 4.90343 10.5499 5.0148 10.6662 5.0693L10.7573 5.11202H12.2293H13.7013L13.7924 5.0693C13.9087 5.0148 14.0201 4.90343 14.0746 4.78716L14.1173 4.69602V3.22402V1.75202L14.0746 1.66088C14.0201 1.54461 13.9087 1.43324 13.7924 1.37874L13.7013 1.33602L12.2453 1.33226L10.7893 1.32852L10.6985 1.36602ZM2.45331 2.22655C2.40931 2.23476 2.30753 2.27332 2.22713 2.31223C1.73579 2.54999 1.52175 3.14968 1.75091 3.64656C1.92793 4.03042 2.30774 4.25869 2.73127 4.23578C3.00011 4.22124 3.20644 4.12948 3.39313 3.94144C3.58457 3.74863 3.67452 3.54696 3.68907 3.27799C3.70747 2.93775 3.57715 2.64636 3.30785 2.42562C3.19937 2.33669 3.01499 2.24914 2.88636 2.22549C2.7746 2.20493 2.56631 2.20543 2.45331 2.22655ZM11.4767 2.48386C11.4724 2.49495 11.4708 2.83522 11.4731 3.24002L11.4773 3.97602H12.2293H12.9813V3.22402V2.47202L12.2329 2.46786C11.6427 2.46458 11.4828 2.46797 11.4767 2.48386ZM7.11179 4.00957C6.46292 4.1268 5.89321 4.60829 5.66948 5.22853C5.40494 5.96189 5.62211 6.79855 6.2091 7.3074C6.56875 7.61916 6.96977 7.76743 7.45331 7.76743C7.70432 7.76743 7.86094 7.74268 8.07731 7.66882C8.66708 7.46749 9.13574 6.95608 9.29137 6.34402C9.35676 6.08685 9.36438 5.7296 9.3098 5.48002C9.14531 4.72799 8.5347 4.13984 7.78217 4.00861C7.60838 3.97831 7.28223 3.97877 7.11179 4.00957ZM7.26001 5.14935C6.79078 5.27184 6.55889 5.81383 6.79227 6.24263C6.85364 6.35538 7.01563 6.50344 7.14431 6.56439C7.24903 6.61399 7.26115 6.61602 7.45331 6.61602C7.64547 6.61602 7.65758 6.61399 7.7623 6.56439C7.89099 6.50344 8.05297 6.35538 8.11435 6.24263C8.26704 5.9621 8.22392 5.60575 8.00846 5.3673C7.87438 5.21892 7.65486 5.12186 7.45331 5.12186C7.40491 5.12186 7.31791 5.13423 7.26001 5.14935ZM0.563643 5.86194C0.427355 5.9062 0.288667 6.02888 0.224043 6.16236C0.162715 6.28908 0.0523629 6.90188 0.0112749 7.34402C0.000234934 7.46282 -0.00878906 7.75802 -0.00878906 8.00002C-0.00878906 8.59194 0.0285549 8.97026 0.142875 9.53602C0.197547 9.80661 0.243467 9.90983 0.353035 10.0083C0.481291 10.1237 0.556427 10.152 0.733547 10.152C0.873355 10.152 0.894539 10.1477 0.992875 10.0993C1.11503 10.0393 1.19785 9.95372 1.25729 9.82624C1.31924 9.69335 1.32063 9.58362 1.26383 9.30402C1.16729 8.82864 1.13342 8.48994 1.13342 8.00002C1.13342 7.5101 1.16729 7.1714 1.26383 6.69602C1.32063 6.41642 1.31924 6.30669 1.25729 6.1738C1.1979 6.04644 1.11502 5.96077 0.993019 5.90069C0.902683 5.85621 0.866123 5.84744 0.757691 5.84432C0.683787 5.8422 0.601451 5.84967 0.563643 5.86194ZM13.9588 5.87869C13.7904 5.94959 13.6704 6.07975 13.6215 6.24442C13.5871 6.36018 13.591 6.43863 13.6444 6.70287C13.7395 7.17327 13.7732 7.5132 13.7732 8.00002C13.7732 8.48994 13.7393 8.82864 13.6428 9.30402C13.586 9.58362 13.5874 9.69335 13.6493 9.82624C13.7088 9.95372 13.7916 10.0393 13.9137 10.0993C14.0121 10.1477 14.0333 10.152 14.1731 10.152C14.3502 10.152 14.4253 10.1237 14.5536 10.0083C14.6588 9.91373 14.7093 9.8048 14.7577 9.56802C14.8746 8.99592 14.9154 8.58978 14.9154 8.00002C14.9154 7.41026 14.8746 7.00412 14.7577 6.43202C14.7093 6.19524 14.6588 6.08631 14.5536 5.9917C14.4351 5.88516 14.3494 5.85044 14.1895 5.8442C14.0729 5.83965 14.0397 5.84463 13.9588 5.87869ZM7.05377 8.24965C6.1316 8.36119 5.27166 8.89463 4.76103 9.67189C4.63219 9.86802 4.48056 10.1798 4.45827 10.2945C4.41094 10.5379 4.55012 10.7956 4.78931 10.9072C4.87086 10.9453 4.90583 10.952 5.02164 10.952C5.14313 10.952 5.16948 10.9464 5.26361 10.9C5.40007 10.8328 5.48156 10.7429 5.57427 10.5572C5.68977 10.3258 5.81448 10.1498 5.98079 9.98352C6.28836 9.67597 6.67595 9.47325 7.09667 9.39987C7.2731 9.36911 7.63351 9.36911 7.80995 9.39987C8.47151 9.51525 9.0206 9.93266 9.33235 10.5572C9.42505 10.7429 9.50654 10.8328 9.643 10.9C9.73713 10.9464 9.76348 10.952 9.88497 10.952C10.0008 10.952 10.0358 10.9453 10.1173 10.9072C10.2974 10.8231 10.4101 10.6763 10.4465 10.4781C10.4727 10.336 10.4477 10.231 10.3331 10.0022C9.72275 8.78308 8.41625 8.08485 7.05377 8.24965ZM12.0174 10.625C11.1117 10.7093 10.3366 11.3859 10.1253 12.2765C10.0541 12.5765 10.0538 12.9748 10.1245 13.272C10.3245 14.1126 11.0044 14.755 11.8533 14.9056C12.0544 14.9413 12.4042 14.9413 12.6053 14.9056C13.4955 14.7477 14.201 14.0422 14.3589 13.152C14.3946 12.9509 14.3946 12.6011 14.3589 12.4C14.255 11.8142 13.9151 11.2998 13.4133 10.9688C13.241 10.8551 13.1252 10.7986 12.9253 10.7305C12.6468 10.6355 12.3164 10.5972 12.0174 10.625ZM1.14646 10.918C1.03068 10.9658 0.940891 11.037 0.879355 11.1299C0.775931 11.2861 0.780379 11.2074 0.785051 12.8009L0.789307 14.248L0.832027 14.3392C0.886523 14.4554 0.997899 14.5668 1.11417 14.6213L1.20531 14.664H2.67731H4.14931L4.24044 14.6213C4.35672 14.5668 4.46809 14.4554 4.52259 14.3392L4.56531 14.248V12.776V11.304L4.52259 11.2129C4.46809 11.0966 4.35672 10.9852 4.24044 10.9307L4.14931 10.888L2.69331 10.8843L1.23731 10.8805L1.14646 10.918ZM11.9685 11.7924C11.5256 11.9084 11.2133 12.3152 11.2133 12.776C11.2133 13.5212 11.991 14.0155 12.6613 13.6964C13.0246 13.5235 13.2453 13.1757 13.2453 12.776C13.2453 12.4639 13.1164 12.1916 12.8719 11.987C12.6331 11.7872 12.2792 11.711 11.9685 11.7924ZM1.9247 12.0359C1.92044 12.0469 1.91884 12.3872 1.92113 12.792L1.92531 13.528H2.67731H3.42931V12.776V12.024L2.68086 12.0199C2.09067 12.0166 1.93079 12.02 1.9247 12.0359ZM5.68211 14.1738C5.52233 14.229 5.41561 14.3253 5.34275 14.48C5.30721 14.5555 5.30132 14.5897 5.30139 14.72C5.30145 14.8556 5.30633 14.8813 5.34638 14.9575C5.40814 15.0749 5.49993 15.17 5.6006 15.2208C5.73683 15.2896 6.32328 15.398 6.79731 15.4421C7.07539 15.4679 7.83094 15.4679 8.10931 15.4421C8.5746 15.3989 9.17182 15.2885 9.30601 15.2208C9.40667 15.17 9.49846 15.0749 9.56024 14.9575C9.60032 14.8812 9.60516 14.8556 9.60523 14.7197C9.60531 14.5797 9.60105 14.5587 9.55264 14.4604C9.49256 14.3383 9.40692 14.2554 9.27953 14.196C9.14497 14.1333 9.03374 14.1319 8.75577 14.1893C8.2919 14.2851 7.94518 14.3199 7.45331 14.3199C6.96448 14.3199 6.61214 14.2849 6.16111 14.1913C5.89927 14.137 5.79912 14.1334 5.68211 14.1738Z" fill="currentColor"/>
</svg>
