<svg width="16" height="16" viewBox="0 0 16 16" fill="none" xmlns="http://www.w3.org/2000/svg">
<path fill-rule="evenodd" clip-rule="evenodd" d="M7.50318 0.602273C6.22036 0.687793 4.97115 1.10648 3.90318 1.80888C3.05119 2.36923 2.31206 3.10837 1.75171 3.96035C1.29732 4.65122 0.938522 5.47344 0.744682 6.268C0.327786 7.97686 0.520154 9.7752 1.28647 11.3331C1.36134 11.4853 1.46683 11.6855 1.52087 11.778L1.61915 11.9461L1.07841 13.3812L0.537658 14.8164L0.536426 14.9524C0.535354 15.0694 0.541482 15.102 0.580362 15.1861C0.634602 15.3035 0.742762 15.4139 0.863178 15.4748C1.02302 15.5556 1.01585 15.5566 3.05516 15.1856C4.5231 14.9186 4.89511 14.8557 4.92716 14.869C5.73161 15.2042 6.23052 15.3495 6.91118 15.4468C8.41356 15.6614 9.89891 15.4345 11.2392 14.7855C12.0287 14.4032 12.6634 13.9524 13.2793 13.3365C14.3611 12.2546 15.0837 10.878 15.3495 9.39235C15.6302 7.82293 15.4144 6.23328 14.7283 4.81635C14.346 4.02685 13.8952 3.39216 13.2793 2.77624C12.4193 1.91622 11.4143 1.30517 10.2435 0.930432C9.39148 0.657696 8.41892 0.541249 7.50318 0.602273ZM7.51118 1.74634C5.58809 1.89781 3.82031 2.93091 2.74727 4.53043C2.19423 5.3548 1.85513 6.26235 1.71679 7.28835C1.67567 7.59336 1.67511 8.51198 1.71587 8.81635C1.84055 9.74763 2.12369 10.5661 2.58003 11.3143C2.82596 11.7175 2.85679 11.8046 2.81681 11.9833C2.80662 12.0289 2.61831 12.5441 2.39838 13.1282C2.17844 13.7124 2.00044 14.1949 2.00284 14.2005C2.00523 14.2061 2.65158 14.0932 3.43918 13.9495C5.1443 13.6384 5.03358 13.6476 5.33518 13.792C5.89353 14.0594 6.5022 14.2367 7.189 14.332C7.41545 14.3635 7.515 14.3679 7.99918 14.3679C8.6015 14.3679 8.75209 14.3549 9.22318 14.2626C9.78515 14.1524 10.2541 13.9927 10.7912 13.7286C11.4419 13.4086 11.9572 13.0397 12.4699 12.527C12.9826 12.0144 13.3514 11.4991 13.6714 10.8484C13.9355 10.3113 14.0953 9.84232 14.2054 9.28035C14.2979 8.80832 14.3108 8.65861 14.3108 8.05635C14.3108 7.4541 14.2979 7.30438 14.2054 6.83235C14.0953 6.27038 13.9355 5.80144 13.6714 5.26435C13.3514 4.61365 12.9826 4.09834 12.4699 3.58566C11.9572 3.07298 11.4419 2.70414 10.7912 2.38413C10.1424 2.06506 9.55812 1.8863 8.82318 1.78205C8.64743 1.75712 8.49062 1.74917 8.09518 1.74515C7.81798 1.74235 7.55518 1.74288 7.51118 1.74634ZM7.81139 4.32058C7.52961 4.38179 7.26391 4.63566 7.19179 4.91259C7.14065 5.10894 7.16863 5.36538 7.25971 5.53485C7.32321 5.65304 7.49273 5.81878 7.61102 5.87837C7.9506 6.04939 8.32964 5.9889 8.59118 5.72192C8.76252 5.54701 8.83118 5.3795 8.83118 5.13635C8.83118 4.89387 8.75617 4.71422 8.58398 4.54435C8.3743 4.33747 8.09969 4.25794 7.81139 4.32058ZM7.85404 6.97322C7.63737 7.03466 7.48108 7.20498 7.44063 7.42379C7.41623 7.55578 7.41623 11.2129 7.44063 11.3449C7.46367 11.4695 7.50567 11.5484 7.59841 11.6411C7.73603 11.7787 7.90998 11.8339 8.09831 11.7998C8.22731 11.7764 8.30612 11.7349 8.39995 11.6411C8.49268 11.5484 8.53468 11.4695 8.55772 11.3449C8.58206 11.2133 8.58212 7.55614 8.55779 7.4233C8.51063 7.16576 8.29767 6.97656 8.03582 6.95954C7.97276 6.95544 7.89649 6.96118 7.85404 6.97322Z" fill="currentColor"/>
</svg>
