<svg width="16" height="14" viewBox="0 0 16 14" fill="none" xmlns="http://www.w3.org/2000/svg">
<path fill-rule="evenodd" clip-rule="evenodd" d="M2.44861 0.601899C2.07488 0.637915 1.75034 0.792155 1.47632 1.06403C1.26218 1.27647 1.14255 1.4704 1.05679 1.74403C0.983122 1.97907 0.978578 2.07731 0.984066 3.32003L0.98917 4.48003L1.03397 4.57603C1.09248 4.70145 1.20111 4.81043 1.32341 4.86643C1.45226 4.92542 1.64979 4.92934 1.77045 4.87531C1.92096 4.8079 2.03629 4.68687 2.09739 4.5322C2.12151 4.47118 2.12522 4.33895 2.13275 3.27203L2.14117 2.08003L2.18103 2.00199C2.23218 1.90182 2.3372 1.8098 2.44741 1.76856C2.53179 1.73699 2.56743 1.73603 3.65298 1.73603C4.41954 1.73603 4.79827 1.73036 4.85639 1.71806C4.97383 1.69316 5.05293 1.6498 5.14007 1.56257C5.36424 1.33817 5.36187 0.981675 5.13472 0.757739C5.04259 0.666907 4.94338 0.617387 4.81691 0.599099C4.69219 0.581051 2.6397 0.583483 2.44861 0.601899ZM12.0748 0.600075C11.8986 0.625867 11.7316 0.755947 11.6493 0.931499C11.6101 1.01497 11.6027 1.05102 11.6029 1.1555C11.6031 1.22577 11.6138 1.30972 11.6275 1.3482C11.6806 1.49672 11.798 1.62136 11.9519 1.69236C12.0291 1.728 12.0303 1.72803 13.2212 1.73603C14.3965 1.74392 14.4142 1.74451 14.4871 1.77822C14.5878 1.82476 14.6783 1.90996 14.7257 2.00275L14.7652 2.08003L14.7736 3.27203C14.7811 4.33895 14.7848 4.47118 14.8089 4.5322C14.87 4.68687 14.9854 4.8079 15.1359 4.87531C15.2565 4.92934 15.4541 4.92542 15.5829 4.86643C15.7052 4.81043 15.8139 4.70145 15.8724 4.57603L15.9172 4.48003L15.9223 3.32003C15.9259 2.49446 15.922 2.11851 15.9085 2.01603C15.8323 1.43416 15.4452 0.932331 14.9018 0.711227C14.7389 0.644923 14.6316 0.619835 14.4292 0.600699C14.2284 0.581723 12.2039 0.581179 12.0748 0.600075ZM8.22117 3.78478C6.83691 3.88137 5.66309 4.86675 5.32493 6.21603C5.20146 6.70872 5.20146 7.29134 5.32493 7.78403C5.61317 8.93411 6.51909 9.84003 7.66917 10.1283C8.16186 10.2517 8.74448 10.2517 9.23717 10.1283C10.3865 9.84022 11.2934 8.93337 11.5814 7.78403C11.7049 7.29134 11.7049 6.70872 11.5814 6.21603C11.2636 4.94777 10.1924 3.98326 8.90917 3.80979C8.67696 3.77839 8.43739 3.76969 8.22117 3.78478ZM8.14117 4.94406C7.67322 5.01854 7.28682 5.22036 6.95575 5.56321C6.64507 5.88495 6.46523 6.25137 6.39583 6.70403C6.31378 7.23907 6.45432 7.78867 6.79087 8.24889C6.9429 8.45681 7.26112 8.72903 7.48874 8.84591C7.9444 9.0799 8.49568 9.14017 8.98917 9.00996C9.34229 8.91678 9.64349 8.74025 9.91845 8.46531C10.2552 8.12852 10.4383 7.76697 10.5105 7.29603C10.5733 6.88638 10.4944 6.41604 10.2991 6.0356C10.1822 5.80798 9.90995 5.48976 9.70203 5.33772C9.31831 5.05713 8.89466 4.91793 8.43717 4.92216C8.34477 4.923 8.21157 4.93286 8.14117 4.94406ZM1.42511 9.09643C1.2568 9.13881 1.10954 9.26215 1.03399 9.42403L0.98917 9.52003L0.984066 10.68C0.980418 11.5056 0.984386 11.8815 0.99781 11.984C1.03007 12.2303 1.12131 12.4737 1.26323 12.692C1.35586 12.8344 1.60915 13.0759 1.75907 13.1648C2.00426 13.3103 2.19565 13.3727 2.47717 13.3994C2.69383 13.4199 4.67698 13.4212 4.81691 13.401C5.12968 13.3557 5.34296 13.0695 5.29997 12.7528C5.27515 12.5699 5.14474 12.3974 4.96895 12.315L4.87717 12.272L3.68517 12.264C2.50987 12.2561 2.49213 12.2555 2.41922 12.2218C2.31856 12.1753 2.22805 12.0901 2.18064 11.9973L2.14117 11.92L2.13275 10.728C2.12522 9.6611 2.12151 9.52887 2.09739 9.46785C2.03719 9.31545 1.92023 9.19142 1.7769 9.12803C1.69387 9.09131 1.51075 9.07486 1.42511 9.09643ZM15.2264 9.09577C15.0464 9.13398 14.8835 9.27915 14.8089 9.46785C14.7848 9.52887 14.7811 9.6611 14.7736 10.728L14.7652 11.92L14.7257 11.9973C14.6783 12.0901 14.5878 12.1753 14.4871 12.2218C14.4142 12.2555 14.3965 12.2561 13.2212 12.264L12.0292 12.272L11.9374 12.315C11.5706 12.4869 11.4859 12.9607 11.7716 13.2423C11.8637 13.3331 11.963 13.3827 12.0894 13.401C12.2294 13.4212 14.2125 13.4199 14.4292 13.3994C14.6316 13.3802 14.7389 13.3551 14.9018 13.2888C15.4452 13.0677 15.8323 12.5659 15.9085 11.984C15.922 11.8815 15.9259 11.5056 15.9223 10.68L15.9172 9.52003L15.872 9.42227C15.7601 9.18015 15.4848 9.04092 15.2264 9.09577Z" fill="currentColor"/>
</svg>
