<svg width="16" height="16" viewBox="0 0 16 16" fill="none" xmlns="http://www.w3.org/2000/svg">
<path fill-rule="evenodd" clip-rule="evenodd" d="M7.48768 0.546381C5.34009 0.695005 3.34011 1.77644 2.04777 3.48784C1.67211 3.98531 1.59142 4.15433 1.62989 4.36312C1.65597 4.5046 1.70984 4.60497 1.80632 4.69169C1.93637 4.80864 2.01453 4.83928 2.18368 4.83964C2.30837 4.83992 2.3408 4.8339 2.42555 4.79473C2.54795 4.73817 2.61725 4.66644 2.78379 4.42396C3.72405 3.05502 5.14765 2.11809 6.78144 1.79294C7.21413 1.70683 7.4171 1.68921 7.98368 1.68857C8.54513 1.68793 8.65638 1.69612 9.08749 1.76984C11.7122 2.21862 13.7992 4.31848 14.238 6.95196C14.3036 7.34569 14.3117 7.46681 14.3108 8.03996C14.31 8.52236 14.305 8.63736 14.2745 8.8698C14.1481 9.83344 13.8454 10.738 13.3744 11.56C13.2435 11.7885 13.0681 12.0509 13.0557 12.0368C13.0495 12.0298 12.9866 11.7924 12.9159 11.5095C12.8452 11.2265 12.7707 10.9615 12.7503 10.9206C12.6732 10.7663 12.4824 10.6359 12.303 10.6148C12.1059 10.5916 11.884 10.6983 11.7734 10.8694C11.63 11.0914 11.6274 11.0701 11.9605 12.4037C12.1508 13.1657 12.2536 13.5489 12.2794 13.5929C12.3327 13.6839 12.4504 13.7876 12.5542 13.8352C12.7225 13.9123 12.7424 13.909 13.9677 13.6021C15.2148 13.2897 15.224 13.2865 15.3462 13.1248C15.4652 12.9671 15.4955 12.819 15.447 12.6313C15.383 12.3838 15.158 12.2074 14.9075 12.2084C14.8435 12.2086 14.7074 12.2341 14.5281 12.2794C14.3743 12.3183 14.2469 12.3485 14.245 12.3466C14.243 12.3447 14.2816 12.2749 14.3308 12.1915C15.242 10.646 15.6331 8.77387 15.407 7.03996C15.1268 4.89113 13.9448 2.99091 12.1357 1.78073C10.782 0.875229 9.11864 0.433501 7.48768 0.546381ZM1.06048 6.10976C0.896414 6.16644 0.75987 6.29304 0.70571 6.4387C0.671022 6.53201 0.602446 6.93198 0.56699 7.24796C0.52691 7.60507 0.519246 8.22859 0.55059 8.58396C0.597086 9.11145 0.677294 9.55056 0.817982 10.048C0.854078 10.1756 0.897534 10.3097 0.914542 10.3461C1.01419 10.5593 1.27053 10.6947 1.50325 10.6573C1.69809 10.6259 1.85792 10.5063 1.94393 10.3276C2.01491 10.1802 2.01008 10.042 1.92355 9.74397C1.7463 9.13344 1.67664 8.63552 1.67733 7.98396C1.67773 7.59728 1.69987 7.33862 1.76843 6.91996C1.81534 6.63344 1.81264 6.5507 1.75206 6.41995C1.63024 6.15699 1.32281 6.01912 1.06048 6.10976ZM2.28776 11.5937C2.13681 11.6485 2.01792 11.7607 1.94782 11.9147C1.9199 11.976 1.91264 12.0217 1.91264 12.136C1.91265 12.3118 1.94371 12.3833 2.11433 12.6C2.59011 13.2042 3.13827 13.7217 3.74075 14.1354C3.94833 14.2779 4.03573 14.3097 4.19745 14.3015C4.65163 14.2786 4.89571 13.7495 4.61833 13.3891C4.59048 13.3529 4.47768 13.2587 4.36768 13.1797C3.83072 12.7942 3.43509 12.4201 3.03536 11.92C2.80819 11.6357 2.72413 11.5817 2.49568 11.5729C2.39889 11.5691 2.33894 11.5752 2.28776 11.5937ZM6.07168 14.1447C5.96149 14.1874 5.84277 14.2818 5.78928 14.3691C5.59435 14.6874 5.73619 15.0946 6.08427 15.2159C6.3012 15.2915 6.92405 15.4039 7.33568 15.4419C7.45008 15.4524 7.67688 15.4617 7.83968 15.4625C8.12825 15.4639 8.13795 15.4629 8.22648 15.4214C8.59728 15.2476 8.6851 14.7822 8.40061 14.4987C8.26187 14.3604 8.13069 14.3209 7.80768 14.3203C7.48632 14.3196 7.00216 14.2572 6.57179 14.1611C6.31777 14.1043 6.18672 14.1 6.07168 14.1447Z" fill="currentColor"/>
</svg>
