<svg width="23" height="23" viewBox="0 0 23 23" fill="none" xmlns="http://www.w3.org/2000/svg">
<path fill-rule="evenodd" clip-rule="evenodd" d="M2.73158 0.590332C1.31142 0.590332 0.160156 1.74159 0.160156 3.16176V20.3046C0.160156 21.7247 1.31142 22.876 2.73158 22.876H19.8744C21.2946 22.876 22.4459 21.7247 22.4459 20.3046V3.16176C22.4459 1.74159 21.2946 0.590332 19.8744 0.590332H2.73158ZM9.91777 4.54701C10.3362 4.96543 10.3362 5.64381 9.91777 6.06223L6.38966 9.59033L9.91777 13.1184C10.3362 13.5369 10.3362 14.2152 9.91777 14.6337C9.49935 15.0521 8.82097 15.0521 8.40254 14.6337L4.11683 10.3479C3.69841 9.92952 3.69841 9.25114 4.11683 8.83272L8.40254 4.54701C8.82097 4.12858 9.49935 4.12858 9.91777 4.54701ZM12.6883 17.4042C12.2698 17.8225 12.2698 18.501 12.6883 18.9193C13.1067 19.3378 13.7851 19.3378 14.2035 18.9193L18.4891 14.6337C18.9076 14.2152 18.9076 13.5369 18.4891 13.1184L14.2035 8.83272C13.7851 8.4143 13.1067 8.4143 12.6883 8.83272C12.2698 9.25114 12.2698 9.92952 12.6883 10.3479L16.2164 13.876L12.6883 17.4042Z" fill="#7AAAFF"/>
</svg>
