<svg width="14" height="14" viewBox="0 0 14 14" fill="none" xmlns="http://www.w3.org/2000/svg">
<path fill-rule="evenodd" clip-rule="evenodd" d="M2.53647 0.122781C2.10973 0.152701 1.77176 0.243213 1.43247 0.418461C0.665138 0.814781 0.174851 1.60716 0.0724666 2.61644C0.0596506 2.74278 0.0561786 4.0402 0.0601466 7.21641C0.0653146 11.3383 0.0676025 11.6513 0.0936025 11.7998C0.153571 12.1423 0.221651 12.3509 0.362691 12.6244C0.731923 13.3406 1.42751 13.8043 2.37115 13.9632C2.53607 13.991 2.76285 13.9924 7.04847 13.9924C11.2799 13.9924 11.563 13.9907 11.727 13.9641C12.0723 13.9081 12.2873 13.8391 12.5685 13.6942C13.2848 13.3249 13.7354 12.6498 13.9079 11.6877C13.9349 11.5373 13.9365 11.2771 13.9365 7.01641C13.9365 2.77737 13.9348 2.49385 13.9082 2.3299C13.8522 1.98457 13.7832 1.76953 13.6382 1.48841C13.2763 0.78638 12.6192 0.338605 11.684 0.156765L11.5045 0.121853L7.05647 0.119789C4.61007 0.118653 2.57607 0.119997 2.53647 0.122781ZM2.43247 1.28201C2.31023 1.29947 2.08791 1.36811 1.98447 1.42033C1.66 1.58414 1.43859 1.8607 1.30632 2.26739C1.19979 2.59494 1.20659 2.24174 1.21178 7.17641L1.21647 11.6404L1.25178 11.7643C1.32663 12.0268 1.41331 12.1938 1.55819 12.3543C1.76122 12.5792 2.08288 12.7417 2.4764 12.8179C2.62863 12.8475 2.77274 12.8484 7.03703 12.8483C10.8279 12.8483 11.4605 12.845 11.5845 12.8248C12.2296 12.7198 12.6214 12.3058 12.762 11.5805C12.7915 11.4283 12.7925 11.2841 12.7924 7.01985C12.7924 3.22896 12.7891 2.59638 12.7689 2.47241C12.6639 1.82737 12.2497 1.43547 11.5245 1.29489C11.3721 1.26534 11.2321 1.26448 6.94791 1.26636C4.51722 1.26744 2.48527 1.27448 2.43247 1.28201ZM6.57647 2.79944C6.14258 2.87644 5.79807 3.02465 5.45125 3.28348C4.80653 3.76464 4.40314 4.56982 4.42674 5.32841C4.43341 5.54276 4.46223 5.61836 4.58578 5.74555C4.75411 5.91884 4.99837 5.96344 5.22447 5.86216C5.43203 5.76918 5.55978 5.56542 5.56027 5.32651C5.56056 5.19113 5.60333 4.97268 5.65648 4.83508C5.84248 4.35352 6.25373 4.01862 6.76949 3.92868C6.94507 3.89806 7.05586 3.89806 7.23144 3.92868C7.84859 4.0363 8.31147 4.49611 8.41813 5.10748C8.5236 5.71206 8.21331 6.33374 7.66327 6.6199C7.48283 6.71377 7.29448 6.76446 7.05343 6.78404C6.89867 6.7966 6.83149 6.8095 6.76706 6.839C6.59648 6.91708 6.47541 7.07211 6.44186 7.25536C6.41867 7.3819 6.41874 8.41153 6.44192 8.53697C6.47632 8.72307 6.59495 8.87627 6.76472 8.95385C6.84943 8.99256 6.88496 8.99944 7.00047 8.99944C7.11597 8.99944 7.15151 8.99256 7.23621 8.95385C7.35707 8.89862 7.46563 8.78817 7.52515 8.6599C7.56629 8.57124 7.56779 8.55744 7.57373 8.21457L7.57987 7.86075L7.66275 7.84219C7.70834 7.832 7.81016 7.79964 7.88904 7.7703C8.24843 7.63664 8.5537 7.44059 8.82517 7.16912C9.31586 6.67843 9.5773 6.04649 9.57738 5.35091C9.57746 4.64868 9.32223 4.02305 8.83511 3.53155C8.44173 3.1346 7.94869 2.88358 7.38447 2.79296C7.17629 2.75952 6.78359 2.76267 6.57647 2.79944ZM6.77815 9.76974C6.64325 9.80601 6.5381 9.87035 6.41472 9.99214C6.23987 10.1647 6.16832 10.3343 6.16866 10.5753C6.16875 10.6507 6.17869 10.7494 6.19071 10.7945C6.25539 11.0374 6.45946 11.267 6.69231 11.3588C6.93725 11.4553 7.25056 11.4219 7.46229 11.2765C7.70088 11.1127 7.83247 10.8639 7.83247 10.5764C7.83247 10.334 7.76119 10.1648 7.58621 9.99214C7.46018 9.86774 7.35741 9.80581 7.21591 9.76894C7.09922 9.73854 6.89272 9.73892 6.77815 9.76974Z" fill="currentColor"/>
</svg>
