<svg width="14" height="14" viewBox="0 0 14 14" fill="none" xmlns="http://www.w3.org/2000/svg">
<path fill-rule="evenodd" clip-rule="evenodd" d="M1.47184 0.0665973C1.24249 0.0951093 1.09628 0.136421 0.927835 0.220309C0.489403 0.438645 0.175003 0.852069 0.0848754 1.32877C0.0537394 1.49343 0.0537394 12.5066 0.0848754 12.6713C0.210203 13.3342 0.75486 13.8447 1.42384 13.9264C1.62747 13.9512 12.3722 13.9512 12.5758 13.9264C13.2823 13.8401 13.8399 13.2825 13.9262 12.576C13.951 12.3724 13.951 1.62767 13.9262 1.42404C13.8465 0.771509 13.3782 0.255221 12.7177 0.0920053C12.6155 0.0667413 12.2206 0.0646933 7.06384 0.0627413C4.01464 0.0615733 1.49824 0.0633173 1.47184 0.0665973ZM1.43984 1.24617C1.34369 1.29162 1.28489 1.35135 1.24113 1.44804C1.21024 1.51629 1.20852 1.55108 1.20819 2.11604L1.20784 2.71204H6.99984H12.7918L12.7917 2.11604C12.7915 1.52285 12.7913 1.51965 12.7537 1.44004C12.7083 1.34389 12.6485 1.28509 12.5518 1.24133C12.4799 1.20874 12.4786 1.20874 6.99984 1.20855L1.51984 1.20836L1.43984 1.24617ZM1.20819 8.17204C1.20854 12.4715 1.2086 12.4802 1.24113 12.552C1.28489 12.6487 1.34369 12.7085 1.43984 12.7539L1.51984 12.7917H6.99984H12.4798L12.5598 12.7539C12.656 12.7085 12.7148 12.6487 12.7585 12.552C12.7911 12.4802 12.7911 12.4715 12.7915 8.17204L12.7918 3.86404H6.99984H1.20784L1.20819 8.17204ZM6.87984 4.69769C6.82704 4.70521 6.75144 4.7233 6.71184 4.73791C6.60472 4.77745 6.43342 4.89581 6.36011 4.98097C6.31617 5.03201 6.17297 5.303 5.91276 5.82746C5.5948 6.46833 5.52376 6.60028 5.49294 6.60713C5.47252 6.61167 5.10664 6.66597 4.67984 6.72781C4.25304 6.78964 3.85704 6.85437 3.79984 6.87167C3.5368 6.95117 3.33062 7.16888 3.24747 7.45492C3.21091 7.58069 3.22105 7.81877 3.26856 7.9496C3.33828 8.1417 3.31121 8.11324 4.56577 9.31287L4.61969 9.36444L4.48177 10.1865C4.33544 11.0587 4.32244 11.1934 4.36936 11.3531C4.45244 11.636 4.68241 11.8645 4.95772 11.9378C5.06739 11.967 5.27499 11.9658 5.39209 11.9353C5.45176 11.9197 5.76739 11.7621 6.24136 11.5112L6.99566 11.1119L7.63376 11.4505C7.9847 11.6367 8.34689 11.8251 8.43863 11.8691C8.59588 11.9446 8.61432 11.9496 8.76075 11.9567C8.85516 11.9612 8.94974 11.9563 9.00195 11.9443C9.33158 11.868 9.59699 11.5807 9.64487 11.2484C9.66164 11.132 9.65617 11.08 9.53883 10.2428C9.47078 9.75729 9.41526 9.35233 9.41547 9.3429C9.41568 9.33346 9.67814 9.07628 9.99873 8.77137C10.3193 8.46647 10.6045 8.18373 10.6325 8.14309C10.7231 8.01141 10.7623 7.88951 10.7715 7.7109C10.7805 7.5357 10.7594 7.42935 10.6877 7.28778C10.5881 7.09114 10.3803 6.91805 10.181 6.86559C10.0998 6.84423 8.54255 6.60004 8.48748 6.60004C8.47923 6.60004 8.29593 6.2478 8.08014 5.8173C7.70755 5.07397 7.68289 5.02965 7.59022 4.93698C7.52115 4.86791 7.45456 4.82114 7.36224 4.77684C7.24552 4.72084 7.19803 4.70856 7.02384 4.68933C6.99744 4.68642 6.93264 4.69018 6.87984 4.69769ZM6.70942 6.79607C6.5102 7.19386 6.40652 7.38327 6.35755 7.43888C6.27731 7.53 6.13648 7.62567 6.01817 7.66946C5.97172 7.68665 5.68473 7.73617 5.35984 7.78308C5.04304 7.82881 4.77187 7.87112 4.75724 7.87712C4.73676 7.88552 4.83022 7.98364 5.16393 8.30404C5.40225 8.53284 5.62072 8.75431 5.64945 8.79621C5.73355 8.9189 5.77184 9.03789 5.77937 9.20004C5.7851 9.32338 5.7712 9.43127 5.68241 9.95204C5.6254 10.2864 5.58129 10.5625 5.58129 10.5625C5.58129 10.5625 5.81424 10.4423 6.09584 10.2924C6.37744 10.1425 6.65824 10.0018 6.71984 9.97976C6.8623 9.92884 7.08451 9.92317 7.23396 9.96666C7.28793 9.98236 7.57593 10.1239 7.87396 10.2812C8.172 10.4385 8.41804 10.5608 8.42073 10.5529C8.4283 10.5309 8.2819 9.51668 8.25534 9.40701C8.20759 9.20996 8.23414 9.00226 8.33004 8.82231C8.36948 8.74833 8.46635 8.64724 8.81783 8.31332C9.05905 8.08415 9.25808 7.89154 9.26012 7.8853C9.26217 7.87905 8.99024 7.83229 8.65584 7.78138C8.01793 7.68426 7.93814 7.66444 7.79072 7.56658C7.63401 7.46258 7.59044 7.39551 7.29025 6.79607C7.13492 6.48589 7.00424 6.2321 6.99984 6.2321C6.99544 6.2321 6.86475 6.48589 6.70942 6.79607Z" fill="currentColor"/>
</svg>