<svg width="15" height="15" viewBox="0 0 15 15" fill="none" xmlns="http://www.w3.org/2000/svg">
<path fill-rule="evenodd" clip-rule="evenodd" d="M0.768944 0.748469C0.547408 0.796197 0.380993 0.970197 0.338849 1.19817C0.314177 1.33164 0.314113 14.0091 0.338785 14.1438C0.381889 14.3792 0.556448 14.5536 0.792832 14.5973C0.926304 14.6219 13.6037 14.622 13.7384 14.5973C14.0474 14.5408 14.2489 14.249 14.1928 13.9396C14.1694 13.8106 14.128 13.7318 14.0342 13.638C13.9414 13.5452 13.8625 13.5032 13.738 13.4802C13.6708 13.4678 11.8853 13.4627 7.55859 13.4627H1.47368L1.46954 7.32273L1.46539 1.18273L1.42797 1.08997C1.3851 0.983765 1.25926 0.844741 1.16027 0.794245C1.10034 0.763669 0.938336 0.725077 0.882448 0.728069C0.868672 0.728805 0.8176 0.737989 0.768944 0.748469ZM11.4325 2.32821C11.2462 2.35183 11.2742 2.32717 10.0758 3.52329C9.46106 4.13677 8.9348 4.67473 8.9063 4.71872C8.64346 5.12452 8.99883 5.65778 9.47821 5.5769C9.53805 5.56681 9.61725 5.54332 9.65421 5.52469C9.69693 5.50317 9.94418 5.26901 10.3334 4.88145L10.9454 4.27204L10.9452 4.34338C10.9447 4.57882 10.9084 5.15471 10.8809 5.36389C10.7593 6.28745 10.4791 7.11488 10.013 7.92672C9.57693 8.68616 8.91997 9.42596 8.20139 9.96674C7.27053 10.6673 6.17922 11.1179 5.02539 11.2782C4.68467 11.3255 4.44472 11.3377 3.64939 11.3482C2.86597 11.3586 2.85658 11.3591 2.7828 11.3955C2.66318 11.4544 2.56816 11.549 2.50998 11.6672C2.4623 11.7641 2.45739 11.7876 2.45739 11.9184C2.45739 12.0401 2.46386 12.0765 2.49869 12.1508C2.55147 12.2633 2.67285 12.3846 2.78536 12.4374L2.87339 12.4787L3.59339 12.484C4.49466 12.4906 4.88766 12.467 5.43339 12.3734C6.18238 12.2449 6.8743 12.0219 7.56666 11.686C8.86854 11.0543 9.93704 10.1215 10.7462 8.91045C11.6035 7.62724 12.0792 6.07079 12.0811 4.543L12.0814 4.27129L12.6934 4.88223C13.3985 5.58617 13.3919 5.58121 13.6334 5.58121C13.7946 5.58121 13.9069 5.5382 14.0213 5.43277C14.2034 5.26493 14.2547 4.9765 14.1425 4.75159C14.1215 4.70962 13.7117 4.28767 12.9815 3.5562C12.0857 2.65887 11.8355 2.41685 11.7685 2.383C11.6711 2.33369 11.5479 2.31361 11.4325 2.32821Z" fill="currentColor"/>
</svg>
