<svg width="16" height="16" viewBox="0 0 16 16" fill="none" xmlns="http://www.w3.org/2000/svg">
<path fill-rule="evenodd" clip-rule="evenodd" d="M6.99232 0.601709C5.67056 0.693133 4.39508 1.16404 3.33632 1.95153C2.57459 2.51808 1.88888 3.29025 1.44579 4.08041C1.28518 4.36681 1.2475 4.43968 1.15934 4.63443C0.446684 6.20875 0.336076 7.92539 0.840396 9.58416C1.01577 10.161 1.34841 10.8584 1.69593 11.3779C2.38366 12.406 3.36384 13.2565 4.46784 13.7833C5.51635 14.2835 6.6204 14.5068 7.78707 14.4547C9.2512 14.3892 10.6442 13.8698 11.7748 12.9677L11.9574 12.8221L13.2708 14.1327C14.6963 15.5551 14.632 15.498 14.8352 15.5219C15.2671 15.5726 15.5916 15.1313 15.4219 14.7238C15.3916 14.6509 15.2221 14.4749 14.0766 13.3269L12.766 12.0135L12.9116 11.8309C13.9495 10.5301 14.4724 8.90102 14.398 7.20041C14.3143 5.28656 13.4449 3.50884 11.9771 2.24992C10.6043 1.07257 8.80176 0.476557 6.99232 0.601709ZM7.00832 1.74633C5.8292 1.85051 4.75244 2.2788 3.84193 3.00577C3.58348 3.21212 3.15603 3.63958 2.94968 3.89803C2.28123 4.73521 1.87048 5.7002 1.71763 6.79241C1.68192 7.04758 1.67649 7.96244 1.70928 8.20041C1.79113 8.79457 1.90686 9.23296 2.11787 9.74814C2.67889 11.1179 3.80848 12.2644 5.16913 12.8449C5.70174 13.0721 6.20616 13.2084 6.79232 13.2833C7.10694 13.3235 7.83649 13.3232 8.15232 13.2827C9.62166 13.0943 10.9065 12.4092 11.8607 11.3053C12.6113 10.437 13.0759 9.38347 13.2266 8.20841C13.2672 7.89118 13.2674 7.16232 13.2269 6.84841C13.1393 6.16987 12.9735 5.60172 12.6899 5.00841C12.1469 3.8724 11.2039 2.91428 10.0711 2.34756C9.48372 2.05373 8.89636 1.8727 8.21395 1.77518C8.04724 1.75136 7.18497 1.73073 7.00832 1.74633ZM6.31232 5.0603C6.19366 5.10292 6.08592 5.18435 6.02473 5.27763C5.99486 5.32315 5.76508 5.75281 5.51409 6.23241L5.05776 7.10441L4.35704 7.11299C3.67654 7.12131 3.65368 7.1226 3.56508 7.15785C3.43768 7.20852 3.32483 7.31505 3.26081 7.44512C3.21324 7.54172 3.20832 7.56529 3.20832 7.69608C3.20832 7.82068 3.21424 7.85245 3.25166 7.92841C3.30041 8.02737 3.38516 8.12123 3.48032 8.1816C3.60408 8.26012 3.6548 8.2639 4.5934 8.26416C5.53588 8.26443 5.55996 8.26254 5.69476 8.17736C5.81633 8.10054 5.86777 8.0235 6.12144 7.53835C6.26001 7.27329 6.389 7.02945 6.40808 6.99648L6.44275 6.93656L6.9922 8.21248C7.63928 9.71512 7.64868 9.73606 7.71222 9.81629C7.8168 9.94833 8.03504 10.037 8.20673 10.0171C8.32468 10.0035 8.47214 9.93078 8.55518 9.84528C8.59195 9.8074 8.8964 9.43801 9.23174 9.02441L9.84144 8.27241L10.5729 8.26441L11.3043 8.25641L11.3951 8.21385C11.6371 8.10041 11.7703 7.8564 11.7287 7.60259C11.7081 7.47616 11.6592 7.3808 11.5692 7.29112C11.4757 7.19787 11.3728 7.14611 11.2441 7.12748C11.104 7.10723 9.61683 7.10868 9.49038 7.1292C9.3734 7.14817 9.29043 7.18649 9.20603 7.26051C9.17347 7.28905 8.96001 7.54281 8.73168 7.82441C8.50334 8.10601 8.31196 8.33817 8.30641 8.34032C8.30086 8.34248 8.00884 7.67648 7.6575 6.86032C7.30616 6.04417 6.99584 5.34016 6.9679 5.29585C6.9079 5.20067 6.8418 5.14203 6.73003 5.0848C6.62129 5.02912 6.43032 5.01792 6.31232 5.0603Z" fill="currentColor"/>
</svg>
