<svg width="15" height="15" viewBox="0 0 15 15" fill="none" xmlns="http://www.w3.org/2000/svg">
<path fill-rule="evenodd" clip-rule="evenodd" d="M1.69642 0.743344C1.43751 0.773584 1.1711 0.881024 0.952648 1.04328C0.666072 1.25614 0.472872 1.54526 0.373096 1.91058L0.331528 2.06275L0.326088 3.27075C0.320408 4.53298 0.32412 4.62061 0.388776 4.74733C0.43044 4.82899 0.5558 4.95456 0.637096 4.99602C0.785608 5.07179 0.981896 5.07318 1.14814 4.99965C1.25073 4.95427 1.38343 4.81245 1.429 4.6995L1.46642 4.60675L1.47442 3.38275L1.48244 2.15875L1.52679 2.0833C1.56927 2.01104 1.62825 1.95619 1.71444 1.90875C1.74703 1.89083 1.98118 1.88526 2.97844 1.87874L4.20244 1.87074L4.29519 1.83331C4.40814 1.78774 4.54996 1.65504 4.59534 1.55245C4.6467 1.43634 4.66255 1.3177 4.64193 1.20392C4.61849 1.07462 4.57708 0.995856 4.48321 0.901984C4.39047 0.809248 4.31159 0.767248 4.187 0.744208C4.07759 0.723984 1.86873 0.723216 1.69642 0.743344ZM10.3224 0.748496C10.2044 0.77528 10.1403 0.811392 10.0495 0.902192C9.95586 0.995808 9.91439 1.0747 9.891 1.20362C9.86985 1.32034 9.88998 1.46376 9.94177 1.56528C9.99244 1.66459 10.1313 1.7904 10.2377 1.83331L10.3304 1.87074L11.5544 1.87874L12.7784 1.88675L12.8539 1.9311C12.9262 1.97358 12.981 2.03256 13.0284 2.11875C13.0464 2.15134 13.0519 2.38549 13.0585 3.38275L13.0665 4.60675L13.1039 4.6995C13.1468 4.80586 13.2726 4.94475 13.3719 4.99542C13.523 5.07248 13.7454 5.07274 13.8958 4.99602C13.9771 4.95456 14.1024 4.82899 14.1441 4.74733C14.2089 4.62037 14.2126 4.53339 14.2067 3.27075L14.2012 2.06275L14.1582 1.9048C14.0046 1.33954 13.5963 0.932816 13.0266 0.777472L12.8744 0.735984L11.6424 0.732256C10.7042 0.729408 10.3894 0.73328 10.3224 0.748496ZM4.01844 3.55074C3.44714 3.66595 3.05198 4.20525 3.12311 4.77259C3.13879 4.89763 4.39313 9.99683 4.44194 10.134C4.55073 10.4396 4.83594 10.7168 5.14434 10.8167C5.23858 10.8472 5.32138 10.861 5.44474 10.8668C5.66254 10.8769 5.80889 10.8458 6.00743 10.747C6.14903 10.6765 6.16975 10.6586 6.57092 10.2607L6.9874 9.8476L7.89092 10.752C8.39714 11.2587 8.83468 11.6835 8.88596 11.718C9.05124 11.8294 9.28116 11.8412 9.46431 11.7478C9.5209 11.7189 10.9779 10.3036 11.2449 10.0182C11.3704 9.88394 11.4138 9.77738 11.4135 9.60389C11.4133 9.50499 11.4046 9.4613 11.369 9.37989C11.3279 9.28614 11.2564 9.21024 10.3917 8.3424L9.45884 7.40603L9.75626 7.1104C10.333 6.53707 10.4218 6.40285 10.4661 6.03666C10.5105 5.67054 10.3584 5.29192 10.0722 5.05584C9.89058 4.90602 9.79169 4.86885 9.15004 4.70918C7.63316 4.33176 4.54559 3.57077 4.44703 3.55003C4.31399 3.52205 4.15942 3.5223 4.01844 3.55074ZM4.31737 4.89819C4.34796 5.0195 4.62468 6.13755 4.93231 7.38275C5.23994 8.62795 5.49572 9.66018 5.5007 9.67659C5.50791 9.70032 5.6265 9.58998 6.0801 9.13754C6.7297 8.48957 6.73702 8.48411 6.97044 8.4737C7.07273 8.46914 7.11772 8.47507 7.19444 8.50326C7.28625 8.53699 7.33194 8.5799 8.24244 9.48734L9.19444 10.4361L9.61743 10.0205L10.0404 9.60485L9.1029 8.66581C8.48748 8.04936 8.1541 7.70405 8.13257 7.66069C8.0863 7.5675 8.06673 7.42597 8.08455 7.31334C8.1133 7.13163 8.14284 7.09477 8.74314 6.49125C9.09873 6.13376 9.29538 5.92502 9.28105 5.92029C9.26862 5.91618 8.14604 5.63838 6.78644 5.30296C5.42684 4.96755 4.30258 4.68963 4.28809 4.68538C4.26559 4.67877 4.26988 4.70995 4.31737 4.89819ZM0.77044 10.3009C0.72204 10.3117 0.657944 10.3334 0.628008 10.3493C0.553336 10.3888 0.428184 10.5169 0.388776 10.5942C0.32412 10.7209 0.320408 10.8085 0.326088 12.0708L0.331528 13.2788L0.373096 13.4309C0.528776 14.0009 0.935256 14.4089 1.50049 14.5625L1.65844 14.6055L2.86644 14.6111C4.12908 14.6169 4.21606 14.6132 4.34302 14.5484C4.42468 14.5068 4.55025 14.3814 4.5917 14.3001C4.66842 14.1497 4.66817 13.9273 4.59111 13.7762C4.54044 13.6769 4.40154 13.5511 4.29519 13.5082L4.20244 13.4708L2.97844 13.4628C1.98118 13.4562 1.74703 13.4507 1.71444 13.4328C1.62825 13.3853 1.56927 13.3305 1.52679 13.2582L1.48244 13.1828L1.47442 11.9588L1.46642 10.7348L1.429 10.642C1.38615 10.5358 1.26031 10.3968 1.16132 10.3463C1.10138 10.3157 0.939384 10.2771 0.883496 10.2801C0.86972 10.2808 0.81884 10.2902 0.77044 10.3009ZM13.5064 10.3009C13.458 10.3117 13.3934 10.3337 13.3628 10.3499C13.2701 10.3989 13.145 10.5401 13.1039 10.642L13.0664 10.7348L13.0584 11.9588L13.0504 13.1828L13.0061 13.2582C12.9636 13.3305 12.9046 13.3853 12.8184 13.4328C12.7858 13.4507 12.5517 13.4562 11.5544 13.4628L10.3304 13.4708L10.2377 13.5082C10.1313 13.5511 9.99244 13.6769 9.94177 13.7762C9.86471 13.9273 9.86446 14.1497 9.94118 14.3001C9.98263 14.3814 10.1082 14.5068 10.1899 14.5484C10.3168 14.6132 10.4038 14.6169 11.6664 14.6111L12.8744 14.6055L13.0324 14.5625C13.5977 14.4089 14.0045 14.0005 14.1597 13.4309L14.2012 13.2788L14.2067 12.0708C14.2126 10.8081 14.2089 10.7211 14.1441 10.5942C14.1025 10.5126 13.9771 10.387 13.8962 10.3457C13.8372 10.3156 13.675 10.2771 13.6195 10.2801C13.6057 10.2808 13.5548 10.2902 13.5064 10.3009Z" fill="currentColor"/>
</svg>
