<svg width="15" height="14" viewBox="0 0 15 14" fill="none" xmlns="http://www.w3.org/2000/svg">
<path fill-rule="evenodd" clip-rule="evenodd" d="M7.33157 0.0658737C6.67042 0.114738 6.0767 0.380338 5.61902 0.831986C5.09066 1.35336 4.81185 2.01509 4.81164 2.7481C4.81145 3.47653 5.06881 4.11224 5.57493 4.63346L5.70842 4.77093L4.62581 6.69746C4.03038 7.75704 3.5345 8.63343 3.52385 8.64496C3.50794 8.66219 3.48198 8.66031 3.37804 8.63437C3.14078 8.57517 3.01463 8.56103 2.72358 8.56103C2.25057 8.56103 1.90732 8.64216 1.49583 8.8512C0.730567 9.24 0.193735 9.98541 0.0577993 10.848C0.0317673 11.0132 0.0314473 11.4854 0.0572553 11.64C0.103767 11.9183 0.203543 12.2335 0.316151 12.4576C0.344439 12.5139 0.419831 12.6393 0.483703 12.7363C0.845751 13.2859 1.42295 13.6964 2.05906 13.8566C2.46748 13.9595 2.97967 13.9595 3.38809 13.8566C4.33807 13.6173 5.10289 12.8444 5.34002 11.884L5.35681 11.816H7.49958H9.64234L9.65905 11.884C9.89455 12.843 10.6607 13.6172 11.6111 13.8566C12.0195 13.9595 12.5317 13.9595 12.9401 13.8566C13.5761 13.6964 14.146 13.2915 14.5124 12.7397C14.6489 12.5341 14.7121 12.4137 14.7879 12.2152C14.9346 11.8307 14.9943 11.4042 14.9567 11.0088C14.9327 10.7563 14.903 10.6156 14.8252 10.3848C14.5332 9.51899 13.8099 8.85043 12.9316 8.63431C12.69 8.57487 12.5661 8.56103 12.2756 8.56103C11.9845 8.56103 11.8584 8.57517 11.6211 8.63437C11.5172 8.66031 11.4912 8.66219 11.4753 8.64496C11.4646 8.63343 10.9689 7.75731 10.3737 6.69803L9.29138 4.7721L9.43948 4.6173C10.0947 3.93247 10.3416 2.97528 10.0993 2.05925C9.82545 1.02391 8.93943 0.236354 7.88357 0.0897777C7.74308 0.0702737 7.44609 0.0574257 7.33157 0.0658737ZM7.17902 1.2381C6.63586 1.35656 6.1837 1.76717 6.02287 2.28799C5.78183 3.06858 6.17444 3.89362 6.92962 4.19344C7.11457 4.26687 7.28335 4.29776 7.49958 4.29776C7.7158 4.29776 7.88458 4.26687 8.06953 4.19344C9.05598 3.80181 9.36241 2.56759 8.67646 1.74896C8.48991 1.52634 8.1805 1.33141 7.89158 1.25447C7.7071 1.20533 7.36522 1.19747 7.17902 1.2381ZM5.60844 7.28282L4.51342 9.22965L4.63898 9.3564C4.96969 9.69023 5.20039 10.0919 5.32349 10.5481L5.35908 10.68H7.49958H9.64007L9.67566 10.5481C9.79876 10.0919 10.0295 9.69023 10.3602 9.35639L10.4858 9.22963L9.393 7.28693C8.79199 6.21843 8.29327 5.34189 8.28473 5.33904C8.27618 5.33619 8.21663 5.34829 8.15239 5.36591C7.95566 5.41989 7.7914 5.43858 7.50758 5.43925C7.22502 5.43992 7.02615 5.41791 6.84399 5.36581C6.78662 5.34941 6.73153 5.33599 6.72158 5.33599C6.71162 5.33599 6.21071 6.21207 5.60844 7.28282ZM2.57158 9.70575C1.94047 9.76578 1.40772 10.2152 1.22718 10.84C1.18391 10.9897 1.16727 11.3213 1.19431 11.4951C1.24566 11.8252 1.41178 12.1331 1.6697 12.3761C1.94468 12.6353 2.26377 12.77 2.64358 12.7873C2.87516 12.7978 3.02039 12.7776 3.23177 12.7054C3.6545 12.5612 4.02354 12.2047 4.16921 11.8C4.25263 11.5682 4.25881 11.5303 4.25903 11.248C4.25921 11.0114 4.25444 10.9593 4.22244 10.8483C4.0965 10.4112 3.80958 10.0604 3.41609 9.86231C3.26938 9.78845 3.06191 9.72562 2.92114 9.71239C2.86527 9.70714 2.79438 9.70059 2.76358 9.69783C2.73278 9.69507 2.64638 9.69863 2.57158 9.70575ZM12.1236 9.70575C11.5875 9.75672 11.1057 10.0971 10.8762 10.5868C10.7621 10.8303 10.7399 10.9382 10.7401 11.248C10.7403 11.5303 10.7465 11.5682 10.8299 11.8C10.9756 12.2047 11.3446 12.5612 11.7674 12.7054C11.9788 12.7776 12.124 12.7978 12.3556 12.7873C12.7362 12.77 13.0624 12.631 13.3374 12.369C13.5891 12.1293 13.754 11.8211 13.8049 11.4951C13.8317 11.3237 13.8148 10.991 13.7716 10.84C13.6491 10.4115 13.3598 10.0596 12.9681 9.86231C12.8214 9.78845 12.6139 9.72562 12.4731 9.71239C12.4173 9.70714 12.3464 9.70059 12.3156 9.69783C12.2848 9.69507 12.1984 9.69863 12.1236 9.70575Z" fill="currentColor"/>
</svg>
