<svg width="15" height="14" viewBox="0 0 15 14" fill="none" xmlns="http://www.w3.org/2000/svg">
<path fill-rule="evenodd" clip-rule="evenodd" d="M5.97353 0.27205C4.73735 0.39125 3.62786 0.79997 2.73194 1.46623C1.44737 2.42149 0.711447 3.7737 0.538791 5.49602C0.513159 5.75179 0.513095 6.52962 0.538695 6.80002C0.628871 7.7525 0.860983 8.74319 1.14975 9.40802C1.75934 10.8116 2.82049 11.9765 4.18153 12.7363C5.13978 13.2712 6.28742 13.6032 7.44553 13.6804C7.52473 13.6857 7.64353 13.6966 7.70953 13.7046C8.34065 13.7814 9.23753 13.7676 9.93353 13.6705C11.6362 13.4329 12.9703 12.7514 13.7047 11.744C14.0742 11.2373 14.2826 10.6968 14.3682 10.024C14.3965 9.80216 14.3914 9.05672 14.359 8.66402C14.2341 7.14851 13.855 5.73863 13.2444 4.51802C12.661 3.35191 11.8869 2.40051 10.9428 1.6893C9.98204 0.965586 8.86009 0.494242 7.68553 0.320866C7.19223 0.24805 6.4438 0.226706 5.97353 0.27205ZM6.11753 1.40701C5.59924 1.45688 5.24431 1.52895 4.79753 1.67504C4.06804 1.91357 3.4402 2.29506 2.91846 2.8168C2.19802 3.53722 1.77302 4.50759 1.6765 5.65231C1.65225 5.94015 1.66543 6.64205 1.70047 6.92802C1.76879 7.48546 1.91938 8.17759 2.06308 8.5945C2.51716 9.91195 3.5017 11.0599 4.77666 11.7584C5.50482 12.1573 6.45082 12.4416 7.30953 12.5193C7.41953 12.5293 7.65713 12.5518 7.83753 12.5694C9.26514 12.7083 10.6248 12.4976 11.6581 11.9773C12.0162 11.797 12.2773 11.6135 12.519 11.3723C12.8776 11.0143 13.0933 10.6116 13.1984 10.104C13.2481 9.86413 13.2582 9.34021 13.2224 8.85602C13.0999 7.19472 12.655 5.70349 11.9139 4.47042C11.157 3.21088 10.0974 2.30018 8.79753 1.79191C8.32086 1.60551 7.87782 1.49352 7.33793 1.42296C7.07998 1.38925 6.39508 1.38031 6.11753 1.40701ZM6.02153 2.37795C5.31209 2.4321 4.64799 2.63787 4.12606 2.96525C3.7998 3.16989 3.41524 3.52805 3.21276 3.81583C2.85471 4.32471 2.6677 4.91579 2.64324 5.61602C2.61646 6.38277 2.82361 7.31557 3.17062 7.9908C3.7783 9.17327 4.88098 10.009 6.18953 10.2789C6.78046 10.4007 7.53052 10.4347 8.01353 10.3615C8.82814 10.238 9.5485 9.94826 10.1282 9.51091C10.3144 9.37037 10.6093 9.06861 10.7369 8.88802C11.1093 8.36087 11.2383 7.86378 11.1979 7.11215C11.1648 6.49472 11.0715 6.00213 10.8932 5.50269C10.4721 4.32335 9.7006 3.44314 8.61142 2.89935C7.77319 2.48085 6.9211 2.30931 6.02153 2.37795ZM6.05353 3.52253C5.52575 3.58535 5.19126 3.6817 4.85353 3.86819C4.2913 4.17869 3.95529 4.62563 3.83071 5.22872C3.72729 5.72947 3.79439 6.39008 4.01636 7.05602C4.34044 8.02834 5.15255 8.79875 6.15866 9.08834C6.66161 9.23311 7.39514 9.29576 7.83305 9.23138C8.8681 9.07917 9.69831 8.57595 9.96252 7.94066C10.0479 7.73523 10.0672 7.59392 10.057 7.24815C10.0299 6.33055 9.77271 5.54463 9.28737 4.89602C9.15292 4.71635 8.83545 4.40319 8.64313 4.26055C8.11239 3.8669 7.4979 3.62035 6.8382 3.53637C6.66636 3.5145 6.1914 3.50611 6.05353 3.52253ZM6.05353 3.98653C5.0503 4.16704 4.36476 5.12845 4.51735 6.14087C4.66033 7.08939 5.505 7.78703 6.46153 7.74664C6.85375 7.73007 7.17906 7.62021 7.489 7.39963C7.99266 7.0412 8.28553 6.47363 8.28553 5.85602C8.28553 4.92944 7.62484 4.14408 6.71137 3.98479C6.53708 3.95439 6.22759 3.95522 6.05353 3.98653ZM6.22796 5.11979C5.9751 5.1748 5.76479 5.36391 5.67622 5.61589C5.63222 5.74111 5.6325 5.94711 5.6769 6.0905C5.75902 6.3557 6.00858 6.56418 6.28554 6.59896C6.5243 6.62895 6.73066 6.56304 6.9058 6.4009C7.12714 6.19597 7.20337 5.87751 7.09865 5.5952C7.0089 5.35331 6.78063 5.1604 6.52727 5.11235C6.41777 5.09159 6.34985 5.09327 6.22796 5.11979Z" fill="currentColor"/>
</svg>
