<svg width="16" height="16" viewBox="0 0 16 16" fill="none" xmlns="http://www.w3.org/2000/svg">
<path fill-rule="evenodd" clip-rule="evenodd" d="M7.50471 0.513161C6.22189 0.598681 4.97268 1.01737 3.90471 1.71977C3.05272 2.28012 2.31359 3.01926 1.75324 3.87124C1.29885 4.56211 0.940053 5.38433 0.746213 6.17889C0.252533 8.20252 0.617797 10.3369 1.75324 12.0632C2.31269 12.9139 3.05407 13.6553 3.90471 14.2147C4.59557 14.6691 5.4178 15.0279 6.21236 15.2217C8.23543 15.7153 10.3708 15.3498 12.0967 14.2147C12.9473 13.6553 13.6887 12.9139 14.2482 12.0632C14.7026 11.3724 15.0614 10.5502 15.2552 9.75559C15.6691 8.05887 15.4837 6.28404 14.7298 4.72724C14.3475 3.93774 13.8967 3.30305 13.2808 2.68713C12.4208 1.82711 11.4158 1.21606 10.2451 0.841321C9.39301 0.568585 8.42045 0.452137 7.50471 0.513161ZM7.51271 1.65723C5.58962 1.8087 3.82184 2.8418 2.7488 4.44132C2.19578 5.26566 1.85703 6.17222 1.71828 7.19924C1.6762 7.51068 1.6762 8.4238 1.71828 8.73524C1.82032 9.49057 2.00375 10.099 2.32848 10.7592C2.6485 11.4099 3.01733 11.9253 3.53002 12.4379C4.04269 12.9506 4.55801 13.3194 5.20871 13.6395C5.869 13.9642 6.47738 14.1476 7.23271 14.2497C7.54415 14.2918 8.45727 14.2918 8.76871 14.2497C9.52404 14.1476 10.1324 13.9642 10.7927 13.6395C11.4434 13.3194 11.9587 12.9506 12.4714 12.4379C12.9841 11.9253 13.3529 11.4099 13.6729 10.7592C13.9371 10.2222 14.0968 9.75321 14.2069 9.19124C14.2994 8.71921 14.3123 8.5695 14.3123 7.96724C14.3123 7.36499 14.2994 7.21527 14.2069 6.74324C14.0968 6.18127 13.9371 5.71233 13.6729 5.17524C13.3529 4.52454 12.9841 4.00923 12.4714 3.49655C11.9587 2.98387 11.4434 2.61503 10.7927 2.29502C10.1439 1.97595 9.55965 1.79719 8.82471 1.69294C8.64896 1.66801 8.49215 1.66006 8.09671 1.65604C7.81951 1.65324 7.55671 1.65377 7.51271 1.65723ZM4.59271 4.71052C4.2122 4.79814 3.89648 5.0911 3.76429 5.47924L3.72071 5.60724V7.96724V10.3272L3.76429 10.4552C3.82636 10.6375 3.91076 10.7729 4.04871 10.9118C4.18885 11.0528 4.31129 11.1313 4.48887 11.1941L4.61671 11.2392H7.00071H9.38471L9.52141 11.1903C9.69431 11.1284 9.81877 11.0471 9.96071 10.9035C10.1646 10.6973 10.2671 10.4626 10.2842 10.1632C10.2893 10.073 10.2969 9.99924 10.301 9.99924C10.3051 9.99924 10.4874 10.0787 10.7061 10.1759C11.1633 10.3789 11.2134 10.3963 11.3767 10.4092C11.6951 10.4342 12.0287 10.2459 12.1817 9.95491C12.2943 9.74059 12.29 9.82446 12.2851 7.91495L12.2807 6.19924L12.2446 6.10452C12.1068 5.74267 11.7984 5.51924 11.4368 5.51924C11.2599 5.51924 11.205 5.53713 10.719 5.75291C10.4932 5.85319 10.305 5.93524 10.3009 5.93524C10.2969 5.93524 10.2893 5.86143 10.2842 5.77124C10.2669 5.46764 10.164 5.23537 9.95271 5.02271C9.81256 4.88171 9.69013 4.80318 9.51255 4.74043L9.38471 4.69524L7.03271 4.69275C5.18461 4.69079 4.66186 4.6946 4.59271 4.71052ZM4.86471 7.96724V10.1112H7.00071H9.13671L9.13684 9.61924C9.1369 9.34863 9.14439 9.08143 9.15346 9.02545C9.17599 8.88668 9.22999 8.78756 9.33575 8.69091C9.4485 8.58785 9.56245 8.54324 9.71295 8.54324C9.84948 8.54324 9.86706 8.54977 10.5527 8.85526C10.8431 8.98465 11.0933 9.09422 11.1087 9.09875C11.1352 9.10652 11.1367 9.04518 11.1367 7.96724C11.1367 6.88934 11.1352 6.82795 11.1087 6.83567C11.0933 6.84015 10.8215 6.95875 10.5047 7.09919C10.1879 7.23964 9.90076 7.36369 9.86661 7.37484C9.76751 7.40719 9.5737 7.38927 9.46906 7.33807C9.2989 7.25483 9.18429 7.09902 9.15346 6.90903C9.14439 6.85305 9.1369 6.58585 9.13684 6.31524L9.13671 5.82324H7.00071H4.86471V7.96724Z" fill="currentColor"/>
</svg>
