<svg width="90" height="48" viewBox="0 0 90 48" fill="none" xmlns="http://www.w3.org/2000/svg">
<g clip-path="url(#clip0_1587_4348)">
<path d="M9.86786 31.7063L9.82446 31.7209H9.86946L9.86786 31.7063Z" fill="white"/>
<path d="M0 4H0.601875V4.60938H0V4Z" fill="white"/>
<path d="M2.22427 4.81738H2.82615V5.42675H2.22427V4.81738Z" fill="white"/>
<path d="M4.53616 5.68675H5.13884V6.29612H4.53616V5.68675Z" fill="white"/>
<path d="M6.87778 6.57156H7.48046V7.18013H6.87778V6.57156Z" fill="white"/>
<path d="M9.19849 7.44175H9.80197V8.05112H9.19849V7.44175Z" fill="white"/>
<path d="M11.4613 8.27781H12.064V8.88638H11.4613V8.27781Z" fill="white"/>
<path d="M13.6342 9.06187H14.2369V9.67125H13.6342V9.06187Z" fill="white"/>
<path d="M15.7026 9.785H16.3053V10.3944H15.7026V9.785Z" fill="white"/>
<path d="M17.652 10.4407H18.2555V11.0493H17.652V10.4407Z" fill="white"/>
<path d="M2.41876 6.18806H3.02144V6.79744H2.41876V6.18806Z" fill="white"/>
<path d="M4.39554 6.86081H4.99822V7.46938H4.39554V6.86081Z" fill="white"/>
<path d="M6.4559 7.58231H7.05858V8.19088H6.4559V7.58231Z" fill="white"/>
<path d="M8.5524 8.32331H9.15508V8.93187H8.5524V8.32331Z" fill="white"/>
<path d="M10.6417 9.06025H11.2452V9.66881H10.6417V9.06025Z" fill="white"/>
<path d="M12.6916 9.77281H13.2943V10.3814H12.6916V9.77281Z" fill="white"/>
<path d="M14.674 10.4472H15.2759V11.0566H14.674V10.4472Z" fill="white"/>
<path d="M16.5721 11.0728H17.1747V11.6822H16.5721V11.0728Z" fill="white"/>
<path d="M18.3721 11.6424H18.9756V12.2509H18.3721V11.6424Z" fill="white"/>
<path d="M4.59644 8.23556H5.19911V8.84412H4.59644V8.23556Z" fill="white"/>
<path d="M6.3667 8.78725H6.96938V9.39581H6.3667V8.78725Z" fill="white"/>
<path d="M8.21332 9.38444H8.816V9.99381H8.21332V9.38444Z" fill="white"/>
<path d="M10.0977 10.0019H10.7004V10.6113H10.0977V10.0019Z" fill="white"/>
<path d="M11.9845 10.6211H12.5879V11.2304H11.9845V10.6211Z" fill="white"/>
<path d="M13.8447 11.2248H14.4466V11.8341H13.8447V11.2248Z" fill="white"/>
<path d="M15.6528 11.7984H16.2546V12.4077H15.6528V11.7984Z" fill="white"/>
<path d="M17.3941 12.3346H17.9968V12.9432H17.3941V12.3346Z" fill="white"/>
<path d="M19.0559 12.8229H19.6586V13.4323H19.0559V12.8229Z" fill="white"/>
<path d="M6.53705 10.1458H7.13973V10.7551H6.53705V10.1458Z" fill="white"/>
<path d="M8.13535 10.5983H8.73802V11.2069H8.13535V10.5983Z" fill="white"/>
<path d="M9.80115 11.0891H10.4038V11.6976H9.80115V11.0891Z" fill="white"/>
<path d="M11.5039 11.6017H12.1066V12.2111H11.5039V11.6017Z" fill="white"/>
<path d="M13.2131 12.1185H13.8166V12.7271H13.2131V12.1185Z" fill="white"/>
<path d="M14.9062 12.6247H15.5081V13.2341H14.9062V12.6247Z" fill="white"/>
<path d="M16.5584 13.1089H17.1611V13.7183H16.5584V13.1089Z" fill="white"/>
<path d="M18.1591 13.5623H18.7618V14.1709H18.1591V13.5623Z" fill="white"/>
<path d="M19.6939 13.9775H20.2974V14.5869H19.6939V13.9775Z" fill="white"/>
<path d="M8.25186 11.9243H8.85374V12.5337H8.25186V11.9243Z" fill="white"/>
<path d="M9.70554 12.2932H10.3082V12.9026H9.70554V12.2932Z" fill="white"/>
<path d="M11.2195 12.6962H11.8221V13.3056H11.2195V12.6962Z" fill="white"/>
<path d="M12.7663 13.1187H13.369V13.7281H12.7663V13.1187Z" fill="white"/>
<path d="M14.3228 13.5469H14.9263V14.1562H14.3228V13.5469Z" fill="white"/>
<path d="M15.8689 13.9678H16.4708V14.5771H15.8689V13.9678Z" fill="white"/>
<path d="M17.3845 14.3724H17.9871V14.9818H17.3845V14.3724Z" fill="white"/>
<path d="M18.8582 14.7518H19.4609V15.3612H18.8582V14.7518Z" fill="white"/>
<path d="M20.2789 15.1012H20.8824V15.7106H20.2789V15.1012Z" fill="white"/>
<path d="M9.75055 13.5794H10.3524V14.1888H9.75055V13.5794Z" fill="white"/>
<path d="M11.0861 13.8784H11.6879V14.4878H11.0861V13.8784Z" fill="white"/>
<path d="M12.4706 14.2074H13.0733V14.8168H12.4706V14.2074Z" fill="white"/>
<path d="M13.8857 14.5527H14.4884V15.1621H13.8857V14.5527Z" fill="white"/>
<path d="M15.3105 14.9046H15.9139V15.5139H15.3105V14.9046Z" fill="white"/>
<path d="M16.7296 15.2523H17.3322V15.8609H16.7296V15.2523Z" fill="white"/>
<path d="M18.1245 15.5863H18.7272V16.1956H18.1245V15.5863Z" fill="white"/>
<path d="M19.4866 15.9015H20.0893V16.5109H19.4866V15.9015Z" fill="white"/>
<path d="M20.8061 16.1916H21.4096V16.8009H20.8061V16.1916Z" fill="white"/>
<path d="M11.0475 15.1174H11.6502V15.726H11.0475V15.1174Z" fill="white"/>
<path d="M12.2834 15.3587H12.8861V15.9673H12.2834V15.3587Z" fill="white"/>
<path d="M13.5611 15.6244H14.1637V16.2338H13.5611V15.6244Z" fill="white"/>
<path d="M14.8645 15.9056H15.4672V16.5141H14.8645V15.9056Z" fill="white"/>
<path d="M16.1775 16.1924H16.781V16.8009H16.1775V16.1924Z" fill="white"/>
<path d="M17.4865 16.4759H18.0892V17.0853H17.4865V16.4759Z" fill="white"/>
<path d="M18.7779 16.7497H19.3805V17.3583H18.7779V16.7497Z" fill="white"/>
<path d="M20.0427 17.0089H20.6454V17.6175H20.0427V17.0089Z" fill="white"/>
<path d="M21.2721 17.247H21.8756V17.8556H21.2721V17.247Z" fill="white"/>
<path d="M12.1596 16.5474H12.7615V17.1568H12.1596V16.5474Z" fill="white"/>
<path d="M13.3128 16.7408H13.9155V17.3502H13.3128V16.7408Z" fill="white"/>
<path d="M14.5013 16.9545H15.1039V17.5639H14.5013V16.9545Z" fill="white"/>
<path d="M15.7106 17.1812H16.3133V17.7906H15.7106V17.1812Z" fill="white"/>
<path d="M16.928 17.4119H17.5315V18.0213H16.928V17.4119Z" fill="white"/>
<path d="M18.1438 17.6419H18.7465V18.2504H18.1438V17.6419Z" fill="white"/>
<path d="M19.3452 17.8637H19.9479V18.4722H19.3452V17.8637Z" fill="white"/>
<path d="M20.5264 18.0733H21.1291V18.6819H20.5264V18.0733Z" fill="white"/>
<path d="M21.6787 18.2667H22.2822V18.8761H21.6787V18.2667Z" fill="white"/>
<path d="M13.1022 17.8791H13.7041V18.4877H13.1022V17.8791Z" fill="white"/>
<path d="M14.1879 18.0335H14.7897V18.6421H14.1879V18.0335Z" fill="white"/>
<path d="M15.3008 18.2033H15.9035V18.8119H15.3008V18.2033Z" fill="white"/>
<path d="M16.4322 18.3845H17.0349V18.9931H16.4322V18.3845Z" fill="white"/>
<path d="M17.5701 18.5689H18.1736V19.1775H17.5701V18.5689Z" fill="white"/>
<path d="M18.7063 18.7526H19.309V19.3611H18.7063V18.7526Z" fill="white"/>
<path d="M19.8313 18.9305H20.4332V19.5399H19.8313V18.9305Z" fill="white"/>
<path d="M20.9403 19.0987H21.543V19.7064H20.9403V19.0987Z" fill="white"/>
<path d="M22.0259 19.2531H22.6294V19.8616H22.0259V19.2531Z" fill="white"/>
<path d="M13.8929 19.1222H14.4956V19.7308H13.8929V19.1222Z" fill="white"/>
<path d="M14.9223 19.2433H15.525V19.8519H14.9223V19.2433Z" fill="white"/>
<path d="M15.9734 19.3782H16.5761V19.9868H15.9734V19.3782Z" fill="white"/>
<path d="M17.0389 19.5204H17.6416V20.1289H17.0389V19.5204Z" fill="white"/>
<path d="M18.1101 19.6666H18.7136V20.2752H18.1101V19.6666Z" fill="white"/>
<path d="M19.1805 19.8121H19.7823V20.4206H19.1805V19.8121Z" fill="white"/>
<path d="M20.2412 19.9518H20.8438V20.5604H20.2412V19.9518Z" fill="white"/>
<path d="M21.289 20.0843H21.8917V20.6928H21.289V20.0843Z" fill="white"/>
<path d="M22.3176 20.2061H22.9211V20.8139H22.3176V20.2061Z" fill="white"/>
<path d="M14.5471 20.2858H15.1489V20.8943H14.5471V20.2858Z" fill="white"/>
<path d="M15.5298 20.38H16.1325V20.9894H15.5298V20.38Z" fill="white"/>
<path d="M16.5303 20.4848H17.133V21.0942H16.5303V20.4848Z" fill="white"/>
<path d="M17.5412 20.5969H18.1438V21.2055H17.5412V20.5969Z" fill="white"/>
<path d="M18.5569 20.7107H19.1604V21.3192H18.5569V20.7107Z" fill="white"/>
<path d="M19.5726 20.8236H20.1753V21.433H19.5726V20.8236Z" fill="white"/>
<path d="M20.5795 20.9325H21.1821V21.5411H20.5795V20.9325Z" fill="white"/>
<path d="M21.5759 21.0349H22.1786V21.6442H21.5759V21.0349Z" fill="white"/>
<path d="M22.5579 21.1299H23.1605V21.7385H22.5579V21.1299Z" fill="white"/>
<path d="M15.0798 21.3794H15.6825V21.9879H15.0798V21.3794Z" fill="white"/>
<path d="M16.0256 21.4525H16.6275V22.0619H16.0256V21.4525Z" fill="white"/>
<path d="M16.9843 21.5329H17.587V22.1423H16.9843V21.5329Z" fill="white"/>
<path d="M17.951 21.6182H18.5545V22.2276H17.951V21.6182Z" fill="white"/>
<path d="M18.9217 21.706H19.5244V22.3154H18.9217V21.706Z" fill="white"/>
<path d="M19.8908 21.7921H20.4935V22.4015H19.8908V21.7921Z" fill="white"/>
<path d="M20.8535 21.8758H21.4562V22.4844H20.8535V21.8758Z" fill="white"/>
<path d="M21.8081 21.9538H22.4108V22.5632H21.8081V21.9538Z" fill="white"/>
<path d="M22.7507 22.0253H23.3542V22.6339H22.7507V22.0253Z" fill="white"/>
<path d="M15.5081 22.4121H16.1108V23.0214H15.5081V22.4121Z" fill="white"/>
<path d="M16.4234 22.4673H17.0261V23.0767H16.4234V22.4673Z" fill="white"/>
<path d="M17.3483 22.5283H17.951V23.1376H17.3483V22.5283Z" fill="white"/>
<path d="M18.2788 22.5924H18.8815V23.2018H18.2788V22.5924Z" fill="white"/>
<path d="M19.2118 22.6591H19.8153V23.2684H19.2118V22.6591Z" fill="white"/>
<path d="M20.1447 22.7241H20.7474V23.3334H20.1447V22.7241Z" fill="white"/>
<path d="M21.0713 22.7858H21.6739V23.3952H21.0713V22.7858Z" fill="white"/>
<path d="M21.9913 22.8443H22.594V23.4537H21.9913V22.8443Z" fill="white"/>
<path d="M22.9018 22.8971H23.5053V23.5065H22.9018V22.8971Z" fill="white"/>
<path d="M15.8448 23.3911H16.4467V24.0005H15.8448V23.3911Z" fill="white"/>
<path d="M16.736 23.4326H17.3379V24.0419H16.736V23.4326Z" fill="white"/>
<path d="M17.6336 23.4781H18.2363V24.0866H17.6336V23.4781Z" fill="white"/>
<path d="M18.5352 23.526H19.1387V24.1354H18.5352V23.526Z" fill="white"/>
<path d="M19.4392 23.5747H20.0427V24.1833H19.4392V23.5747Z" fill="white"/>
<path d="M20.3416 23.6219H20.9443V24.2312H20.3416V23.6219Z" fill="white"/>
<path d="M21.24 23.6682H21.8427V24.2776H21.24V23.6682Z" fill="white"/>
<path d="M22.1328 23.7096H22.7354V24.319H22.1328V23.7096Z" fill="white"/>
<path d="M23.0167 23.7478H23.6194V24.3572H23.0167V23.7478Z" fill="white"/>
<path d="M16.1044 24.3263H16.7062V24.9357H16.1044V24.3263Z" fill="white"/>
<path d="M16.9763 24.3564H17.5781V24.9658H16.9763V24.3564Z" fill="white"/>
<path d="M17.8529 24.3889H18.4556V24.9982H17.8529V24.3889Z" fill="white"/>
<path d="M18.7321 24.4238H19.3347V25.0332H18.7321V24.4238Z" fill="white"/>
<path d="M19.612 24.4588H20.2155V25.0681H19.612V24.4588Z" fill="white"/>
<path d="M20.4911 24.4929H21.0929V25.1022H20.4911V24.4929Z" fill="white"/>
<path d="M21.3662 24.5254H21.968V25.1339H21.3662V24.5254Z" fill="white"/>
<path d="M22.2364 24.5546H22.8391V25.164H22.2364V24.5546Z" fill="white"/>
<path d="M23.1019 24.5806H23.7054V25.1908H23.1019V24.5806Z" fill="white"/>
<path d="M16.2997 25.2241H16.9015V25.8327H16.2997V25.2241Z" fill="white"/>
<path d="M17.1562 25.2453H17.7581V25.8546H17.1562V25.2453Z" fill="white"/>
<path d="M18.0153 25.268H18.6179V25.8766H18.0153V25.268Z" fill="white"/>
<path d="M18.8775 25.2924H19.4802V25.9009H18.8775V25.2924Z" fill="white"/>
<path d="M19.7389 25.3167H20.3424V25.9253H19.7389V25.3167Z" fill="white"/>
<path d="M20.5995 25.3403H21.2022V25.9497H20.5995V25.3403Z" fill="white"/>
<path d="M21.457 25.3623H22.0596V25.9716H21.457V25.3623Z" fill="white"/>
<path d="M22.312 25.3826H22.9146V25.9919H22.312V25.3826Z" fill="white"/>
<path d="M23.1605 25.3996H23.764V26.0082H23.1605V25.3996Z" fill="white"/>
<path d="M16.4411 26.0902H17.0437V26.6988H16.4411V26.0902Z" fill="white"/>
<path d="M17.2864 26.1049H17.8891V26.7134H17.2864V26.1049Z" fill="white"/>
<path d="M18.1334 26.1203H18.7361V26.7297H18.1334V26.1203Z" fill="white"/>
<path d="M18.9812 26.1374H19.5838V26.7459H18.9812V26.1374Z" fill="white"/>
<path d="M19.8289 26.1536H20.4324V26.763H19.8289V26.1536Z" fill="white"/>
<path d="M20.6759 26.1691H21.2786V26.7776H20.6759V26.1691Z" fill="white"/>
<path d="M21.5204 26.1837H22.1231V26.7922H21.5204V26.1837Z" fill="white"/>
<path d="M22.3626 26.1959H22.9653V26.8044H22.3626V26.1959Z" fill="white"/>
<path d="M23.2007 26.2073H23.8042V26.8158H23.2007V26.2073Z" fill="white"/>
<path d="M16.5407 26.932H17.1434V27.5406H16.5407V26.932Z" fill="white"/>
<path d="M17.3772 26.9409H17.9799V27.5503H17.3772V26.9409Z" fill="white"/>
<path d="M18.2145 26.9515H18.8172V27.5609H18.2145V26.9515Z" fill="white"/>
<path d="M19.0527 26.9621H19.6554V27.5714H19.0527V26.9621Z" fill="white"/>
<path d="M19.89 26.9734H20.4935V27.582H19.89V26.9734Z" fill="white"/>
<path d="M20.7273 26.9832H21.33V27.5918H20.7273V26.9832Z" fill="white"/>
<path d="M21.5614 26.9913H22.1641V27.5999H21.5614V26.9913Z" fill="white"/>
<path d="M22.3947 26.9994H22.9974V27.608H22.3947V26.9994Z" fill="white"/>
<path d="M23.2248 27.0051H23.8283V27.6145H23.2248V27.0051Z" fill="white"/>
<path d="M16.6066 27.7542H17.2093V28.3636H16.6066V27.7542Z" fill="white"/>
<path d="M17.4375 27.7599H18.0394V28.3685H17.4375V27.7599Z" fill="white"/>
<path d="M18.2676 27.7664H18.8703V28.3758H18.2676V27.7664Z" fill="white"/>
<path d="M19.0985 27.7729H19.7012V28.3815H19.0985V27.7729Z" fill="white"/>
<path d="M19.9286 27.7794H20.532V28.388H19.9286V27.7794Z" fill="white"/>
<path d="M20.7587 27.7851H21.3613V28.3945H20.7587V27.7851Z" fill="white"/>
<path d="M21.5863 27.79H22.189V28.3986H21.5863V27.79Z" fill="white"/>
<path d="M22.414 27.7941H23.0167V28.4026H22.414V27.7941Z" fill="white"/>
<path d="M23.2385 27.7965H23.842V28.4059H23.2385V27.7965Z" fill="white"/>
<path d="M16.6484 28.5627H17.2511V29.1713H16.6484V28.5627Z" fill="white"/>
<path d="M17.4745 28.5659H18.0763V29.1753H17.4745V28.5659Z" fill="white"/>
<path d="M18.2997 28.5692H18.9024V29.1777H18.2997V28.5692Z" fill="white"/>
<path d="M19.1258 28.5732H19.7285V29.1818H19.1258V28.5732Z" fill="white"/>
<path d="M19.9511 28.5765H20.5546V29.1859H19.9511V28.5765Z" fill="white"/>
<path d="M20.7763 28.5798H21.379V29.1883H20.7763V28.5798Z" fill="white"/>
<path d="M21.6 28.5822H22.2027V29.1908H21.6V28.5822Z" fill="white"/>
<path d="M22.4237 28.5838H23.0263V29.1924H22.4237V28.5838Z" fill="white"/>
<path d="M23.2457 28.5846H23.8492V29.194H23.2457V28.5846Z" fill="white"/>
<path d="M16.6717 29.3606H17.2736V29.9691H16.6717V29.3606Z" fill="white"/>
<path d="M17.4946 29.3622H18.0972V29.9707H17.4946V29.3622Z" fill="white"/>
<path d="M18.3174 29.3638H18.9201V29.9724H18.3174V29.3638Z" fill="white"/>
<path d="M19.1403 29.3654H19.7437V29.974H19.1403V29.3654Z" fill="white"/>
<path d="M19.9623 29.3671H20.5658V29.9756H19.9623V29.3671Z" fill="white"/>
<path d="M20.7852 29.3687H21.3879V29.9773H20.7852V29.3687Z" fill="white"/>
<path d="M21.6064 29.3695H22.2083V29.9789H21.6064V29.3695Z" fill="white"/>
<path d="M22.4277 29.3695H23.0304V29.9789H22.4277V29.3695Z" fill="white"/>
<path d="M23.2481 29.3703H23.8516V29.9789H23.2481V29.3703Z" fill="white"/>
<path d="M16.6837 30.1511H17.2856V30.7605H16.6837V30.1511Z" fill="white"/>
<path d="M17.505 30.1519H18.1069V30.7613H17.505V30.1519Z" fill="white"/>
<path d="M18.3263 30.1527H18.9281V30.7621H18.3263V30.1527Z" fill="white"/>
<path d="M19.1467 30.1527H19.7494V30.7621H19.1467V30.1527Z" fill="white"/>
<path d="M19.968 30.1536H20.5706V30.7629H19.968V30.1536Z" fill="white"/>
<path d="M20.7892 30.1536H21.3911V30.7629H20.7892V30.1536Z" fill="white"/>
<path d="M21.608 30.1544H22.2107V30.7637H21.608V30.1544Z" fill="white"/>
<path d="M22.4285 30.1544H23.0312V30.7637H22.4285V30.1544Z" fill="white"/>
<path d="M23.2481 30.1544H23.8516V30.7637H23.2481V30.1544Z" fill="white"/>
<path d="M16.6886 30.9376H17.2912V31.547H16.6886V30.9376Z" fill="white"/>
<path d="M17.509 30.9384H18.1117V31.5478H17.509V30.9384Z" fill="white"/>
<path d="M18.3295 30.9384H18.9321V31.5478H18.3295V30.9384Z" fill="white"/>
<path d="M19.1491 30.9384H19.7518V31.5478H19.1491V30.9384Z" fill="white"/>
<path d="M19.9688 30.9384H20.5722V31.5478H19.9688V30.9384Z" fill="white"/>
<path d="M20.79 30.9384H21.3919V31.5478H20.79V30.9384Z" fill="white"/>
<path d="M21.6088 30.9384H22.2115V31.5478H21.6088V30.9384Z" fill="white"/>
<path d="M22.4293 30.9384H23.032V31.5478H22.4293V30.9384Z" fill="white"/>
<path d="M23.2481 30.9384H23.8516V31.5478H23.2481V30.9384Z" fill="white"/>
<path d="M8.2752 32.2376L7.99313 32.3319H8.2752V32.2376Z" fill="white"/>
<path d="M9.09484 32.3319V31.9654L8.49216 32.1661V32.3286L9.09484 32.3319Z" fill="white"/>
<path d="M9.91367 32.3319C9.87831 32.0662 9.85823 31.7826 9.80358 31.7712C9.63484 31.788 9.46928 31.8288 9.3118 31.8923V32.3311L9.91367 32.3319Z" fill="white"/>
<path d="M16.6894 31.7225H17.292V32.3319H16.6894V31.7225Z" fill="white"/>
<path d="M17.5098 31.7225H18.1117V32.3319H17.5098V31.7225Z" fill="white"/>
<path d="M18.3303 31.7225H18.9329V32.3319H18.3303V31.7225Z" fill="white"/>
<path d="M19.1499 31.7225H19.7526V32.3319H19.1499V31.7225Z" fill="white"/>
<path d="M19.9695 31.7225H20.573V32.3319H19.9695V31.7225Z" fill="white"/>
<path d="M20.79 31.7225H21.3919V32.3319H20.79V31.7225Z" fill="white"/>
<path d="M21.6088 31.7225H22.2115V32.3319H21.6088V31.7225Z" fill="white"/>
<path d="M22.4293 31.7225H23.032V32.3319H22.4293V31.7225Z" fill="white"/>
<path d="M23.2481 31.7225H23.8516V32.3319H23.2481V31.7225Z" fill="white"/>
<path d="M5.81464 33.0574L5.63464 33.1176H5.81464V33.0574Z" fill="white"/>
<path d="M6.63509 33.1159V32.7836L6.03241 32.9843V33.1159H6.63509Z" fill="white"/>
<path d="M7.45554 33.1168V32.5114L6.85205 32.7121V33.1184L7.45554 33.1168Z" fill="white"/>
<path d="M7.67169 32.5066H8.27437V33.1159H7.67169V32.5066Z" fill="white"/>
<path d="M8.49216 32.5066H9.09484V33.1159H8.49216V32.5066Z" fill="white"/>
<path d="M9.3118 32.5066H9.91367V33.1159H9.3118V32.5066Z" fill="white"/>
<path d="M10.1804 33.1168C10.1636 33.0688 10.1475 33.0217 10.1322 32.9737V33.1168H10.1804Z" fill="white"/>
<path d="M16.474 32.7869C16.4596 32.899 16.4427 33.0071 16.425 33.1119H16.474V32.7869Z" fill="white"/>
<path d="M16.6902 32.5066H17.2921V33.1159H16.6902V32.5066Z" fill="white"/>
<path d="M17.5098 32.5066H18.1125V33.1159H17.5098V32.5066Z" fill="white"/>
<path d="M18.3303 32.5066H18.9329V33.1159H18.3303V32.5066Z" fill="white"/>
<path d="M19.1499 32.5066H19.7526V33.1159H19.1499V32.5066Z" fill="white"/>
<path d="M19.9695 32.5066H20.573V33.1159H19.9695V32.5066Z" fill="white"/>
<path d="M20.79 32.5066H21.3919V33.1159H20.79V32.5066Z" fill="white"/>
<path d="M21.6088 32.5066H22.2115V33.1159H21.6088V32.5066Z" fill="white"/>
<path d="M22.4293 32.5066H23.032V33.1159H22.4293V32.5066Z" fill="white"/>
<path d="M23.2481 32.5066H23.8516V33.1159H23.2481V32.5066Z" fill="white"/>
<path d="M3.35572 33.8748L3.28018 33.8992H3.35572V33.8748Z" fill="white"/>
<path d="M4.17616 33.9V33.6018L3.57349 33.8025V33.8992L4.17616 33.9Z" fill="white"/>
<path d="M4.99582 33.9V33.3313L4.39233 33.5319V33.9016L4.99582 33.9Z" fill="white"/>
<path d="M5.21277 33.2906H5.81545V33.8992H5.21277V33.2906Z" fill="white"/>
<path d="M6.03241 33.2906H6.63509V33.8992H6.03241V33.2906Z" fill="white"/>
<path d="M6.85205 33.2906H7.45553V33.8992H6.85205V33.2906Z" fill="white"/>
<path d="M7.67169 33.2906H8.27437V33.8992H7.67169V33.2906Z" fill="white"/>
<path d="M8.49216 33.2906H9.09484V33.8992H8.49216V33.2906Z" fill="white"/>
<path d="M9.3118 33.2906H9.91367V33.8992H9.3118V33.2906Z" fill="white"/>
<path d="M10.1322 33.8967H10.534C10.4234 33.701 10.3265 33.4976 10.2439 33.2882H10.1298L10.1322 33.8967Z" fill="white"/>
<path d="M16.4708 33.2906H16.3904C16.3503 33.4968 16.2966 33.7002 16.2297 33.8992H16.4708V33.2906Z" fill="white"/>
<path d="M16.6902 33.2906H17.2921V33.8992H16.6902V33.2906Z" fill="white"/>
<path d="M17.5098 33.2906H18.1125V33.8992H17.5098V33.2906Z" fill="white"/>
<path d="M18.3303 33.2906H18.9329V33.8992H18.3303V33.2906Z" fill="white"/>
<path d="M19.1499 33.2906H19.7526V33.8992H19.1499V33.2906Z" fill="white"/>
<path d="M19.9695 33.2906H20.573V33.8992H19.9695V33.2906Z" fill="white"/>
<path d="M20.79 33.2906H21.3919V33.8992H20.79V33.2906Z" fill="white"/>
<path d="M21.6088 33.2906H22.2115V33.8992H21.6088V33.2906Z" fill="white"/>
<path d="M22.4293 33.2906H23.032V33.8992H22.4293V33.2906Z" fill="white"/>
<path d="M23.2481 33.2906V33.8992H23.8026C23.8297 33.6974 23.8461 33.4942 23.8516 33.2906H23.2481Z" fill="white"/>
<path d="M3.35571 34.0747H2.90893C2.89115 34.0748 2.8736 34.0788 2.8575 34.0865C2.8414 34.0941 2.82713 34.1051 2.81567 34.1189C2.80421 34.1326 2.79584 34.1487 2.79113 34.1661C2.78642 34.1834 2.78549 34.2016 2.7884 34.2193C2.81491 34.3761 2.84304 34.5305 2.86875 34.6841H3.35089L3.35571 34.0747Z" fill="white"/>
<path d="M3.57349 34.0747H4.17616V34.6841H3.57349V34.0747Z" fill="white"/>
<path d="M4.39233 34.0747H4.99582V34.6841H4.39233V34.0747Z" fill="white"/>
<path d="M5.21277 34.0747H5.81545V34.6841H5.21277V34.0747Z" fill="white"/>
<path d="M6.03241 34.0747H6.63509V34.6841H6.03241V34.0747Z" fill="white"/>
<path d="M6.85205 34.0747H7.45553V34.6841H6.85205V34.0747Z" fill="white"/>
<path d="M7.67169 34.0747H8.27437V34.6841H7.67169V34.0747Z" fill="white"/>
<path d="M8.49216 34.0747H9.09484V34.6841H8.49216V34.0747Z" fill="white"/>
<path d="M9.3118 34.0747H9.91367V34.6841H9.3118V34.0747Z" fill="white"/>
<path d="M10.1322 34.6841H10.7349V34.2177C10.702 34.1698 10.6706 34.1218 10.6401 34.0731H10.1322V34.6841Z" fill="white"/>
<path d="M11.1118 34.6841C11.0564 34.6264 11.0025 34.5671 10.9511 34.5053V34.6841H11.1118Z" fill="white"/>
<path d="M16.4732 34.6841V34.0747H16.1639C16.0871 34.2698 15.9887 34.4554 15.8705 34.628V34.6833L16.4732 34.6841Z" fill="white"/>
<path d="M16.6902 34.0747H17.2921V34.6841H16.6902V34.0747Z" fill="white"/>
<path d="M17.5098 34.0747H18.1125V34.6841H17.5098V34.0747Z" fill="white"/>
<path d="M18.3303 34.0747H18.9329V34.6841H18.3303V34.0747Z" fill="white"/>
<path d="M19.1499 34.0747H19.7526V34.6841H19.1499V34.0747Z" fill="white"/>
<path d="M19.9695 34.0747H20.573V34.6841H19.9695V34.0747Z" fill="white"/>
<path d="M20.79 34.0747H21.3919V34.6841H20.79V34.0747Z" fill="white"/>
<path d="M21.6088 34.0747H22.2115V34.6841H21.6088V34.0747Z" fill="white"/>
<path d="M22.4293 34.0747H23.032V34.6841H22.4293V34.0747Z" fill="white"/>
<path d="M23.2481 34.6841H23.6957C23.7399 34.4833 23.7705 34.2797 23.7873 34.0747H23.2473L23.2481 34.6841Z" fill="white"/>
<path d="M3.3533 34.8628H2.9057C2.94749 35.0692 2.99329 35.2723 3.04312 35.4722H3.3533V34.8628Z" fill="white"/>
<path d="M3.57349 34.8587H4.17616V35.4681H3.57349V34.8587Z" fill="white"/>
<path d="M4.39233 34.8587H4.99582V35.4681H4.39233V34.8587Z" fill="white"/>
<path d="M5.21277 34.8587H5.81545V35.4681H5.21277V34.8587Z" fill="white"/>
<path d="M6.03241 34.8587H6.63509V35.4681H6.03241V34.8587Z" fill="white"/>
<path d="M6.85205 34.8587H7.45553V35.4681H6.85205V34.8587Z" fill="white"/>
<path d="M7.67169 34.8587H8.27437V35.4681H7.67169V34.8587Z" fill="white"/>
<path d="M8.49216 34.8587H9.09484V35.4681H8.49216V34.8587Z" fill="white"/>
<path d="M9.3118 34.8587H9.91367V35.4681H9.3118V34.8587Z" fill="white"/>
<path d="M10.1322 34.8587H10.7349V35.4681H10.1322V34.8587Z" fill="white"/>
<path d="M10.9511 35.4681H11.5546V35.0716C11.4634 35.0056 11.3757 34.9348 11.2918 34.8596H10.9511V35.4681Z" fill="white"/>
<path d="M12.3075 35.4681C12.121 35.402 11.9415 35.3174 11.7715 35.2155V35.4681H12.3075Z" fill="white"/>
<path d="M14.8339 35.4307C14.7986 35.4446 14.7616 35.4559 14.7246 35.4681H14.8339V35.4307Z" fill="white"/>
<path d="M15.6544 35.4681V34.8945C15.4801 35.0757 15.2759 35.2248 15.0509 35.3349V35.4681H15.6544Z" fill="white"/>
<path d="M15.8705 34.8587H16.4732V35.4681H15.8705V34.8587Z" fill="white"/>
<path d="M16.6902 34.8587H17.2921V35.4681H16.6902V34.8587Z" fill="white"/>
<path d="M17.5098 34.8587H18.1125V35.4681H17.5098V34.8587Z" fill="white"/>
<path d="M18.3303 34.8587H18.9329V35.4681H18.3303V34.8587Z" fill="white"/>
<path d="M19.1499 34.8587H19.7526V35.4681H19.1499V34.8587Z" fill="white"/>
<path d="M19.9695 34.8587H20.573V35.4681H19.9695V34.8587Z" fill="white"/>
<path d="M20.79 34.8587H21.3919V35.4681H20.79V34.8587Z" fill="white"/>
<path d="M21.6088 34.8587H22.2115V35.4681H21.6088V34.8587Z" fill="white"/>
<path d="M22.4293 34.8587H23.032V35.4681H22.4293V34.8587Z" fill="white"/>
<path d="M23.2481 35.4681H23.502C23.5556 35.2683 23.6073 35.0651 23.6571 34.8588H23.2481V35.4681Z" fill="white"/>
<path d="M3.35571 35.6428H3.08893C3.14357 35.8508 3.20304 36.0491 3.26491 36.2522H3.35571V35.6428Z" fill="white"/>
<path d="M3.57349 35.6428H4.17616V36.2522H3.57349V35.6428Z" fill="white"/>
<path d="M4.39233 35.6428H4.99582V36.2522H4.39233V35.6428Z" fill="white"/>
<path d="M5.21277 35.6428H5.81545V36.2522H5.21277V35.6428Z" fill="white"/>
<path d="M6.03241 35.6428H6.63509V36.2522H6.03241V35.6428Z" fill="white"/>
<path d="M6.85205 35.6428H7.45553V36.2522H6.85205V35.6428Z" fill="white"/>
<path d="M7.67169 35.6428H8.27437V36.2522H7.67169V35.6428Z" fill="white"/>
<path d="M8.49216 35.6428H9.09484V36.2522H8.49216V35.6428Z" fill="white"/>
<path d="M9.3118 35.6428H9.91367V36.2522H9.3118V35.6428Z" fill="white"/>
<path d="M10.1322 35.6428H10.7349V36.2522H10.1322V35.6428Z" fill="white"/>
<path d="M10.9511 35.6428H11.5546V36.2522H10.9511V35.6428Z" fill="white"/>
<path d="M11.7715 35.6428H12.3742V36.2522H11.7715V35.6428Z" fill="white"/>
<path d="M12.5912 36.2522H13.1938V35.6444H12.5912V36.2522Z" fill="white"/>
<path d="M14.0135 36.2522V35.6428H13.7146C13.6165 35.6477 13.5153 35.6509 13.4108 35.6509V36.2522H14.0135Z" fill="white"/>
<path d="M14.2304 35.6428H14.8331V36.2522H14.2304V35.6428Z" fill="white"/>
<path d="M15.0509 35.6428H15.6544V36.2522H15.0509V35.6428Z" fill="white"/>
<path d="M15.8705 35.6428H16.4732V36.2522H15.8705V35.6428Z" fill="white"/>
<path d="M16.6902 35.6428H17.2921V36.2522H16.6902V35.6428Z" fill="white"/>
<path d="M17.5098 35.6428H18.1125V36.2522H17.5098V35.6428Z" fill="white"/>
<path d="M18.3303 35.6428H18.9329V36.2522H18.3303V35.6428Z" fill="white"/>
<path d="M19.1499 35.6428H19.7526V36.2522H19.1499V35.6428Z" fill="white"/>
<path d="M19.9695 35.6428H20.573V36.2522H19.9695V35.6428Z" fill="white"/>
<path d="M20.79 35.6428H21.3919V36.2522H20.79V35.6428Z" fill="white"/>
<path d="M21.6088 35.6428H22.2115V36.2522H21.6088V35.6428Z" fill="white"/>
<path d="M22.4293 35.6428H23.032V36.2522H22.4293V35.6428Z" fill="white"/>
<path d="M23.2481 36.2522H23.2529C23.3245 36.0523 23.392 35.8459 23.4538 35.6428H23.2481V36.2522Z" fill="white"/>
<path d="M3.32117 36.4269L3.35573 36.5358V36.4269H3.32117Z" fill="white"/>
<path d="M3.57349 36.4269H4.17616V37.0363H3.57349V36.4269Z" fill="white"/>
<path d="M4.39233 36.4269H4.99582V37.0363H4.39233V36.4269Z" fill="white"/>
<path d="M5.21277 36.4269H5.81545V37.0363H5.21277V36.4269Z" fill="white"/>
<path d="M6.03241 36.4269H6.63509V37.0363H6.03241V36.4269Z" fill="white"/>
<path d="M6.85205 36.4269H7.45553V37.0363H6.85205V36.4269Z" fill="white"/>
<path d="M7.67169 36.4269H8.27437V37.0363H7.67169V36.4269Z" fill="white"/>
<path d="M8.49216 36.4269H9.09484V37.0363H8.49216V36.4269Z" fill="white"/>
<path d="M9.3118 36.4269H9.91367V37.0363H9.3118V36.4269Z" fill="white"/>
<path d="M10.1322 36.4269H10.7349V37.0363H10.1322V36.4269Z" fill="white"/>
<path d="M10.9511 36.4269H11.5546V37.0363H10.9511V36.4269Z" fill="white"/>
<path d="M11.7715 36.4269H12.3742V37.0363H11.7715V36.4269Z" fill="white"/>
<path d="M12.5912 36.4269H13.1938V37.0363H12.5912V36.4269Z" fill="white"/>
<path d="M13.4108 36.4269H14.0135V37.0363H13.4108V36.4269Z" fill="white"/>
<path d="M14.2304 36.4269H14.8331V37.0363H14.2304V36.4269Z" fill="white"/>
<path d="M15.0509 36.4269H15.6544V37.0363H15.0509V36.4269Z" fill="white"/>
<path d="M15.8705 36.4269H16.4732V37.0363H15.8705V36.4269Z" fill="white"/>
<path d="M16.6902 36.4269H17.2921V37.0363H16.6902V36.4269Z" fill="white"/>
<path d="M17.5098 36.4269H18.1125V37.0363H17.5098V36.4269Z" fill="white"/>
<path d="M18.3303 36.4269H18.9329V37.0363H18.3303V36.4269Z" fill="white"/>
<path d="M19.1499 36.4269H19.7526V37.0363H19.1499V36.4269Z" fill="white"/>
<path d="M19.9695 36.4269H20.573V37.0363H19.9695V36.4269Z" fill="white"/>
<path d="M20.79 36.4269H21.3919V37.0363H20.79V36.4269Z" fill="white"/>
<path d="M21.6088 36.4269H22.2115V37.0363H21.6088V36.4269Z" fill="white"/>
<path d="M22.4325 36.4269V37.0363H22.9428L23.0352 36.8226V36.4269H22.4325Z" fill="white"/>
<path d="M4.17535 37.2118H3.60803C3.68839 37.4198 3.7808 37.6229 3.87562 37.8203H4.17535V37.2118Z" fill="white"/>
<path d="M4.39233 37.2118H4.99582V37.8211H4.39233V37.2118Z" fill="white"/>
<path d="M5.21277 37.2118H5.81545V37.8211H5.21277V37.2118Z" fill="white"/>
<path d="M6.03241 37.2118H6.63509V37.8211H6.03241V37.2118Z" fill="white"/>
<path d="M6.85205 37.2118H7.45553V37.8211H6.85205V37.2118Z" fill="white"/>
<path d="M7.67169 37.2118H8.27437V37.8211H7.67169V37.2118Z" fill="white"/>
<path d="M8.49216 37.2118H9.09484V37.8211H8.49216V37.2118Z" fill="white"/>
<path d="M9.3118 37.2118H9.91367V37.8211H9.3118V37.2118Z" fill="white"/>
<path d="M10.1322 37.2118H10.7349V37.8211H10.1322V37.2118Z" fill="white"/>
<path d="M10.9511 37.2118H11.5546V37.8211H10.9511V37.2118Z" fill="white"/>
<path d="M11.7715 37.2118H12.3742V37.8211H11.7715V37.2118Z" fill="white"/>
<path d="M12.5912 37.2118H13.1938V37.8211H12.5912V37.2118Z" fill="white"/>
<path d="M13.4108 37.2118H14.0135V37.8211H13.4108V37.2118Z" fill="white"/>
<path d="M14.2304 37.2118H14.8331V37.8211H14.2304V37.2118Z" fill="white"/>
<path d="M15.0509 37.2118H15.6544V37.8211H15.0509V37.2118Z" fill="white"/>
<path d="M15.8705 37.2118H16.4732V37.8211H15.8705V37.2118Z" fill="white"/>
<path d="M16.6902 37.2118H17.2921V37.8211H16.6902V37.2118Z" fill="white"/>
<path d="M17.5098 37.2118H18.1125V37.8211H17.5098V37.2118Z" fill="white"/>
<path d="M18.3303 37.2118H18.9329V37.8211H18.3303V37.2118Z" fill="white"/>
<path d="M19.1499 37.2118H19.7526V37.8211H19.1499V37.2118Z" fill="white"/>
<path d="M19.9695 37.2118H20.573V37.8211H19.9695V37.2118Z" fill="white"/>
<path d="M20.79 37.2118H21.3919V37.8211H20.79V37.2118Z" fill="white"/>
<path d="M21.6088 37.2118H22.2115V37.8211H21.6088V37.2118Z" fill="white"/>
<path d="M22.4325 37.8203H22.5555C22.6639 37.6212 22.7684 37.4198 22.8656 37.2118H22.4317L22.4325 37.8203Z" fill="white"/>
<path d="M3.9624 37.9958C4.03097 38.1329 4.10222 38.2683 4.17615 38.4021V37.9958H3.9624Z" fill="white"/>
<path d="M4.39233 37.9958H4.99582V38.6044H4.39233V37.9958Z" fill="white"/>
<path d="M5.21277 37.9958H5.81545V38.6044H5.21277V37.9958Z" fill="white"/>
<path d="M6.03241 37.9958H6.63509V38.6044H6.03241V37.9958Z" fill="white"/>
<path d="M6.85205 37.9958H7.45553V38.6044H6.85205V37.9958Z" fill="white"/>
<path d="M7.67169 37.9958H8.27437V38.6044H7.67169V37.9958Z" fill="white"/>
<path d="M8.49216 37.9958H9.09484V38.6044H8.49216V37.9958Z" fill="white"/>
<path d="M9.3118 37.9958H9.91367V38.6044H9.3118V37.9958Z" fill="white"/>
<path d="M10.1322 37.9958H10.7349V38.6044H10.1322V37.9958Z" fill="white"/>
<path d="M10.9511 37.9958H11.5546V38.6044H10.9511V37.9958Z" fill="white"/>
<path d="M11.7715 37.9958H12.3742V38.6044H11.7715V37.9958Z" fill="white"/>
<path d="M12.5912 37.9958H13.1938V38.6044H12.5912V37.9958Z" fill="white"/>
<path d="M13.4108 37.9958H14.0135V38.6044H13.4108V37.9958Z" fill="white"/>
<path d="M14.2304 37.9958H14.8331V38.6044H14.2304V37.9958Z" fill="white"/>
<path d="M15.0509 37.9958H15.6544V38.6044H15.0509V37.9958Z" fill="white"/>
<path d="M15.8705 37.9958H16.4732V38.6044H15.8705V37.9958Z" fill="white"/>
<path d="M16.6902 37.9958H17.2921V38.6044H16.6902V37.9958Z" fill="white"/>
<path d="M17.5098 37.9958H18.1125V38.6044H17.5098V37.9958Z" fill="white"/>
<path d="M18.3303 37.9958H18.9329V38.6044H18.3303V37.9958Z" fill="white"/>
<path d="M19.1499 37.9958H19.7526V38.6044H19.1499V37.9958Z" fill="white"/>
<path d="M19.9695 37.9958H20.573V38.6044H19.9695V37.9958Z" fill="white"/>
<path d="M20.79 37.9958H21.3919V38.6044H20.79V37.9958Z" fill="white"/>
<path d="M21.6088 37.9958V38.6044H22.0797C22.1247 38.5369 22.1673 38.4663 22.2107 38.398V37.9958H21.6088Z" fill="white"/>
<path d="M22.4325 38.0413L22.4574 37.9958H22.4325V38.0413Z" fill="white"/>
<path d="M4.99582 38.7799H4.39957C4.52975 38.9895 4.66555 39.1934 4.80859 39.3884H4.99582V38.7799Z" fill="white"/>
<path d="M5.21277 38.7799H5.81545V39.3884H5.21277V38.7799Z" fill="white"/>
<path d="M6.03241 38.7799H6.63509V39.3884H6.03241V38.7799Z" fill="white"/>
<path d="M6.85205 38.7799H7.45553V39.3884H6.85205V38.7799Z" fill="white"/>
<path d="M7.67169 38.7799H8.27437V39.3884H7.67169V38.7799Z" fill="white"/>
<path d="M8.49216 38.7799H9.09484V39.3884H8.49216V38.7799Z" fill="white"/>
<path d="M9.3118 38.7799H9.91367V39.3884H9.3118V38.7799Z" fill="white"/>
<path d="M10.1322 38.7799H10.7349V39.3884H10.1322V38.7799Z" fill="white"/>
<path d="M10.9511 38.7799H11.5546V39.3884H10.9511V38.7799Z" fill="white"/>
<path d="M11.7715 38.7799H12.3742V39.3884H11.7715V38.7799Z" fill="white"/>
<path d="M12.5912 38.7799H13.1938V39.3884H12.5912V38.7799Z" fill="white"/>
<path d="M13.4108 38.7799H14.0135V39.3884H13.4108V38.7799Z" fill="white"/>
<path d="M14.2304 38.7799H14.8331V39.3884H14.2304V38.7799Z" fill="white"/>
<path d="M15.0509 38.7799H15.6544V39.3884H15.0509V38.7799Z" fill="white"/>
<path d="M15.8705 38.7799H16.4732V39.3884H15.8705V38.7799Z" fill="white"/>
<path d="M16.6902 38.7799H17.2921V39.3884H16.6902V38.7799Z" fill="white"/>
<path d="M17.5098 38.7799H18.1125V39.3884H17.5098V38.7799Z" fill="white"/>
<path d="M18.3303 38.7799H18.9329V39.3884H18.3303V38.7799Z" fill="white"/>
<path d="M19.1499 38.7799H19.7526V39.3884H19.1499V38.7799Z" fill="white"/>
<path d="M19.9695 38.7799H20.573V39.3884H19.9695V38.7799Z" fill="white"/>
<path d="M20.79 38.7799H21.3919V39.3884H20.79V38.7799Z" fill="white"/>
<path d="M21.6088 39.2422C21.7294 39.0916 21.8451 38.9375 21.956 38.7799H21.6088V39.2422Z" fill="white"/>
<path d="M4.94357 39.5631L4.99579 39.6306V39.5631H4.94357Z" fill="white"/>
<path d="M5.81545 39.5631H5.21277V39.893C5.29313 39.9881 5.37348 40.0807 5.46187 40.1717H5.81545V39.5631Z" fill="white"/>
<path d="M6.03241 39.5631H6.63509V40.1717H6.03241V39.5631Z" fill="white"/>
<path d="M6.85205 39.5631H7.45553V40.1717H6.85205V39.5631Z" fill="white"/>
<path d="M7.67169 39.5631H8.27437V40.1717H7.67169V39.5631Z" fill="white"/>
<path d="M8.49216 39.5631H9.09484V40.1717H8.49216V39.5631Z" fill="white"/>
<path d="M9.3118 39.5631H9.91367V40.1717H9.3118V39.5631Z" fill="white"/>
<path d="M10.1322 39.5631H10.7349V40.1717H10.1322V39.5631Z" fill="white"/>
<path d="M10.9511 39.5631H11.5546V40.1717H10.9511V39.5631Z" fill="white"/>
<path d="M11.7715 39.5631H12.3742V40.1717H11.7715V39.5631Z" fill="white"/>
<path d="M12.5912 39.5631H13.1938V40.1717H12.5912V39.5631Z" fill="white"/>
<path d="M13.4108 39.5631H14.0135V40.1717H13.4108V39.5631Z" fill="white"/>
<path d="M14.2304 39.5631H14.8331V40.1717H14.2304V39.5631Z" fill="white"/>
<path d="M15.0509 39.5631H15.6544V40.1717H15.0509V39.5631Z" fill="white"/>
<path d="M15.8705 39.5631H16.4732V40.1717H15.8705V39.5631Z" fill="white"/>
<path d="M16.6902 39.5631H17.2921V40.1717H16.6902V39.5631Z" fill="white"/>
<path d="M17.5098 39.5631H18.1125V40.1717H17.5098V39.5631Z" fill="white"/>
<path d="M18.3303 39.5631H18.9329V40.1717H18.3303V39.5631Z" fill="white"/>
<path d="M19.1499 39.5631H19.7526V40.1717H19.1499V39.5631Z" fill="white"/>
<path d="M19.9695 39.5631H20.573V40.1717H19.9695V39.5631Z" fill="white"/>
<path d="M20.7932 40.1449C20.9853 39.9596 21.1685 39.7646 21.3445 39.5631H20.7932V40.1449Z" fill="white"/>
<path d="M5.62903 40.3472C5.6901 40.4089 5.75277 40.4683 5.81545 40.5268V40.3472H5.62903Z" fill="white"/>
<path d="M6.63509 40.3472H6.03241V40.7274C6.1208 40.8087 6.21 40.8826 6.30161 40.9566H6.63509V40.3472Z" fill="white"/>
<path d="M6.85205 40.3472H7.45553V40.9558H6.85205V40.3472Z" fill="white"/>
<path d="M7.67169 40.3472H8.27437V40.9558H7.67169V40.3472Z" fill="white"/>
<path d="M8.49216 40.3472H9.09484V40.9558H8.49216V40.3472Z" fill="white"/>
<path d="M9.3118 40.3472H9.91367V40.9558H9.3118V40.3472Z" fill="white"/>
<path d="M10.1322 40.3472H10.7349V40.9558H10.1322V40.3472Z" fill="white"/>
<path d="M10.9511 40.3472H11.5546V40.9558H10.9511V40.3472Z" fill="white"/>
<path d="M11.7715 40.3472H12.3742V40.9558H11.7715V40.3472Z" fill="white"/>
<path d="M12.5912 40.3472H13.1938V40.9558H12.5912V40.3472Z" fill="white"/>
<path d="M13.4108 40.3472H14.0135V40.9558H13.4108V40.3472Z" fill="white"/>
<path d="M14.2304 40.3472H14.8331V40.9558H14.2304V40.3472Z" fill="white"/>
<path d="M15.0509 40.3472H15.6544V40.9558H15.0509V40.3472Z" fill="white"/>
<path d="M15.8705 40.3472H16.4732V40.9558H15.8705V40.3472Z" fill="white"/>
<path d="M16.6902 40.3472H17.2921V40.9558H16.6902V40.3472Z" fill="white"/>
<path d="M17.5098 40.3472H18.1125V40.9558H17.5098V40.3472Z" fill="white"/>
<path d="M18.3303 40.3472H18.9329V40.9558H18.3303V40.3472Z" fill="white"/>
<path d="M19.1499 40.3472H19.7526V40.9558H19.1499V40.3472Z" fill="white"/>
<path d="M19.9695 40.8493C20.1785 40.6909 20.377 40.5243 20.5698 40.3472H19.9695V40.8493Z" fill="white"/>
<path d="M6.53064 41.1312L6.6351 41.2125V41.1312H6.53064Z" fill="white"/>
<path d="M6.85205 41.1312V41.3604C7.04705 41.4925 7.24822 41.6171 7.45554 41.7341V41.1304L6.85205 41.1312Z" fill="white"/>
<path d="M7.67169 41.1313H8.27437V41.7398H7.67169V41.1313Z" fill="white"/>
<path d="M8.49216 41.1313H9.09484V41.7398H8.49216V41.1313Z" fill="white"/>
<path d="M9.3118 41.1313H9.91367V41.7398H9.3118V41.1313Z" fill="white"/>
<path d="M10.1322 41.1313H10.7349V41.7398H10.1322V41.1313Z" fill="white"/>
<path d="M10.9511 41.1313H11.5546V41.7398H10.9511V41.1313Z" fill="white"/>
<path d="M11.7715 41.1313H12.3742V41.7398H11.7715V41.1313Z" fill="white"/>
<path d="M12.5912 41.1313H13.1938V41.7398H12.5912V41.1313Z" fill="white"/>
<path d="M13.4108 41.1313H14.0135V41.7398H13.4108V41.1313Z" fill="white"/>
<path d="M14.2304 41.1313H14.8331V41.7398H14.2304V41.1313Z" fill="white"/>
<path d="M15.0509 41.1313H15.6544V41.7398H15.0509V41.1313Z" fill="white"/>
<path d="M15.8705 41.1313H16.4732V41.7398H15.8705V41.1313Z" fill="white"/>
<path d="M16.6902 41.1313H17.2921V41.7398H16.6902V41.1313Z" fill="white"/>
<path d="M17.5098 41.1313H18.1125V41.7398H17.5098V41.1313Z" fill="white"/>
<path d="M18.3303 41.1312V41.7398H18.5537C18.683 41.6732 18.8076 41.6033 18.9329 41.5318V41.1304L18.3303 41.1312Z" fill="white"/>
<path d="M19.1499 41.4059C19.2956 41.3176 19.4381 41.226 19.5774 41.1312H19.1499V41.4059Z" fill="white"/>
<path d="M7.79303 41.9153C7.94946 41.9939 8.11018 42.0683 8.27518 42.1387V41.9153H7.79303Z" fill="white"/>
<path d="M8.49216 41.9153V42.2306C8.68823 42.3118 8.88912 42.3809 9.09484 42.4483V41.9161L8.49216 41.9153Z" fill="white"/>
<path d="M9.91367 41.9153H9.3118V42.5158L9.33831 42.5239H9.91448L9.91367 41.9153Z" fill="white"/>
<path d="M10.1322 41.9153H10.7349V42.5239H10.1322V41.9153Z" fill="white"/>
<path d="M10.9511 41.9153H11.5546V42.5239H10.9511V41.9153Z" fill="white"/>
<path d="M11.7715 41.9153H12.3742V42.5239H11.7715V41.9153Z" fill="white"/>
<path d="M12.5912 41.9153H13.1938V42.5239H12.5912V41.9153Z" fill="white"/>
<path d="M13.4108 41.9153H14.0135V42.5239H13.4108V41.9153Z" fill="white"/>
<path d="M14.2304 41.9153H14.8331V42.5239H14.2304V41.9153Z" fill="white"/>
<path d="M15.0509 41.9153H15.6544V42.5239H15.0509V41.9153Z" fill="white"/>
<path d="M15.8705 41.9153H16.4732V42.5239H15.8705V41.9153Z" fill="white"/>
<path d="M16.6902 41.9153V42.4841C16.8954 42.4234 17.096 42.3579 17.2921 42.2874V41.9194L16.6902 41.9153Z" fill="white"/>
<path d="M17.5098 41.9153V42.2046C17.7147 42.1233 17.9164 42.0421 18.1125 41.9551V41.9153H17.5098Z" fill="white"/>
<path d="M10.1322 42.6969V42.7221C10.3299 42.7644 10.53 42.8034 10.7349 42.8359V42.6969H10.1322Z" fill="white"/>
<path d="M10.9511 42.6969V42.8676C11.1488 42.8952 11.3529 42.9179 11.5546 42.9366V42.6969H10.9511Z" fill="white"/>
<path d="M11.7715 42.6969V42.9569C11.9692 42.9716 12.1701 42.9821 12.3742 42.9886V42.6969H11.7715Z" fill="white"/>
<path d="M12.5912 42.6969V42.9927C12.6836 42.9927 12.7752 42.9976 12.8692 42.9976C12.9793 42.9976 13.0854 42.9935 13.1906 42.9911V42.6969H12.5912Z" fill="white"/>
<path d="M13.4108 42.6969V42.9862C13.6141 42.9789 13.8126 42.9675 14.0135 42.9537V42.6969H13.4108Z" fill="white"/>
<path d="M14.2304 42.6969V42.9407C14.434 42.9223 14.6349 42.9 14.8331 42.874V42.6969H14.2304Z" fill="white"/>
<path d="M15.0509 42.6969V42.8367C15.255 42.8058 15.4562 42.7706 15.6544 42.7311V42.6969H15.0509Z" fill="white"/>
<path d="M44.4182 32.6081C44.4054 36.0807 42.5194 38.8359 38.3047 38.8197C34.1446 38.8042 32.2779 36.2546 32.2915 32.5902L32.3317 21.6215L30.4835 21.6142L30.4425 32.6642C30.4256 37.2304 33.0236 40.5454 38.2982 40.569C43.6018 40.5885 46.2536 36.9347 46.2664 32.7235L46.3074 21.6735L44.4592 21.667L44.4182 32.6081Z" fill="white"/>
<path d="M56.2701 21.6191L54.3126 21.6118L54.2395 40.3041L67.4542 40.3513L67.4606 38.6742L56.2042 38.6344L56.2701 21.6191Z" fill="white"/>
<path d="M80.3178 21.1876C78.4056 21.1878 76.5363 21.7606 74.9456 22.8336C73.3549 23.9067 72.1142 25.432 71.3798 27.2171C70.6454 29.0023 70.4503 30.9674 70.8191 32.8645C71.1879 34.7617 72.1041 36.5059 73.452 37.8773C74.8 39.2486 76.5194 40.1856 78.3934 40.5701C80.2674 40.9546 82.2121 40.7694 83.9821 40.0378C85.7521 39.3062 87.2682 38.061 88.3392 36.4592C89.4102 34.8575 89.9881 32.9709 90 31.0375C90.0388 29.7385 89.8153 28.4451 89.3433 27.2363C88.8712 26.0274 88.1604 24.9286 87.2543 24.0068C86.3482 23.085 85.2658 22.3596 84.0732 21.8749C82.8806 21.3902 81.6027 21.1563 80.3178 21.1876V21.1876ZM80.2527 38.9765C78.6886 38.9774 77.1596 38.5088 75.8593 37.63C74.559 36.7512 73.546 35.5018 72.9488 34.0402C72.3516 32.5786 72.1971 30.9707 72.5049 29.4202C72.8126 27.8697 73.5687 26.4465 74.6773 25.331C75.7859 24.2155 77.1972 23.458 78.7321 23.1545C80.2671 22.8509 81.8566 23.015 83.2992 23.626C84.7418 24.237 85.9724 25.2673 86.8352 26.5863C87.698 27.9054 88.154 29.4537 88.1454 31.0351C88.1739 32.089 87.9888 33.1376 87.6017 34.1164C87.2146 35.0953 86.6336 35.9838 85.8943 36.7272C85.1551 37.4707 84.2733 38.0534 83.303 38.4395C82.3328 38.8256 81.2948 39.0069 80.2527 38.9724V38.9765Z" fill="white"/>
</g>
<defs>
<clipPath id="clip0_1587_4348">
<rect width="90" height="48" fill="white"/>
</clipPath>
</defs>
</svg>
