<svg width="23" height="24" viewBox="0 0 23 24" fill="none" xmlns="http://www.w3.org/2000/svg">
<path fill-rule="evenodd" clip-rule="evenodd" d="M0.660156 3.42855C0.660156 2.00838 1.81142 0.857117 3.23158 0.857117H20.3744C21.7946 0.857117 22.9459 2.00838 22.9459 3.42855V8.01501C22.9459 14.8588 18.5666 20.9347 12.0741 23.0988C11.8981 23.1576 11.7079 23.1576 11.532 23.0988C5.03942 20.9347 0.660156 14.8588 0.660156 8.01501V3.42855ZM11.803 6.21426C10.7379 6.21426 9.87444 7.07771 9.87444 8.14283V9.42855H13.7316V8.14283C13.7316 7.07771 12.8681 6.21426 11.803 6.21426ZM7.73158 8.14283V9.55316C7.10333 9.80747 6.66016 10.4234 6.66016 11.1428V15.4285C6.66016 16.3753 7.42768 17.1428 8.37444 17.1428H15.2316C16.1784 17.1428 16.9459 16.3753 16.9459 15.4285V11.1428C16.9459 10.4234 16.5027 9.80747 15.8744 9.55316V8.14283C15.8744 5.89424 14.0516 4.0714 11.803 4.0714C9.55442 4.0714 7.73158 5.89424 7.73158 8.14283Z" fill="#C7C9CF"/>
</svg>
