<svg width="126" height="24" viewBox="0 0 126 24" fill="none" xmlns="http://www.w3.org/2000/svg">
<g clip-path="url(#clip0_310_987)">
<path d="M55.0297 17.0255L57.8654 7.85481L59.9127 17.0934H62.0489L66.5682 8.25746L66.5929 17.0255H70.6824L70.6593 0.638184H66.6618L61.8957 10.0268L59.7963 0.638184H56.6409L51.2305 17.0255H55.0297Z" fill="#161E35"/>
<path d="M55.0297 17.0255L57.8654 7.85481L59.9127 17.0934H62.0489L66.5682 8.25746L66.5929 17.0255H70.6824L70.6593 0.638184H66.6618L61.8957 10.0268L59.7963 0.638184H56.6409L51.2305 17.0255H55.0297Z" fill="#161E35" fill-opacity="0.2"/>
<path d="M87.6527 17.0254L88.467 12.0008L92.1692 17.0254H97.197L92.4952 11.0333L97.0441 6.23509H92.0566L88.7187 10.2978L90.3496 0H86.6187L83.9199 17.0254H87.6527Z" fill="#161E35"/>
<path d="M87.6527 17.0254L88.467 12.0008L92.1692 17.0254H97.197L92.4952 11.0333L97.0441 6.23509H92.0566L88.7187 10.2978L90.3496 0H86.6187L83.9199 17.0254H87.6527Z" fill="#161E35" fill-opacity="0.2"/>
<path d="M4.83352 11.8966H7.11035C10.6189 11.8966 12.8405 10.2978 13.4194 6.64674C13.9792 3.09862 11.9282 0.75411 8.60433 0.619995H2.45002L0.00195312 17.0254H4.02103L4.83352 11.8966ZM6.09201 3.79446H6.76758C8.32768 3.79446 9.52286 4.82153 9.21564 6.76744C8.91466 8.65659 7.47995 8.65659 6.02402 8.65659H5.34596L6.0917 3.79446H6.09201Z" fill="#161E35"/>
<path d="M4.83352 11.8966H7.11035C10.6189 11.8966 12.8405 10.2978 13.4194 6.64674C13.9792 3.09862 11.9282 0.75411 8.60433 0.619995H2.45002L0.00195312 17.0254H4.02103L4.83352 11.8966ZM6.09201 3.79446H6.76758C8.32768 3.79446 9.52286 4.82153 9.21564 6.76744C8.91466 8.65659 7.47995 8.65659 6.02402 8.65659H5.34596L6.0917 3.79446H6.09201Z" fill="#161E35" fill-opacity="0.2"/>
<path d="M16.2051 17.0254L18.7673 0.603516H15.0346L12.4727 17.0254H16.2051Z" fill="#161E35"/>
<path d="M16.2051 17.0254L18.7673 0.603516H15.0346L12.4727 17.0254H16.2051Z" fill="#161E35" fill-opacity="0.2"/>
<path d="M0 21.0342L0.00249516 24H47.4617L50.2775 21.0342H0Z" fill="#161E35"/>
<path d="M0 21.0342L0.00249516 24H47.4617L50.2775 21.0342H0Z" fill="#161E35" fill-opacity="0.2"/>
<path d="M51.2386 21.0342L48.4219 24H125.341L125.337 21.0342H51.2386Z" fill="#161E35"/>
<path d="M51.2386 21.0342L48.4219 24H125.341L125.337 21.0342H51.2386Z" fill="#161E35" fill-opacity="0.2"/>
<path d="M22.07 17.3314C23.5568 17.3314 24.4354 16.9465 25.6633 15.8443L25.4659 17.0201H29.392L30.9923 6.30031H27.2087L27.0032 7.52325C25.8345 6.34647 25.0526 5.98779 23.5415 5.98779C20.3043 5.98779 17.8366 8.64857 17.743 12.2223C17.6616 15.34 19.3596 17.3311 22.07 17.3311V17.3314ZM21.7786 11.959C21.822 10.3281 22.9564 9.10518 24.3951 9.10518C25.6907 9.10518 26.4833 9.96976 26.448 11.3125C26.4047 12.9895 25.3174 14.2125 23.878 14.2125C22.559 14.2125 21.7428 13.3507 21.779 11.959H21.7786Z" fill="#161E35"/>
<path d="M22.07 17.3314C23.5568 17.3314 24.4354 16.9465 25.6633 15.8443L25.4659 17.0201H29.392L30.9923 6.30031H27.2087L27.0032 7.52325C25.8345 6.34647 25.0526 5.98779 23.5415 5.98779C20.3043 5.98779 17.8366 8.64857 17.743 12.2223C17.6616 15.34 19.3596 17.3311 22.07 17.3311V17.3314ZM21.7786 11.959C21.822 10.3281 22.9564 9.10518 24.3951 9.10518C25.6907 9.10518 26.4833 9.96976 26.448 11.3125C26.4047 12.9895 25.3174 14.2125 23.878 14.2125C22.559 14.2125 21.7428 13.3507 21.779 11.959H21.7786Z" fill="#161E35" fill-opacity="0.2"/>
<path d="M75.7388 17.3314C77.2265 17.3314 78.1039 16.9465 79.3321 15.8443L79.1356 17.0201H83.0608L84.6611 6.30031H80.9228L80.6711 7.52325C79.5037 6.34647 78.7217 5.98779 77.2094 5.98779C73.9725 5.98779 71.5045 8.64857 71.4109 12.2223C71.3308 15.34 73.0284 17.3314 75.7388 17.3314ZM75.4468 11.959C75.4908 10.3281 76.6255 9.10518 78.0636 9.10518C79.3586 9.10518 80.1521 9.96976 80.1159 11.3125C80.0719 12.9895 78.985 14.2125 77.5468 14.2125C76.2269 14.2125 75.4107 13.3507 75.4468 11.959Z" fill="#161E35"/>
<path d="M75.7388 17.3314C77.2265 17.3314 78.1039 16.9465 79.3321 15.8443L79.1356 17.0201H83.0608L84.6611 6.30031H80.9228L80.6711 7.52325C79.5037 6.34647 78.7217 5.98779 77.2094 5.98779C73.9725 5.98779 71.5045 8.64857 71.4109 12.2223C71.3308 15.34 73.0284 17.3314 75.7388 17.3314ZM75.4468 11.959C75.4908 10.3281 76.6255 9.10518 78.0636 9.10518C79.3586 9.10518 80.1521 9.96976 80.1159 11.3125C80.0719 12.9895 78.985 14.2125 77.5468 14.2125C76.2269 14.2125 75.4107 13.3507 75.4468 11.959Z" fill="#161E35" fill-opacity="0.2"/>
<path d="M35.9153 17.3314C36.8032 17.3314 37.3812 17.2104 38.7367 16.7563L39.232 13.3978C38.3521 14.0219 37.8431 14.2122 37.0524 14.2122C35.7568 14.2122 34.9175 13.3014 34.954 11.9101C34.9949 10.3278 36.1074 9.10487 37.5218 9.10487C38.4089 9.10487 38.9775 9.34409 39.7273 10.0646L40.2225 6.73104C39.2039 6.2267 38.1784 5.98779 36.9792 5.98779C33.5979 5.98779 31.0138 8.5288 30.9243 11.9344C30.8407 15.1254 32.8943 17.3311 35.9153 17.3311V17.3314Z" fill="#161E35"/>
<path d="M35.9153 17.3314C36.8032 17.3314 37.3812 17.2104 38.7367 16.7563L39.232 13.3978C38.3521 14.0219 37.8431 14.2122 37.0524 14.2122C35.7568 14.2122 34.9175 13.3014 34.954 11.9101C34.9949 10.3278 36.1074 9.10487 37.5218 9.10487C38.4089 9.10487 38.9775 9.34409 39.7273 10.0646L40.2225 6.73104C39.2039 6.2267 38.1784 5.98779 36.9792 5.98779C33.5979 5.98779 31.0138 8.5288 30.9243 11.9344C30.8407 15.1254 32.8943 17.3311 35.9153 17.3311V17.3314Z" fill="#161E35" fill-opacity="0.2"/>
<path d="M45.4635 17.3313C48.5338 17.3313 50.3387 16.1555 51.465 13.4458H47.1477C46.9593 14.2124 46.4722 14.5496 45.5842 14.5496C44.3138 14.5496 43.7559 13.9024 43.7933 12.462H51.8031C51.8392 11.9839 51.8726 11.6237 51.8789 11.3586C51.9662 8.07399 49.8858 5.98804 46.5283 5.98804C42.7874 5.98804 40.132 8.48288 40.0378 12.0787C39.952 15.3652 41.9865 17.3317 45.4635 17.3317V17.3313ZM46.1487 8.57801C47.2039 8.57801 47.8121 9.15408 47.8563 10.2332H44.1145C44.3831 9.12975 45.0696 8.57801 46.1487 8.57801Z" fill="#161E35"/>
<path d="M45.4635 17.3313C48.5338 17.3313 50.3387 16.1555 51.465 13.4458H47.1477C46.9593 14.2124 46.4722 14.5496 45.5842 14.5496C44.3138 14.5496 43.7559 13.9024 43.7933 12.462H51.8031C51.8392 11.9839 51.8726 11.6237 51.8789 11.3586C51.9662 8.07399 49.8858 5.98804 46.5283 5.98804C42.7874 5.98804 40.132 8.48288 40.0378 12.0787C39.952 15.3652 41.9865 17.3317 45.4635 17.3317V17.3313ZM46.1487 8.57801C47.2039 8.57801 47.8121 9.15408 47.8563 10.2332H44.1145C44.3831 9.12975 45.0696 8.57801 46.1487 8.57801Z" fill="#161E35" fill-opacity="0.2"/>
<path d="M101.253 17.3313C104.324 17.3313 106.128 16.1555 107.253 13.4458H102.937C102.75 14.2124 102.262 14.5496 101.375 14.5496C100.103 14.5496 99.544 13.9024 99.5824 12.462H107.591C107.629 11.9839 107.662 11.6237 107.669 11.3586C107.755 8.07399 105.674 5.98804 102.317 5.98804C98.5771 5.98804 95.922 8.48288 95.8268 12.0787C95.7411 15.3652 97.7762 17.3317 101.253 17.3317L101.253 17.3313ZM101.938 8.57801C102.993 8.57801 103.601 9.15408 103.645 10.2332H99.9045C100.173 9.12975 100.858 8.57801 101.938 8.57801Z" fill="#161E35"/>
<path d="M101.253 17.3313C104.324 17.3313 106.128 16.1555 107.253 13.4458H102.937C102.75 14.2124 102.262 14.5496 101.375 14.5496C100.103 14.5496 99.544 13.9024 99.5824 12.462H107.591C107.629 11.9839 107.662 11.6237 107.669 11.3586C107.755 8.07399 105.674 5.98804 102.317 5.98804C98.5771 5.98804 95.922 8.48288 95.8268 12.0787C95.7411 15.3652 97.7762 17.3317 101.253 17.3317L101.253 17.3313ZM101.938 8.57801C102.993 8.57801 103.601 9.15408 103.645 10.2332H99.9045C100.173 9.12975 100.858 8.57801 101.938 8.57801Z" fill="#161E35" fill-opacity="0.2"/>
<path d="M111.403 17.0201L112.073 12.462C112.42 10.2557 113.085 9.51274 114.716 9.51274C115.412 9.51274 115.889 9.65715 116.503 9.99306L117.032 6.32393C116.696 6.30054 116.433 6.30054 116.24 6.30054C114.752 6.30054 113.881 6.65922 112.651 7.76301L112.843 6.30054H109.046L107.445 17.0204H111.403L111.403 17.0201Z" fill="#161E35"/>
<path d="M111.403 17.0201L112.073 12.462C112.42 10.2557 113.085 9.51274 114.716 9.51274C115.412 9.51274 115.889 9.65715 116.503 9.99306L117.032 6.32393C116.696 6.30054 116.433 6.30054 116.24 6.30054C114.752 6.30054 113.881 6.65922 112.651 7.76301L112.843 6.30054H109.046L107.445 17.0204H111.403L111.403 17.0201Z" fill="#161E35" fill-opacity="0.2"/>
<path d="M122.599 10.3531C120.741 9.84813 121.241 9.99316 121.099 9.94544C120.79 9.80135 120.697 9.70497 120.703 9.46419C120.714 9.03253 121.176 8.81701 122.064 8.81701C122.953 8.81701 123.569 9.03253 124.652 9.75207L125.682 7.04233C124.24 6.276 123.05 5.93884 121.707 5.93884C118.974 5.93884 117.088 7.40163 117.031 9.6323C116.985 11.3122 117.824 12.2716 119.802 12.75C121.267 13.0993 121.236 13.0881 121.221 13.084C121.223 13.0847 121.227 13.0856 121.232 13.0872C121.54 13.2069 121.681 13.3741 121.673 13.6146C121.662 14.0699 121.103 14.3566 120.288 14.3566C119.113 14.3566 118.448 14.1174 116.892 13.0872L115.385 15.7005C117.176 16.9004 118.507 17.3314 120.258 17.3314C123.304 17.3314 125.288 15.7726 125.351 13.3507C125.391 11.7906 124.529 10.8802 122.599 10.3528V10.3531Z" fill="#161E35"/>
<path d="M122.599 10.3531C120.741 9.84813 121.241 9.99316 121.099 9.94544C120.79 9.80135 120.697 9.70497 120.703 9.46419C120.714 9.03253 121.176 8.81701 122.064 8.81701C122.953 8.81701 123.569 9.03253 124.652 9.75207L125.682 7.04233C124.24 6.276 123.05 5.93884 121.707 5.93884C118.974 5.93884 117.088 7.40163 117.031 9.6323C116.985 11.3122 117.824 12.2716 119.802 12.75C121.267 13.0993 121.236 13.0881 121.221 13.084C121.223 13.0847 121.227 13.0856 121.232 13.0872C121.54 13.2069 121.681 13.3741 121.673 13.6146C121.662 14.0699 121.103 14.3566 120.288 14.3566C119.113 14.3566 118.448 14.1174 116.892 13.0872L115.385 15.7005C117.176 16.9004 118.507 17.3314 120.258 17.3314C123.304 17.3314 125.288 15.7726 125.351 13.3507C125.391 11.7906 124.529 10.8802 122.599 10.3528V10.3531Z" fill="#161E35" fill-opacity="0.2"/>
</g>
<defs>
<clipPath id="clip0_310_987">
<rect width="125.682" height="24" fill="white"/>
</clipPath>
</defs>
</svg>
