<svg width="77" height="33" viewBox="0 0 77 33" fill="none" xmlns="http://www.w3.org/2000/svg">
<path d="M11.0161 20.0823C10.8272 20.6028 10.6504 21.1261 10.4859 21.6521L9.94643 23.3682C9.78186 23.872 9.67215 24.2825 9.60815 24.5733C9.52374 24.8449 9.35697 25.0836 9.13091 25.2562C8.90485 25.4289 8.63071 25.527 8.34643 25.5369C7.71117 25.6279 7.06402 25.5881 6.44472 25.4199C5.79927 25.2575 5.19504 24.9616 4.671 24.5513C4.41708 24.3672 4.21021 24.1258 4.06722 23.8467C3.92424 23.5675 3.84917 23.2586 3.84815 22.9449C3.91175 22.095 4.08066 21.2563 4.351 20.448C4.68015 19.3161 5.15557 17.9657 5.759 16.4471C6.42948 14.7868 7.14872 13.142 7.91672 11.5127C8.66034 9.98401 9.46795 8.46294 10.3396 6.94949C10.5113 6.68751 10.7423 6.4697 11.014 6.3137C11.2856 6.15771 11.5902 6.06794 11.903 6.05167C13.2454 5.9021 14.6019 5.93655 15.935 6.15407C16.0855 6.17573 16.2299 6.22845 16.359 6.30888C16.488 6.38931 16.599 6.49569 16.6847 6.62127C16.7576 6.73371 16.7979 6.86415 16.8011 6.99811C16.8043 7.13207 16.7704 7.2643 16.703 7.38012C15.9838 8.64549 15.3133 9.92793 14.6916 11.2274C14.21 12.2252 13.7438 13.2279 13.2927 14.2354C13.2828 14.2577 13.2812 14.2828 13.2883 14.3061C13.2953 14.3295 13.3105 14.3495 13.3311 14.3625C13.3547 14.3786 13.3819 14.3886 13.4102 14.3918C13.4386 14.395 13.4673 14.3912 13.4939 14.3808C14.0882 14.156 14.6683 13.8953 15.231 13.6C16.1372 13.1417 16.9845 12.5753 17.7544 11.9132C18.4793 11.3016 19.0973 10.5736 19.583 9.7591C20.0331 8.99605 20.2699 8.12612 20.2687 7.24024C20.3079 6.75205 20.2179 6.26213 20.0076 5.8198C19.7974 5.37746 19.4743 4.9983 19.071 4.72047C18.0401 4.14672 16.8654 3.88289 15.6881 3.96069C14.2692 3.95091 12.8652 4.25043 11.5739 4.83841C10.3925 5.35448 9.30022 6.05401 8.33729 6.91109C7.5034 7.66463 6.79914 8.5502 6.25272 9.53235C5.82334 10.251 5.57252 11.0621 5.52129 11.8976C5.5096 12.1411 5.41087 12.3723 5.24307 12.5492C5.07528 12.7261 4.84956 12.8368 4.607 12.8613C4.06922 12.9893 3.50678 12.9691 2.97957 12.8028C2.41972 12.6185 1.91619 12.2944 1.51672 11.861C1.27501 11.6068 1.08723 11.3063 0.964679 10.9776C0.842123 10.6489 0.787323 10.2988 0.803574 9.94835C0.888028 9.04432 1.23794 8.18545 1.80929 7.47978C2.6036 6.41363 3.57829 5.49463 4.68929 4.76435C6.14779 3.7959 7.73615 3.03897 9.407 2.51612C11.5011 1.8607 13.6861 1.54282 15.8801 1.57441C17.2531 1.56257 18.6243 1.67734 19.9761 1.91727C21.2396 2.13989 22.4689 2.52527 23.6333 3.06378C24.613 3.53251 25.4872 4.19572 26.2024 5.01304C26.8694 5.7482 27.235 6.70756 27.2264 7.70012C27.2248 8.7801 26.907 9.83597 26.3121 10.7374C25.6657 11.7101 24.8441 12.5543 23.8893 13.227C22.7919 14.0039 21.6036 14.6437 20.351 15.1324C19.2079 15.59 18.0349 15.9691 16.8401 16.267C16.8257 16.2677 16.8116 16.2713 16.7986 16.2776C16.7856 16.2839 16.774 16.2928 16.7646 16.3038C16.7552 16.3148 16.7481 16.3275 16.7438 16.3413C16.7395 16.3551 16.7381 16.3696 16.7396 16.384C16.754 16.8582 16.7968 17.3311 16.8676 17.8002C16.9224 18.2574 17.0321 18.837 17.1419 19.3262C17.2459 19.7957 17.3772 20.2588 17.535 20.7132C17.7205 21.2514 17.9435 21.776 18.2024 22.283C18.4101 22.6434 18.6391 22.9912 18.8881 23.3244C19.106 23.6441 19.3442 23.9495 19.6013 24.2386C19.8428 24.5135 20.1024 24.7719 20.3784 25.0121C20.6414 25.2399 20.9194 25.4497 21.2104 25.6402C22.3529 26.3596 23.6573 26.7815 25.0047 26.8672C25.3518 26.888 25.6999 26.888 26.047 26.8672C26.4066 26.8283 26.7638 26.7691 27.1167 26.6898C27.4962 26.6185 27.8716 26.5269 28.2413 26.4156C28.7934 26.2509 29.334 26.0499 29.8596 25.814C30.0926 25.7065 30.3526 25.6721 30.6055 25.7152C30.8584 25.7583 31.0924 25.8768 31.2767 26.0553C31.3533 26.1355 31.4106 26.2321 31.4444 26.3377C31.4781 26.4433 31.4874 26.5552 31.4716 26.665C31.4557 26.7747 31.4151 26.8794 31.3529 26.9711C31.2906 27.0629 31.2083 27.1393 31.1121 27.1945C30.4406 27.6616 29.7447 28.0929 29.0276 28.4864C28.5704 28.7415 28.1133 28.9756 27.6379 29.2178L26.9156 29.5241C26.4517 29.71 25.9763 29.8755 25.4893 30.0206C25.0291 30.1577 24.5598 30.272 24.0813 30.3634C23.6248 30.4515 23.164 30.515 22.7007 30.5536C22.2531 30.5787 21.8044 30.5787 21.3567 30.5536C20.7108 30.5311 20.0682 30.4503 19.4367 30.3122C18.8317 30.1791 18.2408 29.9884 17.6721 29.7426C17.0066 29.4552 16.3775 29.09 15.7979 28.6546C15.4788 28.4293 15.1735 28.185 14.8836 27.9232C14.5987 27.6522 14.33 27.3646 14.079 27.062C13.8347 26.7445 13.6089 26.4133 13.4024 26.07C13.1784 25.7289 12.9739 25.3754 12.7899 25.0112C12.5953 24.6389 12.4213 24.2561 12.2687 23.8647C12.1133 23.4487 11.967 23.0473 11.8481 22.6304C11.7293 22.2135 11.6104 21.7545 11.5281 21.3166C11.4459 20.8786 11.3819 20.5065 11.327 20.0969C11.3139 20.0705 11.2937 20.0483 11.2687 20.0328C11.2436 20.0172 11.2148 20.009 11.1853 20.009C11.1558 20.009 11.1269 20.0172 11.1019 20.0328C11.0769 20.0483 11.0567 20.0705 11.0436 20.0969" fill="currentColor"/>
<path d="M76.1293 4.03763C76.1471 4.68284 75.9781 5.31943 75.6426 5.87088C75.3072 6.42234 74.8197 6.86519 74.2386 7.1462C73.6732 7.4009 73.0414 7.46872 72.4349 7.33982C71.8284 7.21091 71.2787 6.892 70.8658 6.4294C70.4285 5.94246 70.135 5.34366 70.0179 4.69972C69.9009 4.05578 69.9649 3.39199 70.2029 2.78231C70.415 2.18851 70.8038 1.67387 71.317 1.30758C71.8302 0.941294 72.4433 0.740919 73.0738 0.733398C73.9206 0.763676 74.7207 1.12854 75.2988 1.74796C75.877 2.36738 76.1858 3.1908 76.1577 4.03763H76.1293ZM61.5117 13.0891C61.3943 13.7589 61.2417 14.422 61.0546 15.0758C60.8333 15.8629 60.5715 16.638 60.2701 17.3981C59.9489 18.1521 59.6003 18.8963 59.2242 19.6308C58.9201 20.2198 58.5752 20.7868 58.192 21.3277C57.9389 21.698 57.6355 22.0312 57.2905 22.3179C57.1915 22.4099 57.0668 22.4695 56.933 22.4888H56.8845C56.8498 22.4888 56.7401 22.3919 56.6852 21.9905C56.6446 21.5154 56.6701 21.0369 56.7611 20.5688C56.8827 19.8806 57.0436 19.1999 57.2429 18.53C57.4637 17.7454 57.7255 16.973 58.0274 16.2159C58.3239 15.4507 58.6671 14.7045 59.0551 13.9814C59.3665 13.3968 59.7184 12.8346 60.1083 12.2991C60.3637 11.9353 60.6669 11.6074 61.0098 11.3245C61.1088 11.2325 61.2335 11.1728 61.3673 11.1535H61.3746C61.3746 11.1535 61.5191 11.2577 61.5739 11.6518C61.6134 12.1194 61.5878 12.5901 61.498 13.0507L61.5117 13.0891ZM47.685 13.0507C47.5676 13.7205 47.415 14.3836 47.2279 15.0374C47.0124 15.8366 46.7551 16.624 46.4571 17.3963C46.1359 18.1502 45.7873 18.8945 45.4112 19.6289C45.1074 20.2181 44.7624 20.7851 44.3789 21.3259C44.1244 21.6861 43.821 22.0092 43.4775 22.2859C43.3785 22.3779 43.2537 22.4375 43.12 22.4568H43.0715C43.0715 22.4568 42.9197 22.3599 42.8722 21.9585C42.8296 21.4837 42.8526 21.0053 42.9408 20.5368C43.0562 19.8615 43.2088 19.193 43.3979 18.5345C43.6138 17.7474 43.8711 16.9723 44.1687 16.2123C44.4623 15.4485 44.8024 14.7035 45.1872 13.9814C45.4984 13.4099 45.8479 12.8601 46.2331 12.3357C46.4892 11.9724 46.7924 11.6447 47.1346 11.3611C47.2336 11.269 47.3583 11.2094 47.4921 11.1901H47.5405C47.5405 11.1901 47.6923 11.2943 47.7399 11.6884C47.7816 12.1556 47.7585 12.6263 47.6713 13.0872L47.685 13.0507ZM32.7227 13.0872C32.6492 13.7611 32.5344 14.4297 32.3789 15.0895C32.1958 15.8716 31.9647 16.6417 31.6868 17.3953C31.4162 18.1444 31.1114 18.8887 30.7725 19.628C30.5054 20.21 30.1923 20.7698 29.8363 21.3021C29.6078 21.6418 29.3347 21.9493 29.0244 22.2164C28.9333 22.3082 28.815 22.3682 28.6871 22.3873H28.6423C28.6075 22.3873 28.4905 22.2831 28.4292 21.8817C28.3743 21.4119 28.3743 20.9372 28.4292 20.4673C28.4905 19.8007 28.5986 19.1393 28.7529 18.4879C28.9347 17.7056 29.1646 16.9352 29.4413 16.1812C29.712 15.4272 30.0167 14.683 30.3556 13.9485C30.6275 13.3627 30.9426 12.7979 31.2983 12.2589C31.5288 11.8925 31.8116 11.5617 32.1376 11.2769C32.229 11.1855 32.3472 11.1256 32.4749 11.106H32.4676C32.5024 11.106 32.6331 11.2102 32.7081 11.6198C32.7735 12.089 32.7735 12.565 32.7081 13.0342L32.7227 13.0872ZM75.3778 17.3313C75.2994 17.2067 75.1909 17.1039 75.0623 17.0323C74.9336 16.9607 74.789 16.9227 74.6418 16.9217C74.5038 16.9233 74.3685 16.9596 74.2481 17.0271C74.1278 17.0947 74.0265 17.1915 73.9533 17.3085C73.7705 17.591 73.5474 17.9265 73.2649 18.306C72.9939 18.7242 72.6997 19.1268 72.3835 19.5119C72.093 19.8516 71.7812 20.1726 71.45 20.4728C71.2882 20.6508 71.0692 20.7666 70.8311 20.8001C70.7552 20.8001 70.6043 20.8001 70.5696 20.3832C70.5494 19.8166 70.611 19.25 70.7524 18.7009C70.9379 17.9196 71.1678 17.1494 71.4409 16.3942C71.9596 14.9057 72.5194 13.4447 73.1204 12.0111C73.3472 11.4625 73.4916 11.1032 73.5538 10.9469C73.6449 10.7357 73.6751 10.5032 73.641 10.2757C73.6069 10.0482 73.5099 9.83481 73.3609 9.65957C73.0675 9.29772 72.6676 9.03735 72.218 8.91534C71.7331 8.78862 71.2237 8.78862 70.7387 8.91534C70.4597 8.98547 70.1991 9.11486 69.9746 9.29472C69.7501 9.47457 69.567 9.70067 69.4377 9.95763C69.0412 10.6826 68.683 11.4279 68.3643 12.1903C67.9053 13.2917 67.4878 14.4129 67.1117 15.554C66.8713 16.2982 66.6546 17.0424 66.4233 17.7867C66.1017 19.0223 65.4189 20.1339 64.4621 20.9793C64.1374 21.2748 63.7974 21.5531 63.4436 21.8132C63.2833 21.9272 63.1181 22.0338 62.9481 22.1332C62.937 22.1394 62.924 22.1414 62.9115 22.1387C62.899 22.136 62.888 22.1288 62.8804 22.1185C62.8726 22.1078 62.8684 22.0948 62.8684 22.0815C62.8684 22.0682 62.8726 22.0553 62.8804 22.0445C63.1651 21.6428 63.4449 21.2088 63.7197 20.7425C64.3381 19.6626 64.8477 18.5239 65.2411 17.3432C65.6763 16.1403 65.9742 14.892 66.1289 13.6221C66.2497 12.6464 66.2055 11.6574 65.9981 10.6964C65.8517 9.9645 65.4931 9.29195 64.9668 8.76266C64.4711 8.28146 63.8062 8.0142 63.1154 8.01843C62.2794 8.01942 61.4643 8.27942 60.7821 8.76266C60.3143 9.08434 59.8767 9.4479 59.4747 9.84883H59.3897C59.2936 9.68946 59.173 9.54629 59.0322 9.4246C58.6855 9.11892 58.263 8.91207 57.8089 8.82569C57.3548 8.73932 56.8859 8.7766 56.4512 8.93363C56.2052 9.02412 55.9814 9.1659 55.7944 9.34954C55.6075 9.53318 55.4617 9.75449 55.3668 9.99877C54.867 11.1697 54.4084 12.3555 53.9908 13.5563C53.4081 15.0941 52.8873 16.6371 52.4283 18.1853C52.0547 19.3809 51.3366 20.4397 50.3639 21.2289C50.1161 21.4301 49.861 21.6312 49.5931 21.8095C49.4328 21.9235 49.2676 22.0302 49.0976 22.1295C49.0865 22.1358 49.0734 22.1377 49.061 22.1351C49.0485 22.1324 49.0375 22.1252 49.0299 22.1149C49.0221 22.1041 49.0179 22.0912 49.0179 22.0779C49.0179 22.0646 49.0221 22.0516 49.0299 22.0408C49.328 21.619 49.6077 21.1851 49.8692 20.7389C50.4895 19.6609 51.0012 18.5241 51.397 17.3451C51.8322 16.1421 52.13 14.8938 52.2848 13.6239C52.417 12.6502 52.3845 11.6612 52.1888 10.6982C52.0423 9.9659 51.6833 9.293 51.1565 8.76357C50.6608 8.28238 49.996 8.01511 49.3051 8.01934C48.4692 8.02076 47.6542 8.28072 46.9719 8.76357C46.5042 9.08548 46.0666 9.44901 45.6644 9.84974H45.5821C45.4861 9.69038 45.3654 9.5472 45.2247 9.42551C44.8832 9.12385 44.4676 8.91842 44.0205 8.83031C43.5609 8.74049 43.0855 8.7765 42.6445 8.93454C42.3963 9.02334 42.17 9.16426 41.9807 9.34783C41.7915 9.53139 41.6437 9.75335 41.5474 9.99877C41.0476 11.1697 40.5889 12.3555 40.1714 13.5563C39.7124 14.8363 39.2766 16.1263 38.864 17.4264C38.577 18.3739 38.0673 19.2389 37.3773 19.9489C37.1945 20.1318 37.0199 20.3064 36.8471 20.4628C36.6852 20.6407 36.4663 20.7565 36.2281 20.7901C36.1458 20.7901 36.0013 20.7901 35.9666 20.3732C35.9462 19.8065 36.0078 19.2399 36.1495 18.6909C36.3344 17.9094 36.5643 17.1392 36.8379 16.3841C37.1341 15.543 37.4295 14.7384 37.7257 13.9805C38.0219 13.2225 38.2898 12.5515 38.5175 12.0011C38.6686 11.6488 38.8109 11.294 38.9444 10.9368C39.0365 10.7258 39.0672 10.4931 39.0331 10.2654C38.999 10.0377 38.9014 9.82429 38.7515 9.64951C38.4527 9.28432 38.0454 9.02367 37.5885 8.90528C37.1036 8.77856 36.5942 8.77856 36.1092 8.90528C35.8332 8.97511 35.5752 9.10275 35.3521 9.27975C35.1291 9.45674 34.9462 9.67907 34.8155 9.93203L34.6162 10.2977C34.6129 10.3088 34.606 10.3186 34.5967 10.3255C34.5874 10.3324 34.5761 10.3361 34.5645 10.3361C34.553 10.3361 34.5417 10.3324 34.5324 10.3255C34.5231 10.3186 34.5162 10.3088 34.5129 10.2977C34.4548 10.0033 34.3576 9.71797 34.224 9.44928C34.0214 9.04395 33.7091 8.7037 33.3225 8.46734C32.8845 8.20591 32.3803 8.07668 31.8706 8.09523C31.0846 8.14144 30.3154 8.34206 29.607 8.68561C28.8985 9.02917 28.2647 9.50894 27.7417 10.0975C26.1481 11.8583 25.0135 13.9849 24.4384 16.2891C24.0681 17.4992 23.8372 18.7477 23.7499 20.0102C23.673 20.9801 23.7592 21.9561 24.005 22.8975C24.1926 23.6292 24.5842 24.2925 25.1341 24.8102C25.6433 25.2876 26.315 25.5537 27.013 25.5544C27.5324 25.5561 28.047 25.4548 28.5271 25.2564C28.9779 25.0646 29.4015 24.8144 29.7869 24.5121C30.0785 24.2902 30.3482 24.041 30.5924 23.7679C30.6302 23.7228 30.6799 23.6892 30.7358 23.671C30.7917 23.6527 30.8517 23.6505 30.9088 23.6646C30.967 23.6806 31.02 23.7116 31.0624 23.7547C31.1048 23.7977 31.1351 23.8511 31.1501 23.9096C31.2269 24.1724 31.3405 24.423 31.4875 24.6539C31.6672 24.9309 31.9176 25.155 32.2129 25.3028C32.5082 25.4507 32.8376 25.5171 33.1671 25.495C34.0904 25.4569 34.9731 25.1043 35.6685 24.4957C36.0656 24.1809 36.4455 23.8452 36.8068 23.49C36.8238 23.4734 36.846 23.4631 36.8696 23.461C36.8933 23.4588 36.917 23.4648 36.9367 23.4781C36.9571 23.4923 36.9728 23.5125 36.9816 23.5358C36.9904 23.5591 36.992 23.5846 36.986 23.6088C36.773 24.3531 36.5801 25.0973 36.4082 25.7373C36.1193 26.8463 35.9127 27.8136 35.706 28.5579C35.5718 29.0449 35.4819 29.5431 35.4372 30.0463C35.4185 30.6354 35.6133 31.2114 35.9858 31.6683C36.3112 32.0658 36.733 32.3733 37.2109 32.5615C37.49 32.6716 37.7869 32.7298 38.0868 32.7334C38.2374 32.7336 38.3874 32.7161 38.5339 32.6813C38.7618 32.6291 38.9677 32.5071 39.123 32.3325C39.2784 32.1578 39.3754 31.939 39.4007 31.7067C39.4491 31.3565 39.5387 30.8838 39.6749 30.3005C39.8112 29.7172 39.9776 29.0059 40.1705 28.2543C40.3634 27.5028 40.5764 26.6689 40.8589 25.7016C40.9809 25.2548 41.107 24.7861 41.2375 24.2955C41.2453 24.2754 41.259 24.2582 41.2768 24.246C41.2945 24.2339 41.3156 24.2274 41.3371 24.2274C41.3587 24.2274 41.3797 24.2339 41.3975 24.246C41.4153 24.2582 41.4289 24.2754 41.4368 24.2955C41.4968 24.4083 41.5634 24.5176 41.6361 24.6228C41.8629 24.9269 42.1628 25.1689 42.508 25.3263C42.8532 25.4838 43.2326 25.5515 43.6109 25.5233H44.1476C45.4105 25.5263 46.6608 25.2731 47.8231 24.7791C48.8591 24.3439 49.841 23.7894 50.7488 23.127C50.7673 23.1139 50.7895 23.1073 50.8122 23.1081C50.8348 23.1089 50.8565 23.1172 50.874 23.1316C50.8923 23.147 50.9057 23.1674 50.9127 23.1902C50.9196 23.2131 50.9199 23.2375 50.9133 23.2605C50.6793 24.084 50.4498 24.9068 50.2249 25.7291C49.9725 26.6769 49.7431 27.6268 49.5364 28.5789C49.4025 29.0678 49.3128 29.5678 49.2685 30.0728C49.2498 30.6619 49.4447 31.238 49.8171 31.6948C50.1463 32.0856 50.5704 32.3853 51.0487 32.5652C51.3249 32.6738 51.6186 32.7317 51.9154 32.7361C52.0693 32.7372 52.2228 32.7197 52.3725 32.684C52.5991 32.6305 52.8036 32.508 52.9577 32.3335C53.1118 32.1589 53.2079 31.9409 53.2329 31.7094C53.2813 31.3592 53.3709 30.8865 53.5072 30.3032C53.6434 29.7199 53.8098 29.0086 54.0027 28.2571C54.1956 27.5055 54.416 26.6717 54.6912 25.7044C54.8131 25.2576 54.9393 24.7889 55.0697 24.2982C55.0775 24.2781 55.0912 24.2609 55.109 24.2488C55.1268 24.2366 55.1478 24.2301 55.1693 24.2301C55.1909 24.2301 55.2119 24.2366 55.2297 24.2488C55.2475 24.2609 55.2612 24.2781 55.269 24.2982C55.3291 24.4111 55.3956 24.5204 55.4683 24.6255C55.6947 24.9301 55.9946 25.1724 56.3399 25.3299C56.6852 25.4874 57.0647 25.5549 57.4432 25.5261H57.9799C59.2427 25.5288 60.493 25.2757 61.6553 24.7819C62.8656 24.2754 64.0002 23.6044 65.0272 22.7878L65.5017 22.3855C65.5176 22.3714 65.5374 22.3625 65.5585 22.36C65.5796 22.3576 65.6009 22.3617 65.6196 22.3718C65.6391 22.3828 65.6551 22.3989 65.6659 22.4184C65.6767 22.438 65.6819 22.4601 65.6809 22.4824V22.6086C65.6474 23.3207 65.8167 24.0277 66.1691 24.6475C66.3488 24.9245 66.5992 25.1486 66.8945 25.2964C67.1898 25.4443 67.5192 25.5107 67.8487 25.4886C68.7582 25.4397 69.626 25.0916 70.3172 24.4984C71.1455 23.8374 71.8999 23.0888 72.5673 22.2657C73.2134 21.4912 73.8089 20.6758 74.3501 19.8246C74.7037 19.2687 75.0502 18.7055 75.3897 18.135C75.4597 18.014 75.4965 17.8766 75.4965 17.7368C75.4965 17.597 75.4597 17.4597 75.3897 17.3387" fill="currentColor"/>
</svg>
